<svg xmlns="http://www.w3.org/2000/svg" xmlns:xlink="http://www.w3.org/1999/xlink" viewBox="0 0 564.36 248.65"><defs><style>.cls-1{fill:none;}.cls-2{clip-path:url(#clip-path);}.cls-3{opacity:0.49;}.cls-4{clip-path:url(#clip-path-3);}.cls-5{fill:#ffcfcf;}.cls-6{fill:#c64646;}.cls-7{fill:#263238;}.cls-8{fill:#455a64;}.cls-9{fill:#fff;}.cls-10{fill:#27385f;}.cls-11{fill:#d09766;}.cls-12{fill:#f3d4be;}.cls-13{fill:#90b07a;}.cls-14{fill:#b3d09f;}.cls-15{fill:#39377d;}.cls-16{fill:#595b9a;}.cls-17{fill:#e2e5f0;}.cls-18{fill:#ced2e7;}.cls-19{fill:#bcc3da;}.cls-20{fill:#304886;}.cls-21{fill:#d2925e;}.cls-22{fill:#384987;}.cls-23{fill:#b41d45;}.cls-24{fill:#2e3b61;}.cls-25{fill:#c6915f;}.cls-26{fill:#536aa1;}.cls-27{fill:#465d9f;}.cls-28{fill:#b6cbf8;}.cls-29{opacity:0.2;}.cls-30{clip-path:url(#clip-path-4);}.cls-31{clip-path:url(#clip-path-5);}.cls-32{clip-path:url(#clip-path-6);}.cls-33{fill:#ca8024;}.cls-34{fill:#ecb74a;}.cls-35{fill:#e8a22c;}.cls-36{fill:#eaf2fd;}.cls-37{fill:#343852;}</style><clipPath id="clip-path" transform="translate(-8.48 -216.73)"><rect class="cls-1" width="600" height="600"/></clipPath><clipPath id="clip-path-3" transform="translate(-8.48 -216.73)"><rect class="cls-1" x="12.83" y="259.9" width="555.67" height="205.06"/></clipPath><clipPath id="clip-path-4" transform="translate(-8.48 -216.73)"><rect class="cls-1" x="375.3" y="392.02" width="38.86" height="1.78"/></clipPath><clipPath id="clip-path-5" transform="translate(-8.48 -216.73)"><rect class="cls-1" x="375.3" y="395.37" width="38.86" height="1.74"/></clipPath><clipPath id="clip-path-6" transform="translate(-8.48 -216.73)"><rect class="cls-1" x="375.29" y="398.46" width="38.86" height="1.85"/></clipPath></defs><title>Asset 7</title><g id="Layer_2" data-name="Layer 2"><g id="Layer_1-2" data-name="Layer 1"><g class="cls-2"><g class="cls-2"><g class="cls-3"><g class="cls-4"><path class="cls-5" d="M550.05,464.34s46.56-87.27-8.25-128.92c-30.58-23.24-72.34,18-103.35-44.35-18.05-36.3-81.2-47.32-112.78,2.24s-58.73,49.31-80.52,40.14c-25-10.52-36-42.16-75.09-35.47-45.2,7.74-39.15,54.62-72.47,46.46C33.35,328.69-14.25,418.65,30.16,465Z" transform="translate(-8.48 -216.73)"/></g></g><path class="cls-6" d="M257.25,462.17a.4.4,0,0,1-.15,0l-4.29-1.82a.39.39,0,0,1-.22-.29c0-.12-2.14-12.31,8.51-26.78,7.61-10.32,17.95-16.21,23.53-13.4a6.62,6.62,0,0,1,3.88,5.36,7.68,7.68,0,0,1-3.47,6.72c-.53.38-1.34.88-2.37,1.52-6.36,3.93-21.26,13.14-25,28.43a.37.37,0,0,1-.21.25.33.33,0,0,1-.17,0m-3.93-2.48,3.66,1.56c4-15.33,18.9-24.52,25.28-28.46,1-.63,1.82-1.13,2.32-1.49a6.91,6.91,0,0,0,3.15-6,5.78,5.78,0,0,0-3.44-4.73c-5.27-2.64-15.17,3.15-22.56,13.17-9.69,13.17-8.63,24.35-8.41,26" transform="translate(-8.48 -216.73)"/><path class="cls-6" d="M254.82,461.14h-.06a.38.38,0,0,1-.33-.43c2.43-18.16,17.61-33.7,26.59-36a.4.4,0,0,1,.48.28.41.41,0,0,1-.29.48c-8.87,2.28-23.71,18.13-26,35.35a.39.39,0,0,1-.38.34" transform="translate(-8.48 -216.73)"/><path class="cls-6" d="M253,460.35a.33.33,0,0,1-.17,0l-2.88-1.37a.38.38,0,0,1-.22-.29c0-.18-2.72-18.29,4.75-41,3.8-11.56,12.48-22.09,20.64-25a11.75,11.75,0,0,1,10.69.88,5.86,5.86,0,0,1,3,4.21c.58,4.6-5,10.47-10.9,16.68-4.13,4.34-8.4,8.84-10.68,13a.38.38,0,0,1-.52.16.39.39,0,0,1-.16-.53c2.32-4.28,6.63-8.81,10.79-13.2,5.78-6.07,11.23-11.81,10.7-16a5.06,5.06,0,0,0-2.66-3.65,11,11,0,0,0-10-.8c-8,2.86-16.43,13.18-20.16,24.54-7,21.24-5,38.39-4.75,40.43l2.69,1.28a.39.39,0,0,1,.19.52.39.39,0,0,1-.35.22" transform="translate(-8.48 -216.73)"/><path class="cls-6" d="M253.89,449.22h0a.39.39,0,0,1-.36-.42c2-28.35,21-48.4,26.22-51.55a.39.39,0,1,1,.41.67c-5.14,3.1-23.9,22.89-25.86,50.94a.39.39,0,0,1-.39.36" transform="translate(-8.48 -216.73)"/><path class="cls-7" d="M371.1,464.41h54.36a28.91,28.91,0,0,0,28.83-28.83V280.69a28.91,28.91,0,0,0-28.83-28.83H371.09a28.91,28.91,0,0,0-28.82,28.83V435.58a28.91,28.91,0,0,0,28.83,28.83" transform="translate(-8.48 -216.73)"/><path class="cls-8" d="M360.24,464.41H414.6a28.91,28.91,0,0,0,28.83-28.83V280.69a28.91,28.91,0,0,0-28.83-28.83H360.24a28.91,28.91,0,0,0-28.83,28.83V435.58a28.91,28.91,0,0,0,28.83,28.83" transform="translate(-8.48 -216.73)"/><path class="cls-7" d="M371,262.17h29.12a1.14,1.14,0,1,0,0-2.27H371a1.14,1.14,0,0,0,0,2.27" transform="translate(-8.48 -216.73)"/><path class="cls-7" d="M405.29,262.17h0a1.14,1.14,0,1,0-1.13-1.13,1.14,1.14,0,0,0,1.13,1.13" transform="translate(-8.48 -216.73)"/><path class="cls-7" d="M393.34,452.67A7.31,7.31,0,1,0,386,460a7.31,7.31,0,0,0,7.31-7.31" transform="translate(-8.48 -216.73)"/><rect class="cls-9" x="332.49" y="51.98" width="93.14" height="171.92"/><path class="cls-7" d="M155.92,273.87h90.15A5.15,5.15,0,0,1,251.2,279V459.27a5.15,5.15,0,0,1-5.13,5.14H155.92a5.16,5.16,0,0,1-5.14-5.14V279a5.16,5.16,0,0,1,5.14-5.14" transform="translate(-8.48 -216.73)"/><path class="cls-8" d="M165.66,273.87H255.8a5.15,5.15,0,0,1,5.14,5.14V459.27a5.15,5.15,0,0,1-5.14,5.14H165.66a5.15,5.15,0,0,1-5.14-5.14V279a5.15,5.15,0,0,1,5.14-5.14" transform="translate(-8.48 -216.73)"/><rect class="cls-9" x="155.63" y="72.37" width="93.02" height="154.4"/><path class="cls-7" d="M199.34,281.08h26.1a1,1,0,1,1,0,2h-26.1a1,1,0,1,1,0-2" transform="translate(-8.48 -216.73)"/><path class="cls-7" d="M194.7,281.08a1,1,0,1,1-1,1,1,1,0,0,1,1-1" transform="translate(-8.48 -216.73)"/><path class="cls-7" d="M210.62,450a5.2,5.2,0,1,1-5.2,5.2,5.2,5.2,0,0,1,5.2-5.2" transform="translate(-8.48 -216.73)"/><path class="cls-10" d="M56.14,464.29s-8.4.3-9.64,0c0-.24-1.6-10-1.6-10l-1.3-9.05A1.38,1.38,0,0,1,45.88,444a4.38,4.38,0,0,1,1.18,1.94c1.06,3.19,4.17,8.32,8.79,9.66,4.87,1.41.29,8.71.29,8.71" transform="translate(-8.48 -216.73)"/><path class="cls-11" d="M99.92,418.9l-.83.29A5.51,5.51,0,0,0,92.51,417s-1.76.74-.72,1.71.79.46,2.24,1.85,3.42,2.09,4.78,1.62l1.5-.53Z" transform="translate(-8.48 -216.73)"/><path class="cls-10" d="M137.15,449.52S106.34,426,97.58,425.72s-37.19,38.65-37.19,38.65H71s18.75-10,25.35-19.46a1.61,1.61,0,0,1,2.7.07c3.41,5.45,12.33,18.82,18.09,19.39,6.19.62,20-14.85,20-14.85" transform="translate(-8.48 -216.73)"/><path class="cls-12" d="M134.2,385.47s.19,1.54.44,3.45c.34,2.47.78,5.54,1.07,6.5l9.27,2.35.68-6.74a27.26,27.26,0,0,1-2.3-11.24Z" transform="translate(-8.48 -216.73)"/><path class="cls-13" d="M142.26,399.5l-13.17,16.13-4.61,5.64s-8.24,1.55-12.57,1.92c-3.13.27-13.1-1-13.1-1l.28-3a73.85,73.85,0,0,1,9.13-3.25c3-.63,10.58-2.34,10.58-2.34,2.87-1,13.76-15.12,13.76-15.12Z" transform="translate(-8.48 -216.73)"/><path class="cls-14" d="M150.85,457.11l-26.93-2.2s-.08-.54-.2-1.45a8,8,0,0,1-.07-.88c-.06-2.69,1-6.32,1.45-9.88a14.6,14.6,0,0,0-.38-6.69c-.83-2.33-1.21-6.73-1.38-10.92-.21-5.25-.09-10.15-.09-10.19a25,25,0,0,1,1.86-10.58c2.62-7,7.52-10.9,9.82-13.23,0,0,2.82.69,10.12-1.5.22-.07.85.85,1.12,1.39,0,0,3.17,4,4.47,13.76,1.16,8.73.21,52.37.21,52.37" transform="translate(-8.48 -216.73)"/><path class="cls-13" d="M144.11,408.74c-.05,1.23-10.89,35.73-9.56,38.27,6.43,12.31-9.77,6.76-10.65,3.59.3-2.35,1.54-12.58.82-14.59-.83-2.33-1.21-6.73-1.38-10.92a14.86,14.86,0,0,1,1.77-4.63c4-.63,19.41-21.21,19-11.72" transform="translate(-8.48 -216.73)"/><path class="cls-15" d="M90.25,415.47l3.34-2.29a.19.19,0,0,1,.09-.05h0l.63-.26,3.07,9.71-2.69,2.18-.48.21h0a.5.5,0,0,1-.61-.34l-3.48-8.53a.52.52,0,0,1,.14-.63" transform="translate(-8.48 -216.73)"/><path class="cls-16" d="M98.07,422l-3.19,2.67c-.22.19-.57.05-.71-.28l-3.48-8.52a.53.53,0,0,1,.14-.64l3.34-2.29a.48.48,0,0,1,.68.3l3.32,8.15a.53.53,0,0,1-.1.61" transform="translate(-8.48 -216.73)"/><polygon class="cls-17" points="89.07 204.23 85.93 206.86 82.77 199.12 86.06 196.86 89.07 204.23"/><path class="cls-15" d="M96.31,422.74a.31.31,0,0,1,.14-.37c.12-.05.25,0,.3.19a.31.31,0,0,1-.14.37c-.12.05-.25,0-.3-.19" transform="translate(-8.48 -216.73)"/><polygon class="cls-18" points="83.25 199.27 85.92 197.38 88.69 204.02 85.97 206.14 83.25 199.27"/><polygon class="cls-19" points="83.95 199.67 85.82 198.35 87.76 203 85.85 204.48 83.95 199.67"/><path class="cls-11" d="M99.53,423.6l-1.69-.05a4.12,4.12,0,0,0-5.56-1.84s-1.55.8-.69,1.71.65.42,1.83,1.72,2.84,1.9,4,1.37l1.32-.59Z" transform="translate(-8.48 -216.73)"/><path class="cls-14" d="M141.61,391.15s-6.61,2.79-10.05,8.76c-2.29,4-6.23,10.74-8.6,14.81a9,9,0,0,1-5.83,4.24l-8,1.77-11.27,2.82a2.34,2.34,0,0,0-.21,1.26,1.4,1.4,0,0,0,.82,1.33S109,428.67,112.72,429c9.23.7,13.6-.51,15-1a2.72,2.72,0,0,0,.82-.48c1.42-1.15,6.84-5.69,9.69-10s10.44-15.2,10.44-15.2Z" transform="translate(-8.48 -216.73)"/><path class="cls-20" d="M151,446.69s2.65,17.68-5.49,17.68H55.91a6.66,6.66,0,0,1-2.65-4.85c-.18-3.38.89-4.58.89-4.58s32.08-1.11,38.6-3.3C125.4,440.7,151,446.69,151,446.69" transform="translate(-8.48 -216.73)"/><path class="cls-21" d="M134.2,385.47s.19,1.54.44,3.45c8.57-2.5,8.72-9.13,8.72-9.13Z" transform="translate(-8.48 -216.73)"/><path class="cls-12" d="M132.85,386s10.41.31,10.5-6.18,1.5-10.81-5.14-11.28-8,2-8.53,4.14.47,13.07,3.17,13.32" transform="translate(-8.48 -216.73)"/><path class="cls-22" d="M143.54,382.33s-1.1-.18-.92-1.7.17-3.49-1.06-3.12-1.29,1.35-1.8.77-.51-3-4.18-3.17-5.15,1.11-6.86.36-1.79-3.33-1.79-3.33a3,3,0,0,0,1.21,1.22s-2.84-3.89.45-6.56,6.65-.92,8.56-.8c4.19.25,6.91.5,8.28,3.26s.8,10.42-1.89,13.07" transform="translate(-8.48 -216.73)"/><polygon class="cls-23" points="396.87 14.08 424.8 22.28 407.75 6.64 406.18 10.64 399.07 10.89 396.87 14.08"/><polygon class="cls-5" points="424.8 22.28 402.84 6.61 379.75 2.08 424.8 22.28"/><polygon class="cls-5" points="407.75 6.64 424.8 22.28 413.07 0 407.75 6.64"/><path class="cls-24" d="M483.55,273.23c1.84-1.13,4.79.22,4.79.22-1-1.43-4.74-1-4.74-1,7.4-1.57,8.95,3.16,9.08,3.6,5.36-4.84,14,5.48,14,5.48l-12.33,16.35s-1.13-2.6-2.62-1.79c-2.31,1.27-6.79-3.85-5.36-10.59a16.16,16.16,0,0,1,.55-2,4.06,4.06,0,0,1-1.54.38c-1.35,0-3.39-3.44-3.66-4.59s0-5,1.87-6.09" transform="translate(-8.48 -216.73)"/><path class="cls-12" d="M518.83,344.41c7.81-2.88,15.33-16.25,15.33-16.25l-2.46-1.72c-2.05,3-11.28,8.76-11.28,8.76-.21-2.53-.52-4.82-.9-6.9-2.56-14.13-8.42-18.32-10-19.21-.25-.14-.39-.2-.39-.2s0,.11,0,.31c0,.42.08,1.28.16,2.45.61,8.75,3,35.16,9.53,32.76" transform="translate(-8.48 -216.73)"/><path class="cls-12" d="M481.07,358.83c3.86-8.65,5.71-11.1,5.77-13.82.05-2.16-1-4.48-3.07-10.18a21.06,21.06,0,0,1-1-4.12c-1.63-11,4.72-22.85,8.67-23.66,1.1-.29,3-4.26,2.94-10.65l.49.09,8.31,1.65s-.19,2.62-.19,5.08c0,2,.12,4,.58,4.25l.95.09s6.94,9.62,7.52,18.57-5.55,12.85,0,30.74c5.72,18.27-33.11,6.75-31,2" transform="translate(-8.48 -216.73)"/><path class="cls-21" d="M503.15,298.14s-.19,2.62-.19,5.08c-4.65-.13-7.11-4.37-8.12-6.73Z" transform="translate(-8.48 -216.73)"/><path class="cls-24" d="M494,295.59a24.29,24.29,0,0,1-3-7.15c-.42-2.35.78-11.06,9.54-9.81a11.85,11.85,0,0,1,4.93,1.87c1.9,1.28,4.65,4.06,1.58,11.66l-.8,2.57Z" transform="translate(-8.48 -216.73)"/><path class="cls-12" d="M504.71,300.47s-11,.19-11-6.67-1.43-11.45,5.6-11.85,8.39,2.2,8.95,4.49-.67,13.81-3.53,14" transform="translate(-8.48 -216.73)"/><path class="cls-10" d="M490.82,441.89a109.4,109.4,0,0,0,6.93,19.46l3.63-.26a102.14,102.14,0,0,1-1.67-19.9,83.34,83.34,0,0,1,4.22-26.48c10.86-31,9.1-53.58,9.1-53.58l-20.42,2.38-.95.12c-.09,9.37-.33,22.11-.54,32.07-.19,8.95-.35,15.66-.35,15.66-3.93,8.45-2.5,20.39.05,30.53" transform="translate(-8.48 -216.73)"/><path class="cls-20" d="M479.1,440.13a50.18,50.18,0,0,0,6.34,20.63l1.74,1.26s1.64-8.83,2.8-19.33c1.11-10,2.62-20.55,4.34-23.77,6.81-12.79,8.86-61.07,8.86-61.07l-20.71-1c-2.08,3.5-3,9.25-3.2,15.78-.55,16.47,3.33,38,3.91,41.06h0a1.15,1.15,0,0,1-.14.7c-4.12,8.15-4.71,17.48-3.94,25.76" transform="translate(-8.48 -216.73)"/><path class="cls-24" d="M496.66,291C492,292.2,490,291,490,291a13.08,13.08,0,0,0,4.28-7.74s2-6.41,9.9-1.58c.72-.62,2-1.07,3.7,1,2.56,3.09.28,8.56.28,8.56-1,.12-1.29-3.47-1.84-5.22a8.7,8.7,0,0,0-2.4-3.2c-.22.82-2.44,8.5-8,11.05a25.81,25.81,0,0,0,4.41-5.39,7.8,7.8,0,0,1-3.74,2.58" transform="translate(-8.48 -216.73)"/><path class="cls-12" d="M464.94,370.5a7.66,7.66,0,0,0,1.94-2.77c2.56-6.38,5.51-18.73,6.48-21,.36-.82,1-4.73,1.93-9.77,1.6-9,3.88-21.7,6.17-26.72a3.87,3.87,0,0,1,2.08-1.55,37.59,37.59,0,0,1,8.42-1.84l-2.77,12-.81,3.52s-2.47,8.7-4.39,15.82c-.92,3.43-1.71,6.5-2,8-1,4.7-11.89,22.79-11.89,22.79h0s-.33.22-.71,1.32-3.47,6.93-4.79,6.93-1.6-2-1.88-3.24,1.22-2.87,2.26-3.53" transform="translate(-8.48 -216.73)"/><path class="cls-12" d="M531.7,326.44c0-.34-.28-5.26.59-6.29s2.66-2.5,3.22-2.46,2.76,3,2.1,5.2-3.45,5.27-3.45,5.27Z" transform="translate(-8.48 -216.73)"/><path class="cls-16" d="M527.69,320.42l5.09,1.53a.32.32,0,0,0,.4-.22l2.91-9.71a.32.32,0,0,0-.21-.4l-5.1-1.52a.32.32,0,0,0-.4.21L527.47,320a.32.32,0,0,0,.22.4" transform="translate(-8.48 -216.73)"/><path class="cls-15" d="M529,320.82l4.62,1.38a.57.57,0,0,0,.71-.38l2.77-9.24a.56.56,0,0,0-.38-.7l-4.62-1.39a.57.57,0,0,0-.71.38l-2.77,9.24a.57.57,0,0,0,.38.71" transform="translate(-8.48 -216.73)"/><path class="cls-12" d="M479.1,440.13a50.18,50.18,0,0,0,6.34,20.63l1.77,1.61s1.61-9.18,2.77-19.68c-1.22.09-6.62.29-10.88-2.56" transform="translate(-8.48 -216.73)"/><path class="cls-16" d="M484,338.57a13.24,13.24,0,0,1-9.69-1.42c1.86-9.1,4.51-21.86,7.17-26.91a1.91,1.91,0,0,1,.65-.69l0,0c2.49-1.81,7.58-2.37,7.58-2.37s1.57,7,2.56,7.86,15.36,2.4,15.69.75-3.74-7.71-4-8.25a4.87,4.87,0,0,1,.65.05c1.64.21,2.8.38,3.63.52a6.17,6.17,0,0,1,2.72,1.08c1.94,1.47,6.48,6,8.26,16.81a11.89,11.89,0,0,1-5.41,4l-.25.06c.55,9.19,3.93,24.48,2.71,33.32-1.17,8.5-19.06,6.33-22.6,5.54-2.43-.54-4.31-3.11-5.66-7.68-.44,3.2-1.44,6.94-3.67,7.18-3.66.37-5.17-.26-5.62-1.64a5,5,0,0,1-.12-1.66c.23-4.77,3.87-16,5.47-26.51" transform="translate(-8.48 -216.73)"/><path class="cls-25" d="M490.82,441.89a109.4,109.4,0,0,0,6.93,19.46l3.63-.26a102.14,102.14,0,0,1-1.67-19.9c-1.24.62-3.78,1.25-8.89.7" transform="translate(-8.48 -216.73)"/><path class="cls-24" d="M495.66,464.39H498c.78-.12,1.35-.35,2.15-.45a2.15,2.15,0,0,1,1.87.45s0,0,0,0h9.85c.24-.35,0-1.17-.23-1.77a1.42,1.42,0,0,0-.92-.85,10.61,10.61,0,0,1-5-2.27c-1.06-1-5.12-3.53-5.12-3.53h0c-.09,0-.52.13-2.37,1.69-1,.81-2.58-1.14-2.58-1.14a2.48,2.48,0,0,0-.53.73,2.43,2.43,0,0,0-.21,1.51,9.72,9.72,0,0,1-.71,3.65c-.23.67-.42,1.15-.42,1.15s-.11.56,1.88.81" transform="translate(-8.48 -216.73)"/><path class="cls-26" d="M495.12,457.27a7.27,7.27,0,0,0,2.5,1.26c1,.13,3-2.53,3-2.53h0c-.09,0-.52.13-2.37,1.69-1,.81-2.58-1.14-2.58-1.14a2.48,2.48,0,0,0-.53.73" transform="translate(-8.48 -216.73)"/><path class="cls-26" d="M495.66,464.39H498c.78-.12,1.35-.35,2.15-.45a2.15,2.15,0,0,1,1.87.45s0,0,0,0h9.85c.24-.35,0-1.17-.23-1.77-.3-.27-.38,1.15-.55,1.38s-8,.08-8.48-.25a4.74,4.74,0,0,0-3.72-.45c-1.65.39-4.08-.62-4.69-.89-.23.67-.42,1.15-.42,1.15s-.11.56,1.88.81" transform="translate(-8.48 -216.73)"/><path class="cls-24" d="M483.3,464.39h2.32c.77-.12,1.34-.35,2.14-.45a2.17,2.17,0,0,1,1.88.45l0,0h9.84c.25-.35,0-1.17-.22-1.77a1.44,1.44,0,0,0-.92-.85,10.63,10.63,0,0,1-5-2.27c-1.06-1-5.12-3.53-5.12-3.53h0c-.09,0-.51.13-2.36,1.69-.95.81-2.58-1.14-2.58-1.14a2.3,2.3,0,0,0-.53.73,2.43,2.43,0,0,0-.22,1.51,9.7,9.7,0,0,1-.7,3.65c-.23.67-.42,1.15-.42,1.15s-.11.56,1.88.81" transform="translate(-8.48 -216.73)"/><path class="cls-26" d="M482.76,457.27a7.31,7.31,0,0,0,2.49,1.26c1.05.13,3-2.53,3-2.53h0c-.09,0-.51.13-2.36,1.69-.95.81-2.58-1.14-2.58-1.14a2.3,2.3,0,0,0-.53.73" transform="translate(-8.48 -216.73)"/><path class="cls-26" d="M483.3,464.39h2.32c.77-.12,1.34-.35,2.14-.45a2.17,2.17,0,0,1,1.88.45l0,0h9.84c.25-.35,0-1.17-.22-1.77-.3-.27-.39,1.15-.55,1.38s-8,.08-8.48-.25a4.75,4.75,0,0,0-3.72-.45c-1.65.39-4.09-.62-4.69-.89-.23.67-.42,1.15-.42,1.15s-.11.56,1.88.81" transform="translate(-8.48 -216.73)"/><path class="cls-15" d="M478.48,365.08c2.45-.82,5.6-3,9.39-7.89,10-13,.85-28.18-.38-28.47s-3.54,9.85-3.54,9.85c-1.6,10.48-5.24,21.74-5.47,26.51" transform="translate(-8.48 -216.73)"/><path class="cls-12" d="M536,318s-1.6-1.46-2.92-.08.5,3.85,1.82,4.44a10.08,10.08,0,0,1,1.77.91Z" transform="translate(-8.48 -216.73)"/><path class="cls-8" d="M418.87,402.59l0-32.18a2,2,0,0,0-2-2l-58.63,0a2,2,0,0,0-2,2v32.18a2,2,0,0,0,2,2l58.64,0a2,2,0,0,0,2-2" transform="translate(-8.48 -216.73)"/><rect class="cls-27" x="347.72" y="157.03" width="62.68" height="7.17"/><rect class="cls-28" x="352.43" y="166.2" width="38.35" height="5.64"/><path class="cls-28" d="M368.73,398.69v-4.11a1.54,1.54,0,0,0-1.53-1.53h-4.77a1.54,1.54,0,0,0-1.53,1.53v4.11a1.53,1.53,0,0,0,1.53,1.53h4.76a1.52,1.52,0,0,0,1.53-1.53" transform="translate(-8.48 -216.73)"/><g class="cls-29"><g class="cls-30"><path class="cls-28" d="M375.89,393.78l37.67,0a.6.6,0,0,0,.6-.6v-.57a.6.6,0,0,0-.59-.6H375.89a.58.58,0,0,0-.59.59v.58a.59.59,0,0,0,.59.59" transform="translate(-8.48 -216.73)"/></g></g><g class="cls-29"><g class="cls-31"><path class="cls-28" d="M375.88,397.09l37.69,0a.58.58,0,0,0,.58-.59V396a.6.6,0,0,0-.59-.59H375.88a.6.6,0,0,0-.59.58v.55a.58.58,0,0,0,.58.59" transform="translate(-8.48 -216.73)"/></g></g><g class="cls-29"><g class="cls-32"><path class="cls-28" d="M414.15,399.71v-.63a.6.6,0,0,0-.6-.6l-37.65,0a.61.61,0,0,0-.61.61v.62a.61.61,0,0,0,.61.61h37.65a.6.6,0,0,0,.6-.6" transform="translate(-8.48 -216.73)"/></g></g><path class="cls-7" d="M223,381.5H198.27a18.07,18.07,0,0,1-18.07-18.07v-4.25a18.07,18.07,0,0,1,18.07-18.07H223a18.07,18.07,0,0,1,18.07,18.07v4.25A18.08,18.08,0,0,1,223,381.5" transform="translate(-8.48 -216.73)"/><rect class="cls-13" x="174.3" y="112.65" width="49.02" height="25.03"/><rect class="cls-13" x="174.04" y="112.27" width="49.02" height="25.03"/><rect class="cls-13" x="173.7" y="111.95" width="49.02" height="25.03"/><rect class="cls-14" x="173.36" y="111.64" width="49.02" height="25.03"/><path class="cls-13" d="M183.76,351.53h45.18V330.25H183.76Zm43.47-1.65H185.47v-18h41.76Z" transform="translate(-8.48 -216.73)"/><path class="cls-13" d="M183.76,330.25v4.84a3.93,3.93,0,0,0,5-3.79,4.1,4.1,0,0,0-.15-1.05Z" transform="translate(-8.48 -216.73)"/><path class="cls-13" d="M228.94,330.23H224.1a4,4,0,0,0,3.79,5,4,4,0,0,0,1.05-.15Z" transform="translate(-8.48 -216.73)"/><path class="cls-13" d="M228.94,351.53H224.1a4,4,0,0,1-.15-1.1,3.94,3.94,0,0,1,3.94-3.94,3.6,3.6,0,0,1,1.05.15Z" transform="translate(-8.48 -216.73)"/><path class="cls-13" d="M183.76,351.51v-4.84a3.93,3.93,0,0,1,5,3.79,4.1,4.1,0,0,1-.15,1.05Z" transform="translate(-8.48 -216.73)"/><path class="cls-13" d="M211.65,340.89a5.3,5.3,0,1,1-5.3-5.3,5.3,5.3,0,0,1,5.3,5.3" transform="translate(-8.48 -216.73)"/><path class="cls-33" d="M223.93,333.66a10.07,10.07,0,1,0,11.25,8.75,10.07,10.07,0,0,0-11.25-8.75" transform="translate(-8.48 -216.73)"/><path class="cls-34" d="M223.06,333.77a10.07,10.07,0,1,0,11.25,8.75,10.06,10.06,0,0,0-11.25-8.75" transform="translate(-8.48 -216.73)"/><path class="cls-35" d="M225.46,353a9.18,9.18,0,1,1,8-10.24,9.19,9.19,0,0,1-8,10.24m-2.2-17.67a8.63,8.63,0,1,0,9.63,7.49,8.64,8.64,0,0,0-9.63-7.49" transform="translate(-8.48 -216.73)"/><path class="cls-35" d="M225.91,346.37a1.47,1.47,0,0,0-.09-.53,1.2,1.2,0,0,0-.28-.41,2.46,2.46,0,0,0-.49-.34,7,7,0,0,0-.74-.3,13.06,13.06,0,0,1-1.37-.54,4.78,4.78,0,0,1-1.06-.66,2.64,2.64,0,0,1-.68-.88,2.73,2.73,0,0,1-.25-1.2,2.8,2.8,0,0,1,.21-1.1,2.45,2.45,0,0,1,.61-.88,3.14,3.14,0,0,1,.95-.6,4.26,4.26,0,0,1,1.24-.31V337.1h1.23v1.55a3.67,3.67,0,0,1,1.19.34,2.91,2.91,0,0,1,1.51,1.67,4.18,4.18,0,0,1,.21,1.28h-2.22a1.8,1.8,0,0,0-.39-1.27,1.29,1.29,0,0,0-1-.42,1.79,1.79,0,0,0-.6.1,1.17,1.17,0,0,0-.41.27,1.09,1.09,0,0,0-.23.39,1.57,1.57,0,0,0-.07.49,1.21,1.21,0,0,0,.08.48,1.07,1.07,0,0,0,.26.39,2.18,2.18,0,0,0,.5.34,6.1,6.1,0,0,0,.78.33c.49.18.94.37,1.35.56a4.2,4.2,0,0,1,1.05.67,2.81,2.81,0,0,1,.69.88,2.72,2.72,0,0,1,.24,1.19,2.56,2.56,0,0,1-.21,1.13,2.5,2.5,0,0,1-.61.86,2.88,2.88,0,0,1-1,.59,4.67,4.67,0,0,1-1.25.3v1.41h-1.22v-1.41a5.2,5.2,0,0,1-1.23-.27,3.19,3.19,0,0,1-1.06-.61,3,3,0,0,1-.74-1,3.59,3.59,0,0,1-.28-1.46l2.21,0a2.12,2.12,0,0,0,.15.85,1.32,1.32,0,0,0,.38.53,1.42,1.42,0,0,0,.54.29,2.62,2.62,0,0,0,.62.07,2,2,0,0,0,.63-.09,1.46,1.46,0,0,0,.46-.26,1.05,1.05,0,0,0,.27-.39,1.3,1.3,0,0,0,.09-.49" transform="translate(-8.48 -216.73)"/><path class="cls-8" d="M219,384.66H198.27a18.07,18.07,0,0,1-18.07-18.07v-4.25a18.07,18.07,0,0,1,18.07-18.07H219a18.07,18.07,0,0,1,18.07,18.07v4.25A18.07,18.07,0,0,1,219,384.66" transform="translate(-8.48 -216.73)"/><path class="cls-7" d="M238.76,370H221.11a5.52,5.52,0,1,1,0-11h17.65Z" transform="translate(-8.48 -216.73)"/><path class="cls-36" d="M225.44,364.47a4.33,4.33,0,1,1-4.33-4.33,4.33,4.33,0,0,1,4.33,4.33" transform="translate(-8.48 -216.73)"/><path class="cls-5" d="M399.47,314.82A13.44,13.44,0,1,1,386,301.38a13.44,13.44,0,0,1,13.44,13.44" transform="translate(-8.48 -216.73)"/><path class="cls-9" d="M378.21,315.74l4.38,4.39a1.29,1.29,0,0,0,.91.37h.64a1.26,1.26,0,0,0,.9-.37l8.82-8.82a1.28,1.28,0,0,0-.91-2.18h-.41a1.27,1.27,0,0,0-.89.36l-7.23,7.06a1.28,1.28,0,0,1-1.8,0l-2.6-2.61a1.28,1.28,0,0,0-1.81,1.81" transform="translate(-8.48 -216.73)"/><path class="cls-23" d="M131.57,319.84l-1.12.14a.78.78,0,0,1-.19-1.54h0l2-.26h0a.78.78,0,0,1,.2,1.54l-.94.12m3-.41a.77.77,0,0,1-.21-1.53l2-.31a.77.77,0,0,1,.24,1.53l-2.06.31h0m-6.15.78h0l-2.06.21a.78.78,0,0,1-.85-.7.8.8,0,0,1,.71-.85c.66-.05,1.35-.12,2-.2a.78.78,0,0,1,.85.69.76.76,0,0,1-.67.85m10.24-1.41a.77.77,0,0,1-.22-1.53l2-.34a.76.76,0,0,1,.89.63.78.78,0,0,1-.63.9l-2,.34h0m-14.36,1.78h0c-.71.05-1.41.1-2.08.13a.78.78,0,1,1-.07-1.55l2-.12a.77.77,0,0,1,.15,1.54m18.44-2.48a.76.76,0,0,1-.86-.63.77.77,0,0,1,.62-.9l2-.37a.77.77,0,0,1,.9.62.78.78,0,0,1-.62.91l-2,.37h0m-22.56,2.67H118a.78.78,0,1,1,0-1.55c.65,0,1.33,0,2,0a.78.78,0,0,1,.11,1.55m26.62-3.42a.77.77,0,0,1-.24-1.53l2-.39a.76.76,0,0,1,.91.61.77.77,0,0,1-.61.91l-2,.39h-.05m4.06-.8a.78.78,0,0,1-.25-1.53l2-.41a.77.77,0,1,1,.31,1.51l-2,.42h-.06m4-.84a.78.78,0,0,1-.26-1.53l2-.43a.77.77,0,1,1,.33,1.51l-2,.44h-.06m-38.86,5h-.16c-.75-.05-1.46-.13-2.11-.23a.77.77,0,1,1,.23-1.53c.61.09,1.29.16,2,.21a.79.79,0,0,1,.71.84.78.78,0,0,1-.67.71m42.9-5.84a.79.79,0,0,1-.86-.6.78.78,0,0,1,.59-.92l2-.45a.77.77,0,1,1,.34,1.51l-2,.45h-.07m4-.9a.78.78,0,0,1-.85-.6.79.79,0,0,1,.58-.93l2-.46a.78.78,0,0,1,.93.58.79.79,0,0,1-.58.93l-2,.46-.08,0m4-.94a.77.77,0,0,1-.27-1.52l2-.48a.78.78,0,0,1,.36,1.51l-2,.48H167m-55,7a.77.77,0,0,1-.3,0,10,10,0,0,1-2.08-.79.77.77,0,1,1,.72-1.37,8.75,8.75,0,0,0,1.77.67A.78.78,0,0,1,112,320M171,312a.77.77,0,0,1-.28-1.52l2-.48a.77.77,0,1,1,.37,1.5l-2,.49H171m4-1a.77.77,0,0,1-.85-.58.78.78,0,0,1,.57-.94l2-.49a.76.76,0,0,1,.94.56.78.78,0,0,1-.56.94l-2,.5H175m4-1a.77.77,0,0,1-.85-.58.78.78,0,0,1,.57-.94l2-.5a.77.77,0,0,1,.94.56.78.78,0,0,1-.56.94l-2,.51H179m4-1a.77.77,0,0,1-.29-1.51l2-.52a.77.77,0,0,1,.39,1.5l-2,.52h-.09m4-1a.78.78,0,0,1-.3-1.52l2-.52a.77.77,0,0,1,.39,1.5l-2,.52-.09,0m-78.6,10a.75.75,0,0,1-.72-.31l-.13-.19a10,10,0,0,1-.93-1.8.77.77,0,1,1,1.44-.57,8.92,8.92,0,0,0,.79,1.53l.08.12a.78.78,0,0,1-.17,1.08.8.8,0,0,1-.36.14M191,307a.78.78,0,0,1-.3-1.52l2-.53a.78.78,0,1,1,.4,1.5l-2,.53-.1,0m4-1.07a.78.78,0,0,1-.3-1.52l2-.54a.78.78,0,0,1,.95.55.77.77,0,0,1-.54.95l-2,.54-.1,0m4-1.08a.78.78,0,0,1-.85-.57.77.77,0,0,1,.55-1l2-.54a.77.77,0,0,1,.41,1.49l-2,.55-.11,0m4-1.1a.77.77,0,0,1-.31-1.51l2-.55a.77.77,0,1,1,.42,1.49l-2,.55-.1,0m4-1.1a.77.77,0,0,1-.84-.56.78.78,0,0,1,.53-1l2-.55a.78.78,0,0,1,1,.53.79.79,0,0,1-.54,1l-2,.56-.11,0m4-1.12a.77.77,0,0,1-.31-1.51l2-.57a.79.79,0,0,1,1,.54.77.77,0,0,1-.54.95l-2,.57-.11,0m4-1.13a.76.76,0,0,1-.84-.55.77.77,0,0,1,.53-1l2-.57a.77.77,0,0,1,.95.53.78.78,0,0,1-.53,1l-2,.57-.11,0M107,314.17h0a.76.76,0,0,1-.84-.7,7.23,7.23,0,0,1,.15-2.27.78.78,0,0,1,1.51.35,5.92,5.92,0,0,0-.12,1.78.77.77,0,0,1-.67.84m111.94-15a.77.77,0,0,1-.31-1.51l2-.57a.77.77,0,0,1,1,.53.78.78,0,0,1-.53,1l-2,.57-.12,0m4-1.15a.77.77,0,0,1-.31-1.51l2-.58a.78.78,0,0,1,.43,1.49l-2,.58-.12,0m4-1.16a.77.77,0,0,1-.31-1.51l2-.58a.77.77,0,0,1,1,.52.79.79,0,0,1-.52,1l-2,.58-.12,0m4-1.16a.78.78,0,0,1-.32-1.52l2-.58a.77.77,0,0,1,.44,1.48l-2,.59-.12,0m4-1.18a.77.77,0,0,1-.32-1.51l2-.59a.76.76,0,0,1,1,.52.77.77,0,0,1-.52,1l-2,.59-.12,0M107.87,310.24a.78.78,0,0,1-.78-1.14,11.92,11.92,0,0,1,1.26-1.82.77.77,0,0,1,1.09-.09.77.77,0,0,1,.09,1.09,10.44,10.44,0,0,0-1.08,1.56.75.75,0,0,1-.58.4m130.91-16.87a.77.77,0,0,1-.84-.54.78.78,0,0,1,.52-1l2-.59a.76.76,0,0,1,1,.52.78.78,0,0,1-.52,1l-2,.6-.12,0m4-1.19a.77.77,0,0,1-.84-.55.76.76,0,0,1,.51-1l2-.6a.77.77,0,1,1,.45,1.48l-2,.6a.53.53,0,0,1-.12,0m3.95-1.2a.79.79,0,0,1-.84-.55.77.77,0,0,1,.52-1l2-.61a.78.78,0,0,1,1,.52.76.76,0,0,1-.51,1l-2,.61-.13,0m4-1.21a.78.78,0,0,1-.84-.55.76.76,0,0,1,.51-1l2-.61a.77.77,0,0,1,1,.51.79.79,0,0,1-.51,1l-2,.61-.13,0m-140.17,17.3a.78.78,0,0,1-.68-.25.77.77,0,0,1,.06-1.09,20,20,0,0,1,1.67-1.35.77.77,0,1,1,.91,1.25,18.53,18.53,0,0,0-1.54,1.25.77.77,0,0,1-.42.19M254.6,288.55a.79.79,0,0,1-.84-.54.78.78,0,0,1,.51-1l2-.61a.77.77,0,0,1,.46,1.48l-2,.61-.13,0m4-1.23a.78.78,0,0,1-.84-.54.79.79,0,0,1,.51-1l2-.62a.78.78,0,0,1,1,.51.77.77,0,0,1-.51,1l-2,.62-.13,0m3.95-1.24a.78.78,0,0,1-.84-.53.77.77,0,0,1,.51-1l2-.62a.77.77,0,1,1,.47,1.47l-2,.62a.31.31,0,0,1-.13,0M113.79,304.61a.77.77,0,0,1-.51-1.42c.57-.36,1.19-.72,1.82-1.08a.79.79,0,0,1,1.06.31.78.78,0,0,1-.31,1.05c-.61.34-1.2.68-1.74,1a.76.76,0,0,1-.32.11m152.66-19.77a.78.78,0,0,1-.33-1.51l2-.62a.77.77,0,1,1,.47,1.47l-2,.63-.13,0m3.94-1.25a.78.78,0,0,1-.33-1.51l2-.63a.78.78,0,0,1,1,.5.79.79,0,0,1-.5,1l-2,.63-.14,0m-153,19a.77.77,0,0,1-.44-1.46c.6-.3,1.24-.6,1.9-.89a.76.76,0,0,1,1,.38.78.78,0,0,1-.39,1c-.63.28-1.26.58-1.84.87a.78.78,0,0,1-.25.07m156.93-20.28a.77.77,0,0,1-.33-1.5l2-.64a.77.77,0,0,1,1,.5.78.78,0,0,1-.49,1l-2,.63a.35.35,0,0,1-.14,0m4-1.27a.78.78,0,0,1-.34-1.51l1.87-.61a.78.78,0,0,1,1,.49.77.77,0,0,1-.49,1l-1.88.61-.14,0M121.18,300.9a.77.77,0,0,1-.39-1.48l1.94-.78a.78.78,0,0,1,1,.45.76.76,0,0,1-.44,1c-.65.25-1.3.5-1.91.76l-.2,0m3.87-1.48a.79.79,0,0,1-.83-.51.78.78,0,0,1,.47-1c.64-.23,1.31-.46,2-.68a.77.77,0,0,1,1,.49.78.78,0,0,1-.49,1l-2,.67-.16,0m3.93-1.31a.79.79,0,0,1-.84-.54.77.77,0,0,1,.51-1l2-.61a.79.79,0,0,1,1,.53.78.78,0,0,1-.53,1c-.66.19-1.33.4-2,.6l-.13,0m4-1.18a.77.77,0,0,1-.3-1.51l2-.55a.77.77,0,0,1,.39,1.5l-2,.54-.11,0m4-1.06a.76.76,0,0,1-.85-.58.78.78,0,0,1,.56-.94l2-.49a.78.78,0,1,1,.36,1.51l-2,.49H137m4-.95a.78.78,0,0,1-.27-1.53l2-.44a.78.78,0,0,1,.92.6.76.76,0,0,1-.6.91l-2,.44-.07,0m4.06-.86a.77.77,0,0,1-.24-1.53c1.29-.25,2-.38,2.07-.38a.77.77,0,1,1,.26,1.52s-.76.13-2,.38h0" transform="translate(-8.48 -216.73)"/><polygon class="cls-23" points="280.7 74.74 307.7 54.52 281.35 59.48 283.97 63.71 279.26 70.49 280.7 74.74"/><polygon class="cls-5" points="307.7 54.52 277.91 64.01 257.67 82.29 307.7 54.52"/><polygon class="cls-5" points="281.35 59.48 307.7 54.52 278.88 49.93 281.35 59.48"/><path class="cls-23" d="M238.29,427H183a8.23,8.23,0,0,1-8.23-8.23v-1.17a8.23,8.23,0,0,1,8.23-8.23h55.33a8.23,8.23,0,0,1,8.23,8.23v1.17a8.23,8.23,0,0,1-8.23,8.23" transform="translate(-8.48 -216.73)"/><path class="cls-9" d="M187.31,414.16a.27.27,0,0,1,.22.1.29.29,0,0,1,.09.21v.81a.31.31,0,0,1-.09.22.29.29,0,0,1-.22.09h-2v6.23a.31.31,0,0,1-.31.31H184a.29.29,0,0,1-.22-.09.31.31,0,0,1-.09-.22v-6.23h-2a.29.29,0,0,1-.21-.09.31.31,0,0,1-.09-.22v-.81a.29.29,0,0,1,.09-.21.26.26,0,0,1,.21-.1Z" transform="translate(-8.48 -216.73)"/><path class="cls-9" d="M192,414.16a3.14,3.14,0,0,1,2.16.66,2.31,2.31,0,0,1,.74,1.84,2.48,2.48,0,0,1-.38,1.41,2.21,2.21,0,0,1-1.12.87l1.57,2.81a.24.24,0,0,1,0,.13.25.25,0,0,1-.08.18.28.28,0,0,1-.17.07h-1a.5.5,0,0,1-.34-.11.8.8,0,0,1-.15-.2l-1.49-2.65H190.3v2.65a.31.31,0,0,1-.09.22.33.33,0,0,1-.22.09h-.92a.29.29,0,0,1-.22-.09.31.31,0,0,1-.09-.22v-7.35a.29.29,0,0,1,.09-.21.27.27,0,0,1,.22-.1Zm-1.7,3.59H192a2,2,0,0,0,1-.23.91.91,0,0,0,.39-.86.9.9,0,0,0-.39-.86,2.16,2.16,0,0,0-1-.21H190.3Z" transform="translate(-8.48 -216.73)"/><path class="cls-9" d="M200.13,414.16a.37.37,0,0,1,.27.1,1,1,0,0,1,.16.29l2.79,7.19s0,.05,0,.08a.31.31,0,0,1-.31.31h-.82a.41.41,0,0,1-.32-.1.5.5,0,0,1-.12-.19l-.49-1.26h-3.6l-.49,1.26a.5.5,0,0,1-.12.19.41.41,0,0,1-.32.1H196a.33.33,0,0,1-.22-.09.31.31,0,0,1-.09-.22s0-.06,0-.08l2.79-7.19a1,1,0,0,1,.16-.29.38.38,0,0,1,.28-.1Zm.62,5-1.25-3.24-1.25,3.24Z" transform="translate(-8.48 -216.73)"/><path class="cls-9" d="M209.56,422.13a.4.4,0,0,1-.3-.1l-.14-.16-3.19-4.74v4.69a.31.31,0,0,1-.31.31h-.92a.31.31,0,0,1-.31-.31v-7.35a.29.29,0,0,1,.09-.21.28.28,0,0,1,.22-.1h.8a.38.38,0,0,1,.29.11,1,1,0,0,1,.15.16l3.19,4.73v-4.69a.29.29,0,0,1,.09-.21.26.26,0,0,1,.21-.1h.93a.26.26,0,0,1,.21.1.29.29,0,0,1,.09.21v7.35a.31.31,0,0,1-.09.22.29.29,0,0,1-.21.09Z" transform="translate(-8.48 -216.73)"/><path class="cls-9" d="M215.17,414.05a3.93,3.93,0,0,1,1.34.21,3.06,3.06,0,0,1,1,.51,2.12,2.12,0,0,1,.58.67,1.74,1.74,0,0,1,.23.7.27.27,0,0,1-.09.23.35.35,0,0,1-.22.08h-.8a.48.48,0,0,1-.29-.07.85.85,0,0,1-.17-.2,1.56,1.56,0,0,0-.52-.5,2,2,0,0,0-1-.21,2,2,0,0,0-.56.07,1.54,1.54,0,0,0-.47.18.87.87,0,0,0-.31.29.64.64,0,0,0-.12.38.78.78,0,0,0,.11.43.84.84,0,0,0,.36.29,4.19,4.19,0,0,0,.68.22l1,.24a7,7,0,0,1,1.18.34,3,3,0,0,1,.8.48,1.8,1.8,0,0,1,.47.64,2.19,2.19,0,0,1,.15.83,2.08,2.08,0,0,1-.22,1,2.32,2.32,0,0,1-.65.75,3.46,3.46,0,0,1-1,.49,5.17,5.17,0,0,1-2.59,0,3.56,3.56,0,0,1-1-.44,2.53,2.53,0,0,1-.72-.7A1.77,1.77,0,0,1,212,420a.26.26,0,0,1,.08-.23.38.38,0,0,1,.23-.08h.79a.51.51,0,0,1,.3.07.49.49,0,0,1,.17.2,2.49,2.49,0,0,0,.19.3,1.16,1.16,0,0,0,.31.26,2.18,2.18,0,0,0,.48.19,3.06,3.06,0,0,0,.73.07,4.89,4.89,0,0,0,.66-.05,1.77,1.77,0,0,0,.55-.17,1.19,1.19,0,0,0,.39-.3.63.63,0,0,0,.15-.44.6.6,0,0,0-.16-.41,1.47,1.47,0,0,0-.49-.27,6,6,0,0,0-.8-.21l-1.1-.27a6.55,6.55,0,0,1-1-.32,2.43,2.43,0,0,1-.7-.46,1.7,1.7,0,0,1-.42-.64,2.61,2.61,0,0,1-.13-.89,2,2,0,0,1,.22-.94,2.35,2.35,0,0,1,.63-.74,2.93,2.93,0,0,1,.95-.48,3.8,3.8,0,0,1,1.19-.18" transform="translate(-8.48 -216.73)"/><path class="cls-9" d="M225,414.16a.26.26,0,0,1,.21.1.29.29,0,0,1,.09.21v.81a.31.31,0,0,1-.09.22.29.29,0,0,1-.21.09h-3.63v2.2h3.4a.29.29,0,0,1,.21.09.33.33,0,0,1,.09.22v.81a.33.33,0,0,1-.09.22.29.29,0,0,1-.21.09h-3.4v2.6a.28.28,0,0,1-.1.22.29.29,0,0,1-.21.09h-.92a.29.29,0,0,1-.22-.09.31.31,0,0,1-.09-.22v-7.35a.29.29,0,0,1,.09-.21.27.27,0,0,1,.22-.1Z" transform="translate(-8.48 -216.73)"/><path class="cls-9" d="M231.9,420.71a.29.29,0,0,1,.22.09.29.29,0,0,1,.09.21v.81a.31.31,0,0,1-.09.22.29.29,0,0,1-.22.09h-5a.31.31,0,0,1-.31-.31v-7.35a.29.29,0,0,1,.09-.21.28.28,0,0,1,.22-.1h4.9a.27.27,0,0,1,.22.1.29.29,0,0,1,.09.21v.81a.31.31,0,0,1-.09.22.29.29,0,0,1-.22.09h-3.67v1.81h3.42a.29.29,0,0,1,.22.09.29.29,0,0,1,.09.21v.81a.31.31,0,0,1-.09.22.29.29,0,0,1-.22.09h-3.42v1.89Z" transform="translate(-8.48 -216.73)"/><path class="cls-9" d="M236.87,414.16a3.17,3.17,0,0,1,2.16.66,2.34,2.34,0,0,1,.74,1.84,2.56,2.56,0,0,1-.38,1.41,2.28,2.28,0,0,1-1.13.87l1.58,2.81a.35.35,0,0,1,0,.13.24.24,0,0,1-.25.25h-1a.45.45,0,0,1-.33-.11.66.66,0,0,1-.16-.2l-1.49-2.65h-1.51v2.65a.31.31,0,0,1-.31.31h-.92a.31.31,0,0,1-.31-.31v-7.35a.29.29,0,0,1,.09-.21.28.28,0,0,1,.22-.1Zm-1.71,3.59h1.65a2,2,0,0,0,1-.23.91.91,0,0,0,.39-.86.9.9,0,0,0-.39-.86,2.14,2.14,0,0,0-1-.21h-1.65Z" transform="translate(-8.48 -216.73)"/><path class="cls-37" d="M9,465.38H572.3a.55.55,0,0,0,.54-.55.54.54,0,0,0-.54-.54H9a.55.55,0,0,0-.55.54.55.55,0,0,0,.55.55" transform="translate(-8.48 -216.73)"/></g></g></g></g></svg>