<?xml version="1.0" encoding="UTF-8"?>
<svg width="200px" height="200px" viewBox="0 0 200 200" version="1.1" xmlns="http://www.w3.org/2000/svg" xmlns:xlink="http://www.w3.org/1999/xlink">
    <title>call-icon</title>
    <g id="Website-Pages" stroke="none" stroke-width="1" fill="none" fill-rule="evenodd">
        <g id="Group" fill-rule="nonzero">
            <g id="outgoing-call">
                <path d="M198.809677,142.658065 L147.196774,100.722581 C146.231032,99.9370729 144.899493,99.7773573 143.775378,100.312191 C142.651264,100.847024 141.935214,101.980945 141.935484,103.225806 L141.935484,122.580645 L112.903226,122.580645 C71.946421,122.626866 38.7558981,155.817389 38.7096774,196.774194 C38.7096774,198.171794 39.6091673,199.410597 40.9383169,199.842625 C42.2674666,200.274654 43.7236396,199.801627 44.5451613,198.670968 C58.7028494,179.26775 81.2646363,167.77896 105.283871,167.741935 L141.935484,167.741935 L141.935484,187.096774 C141.935214,188.341636 142.651264,189.475557 143.775378,190.01039 C144.899493,190.545223 146.231032,190.385508 147.196774,189.6 L198.809677,147.664516 C199.563312,147.051962 200.000862,146.132469 200.000862,145.16129 C200.000862,144.190112 199.563312,143.270619 198.809677,142.658065 L198.809677,142.658065 Z" id="Path" fill="#C4A2FC"></path>
                <g id="Group" fill="#151A6A">
                    <path d="M136.232258,101.503226 C131.952179,97.2379308 125.028467,97.2379308 120.748387,101.503226 C108.426877,113.811831 88.463446,113.811831 76.1419355,101.503226 L59.7548387,85.1032258 C47.4592403,72.7662628 47.4592403,52.8079307 59.7548387,40.4709677 C64.0201337,36.1908883 64.0201337,29.2671762 59.7548387,24.9870968 L37.8935484,3.10645161 C33.5620128,-1.03243963 26.741213,-1.03243963 22.4096774,3.10645161 C-7.4646228,33.0762508 -7.4646228,81.5656847 22.4096774,111.535484 L49.7225806,138.870968 C79.6599933,168.762688 128.149684,168.762688 158.087097,138.870968 C162.352392,134.590888 162.352392,127.667176 158.087097,123.387097 L136.232258,101.503226 Z M153.519355,134.303226 C126.10498,161.679169 81.6982456,161.679169 54.283871,134.303226 L26.9677419,106.970968 C-0.394322117,79.5256698 -0.394322117,35.1162657 26.9677419,7.67096774 C28.7288243,5.92209466 31.5711757,5.92209466 33.3322581,7.67096774 L55.183871,29.5387097 C56.9348808,31.3001691 56.9348808,34.1449921 55.183871,35.9064516 C40.3654018,50.7635201 40.3654018,74.8106734 55.183871,89.6677419 L71.5741935,106.070968 C86.4172659,120.892831 110.460153,120.892831 125.303226,106.070968 C127.064308,104.322095 129.90666,104.322095 131.667742,106.070968 L153.519355,127.935484 C155.270365,129.696943 155.270365,132.541766 153.519355,134.303226 L153.519355,134.303226 Z" id="Shape"></path>
                    <path d="M151.612903,19.2677419 L93.5483871,19.2677419 C88.208113,19.2783906 83.8816164,23.6048872 83.8709656,28.9451613 L83.8709656,90.2967742 C83.8695891,91.5006426 84.5386926,92.6051065 85.6063632,93.1613263 C86.6740338,93.7175461 87.962593,93.6329572 88.9483871,92.9419355 L119.551613,71.5064516 C120.092845,71.1263618 120.738641,70.9234938 121.4,70.9258065 L151.612903,70.9258065 C156.953912,70.916927 161.281443,66.5893959 161.290325,61.2483871 L161.290325,28.9516129 C161.292034,26.3838841 160.273208,23.9207368 158.458154,22.104473 C156.6431,20.2882093 154.180633,19.2677419 151.612903,19.2677419 L151.612903,19.2677419 Z M154.83871,61.2387097 C154.83871,63.0202734 153.394467,64.4645161 151.612903,64.4645161 L121.380645,64.4645161 C119.394154,64.4613065 117.455189,65.0719509 115.829032,66.2129032 L90.3225806,84.0935484 L90.3225806,28.9516129 C90.3225806,27.1700492 91.7668234,25.7258065 93.5483871,25.7258065 L151.612903,25.7258065 C153.394467,25.7258065 154.83871,27.1700492 154.83871,28.9516129 L154.83871,61.2387097 Z" id="Shape"></path>
                    <path d="M141.935484,35.4096774 L103.225806,35.4096774 C101.444243,35.4096774 100,36.8539202 100,38.6354839 C100,40.4170476 101.444243,41.8612903 103.225806,41.8612903 L141.935484,41.8612903 C143.717048,41.8612903 145.16129,40.4170476 145.16129,38.6354839 C145.16129,36.8539202 143.717048,35.4096774 141.935484,35.4096774 Z" id="Path"></path>
                    <path d="M141.935484,51.5516129 L103.225806,51.5516129 C101.444243,51.5516129 100,52.9958556 100,54.7774194 C100,56.5589831 101.444243,58.0032258 103.225806,58.0032258 L141.935484,58.0032258 C143.717048,58.0032258 145.16129,56.5589831 145.16129,54.7774194 C145.16129,52.9958556 143.717048,51.5516129 141.935484,51.5516129 Z" id="Path"></path>
                </g>
            </g>
        </g>
    </g>
</svg>