<?xml version="1.0" encoding="UTF-8"?>
<svg width="81px" height="80px" viewBox="0 0 81 80" version="1.1" xmlns="http://www.w3.org/2000/svg" xmlns:xlink="http://www.w3.org/1999/xlink">
    <title>commission</title>
    <g id="Website-Pages" stroke="none" stroke-width="1" fill="none" fill-rule="evenodd">
        <g id="Group" fill="#505050" fill-rule="nonzero">
            <g id="percentage">
                <path d="M40.5311224,79.9132653 C62.5632653,79.9132653 80.4877551,61.9887755 80.4877551,39.9566327 C80.4877551,17.9244898 62.5635204,0 40.5311224,0 C18.4987245,0 0.574489796,17.9244898 0.574489796,39.9566327 C0.574489796,61.9887755 18.4989796,79.9132653 40.5311224,79.9132653 Z M40.5311224,4.95663265 C59.8301827,4.95663265 75.5311224,20.6575724 75.5311224,39.9566327 C75.5311224,59.2556929 59.8301827,74.9566327 40.5311224,74.9566327 C21.2320622,74.9566327 5.53112245,59.2556929 5.53112245,39.9566327 C5.53112245,20.6575724 21.2320622,4.95663265 40.5311224,4.95663265 Z" id="Shape"></path>
                <path d="M29.2081633,33.8535714 C31.7813776,33.8535714 34.2466837,31.5908163 34.1278061,28.9341837 C34.0084184,26.2688776 31.9663265,24.0147959 29.2081633,24.0147959 C26.634949,24.0147959 24.1696429,26.277551 24.2887755,28.9341837 C24.4081633,31.5994898 26.4502551,33.8535714 29.2081633,33.8535714 Z" id="Path"></path>
                <path d="M46.9346939,51.3321429 C47.0540816,53.997449 49.0961735,56.2515306 51.8540816,56.2515306 C54.4272959,56.2515306 56.892602,53.9887755 56.7734694,51.3321429 C56.6540816,48.6668367 54.6119898,46.4127551 51.8540816,46.4127551 C49.2808673,46.4125 46.8155612,48.6752551 46.9346939,51.3321429 Z" id="Path"></path>
                <path d="M30.9375,63.2094388 C31.4211735,63.4125 31.9229592,63.5086735 32.4165816,63.5086735 C33.9117347,63.5086735 35.3318878,62.6267857 35.9466837,61.1619898 L52.7145408,21.2079082 C53.532398,19.2591837 52.6155612,17.0165816 50.6670918,16.1987245 C48.7183673,15.3811224 46.4760204,16.297449 45.6579082,18.2461735 L28.890051,58.2002551 C28.0721939,60.1489796 28.9887755,62.3915816 30.9375,63.2094388 L30.9375,63.2094388 Z" id="Path"></path>
            </g>
        </g>
    </g>
</svg>