<svg xmlns="http://www.w3.org/2000/svg" xmlns:xlink="http://www.w3.org/1999/xlink" viewBox="0 0 517.56 509.28"><defs><style>.cls-1{fill:none;}.cls-2{isolation:isolate;}.cls-3{clip-path:url(#clip-path);}.cls-4{fill:#ebebeb;}.cls-5{fill:#c48b5e;}.cls-6{fill:#e0be95;}.cls-7{fill:#a26d42;}.cls-8{fill:#dfe3e7;}.cls-9{fill:#d8aa7d;}.cls-10{fill:#c8d1dd;}.cls-11{fill:#dce188;}.cls-12{fill:#6b9a55;}.cls-13{fill:#c49e70;}.cls-14{fill:#f0dfbe;}.cls-15{fill:#81b66b;}.cls-16{fill:#99c567;}.cls-17{fill:#c95b68;}.cls-18{fill:#d2898a;}.cls-19{fill:#a5b3bf;}.cls-20{mix-blend-mode:multiply;}.cls-21{clip-path:url(#clip-path-3);}.cls-22{fill:#b0a7c2;}.cls-23{mix-blend-mode:color-burn;}.cls-24{clip-path:url(#clip-path-4);}.cls-25{fill:#596876;}.cls-26{fill:#84bf80;}.cls-27{fill:#ffcfcf;}.cls-28{fill:#ebd863;}.cls-29{fill:#cd7e8e;}.cls-30{clip-path:url(#clip-path-5);}.cls-31{fill:url(#linear-gradient);}.cls-32{clip-path:url(#clip-path-7);}.cls-33{fill:#e0e0e0;}.cls-34{fill:#c64646;}.cls-35{fill:#e6a57a;}.cls-36{fill:#f1bc98;}.cls-37{fill:#8140ff;}.cls-38{fill:#522700;}.cls-39{fill:#3d6b51;}.cls-40{fill:#a68efe;}.cls-41{fill:#4c8566;}.cls-42{fill:#f2cf7a;}.cls-43{fill:#e1ba5d;}.cls-44{fill:#663100;}.cls-45{fill:#874100;}.cls-46{fill:#7a3b00;}.cls-47{fill:#1e6146;}.cls-48{fill:#caa27f;}.cls-49{fill:#a37a56;}.cls-50{fill:#121214;}.cls-51{fill:#f2a305;}.cls-52{fill:#dbb98e;}.cls-53{fill:#cfd6c2;}.cls-54{fill:#636363;}.cls-55{fill:#3b2121;}.cls-56{fill:#593535;}.cls-57{clip-path:url(#clip-path-8);}.cls-58{fill:#a1927f;}.cls-59{fill:#302922;}</style><clipPath id="clip-path" transform="translate(-56.18 -51.75)"><rect class="cls-1" width="600" height="600"/></clipPath><clipPath id="clip-path-3" transform="translate(-56.18 -51.75)"><rect class="cls-1" x="155.74" y="151.62" width="207.43" height="136.55"/></clipPath><clipPath id="clip-path-4" transform="translate(-56.18 -51.75)"><rect class="cls-1" x="306.01" y="171.75" width="19.08" height="14.35"/></clipPath><clipPath id="clip-path-5" transform="translate(-56.18 -51.75)"><path class="cls-1" d="M276.2,56a1.73,1.73,0,0,0-.85.15.07.07,0,0,0-.1,0h-.11a10.1,10.1,0,0,0-.95.36,5.14,5.14,0,0,0-1,.6c-.05,0-.1.05-.15.1a8.23,8.23,0,0,0-2.67,4.07c-.55,2.23-3.62,17.45-4,19.23l4.83-3.83c2.25-10,2.14-12,3.12-13.79a3.34,3.34,0,0,1,4.23-1.66c.27.09,179.5,103.44,179.78,103.61,9,5.33,18.07,10.82,26.87,15.8,3.52,2,7,3.87,10.62,6a10.43,10.43,0,0,1,2.92,2.21c2.6,2.92,1.76,7.14.8,10.67-1.26,5.33-2.06,10.36-3,15.55-.19,1-15.12,73.14-27.92,136.81L241.94,221.05c1.24-5.91-1.59,7.75,12.52-61.89l-3.62-2.06c-12.38,60.5-17.31,85.21-17.61,86.5,0,.3-.15.6-.2.9-1.55,7.71-1.82,8-1.51,11.22a15.39,15.39,0,0,0,1.91,5.84,10.66,10.66,0,0,0,.86,1.41,2.77,2.77,0,0,0,.3.4,2.72,2.72,0,0,0,.76.8c1.65,1.94.5.88,27.72,16.61.32.21,192.72,111.32,193,111.4a6.29,6.29,0,0,0,4.48.56,7,7,0,0,0,4.22-3.63c.93-1.94-1.73,10.76,39.3-191.5a12.56,12.56,0,0,0,0-5.29,15.22,15.22,0,0,0-3.27-7.24,13.42,13.42,0,0,0-2.72-2.32c-3.67-2-218.17-126.35-220.29-126.7a9.07,9.07,0,0,0-1.1-.1,1.54,1.54,0,0,0-.46,0"/></clipPath><linearGradient id="linear-gradient" y1="599.99" x2="1" y2="599.99" gradientTransform="matrix(272.92, 0, 0, -272.92, 175.23, 163922.48)" gradientUnits="userSpaceOnUse"><stop offset="0" stop-color="#e6eced"/><stop offset="1" stop-color="#c8d1dd"/></linearGradient><clipPath id="clip-path-7" transform="translate(-56.18 -51.75)"><rect class="cls-1" x="266.42" y="136.96" width="307.33" height="311.04"/></clipPath><clipPath id="clip-path-8" transform="translate(-56.18 -51.75)"><rect class="cls-1" x="347.32" y="295.96" width="15.88" height="9.73"/></clipPath></defs><title>Asset 5</title><g class="cls-2"><g id="Layer_2" data-name="Layer 2"><g id="Layer_1-2" data-name="Layer 1"><g class="cls-3"><g class="cls-3"><path class="cls-4" d="M164.09,397.59l4,.78a1.68,1.68,0,0,0,.95-.09l3.35-1.44c.69-.3,1.68,0,1.67.49l-.06,2.41c0,.2.16.38.44.5l3.42,1.39c.7.29.53.92-.3,1.07l-4,.71a1,1,0,0,0-.68.4l-1.24,2.3a1.43,1.43,0,0,1-1.85.17l-2.41-2a1.35,1.35,0,0,0-.86-.25l-4.18,0c-.86,0-1.37-.56-.85-1l2.5-1.93a.41.41,0,0,0,.15-.55l-1.34-2.29c-.28-.47.5-.92,1.32-.76" transform="translate(-56.18 -51.75)"/><path class="cls-4" d="M181.06,387.8l3.95.77a1.63,1.63,0,0,0,1-.09l3.35-1.44c.69-.3,1.68,0,1.66.49l0,2.41c0,.2.16.39.44.5l3.41,1.39c.71.29.53.92-.29,1.07l-4,.71a1,1,0,0,0-.69.4l-1.24,2.3a1.42,1.42,0,0,1-1.84.17l-2.41-2a1.43,1.43,0,0,0-.87-.25l-4.17,0c-.87,0-1.37-.56-.85-1l2.5-1.93a.42.42,0,0,0,.15-.56l-1.34-2.28c-.28-.47.5-.92,1.32-.76" transform="translate(-56.18 -51.75)"/><path class="cls-4" d="M198,378l4,.78a1.72,1.72,0,0,0,1-.09l3.35-1.44c.69-.3,1.67,0,1.66.48l0,2.42c0,.19.16.38.44.5l3.41,1.39c.7.29.53.92-.29,1.06l-4,.72a1,1,0,0,0-.69.39l-1.24,2.31a1.44,1.44,0,0,1-1.84.17l-2.41-2a1.45,1.45,0,0,0-.87-.26l-4.18,0c-.86,0-1.36-.56-.84-1l2.49-1.93a.41.41,0,0,0,.16-.55l-1.35-2.29c-.27-.47.51-.92,1.32-.76" transform="translate(-56.18 -51.75)"/><path class="cls-4" d="M215,368.2l4,.78a1.73,1.73,0,0,0,1-.09l3.34-1.44c.7-.3,1.68,0,1.67.49l-.06,2.41c0,.2.16.38.44.5l3.42,1.39c.7.29.53.92-.3,1.07l-4,.71a1,1,0,0,0-.68.4l-1.24,2.3a1.43,1.43,0,0,1-1.85.17l-2.41-2a1.35,1.35,0,0,0-.86-.25l-4.18,0c-.86,0-1.36-.56-.85-1l2.5-1.94a.4.4,0,0,0,.15-.55L213.67,369c-.28-.47.51-.93,1.32-.77" transform="translate(-56.18 -51.75)"/><path class="cls-4" d="M232,358.41l4,.77a1.68,1.68,0,0,0,1-.08l3.35-1.45c.69-.3,1.68,0,1.67.49l-.06,2.41c0,.2.16.39.44.5l3.41,1.4c.71.28.54.91-.29,1.06l-4,.72a.93.93,0,0,0-.68.39l-1.24,2.31a1.46,1.46,0,0,1-1.85.17l-2.41-2a1.36,1.36,0,0,0-.86-.26l-4.18,0c-.87,0-1.37-.56-.85-1l2.5-1.93a.41.41,0,0,0,.15-.55l-1.34-2.29c-.28-.47.5-.92,1.32-.76" transform="translate(-56.18 -51.75)"/><path class="cls-4" d="M331.29,478.25l4,.77a1.6,1.6,0,0,0,.95-.08l3.35-1.45c.7-.29,1.68,0,1.67.49l-.06,2.42c0,.19.16.38.44.5l3.42,1.39c.7.29.53.91-.3,1.06l-4,.72a1,1,0,0,0-.68.39l-1.24,2.31a1.46,1.46,0,0,1-1.85.17l-2.41-2a1.42,1.42,0,0,0-.86-.26l-4.18,0c-.86,0-1.36-.56-.85-1l2.5-1.93a.4.4,0,0,0,.15-.55L330,479c-.28-.47.5-.92,1.32-.76" transform="translate(-56.18 -51.75)"/><path class="cls-4" d="M348.26,468.45l3.95.78a1.71,1.71,0,0,0,1-.09l3.35-1.44c.69-.3,1.68,0,1.66.49l-.05,2.41c0,.2.16.38.44.5l3.41,1.39c.71.29.53.92-.29,1.07l-4,.71a1,1,0,0,0-.69.4l-1.24,2.3a1.42,1.42,0,0,1-1.84.17l-2.41-2a1.36,1.36,0,0,0-.87-.25l-4.17,0c-.87,0-1.37-.56-.85-1l2.5-1.94a.41.41,0,0,0,.15-.55l-1.34-2.28c-.28-.48.5-.93,1.32-.77" transform="translate(-56.18 -51.75)"/><path class="cls-4" d="M365.22,458.66l4,.77a1.72,1.72,0,0,0,1-.08l3.35-1.45c.69-.3,1.67,0,1.66.49l0,2.41c0,.2.16.39.44.5l3.41,1.4c.7.28.53.91-.29,1.06l-4,.72a1,1,0,0,0-.69.39l-1.24,2.31a1.43,1.43,0,0,1-1.84.16l-2.42-2a1.4,1.4,0,0,0-.86-.25l-4.18,0c-.86,0-1.36-.56-.84-1l2.49-1.93a.41.41,0,0,0,.16-.55l-1.35-2.29c-.27-.47.51-.92,1.32-.76" transform="translate(-56.18 -51.75)"/><path class="cls-4" d="M382.19,448.86l4,.78a1.73,1.73,0,0,0,1-.09l3.34-1.44c.7-.3,1.68,0,1.67.49l-.06,2.41c0,.2.16.38.44.5l3.42,1.39c.7.29.53.92-.3,1.06l-4,.72a1,1,0,0,0-.68.4l-1.24,2.3a1.43,1.43,0,0,1-1.85.17l-2.41-2a1.42,1.42,0,0,0-.86-.26l-4.18,0c-.86,0-1.36-.57-.85-1l2.5-1.93a.4.4,0,0,0,.15-.55l-1.34-2.29c-.28-.47.5-.92,1.32-.76" transform="translate(-56.18 -51.75)"/><path class="cls-4" d="M399.16,439.07l4,.77a1.68,1.68,0,0,0,.95-.09l3.35-1.44c.69-.3,1.68,0,1.67.49l-.06,2.41c0,.2.16.39.44.5l3.41,1.39c.71.29.54.92-.29,1.07l-4,.71a.94.94,0,0,0-.68.4l-1.24,2.3a1.43,1.43,0,0,1-1.85.17l-2.41-2a1.42,1.42,0,0,0-.86-.25l-4.18,0c-.87,0-1.37-.56-.85-1l2.5-1.93a.42.42,0,0,0,.15-.56l-1.34-2.28c-.28-.47.5-.92,1.32-.76" transform="translate(-56.18 -51.75)"/><path class="cls-4" d="M158.51,387.3,68.9,439.07a11.65,11.65,0,0,1-10.54,0c-2.91-1.68-2.91-4.41,0-6.09L148,381.21a11.65,11.65,0,0,1,10.54,0c2.91,1.69,2.91,4.41,0,6.09" transform="translate(-56.18 -51.75)"/><path class="cls-4" d="M227.74,347.31l-47.36,27.36a11.65,11.65,0,0,1-10.54,0c-2.91-1.68-2.91-4.41,0-6.09l47.36-27.36a11.65,11.65,0,0,1,10.54,0c2.91,1.69,2.91,4.41,0,6.09" transform="translate(-56.18 -51.75)"/><path class="cls-4" d="M185.08,344.8,95.47,396.56a11.65,11.65,0,0,1-10.54,0c-2.91-1.68-2.91-4.41,0-6.09l89.61-51.76a11.65,11.65,0,0,1,10.54,0c2.91,1.68,2.91,4.4,0,6.09" transform="translate(-56.18 -51.75)"/><path class="cls-4" d="M299.66,278.6l-89.61,51.77a11.65,11.65,0,0,1-10.54,0c-2.91-1.68-2.91-4.41,0-6.09l89.61-51.77a11.65,11.65,0,0,1,10.54,0c2.91,1.69,2.91,4.41,0,6.09" transform="translate(-56.18 -51.75)"/><path class="cls-4" d="M351.12,303.2,261.52,355A11.65,11.65,0,0,1,251,355c-2.92-1.68-2.92-4.41,0-6.09l89.6-51.76a11.65,11.65,0,0,1,10.54,0c2.91,1.68,2.91,4.41,0,6.09" transform="translate(-56.18 -51.75)"/><path class="cls-4" d="M182,400.88,155.79,416a11.65,11.65,0,0,1-10.54,0c-2.91-1.68-2.91-4.41,0-6.09l26.23-15.15a11.59,11.59,0,0,1,10.54,0c2.91,1.68,2.91,4.4,0,6.08" transform="translate(-56.18 -51.75)"/><path class="cls-4" d="M406.9,271l-26.23,15.16a11.65,11.65,0,0,1-10.54,0c-2.91-1.68-2.91-4.41,0-6.09l26.23-15.15a11.59,11.59,0,0,1,10.54,0c2.91,1.68,2.91,4.4,0,6.08" transform="translate(-56.18 -51.75)"/><path class="cls-4" d="M202.9,307.34,113.29,359.1a11.65,11.65,0,0,1-10.54,0c-2.91-1.68-2.91-4.41,0-6.09l89.61-51.76a11.65,11.65,0,0,1,10.54,0c2.91,1.68,2.91,4.4,0,6.09" transform="translate(-56.18 -51.75)"/><path class="cls-4" d="M258.68,275.11l-26.23,15.16a11.65,11.65,0,0,1-10.54,0c-2.91-1.69-2.91-4.41,0-6.09L248.14,269a11.65,11.65,0,0,1,10.54,0c2.91,1.69,2.91,4.41,0,6.09" transform="translate(-56.18 -51.75)"/><path class="cls-4" d="M163.24,508,73.63,559.77a11.65,11.65,0,0,1-10.54,0c-2.91-1.69-2.91-4.41,0-6.09l89.61-51.77a11.65,11.65,0,0,1,10.54,0c2.91,1.68,2.91,4.41,0,6.09" transform="translate(-56.18 -51.75)"/><path class="cls-4" d="M232.47,468l-47.36,27.36a11.65,11.65,0,0,1-10.54,0c-2.91-1.69-2.91-4.41,0-6.09l47.36-27.36a11.65,11.65,0,0,1,10.54,0c2.91,1.68,2.91,4.41,0,6.09" transform="translate(-56.18 -51.75)"/><path class="cls-4" d="M189.81,465.49,100.2,517.26a11.65,11.65,0,0,1-10.54,0c-2.91-1.68-2.91-4.41,0-6.09l89.61-51.77a11.65,11.65,0,0,1,10.54,0c2.91,1.68,2.91,4.41,0,6.09" transform="translate(-56.18 -51.75)"/><path class="cls-4" d="M304.39,399.3l-89.61,51.77a11.65,11.65,0,0,1-10.54,0c-2.91-1.69-2.91-4.41,0-6.09l89.61-51.77a11.65,11.65,0,0,1,10.54,0c2.91,1.68,2.91,4.41,0,6.09" transform="translate(-56.18 -51.75)"/><path class="cls-4" d="M355.85,423.89l-89.6,51.77a11.67,11.67,0,0,1-10.55,0c-2.91-1.68-2.91-4.41,0-6.09l89.61-51.77a11.65,11.65,0,0,1,10.54,0c2.91,1.69,2.91,4.41,0,6.09" transform="translate(-56.18 -51.75)"/><path class="cls-4" d="M186.75,521.58l-26.23,15.15a11.65,11.65,0,0,1-10.54,0c-2.91-1.68-2.91-4.41,0-6.09l26.23-15.15a11.65,11.65,0,0,1,10.54,0c2.91,1.68,2.91,4.41,0,6.09" transform="translate(-56.18 -51.75)"/><path class="cls-4" d="M411.63,391.67,385.4,406.82a11.65,11.65,0,0,1-10.54,0c-2.91-1.68-2.91-4.4,0-6.09l26.23-15.15a11.65,11.65,0,0,1,10.54,0c2.91,1.68,2.91,4.41,0,6.09" transform="translate(-56.18 -51.75)"/><path class="cls-4" d="M207.63,428,118,479.8a11.65,11.65,0,0,1-10.54,0c-2.91-1.68-2.91-4.41,0-6.09l89.61-51.77a11.65,11.65,0,0,1,10.54,0c2.91,1.69,2.91,4.41,0,6.09" transform="translate(-56.18 -51.75)"/><path class="cls-4" d="M263.41,395.81,237.18,411a11.65,11.65,0,0,1-10.54,0c-2.91-1.68-2.91-4.41,0-6.09l26.23-15.15a11.65,11.65,0,0,1,10.54,0c2.91,1.68,2.91,4.41,0,6.09" transform="translate(-56.18 -51.75)"/><path class="cls-4" d="M300.72,482.32l-89.61,51.76a11.65,11.65,0,0,1-10.54,0c-2.91-1.68-2.91-4.4,0-6.09l89.61-51.76a11.65,11.65,0,0,1,10.54,0c2.91,1.68,2.91,4.41,0,6.09" transform="translate(-56.18 -51.75)"/><path class="cls-4" d="M369.94,442.33l-47.35,27.35a11.59,11.59,0,0,1-10.54,0c-2.91-1.68-2.91-4.4,0-6.08l47.35-27.36a11.65,11.65,0,0,1,10.54,0c2.91,1.68,2.91,4.41,0,6.09" transform="translate(-56.18 -51.75)"/><path class="cls-4" d="M327.28,439.81l-89.6,51.77a11.65,11.65,0,0,1-10.54,0c-2.92-1.69-2.92-4.41,0-6.09l89.6-51.77a11.65,11.65,0,0,1,10.54,0c2.91,1.68,2.91,4.41,0,6.09" transform="translate(-56.18 -51.75)"/><path class="cls-4" d="M441.87,373.62l-89.61,51.76a11.65,11.65,0,0,1-10.54,0c-2.91-1.68-2.91-4.4,0-6.09l89.61-51.76a11.65,11.65,0,0,1,10.54,0c2.91,1.68,2.91,4.41,0,6.09" transform="translate(-56.18 -51.75)"/><path class="cls-4" d="M493.33,398.21,403.72,450a11.65,11.65,0,0,1-10.54,0c-2.91-1.68-2.91-4.41,0-6.09l89.61-51.77a11.65,11.65,0,0,1,10.54,0c2.91,1.69,2.91,4.41,0,6.09" transform="translate(-56.18 -51.75)"/><path class="cls-4" d="M324.23,495.9,298,511.05a11.65,11.65,0,0,1-10.54,0c-2.91-1.68-2.91-4.41,0-6.09l26.23-15.15a11.65,11.65,0,0,1,10.54,0c2.91,1.68,2.91,4.41,0,6.09" transform="translate(-56.18 -51.75)"/><path class="cls-4" d="M549.11,366l-26.23,15.15a11.65,11.65,0,0,1-10.54,0c-2.91-1.68-2.91-4.41,0-6.09l26.23-15.15a11.65,11.65,0,0,1,10.54,0c2.91,1.68,2.91,4.41,0,6.09" transform="translate(-56.18 -51.75)"/><path class="cls-4" d="M345.11,402.35,255.5,454.12a11.65,11.65,0,0,1-10.54,0c-2.91-1.69-2.91-4.41,0-6.09l89.61-51.77a11.65,11.65,0,0,1,10.54,0c2.91,1.68,2.91,4.41,0,6.09" transform="translate(-56.18 -51.75)"/><path class="cls-4" d="M400.89,370.13l-26.23,15.15a11.65,11.65,0,0,1-10.54,0c-2.91-1.68-2.91-4.41,0-6.09L390.35,364a11.65,11.65,0,0,1,10.54,0c2.91,1.68,2.91,4.41,0,6.09" transform="translate(-56.18 -51.75)"/><path class="cls-4" d="M488.83,284.88l-89.61,51.76a11.59,11.59,0,0,1-10.54,0h0c-2.91-1.68-2.91-4.4,0-6.08l89.61-51.77a11.65,11.65,0,0,1,10.54,0c2.91,1.68,2.91,4.41,0,6.09" transform="translate(-56.18 -51.75)"/><path class="cls-4" d="M540.29,309.47l-89.61,51.77a11.65,11.65,0,0,1-10.54,0c-2.91-1.68-2.91-4.41,0-6.09l89.61-51.77a11.65,11.65,0,0,1,10.54,0c2.91,1.69,2.91,4.41,0,6.09" transform="translate(-56.18 -51.75)"/><path class="cls-4" d="M392.07,313.61l-89.61,51.77a11.65,11.65,0,0,1-10.54,0c-2.91-1.68-2.91-4.41,0-6.09l89.61-51.77a11.65,11.65,0,0,1,10.54,0c2.91,1.68,2.91,4.41,0,6.09" transform="translate(-56.18 -51.75)"/><path class="cls-4" d="M447.85,281.39l-26.23,15.15a11.65,11.65,0,0,1-10.54,0c-2.91-1.68-2.91-4.41,0-6.09l26.23-15.15a11.65,11.65,0,0,1,10.54,0c2.91,1.68,2.91,4.41,0,6.09" transform="translate(-56.18 -51.75)"/><path class="cls-4" d="M122.26,316c4,2.34,4,6.13,0,8.47a16.18,16.18,0,0,1-14.66,0c-4-2.34-4-6.13,0-8.47a16.18,16.18,0,0,1,14.66,0" transform="translate(-56.18 -51.75)"/><polygon class="cls-5" points="231.29 160.46 219.74 167.13 218.41 167.9 189.32 184.69 188.3 181.56 268.53 135.24 269.56 138.36 249.03 150.22 231.29 160.46"/><polygon class="cls-5" points="268.38 119.88 268.74 122.44 252.62 134.57 249.06 134.42 268.38 119.88"/><polygon class="cls-6" points="268.38 119.88 249.06 134.42 249.03 134.42 184.47 97.14 203.8 82.6 268.38 119.88"/><polygon class="cls-6" points="249.05 134.43 249.06 134.41 252.62 134.56 268.53 135.24 188.3 181.56 168.8 180.74 249.03 134.41 249.05 134.43"/><path class="cls-7" d="M305.21,230.16l-1.27.73h0c-.08-8.54-3.91-12.84-7.32-15.38-2.46-1.83-4.71-2.73-9.14-3.3L305.21,202Z" transform="translate(-56.18 -51.75)"/><path class="cls-8" d="M303.93,230.89a41.6,41.6,0,0,1-1.6,11.19l-11.56,6.67c4.38-16.34-1.06-23.1-5.73-26.57-2.45-1.82-4.7-2.73-9.12-3.3l11.55-6.67c4.43.57,6.68,1.47,9.13,3.3,3.42,2.54,7.25,6.84,7.33,15.38" transform="translate(-56.18 -51.75)"/><path class="cls-9" d="M300.36,186.17,282,196.76c-3.8-3.35-7.53-7.11-11.24-8.87a25.21,25.21,0,0,0-7.22-1.85V167l-22.91-13.22v-2.09Z" transform="translate(-56.18 -51.75)"/><path class="cls-10" d="M291.64,238c.08-4.39-.82-8.63-3.49-12a16.82,16.82,0,0,0-6.6-5,27.68,27.68,0,0,0-7-1.42l1.33-.76c4.42.57,6.67,1.48,9.12,3.3,4.67,3.47,10.11,10.23,5.73,26.57l-.71-.63A43,43,0,0,0,291.64,238" transform="translate(-56.18 -51.75)"/><path class="cls-11" d="M240.65,199.27,263.56,186a25.21,25.21,0,0,1,7.22,1.85c3.71,1.76,7.44,5.52,11.24,8.86l-57,32.94-14.86-8.58,23.14-13.36v-7.11l-16.05-9.27.53-.31c1.23-.7,2.45-1.41,3.67-2.12a2.19,2.19,0,0,1,.3-.16c4-2,8.25,6.14,13.63,9a17,17,0,0,0,5.32,1.53" transform="translate(-56.18 -51.75)"/><path class="cls-12" d="M263.56,186l-22.91,13.23v-19L263.56,167Z" transform="translate(-56.18 -51.75)"/><polygon class="cls-13" points="203.31 197.26 203.31 201.02 191.17 208.03 191.17 204.27 203.31 197.26"/><polygon class="cls-13" points="203.31 192.05 203.31 195.81 191.17 202.82 191.17 199.06 203.31 192.05"/><polygon class="cls-13" points="203.31 186.72 203.31 190.47 191.17 197.48 191.17 193.73 203.31 186.72"/><polygon class="cls-13" points="189.73 194.65 189.73 208.86 171.22 219.55 171.22 205.34 189.73 194.65"/><path class="cls-14" d="M240.65,148.89l64.56,37.28L225,232.49h0l-64.53-37.25,0,0ZM282,196.76l18.34-10.59-59.71-34.48-75.39,43.53,10.41,6L204,217.56h0l6.16,3.55L225,229.69Z" transform="translate(-56.18 -51.75)"/><path class="cls-15" d="M221.7,188.78a2.19,2.19,0,0,0-.3.16c-1.22.71-2.44,1.42-3.67,2.12V167l22.92,13.24v19a17,17,0,0,1-5.32-1.53c-5.38-2.82-9.63-11-13.63-9" transform="translate(-56.18 -51.75)"/><polygon class="cls-16" points="184.47 102.03 207.38 115.25 184.47 128.49 161.56 115.25 184.47 102.03"/><path class="cls-5" d="M240.65,151.69v2.09L217.73,167v24.06l-.53.31L205,184.31l-29.3,16.92-10.41-6Z" transform="translate(-56.18 -51.75)"/><polygon class="cls-6" points="164.96 75.44 184.47 97.14 104.23 143.47 84.72 121.76 99.3 113.35 99.94 112.97 111.5 106.31 112.9 105.49 113.48 105.16 125.04 98.49 164.96 75.44"/><path class="cls-17" d="M233.25,207.75l-23.14,13.36L204,217.56l29.3-16.92Z" transform="translate(-56.18 -51.75)"/><polygon class="cls-18" points="177.07 148.89 147.77 165.81 147.77 165.81 119.49 149.48 148.79 132.56 161.02 139.62 177.07 148.89"/><path class="cls-7" d="M288.15,226a16.82,16.82,0,0,0-6.6-5,27.68,27.68,0,0,0-7-1.42l-29.09,16.8-19.5-.82-.22-.64-.8-2.47h0v44L291.64,238c.08-4.38-.82-8.62-3.49-12m-42.24,34.59L227.4,271.3V257.09l18.51-10.69Zm13.58-7.84-12.14,7V256l12.14-7Zm0-5.21-12.14,7v-3.76l12.14-7Zm0-5.34-12.14,7v-3.76l12.14-7Z" transform="translate(-56.18 -51.75)"/><polygon class="cls-9" points="168.8 180.74 188.3 181.56 189.32 184.69 169.82 183.87 169.6 183.23 168.8 180.76 168.81 180.75 168.8 180.74"/><polygon class="cls-9" points="168.79 184.53 168.79 224.73 104.23 187.46 104.23 175.57 155.85 205.38 168.79 184.53"/><polygon class="cls-5" points="168.79 180.78 168.79 184.53 155.85 205.38 154.24 204.22 168.79 180.78"/><path class="cls-8" d="M169,144.49c1.38-.8,3.16-.42,4.84.27,2.11.87,4.07,2.23,7.38,5.47h0l-11.56,6.66c-3.31-3.23-5.27-4.6-7.38-5.47-1.62-.66-3.33-1-4.7-.34l11.42-6.6" transform="translate(-56.18 -51.75)"/><path class="cls-19" d="M167.42,155.7c.07.74.15,1.52.26,2.35l-11.56,6.67c-.4-3.1-.91-8.54.58-11.28,1.2-2.21,3.35-2.06,5.69-1.09a18,18,0,0,1,5,3.35Z" transform="translate(-56.18 -51.75)"/><polygon class="cls-6" points="168.79 180.74 168.79 180.78 154.24 204.22 104.23 175.35 104.23 175.35 89.66 166.94 103.1 145.29 104.23 143.47 104.26 143.49 168.79 180.74"/><polygon class="cls-9" points="84.72 121.76 104.23 143.47 103.1 145.29 83.7 123.71 84.72 121.76"/><path class="cls-10" d="M169.66,156.9l-.58.34c-.53-.52-1.09-1-1.65-1.54a18.27,18.27,0,0,0-5-3.36c-2.34-1-4.49-1.11-5.69,1.1-1.49,2.74-1,8.18-.58,11.28l-.64.38c-1.26-9-.08-12.76,2-13.93l.14-.08c1.37-.69,3.08-.32,4.7.34,2.11.87,4.07,2.24,7.38,5.47" transform="translate(-56.18 -51.75)"/><polygon class="cls-5" points="155.85 205.38 104.23 175.57 104.23 175.35 154.24 204.22 155.85 205.38"/><polygon class="cls-5" points="104.23 175.35 104.23 175.57 91.27 168.09 89.66 166.94 104.23 175.35"/><g class="cls-20"><g class="cls-21"><path class="cls-22" d="M240.57,151.62l1.06,2.73s-1.81.53-23.12,12.88c2.06,7.21,6.43,21.8,6.43,21.8l-2.12.91L220,191.62l-2.77-.25L209,186.65l-27.77,16.13h-2.72l-13.26-7.55Z" transform="translate(-56.18 -51.75)"/><path class="cls-22" d="M240.65,199.27v-19L263.47,167s4.87,14.91,6.12,20.15c-1.52,1.08,2.07-1.15-15.87,9.29a6.79,6.79,0,0,1-2.47.74c-3.08.53-10.6,2.08-10.6,2.08" transform="translate(-56.18 -51.75)"/><polygon class="cls-22" points="181.58 155.49 155.85 170.47 147.77 165.81 177.07 148.89 177.05 153.61 181.58 155.49"/><path class="cls-22" d="M156.21,164.65c-.11-.65-.24-1.18-.28-1.72-.19-2.52-.5-6.67.64-9.09a3.27,3.27,0,0,1,4-2c2.9.15,6.82,3.84,6.82,3.84l.25,2.35s-10.08,5.88-11.47,6.6" transform="translate(-56.18 -51.75)"/><g class="cls-23"><g class="cls-24"><path class="cls-22" d="M324.68,171.75c.08.12.13.15.14.19.47,2,.46,2-1.11,3.17-4.48,3.37-9,6.72-13.43,10.12a3.58,3.58,0,0,1-2.66.85c-.52-.05-1.06,0-1.55,0,0-.19-.07-.24-.06-.28,0-.21.44-.49,18.22-13.81a2.22,2.22,0,0,1,.45-.2" transform="translate(-56.18 -51.75)"/></g></g><path class="cls-22" d="M324.93,263.87c4.29,2,7.88,3.48,11.2,6.09a5.93,5.93,0,0,1,1.22,1.28c.4.59.3.86-.27,1.25-.91.62-5.12,2.94-11,6.39a7.27,7.27,0,0,1-4.27.79c-3-.19-5.94-.54-8.91-.85a9,9,0,0,1-1.28-.37c2.61-1.74,5.16-3,7.66-4.57a3.45,3.45,0,0,0-.64-.57c-1.58-.74-3.19-1.43-4.74-2.22a1.81,1.81,0,0,0-1.93.15c-3.24,1.91-27.71,16-28.65,16.59a2.07,2.07,0,0,1-2.07.13q-6.91-2.94-13.86-5.82c-12.57-5.27-9.17-3.81-12.24-5.26-4.39,1.46-16.84,5.56-22.9,7.65a2.79,2.79,0,0,1-2.57-.24c-13.63-8-56.7-32.74-62.45-36.11-.4-.24-1-.35-.95-1s.67-.66,1.12-.83l3.29-1.14c-.92-4.59-2.07-9-3-13.78,2.82,1.47,11.52,6.63,42.72,24.58,4.9-7.74,14.48-23.24,14.48-23.24l1.1,2.89,19.38.76-.9-3.07L324.71,187l1,3.12-8.63,5s-2.48-1.4,26.82,15.48c15,8.66,12.36,7.14,14.32,8.4l-21.62,11.12c5.6,2.43,3.68,1.54,26.55,11.17-.1.68-.6.79-1,1-11.22,6.51-34.86,20.09-37.27,21.6M276.83,219s.19.53.22.66a39.13,39.13,0,0,1,5.05,1.53c9.84,4.57,11.1,14.23,8.65,24.67-.14.62-.28,1.25-.39,1.88-.06.4-.12.88.41,1,1.6-6,2.36-12.67.48-18.27,3.86-2.31,7.77-4.27,11.58-6.61-3.44-10-13.07-11.37-14.14-11.51s-.63,0-1.18.3L276.83,219" transform="translate(-56.18 -51.75)"/></g></g><path class="cls-25" d="M468.62,351.88,241.94,221.05c1-4.88-2.35,11.5,12.53-61.89l8.6-25.26L445.42,239.17c29.8,7.07,26.47,6.34,26.72,6.34l15.8-8.36c0-.24-.21,1,7.6-37.43l2.86-2.27,1.61.36c-1.38,5.06-2.42,11.58-3.47,17.26-.35,1.93-13.39,64.55-27.92,136.81" transform="translate(-56.18 -51.75)"/><path class="cls-26" d="M457.39,288l-39.27-22.66a8.64,8.64,0,0,0-12.78,5.76l-4.57,22.36a8.65,8.65,0,0,0,4.15,9.21l39.27,22.65A8.64,8.64,0,0,0,457,319.55l4.57-22.36a8.63,8.63,0,0,0-4.15-9.2" transform="translate(-56.18 -51.75)"/><path class="cls-27" d="M440.69,168l27.42,15.85L418,223.32l-27.48-15.85C442,167,440.44,168,440.69,168" transform="translate(-56.18 -51.75)"/><polygon class="cls-27" points="357.04 100.42 306.92 139.92 279.45 124.07 329.61 84.57 357.04 100.42"/><path class="cls-28" d="M390.78,256.34l-4.59,22.36a8.64,8.64,0,0,1-12.78,5.75l-39.28-22.69a8.64,8.64,0,0,1-4.14-9.22l4.59-22.33a8.63,8.63,0,0,1,12.77-5.74l39.28,22.65a8.63,8.63,0,0,1,4.15,9.22" transform="translate(-56.18 -51.75)"/><path class="cls-19" d="M389,357.71l-8.1,4.64V348.81c2.72,1.56,5.39,3.12,8.1,4.68Z" transform="translate(-56.18 -51.75)"/><path class="cls-10" d="M380.86,348.81v13.53L350.77,345V331.45c6.52,3.76,24.45,14.08,30.09,17.36" transform="translate(-56.18 -51.75)"/><path class="cls-8" d="M350.77,345l30.09,17.35,8.1-4.63L410.2,370l-22.7,13.09c-7.88,4.56-19.31,4.55-25.71.85L313.34,356c-2.68-1.59-4.4-3.5-4.53-6.65a4.44,4.44,0,0,1,.05-1.15,8.05,8.05,0,0,1,2.26-4.13c2-2.15,1.84-1.8,26.47-16.05l13.18,7.65Z" transform="translate(-56.18 -51.75)"/><path class="cls-29" d="M321.6,216.43,317,238.78a8.63,8.63,0,0,1-12.78,5.76L265,221.85a8.66,8.66,0,0,1-4.14-9.21l4.56-22.35a8.65,8.65,0,0,1,12.79-5.76l39.27,22.69a8.63,8.63,0,0,1,4.14,9.21" transform="translate(-56.18 -51.75)"/><path class="cls-19" d="M313.34,356l48.45,27.92c6.41,3.71,17.85,3.7,25.72-.85L410.2,370v9.31c-24.54,14.15-24.54,14.5-28.83,15.6-6,1.58-14,1.6-19.58-1.61-53-30.57-48.86-28.12-50.16-29.18a7.31,7.31,0,0,1-2.87-5.44v-9.31h.05c.13,3.15,1.85,5.06,4.53,6.65" transform="translate(-56.18 -51.75)"/><path class="cls-19" d="M290.74,51.94a6.71,6.71,0,0,1,5,.8L513.65,178.53c4.58,2.68,7.17,9.58,6,14.9-41.09,202.25-38.28,188.94-38.95,190.8a7.17,7.17,0,0,1-4.47,4.28c-20.78,5.5-14.74,4.42-13.24,2.92h0a6.7,6.7,0,0,0,1.66-2.27c.81-.81,1.59-5.67,3.73-16.2.06-.25,1-4.59,2-9.21,3.79-17.82-11.79,58.18,33.66-166.15a11.94,11.94,0,0,0,0-5.28,5.45,5.45,0,0,0-.35-1.56,6.05,6.05,0,0,0-.51-1.56,3.67,3.67,0,0,0-.25-.75,13.09,13.09,0,0,0-6.54-6.65C477.93,171.29,280,56.6,278.67,56.31a5.89,5.89,0,0,0-2.32-.35.18.18,0,0,0-.15,0,1.87,1.87,0,0,0-.55.05c.26,0-2.8.66,15.09-4.12" transform="translate(-56.18 -51.75)"/><path class="cls-25" d="M271.22,76.69c1.94-8.63,2.15-12,3.12-13.79a3.33,3.33,0,0,1,4.23-1.66c1.44.46,2.28,1.52,5.88,3.33,2.12,1.2,4.23,2.51,6.39,3.77,7.68,4.51,167.26,96.36,167.51,96.51,9,5.33,18.07,10.82,26.87,15.8,11.46,6.38,12.47,6.93,13.54,8.2,2.16,2.43,1.94,5.79,1.25,9l-1.61-.36-2.86,2.27C453.1,175.19,307.67,91.18,276,73Z" transform="translate(-56.18 -51.75)"/></g><g class="cls-30"><rect class="cls-31" x="175.04" y="4.21" width="273.25" height="343.91"/></g><g class="cls-3"><g class="cls-20"><g class="cls-32"><path class="cls-33" d="M573.74,344.52V447.41a10.47,10.47,0,0,1-9.88-1.61l-.15-.13C551.9,436.43,539,434.91,525,439c-2.44.71-5.22.22-7.65.95-13.46,4-25-.26-36.5-7.16-22.06-13.22-44.51-25.83-66.82-38.66-3.32-1.92-6.79-3.62-10.56-5.62-9.87,4.68-19.65,10.78-31.13,6.23-1.68-4.83.38-6.62,4.52-7.46,6.27-1.26,12.57-2.66,17.93-8.37-8.39-7.18,7.57,3.07-65.86-39.53-3-1.77-6.34-1.76-10.21-.42,0,0-3.55-2-5.26-3-15.21-8.79-30.33-17.75-45.44-26.73-.62-.37-.81-1.44-1.56-2.83,8.56-7.6,14.65-15.31,29-6.88,51.06,29.48,100.76,58,150.91,86.95,4.07,2.37,6.59,4.49,10.93,6.23,2.24.89,8,1,9-9.72,0,0,4.93-23.08,9.35-44.91C457.29,326,496.52,349.29,291.46,231.07c-12.61-7.25-12.54-7.26-13.79-21.76-1.08-12.7-7.95-57.93-9.3-72.35,15.47,6.45,26.6,15.63,39.84,23,24.18,13.47,11.89,6.91,82.31,47.5l54.9,31.7s35-27.59,45.17-35.49a44.15,44.15,0,0,1,5-4c1.2,7.93,1.33,14.54,2.36,21.3l1.54-.13s6.15-26.64,4.25-30.12c3.84-1.15,10-2.89,15.53-4.54,2.17,4.18-3.76,25.87-5.88,38.23-2,11.25-2.63,13-15.55,75.82,24.45,14.42,49.3,28.74,74.23,43.08a14.09,14.09,0,0,1,1.72,1.17" transform="translate(-56.18 -51.75)"/></g></g><path class="cls-34" d="M253.31,128.27l-2.6,7.42a15.56,15.56,0,0,1-29.37-10.28l4.54-13Z" transform="translate(-56.18 -51.75)"/><path class="cls-27" d="M248.71,141.39l4.6-13.12,27.47,15.85-2.67,7.64a15.59,15.59,0,0,1-29.4-10.37" transform="translate(-56.18 -51.75)"/><polygon class="cls-27" points="302.14 68.72 252.03 108.22 224.6 92.37 274.72 52.87 302.14 68.72"/><path class="cls-27" d="M303.47,88.77c-.25.25,1.21-.94-50.16,39.5l-27.43-15.85C277.87,71.47,270.43,77.3,276,73Z" transform="translate(-56.18 -51.75)"/><path class="cls-27" d="M445.42,239.17l50.12-39.45c-7.8,38.38-7.6,37.19-7.6,37.43-9.45,5-16.49,8.74-22,11.69a14.14,14.14,0,0,1-20.48-9.67" transform="translate(-56.18 -51.75)"/><path class="cls-34" d="M418,223.32l-2.6,7.41A15.58,15.58,0,1,1,386,220.43l4.53-13Z" transform="translate(-56.18 -51.75)"/><path class="cls-27" d="M413.45,236.31l4.55-13,27.42,15.85-2.6,7.42a15.56,15.56,0,0,1-29.37-10.28" transform="translate(-56.18 -51.75)"/><path class="cls-27" d="M390.52,207.47l-2.6,7.43a15.56,15.56,0,1,1-29.36-10.29l4.54-12.94Z" transform="translate(-56.18 -51.75)"/><path class="cls-34" d="M363.1,191.67,360.51,199a15.57,15.57,0,0,1-29.4-10.28l4.52-12.94Z" transform="translate(-56.18 -51.75)"/><path class="cls-27" d="M303.67,172.89,308.2,160l27.43,15.85-2.57,7.35a15.57,15.57,0,1,1-29.39-10.28" transform="translate(-56.18 -51.75)"/><path class="cls-34" d="M283.16,175.72a15.55,15.55,0,0,1-6.92-18.62l4.54-13L308.2,160l-2.6,7.42a15.55,15.55,0,0,1-22.44,8.33" transform="translate(-56.18 -51.75)"/><polygon class="cls-34" points="411.93 132.12 439.36 147.97 389.24 187.42 361.82 171.57 411.93 132.12"/><polygon class="cls-34" points="357.04 100.42 384.46 116.27 334.34 155.72 306.92 139.92 357.04 100.42"/><polygon class="cls-34" points="329.61 84.57 279.45 124.07 252.02 108.22 302.14 68.72 329.61 84.57"/><path class="cls-34" d="M303.47,88.77l27.43,15.85-50.12,39.5-27.47-15.85c51.45-40.51,49.92-39.25,50.16-39.5" transform="translate(-56.18 -51.75)"/><path class="cls-35" d="M344.71,249.36a1.6,1.6,0,0,1-1,1.09c-.36,0-.74-.07-1.17-.07-1.59,0-7.38,1.89-7.38,3.11a.47.47,0,0,0,.06.21,1.31,1.31,0,0,0,.67.2c.94,0,1.87-1.7,3.16-1.7a1.61,1.61,0,0,1,.82.23l0,0c-1.16.55-2.76,2.43-4.45,2.43-.89,0-1.29-.5-1.29-1,0-.9,1.19-1.89,1.19-3.05a1.46,1.46,0,0,0-.27-.88.74.74,0,0,1-.17-.43,3.21,3.21,0,0,0,1.07.08c2.34-.18,3.92-.83,7.19-.83h.18c.66,0,1.21.1,1.38.6" transform="translate(-56.18 -51.75)"/><path class="cls-35" d="M340,247.73c1,.07,2.56.2,3.14,1-3.27,0-4.85.65-7.19.83a3.3,3.3,0,0,1-1.08-.08v-.09h0c0-.47-.09-.88-.51-1.07h0a28.94,28.94,0,0,1,5.64-.62" transform="translate(-56.18 -51.75)"/><path class="cls-36" d="M339.88,252.46a2.5,2.5,0,0,1,.34.81c-.69.65-2.25,1.84-3.62,2.86a8.26,8.26,0,0,1-7.12-.09c-4.24.77-16.41,9.34-21.55,13.09a17.13,17.13,0,0,1-6.42,1.4c-.37,0-.74-.06-1.11-.06a5.24,5.24,0,0,0-1,.14,10.51,10.51,0,0,1-.29-2.51,14.93,14.93,0,0,1,2.2-7.64c1.49-.18,4-.49,6.1-.79a195.41,195.41,0,0,0,18.08-8.09c2.18-1.37,4.26-2.89,6.41-4.3h0l.06,0a1.49,1.49,0,0,0,.86.27h0a1.37,1.37,0,0,1,1,.47,1.21,1.21,0,0,0,.46.28l0,0c.42.19.51.6.51,1.07h0a.25.25,0,0,0,0,.08.74.74,0,0,0,.17.43,1.46,1.46,0,0,1,.27.88c0,1.16-1.19,2.15-1.19,3.05,0,.52.4,1,1.29,1,1.69,0,3.29-1.88,4.45-2.43" transform="translate(-56.18 -51.75)"/><path class="cls-35" d="M334.37,248.35h0l0,0a1.21,1.21,0,0,1-.46-.28,1.37,1.37,0,0,0-1-.47h0a1.49,1.49,0,0,1-.86-.27l-.06,0c1.42-.11,2.82-.35,4.26-.43l1.53.35a18.7,18.7,0,0,1,2.31.54,29,29,0,0,0-5.65.62" transform="translate(-56.18 -51.75)"/><path class="cls-37" d="M319.49,399.75a5.26,5.26,0,0,1,.47,1.5c-1,5.64-8.42,7.16-10.56,7.16-4.9,0-5.06-.86-10.41-.86-1.07,0-2.12,0-3.14,0-3.15,0-6-.34-8.08-3.1.06-.85.1-1.71.13-2.56,2.76,2.84,8.33,2.33,11.94,2.61,2.88.21,5.79,1.93,8.59,1.93,2.44,0,9.43-2.53,11.06-6.72" transform="translate(-56.18 -51.75)"/><path class="cls-38" d="M316.05,232.16c0,.27,0,.55,0,.82a10.91,10.91,0,0,1-.92,4.14c-1.74,4.17-5.54,7.85-7.77,7.85H307c-.12,0-3.48.37-5.84.54-.68.05-1.27.08-1.68.08a6.3,6.3,0,0,1-2.88-.52h0a8,8,0,0,0,.64-3.13,8.15,8.15,0,0,0-1.22-4.35h0c.71-3.86,4.3-5.29,8.24-6.85a3.94,3.94,0,0,0,2.52-3.62v0A2.69,2.69,0,0,0,306,225a13.54,13.54,0,0,1,2-.24,6.16,6.16,0,0,1,3.78,1.51,8,8,0,0,1,4.27,5.86" transform="translate(-56.18 -51.75)"/><path class="cls-35" d="M315.15,237.12c0,.58,0,1.28,0,2,0,1.11-2.26,11.1-6.59,11.1-.81,0-1.61-.2-2.46-.2-2.61,0-3.64,2.08-4.05,4.67-.1.62-.16,1.28-.2,1.94a11.83,11.83,0,0,1-4,.6,12.21,12.21,0,0,1-3.54-.5c3.24-8.3,6.33-4.58,6.81-11.22,2.36-.17,5.72-.54,5.84-.54h.4c2.23,0,6-3.68,7.77-7.85" transform="translate(-56.18 -51.75)"/><path class="cls-39" d="M308.94,289a34.16,34.16,0,0,1-.19-3.65c0-1.09.05-2.18.11-3.27-.41-17.82-5.9-17.16-5.9-22.18a3.07,3.07,0,0,1,.26-1.17c2.42,2.71,11.3,13,11.3,18.82a8.28,8.28,0,0,1-.56,3.1,5.86,5.86,0,0,1,0,.75c0,3.67-1,9.64-4.25,12a30.14,30.14,0,0,1-.81-4.38" transform="translate(-56.18 -51.75)"/><path class="cls-35" d="M313.62,331.93a4.1,4.1,0,0,1,.6-1.18c-.18,5.88-3,6.45-4.15,6.66v-.11a16.49,16.49,0,0,0,3.55-5.37" transform="translate(-56.18 -51.75)"/><path class="cls-35" d="M313.25,331.34a2.19,2.19,0,0,1,.37.59,16.49,16.49,0,0,1-3.55,5.37v.11a2.36,2.36,0,0,0-.42.1,4.91,4.91,0,0,1-2.46.62c-.3,0-.6-.18-.93-.65l.33,0c1.84,0,3.7-1.86,4.78-3.94.26-.76,1.15-2.19,1.88-2.23" transform="translate(-56.18 -51.75)"/><path class="cls-37" d="M312.65,397.22v0a2.33,2.33,0,0,1-2.42,1.9c-.93,0,.21.31-9.1-3a22.79,22.79,0,0,0,1.62-2.46c1.36,1,5,3.51,9.44,3.51Z" transform="translate(-56.18 -51.75)"/><path class="cls-40" d="M287.9,401.93c0-.22,0-.44,0-.65a7.58,7.58,0,0,0,3.66.91,10.13,10.13,0,0,0,5-1.75h0a17.64,17.64,0,0,0,4.55-4.27c9.31,3.28,8.17,3,9.1,3a2.32,2.32,0,0,0,2.42-1.89v0h0c.71,0,1.42-.09,2.12-.09a4.84,4.84,0,0,1,4.72,2.62c-1.63,4.19-8.62,6.72-11.06,6.72-2.8,0-5.71-1.72-8.59-1.93-3.61-.28-9.18.23-11.94-2.61" transform="translate(-56.18 -51.75)"/><path class="cls-36" d="M301.17,295.71c-.27-1.4-.59-3-.94-4.8h0a6.29,6.29,0,0,0,3.23.87,6.82,6.82,0,0,0,2.06-.32c1.74,7.69,4.62,18.69,4.62,25.08,0,1.74,0,3.48,0,5.2,0,2.69,1.26,5.55,1.26,8.22a6.18,6.18,0,0,1-.55,2.67h0a3.21,3.21,0,0,0-1.3.79c-.77,1.71-2.15,3.31-4.1,3.31a2.81,2.81,0,0,1-.43,0,2.28,2.28,0,0,1-1.12-.45,1.73,1.73,0,0,1-.11-.65.87.87,0,0,1,.05-.28,4.67,4.67,0,0,0,.72.05c2,0,2.46-1.25,2.46-2.85,0-1.24-.26-2.69-.26-3.93a9.54,9.54,0,0,1,.8-3.52,11.59,11.59,0,0,0,.2-2.19,20.7,20.7,0,0,0-.39-3.67c-3.57-7.44-5.31-18.13-5.47-19.16a.6.6,0,0,1,0-.08,7.19,7.19,0,0,1,.05-.81c-.2-.75-.45-2-.74-3.46" transform="translate(-56.18 -51.75)"/><path class="cls-35" d="M310.82,332.63a6.18,6.18,0,0,0,.55-2.67c0-2.67-1.26-5.53-1.26-8.22,0-1.72,0-3.46,0-5.2,0-6.39-2.88-17.39-4.62-25.08h0a6.52,6.52,0,0,0,3.42-2.47,30.14,30.14,0,0,0,.81,4.38A45.91,45.91,0,0,0,311.3,298c1.58,1.76,1.8,5.28,1.8,7.26h0c0,4.49-.77,9.61-.77,11.9a38.79,38.79,0,0,0,.46,5.17c.67,1.94,1.44,2.42,1.44,7.78,0,.21,0,.41,0,.61a4.1,4.1,0,0,0-.6,1.18,2.19,2.19,0,0,0-.37-.59c-.73,0-1.62,1.47-1.88,2.23-.18-.44-.11-.95-.39-.95a.41.41,0,0,0-.16,0Z" transform="translate(-56.18 -51.75)"/><path class="cls-37" d="M309,371.79a6,6,0,0,1,.18,1.49,12.53,12.53,0,0,1-.26,2.35c-2,3.74-4.56,5.27-7,5.61.21-.75.4-1.47.6-2.16,1.78-.75,5.56-2.46,6.5-7.29" transform="translate(-56.18 -51.75)"/><path class="cls-39" d="M308.75,285.34a34.16,34.16,0,0,0,.19,3.65,6.52,6.52,0,0,1-3.42,2.47c-7.17-31.81-9.38-30.61-10.7-33.13a32.81,32.81,0,0,0,5.62.39,4.43,4.43,0,0,0,2.61-.88c0,.28.07.55.11.81l.06.07a3.07,3.07,0,0,0-.26,1.17c0,5,5.49,4.36,5.9,22.18-.06,1.09-.11,2.18-.11,3.27" transform="translate(-56.18 -51.75)"/><path class="cls-40" d="M306.09,369a3.56,3.56,0,0,1,2.94,2.82c-.94,4.83-4.72,6.54-6.5,7.29,1.19-4.31,2.12-7.53,2.86-9.94a2,2,0,0,1,.7-.17" transform="translate(-56.18 -51.75)"/><path class="cls-41" d="M305.52,291.46a6.82,6.82,0,0,1-2.06.32,6.29,6.29,0,0,1-3.23-.87h0c-1.23-6.19-2.89-13.6-4.76-15.48a8.73,8.73,0,0,0-.09,1.27c0,5.14,2.85,8.83,2.85,18.42v.26c-7.26-1.36-11-6.27-11.91-8.58h0a3,3,0,0,0,.28-1.34v0a7.3,7.3,0,0,1-.87-3.17c0-1,.39-2.32.39-3.63,0,0-.32-4.45-.66-7.2-.68-1.74-1.74-3.92-2.72-6.3a26.43,26.43,0,0,1-2.34-9.63c0-5.7,4-7.89,9.5-8.15a5,5,0,0,0,2.57.74h.17a5,5,0,0,1-.42,1.1h0c-.86.21-1.69.51-2.57.67a1.36,1.36,0,0,0-1.15,1.32v0c0,4.54,2.39,6.42,6.32,7.13,1.32,2.52,3.53,1.32,10.7,33.13Z" transform="translate(-56.18 -51.75)"/><path class="cls-35" d="M305.42,336.74c1.95,0,3.33-1.6,4.1-3.31a3.21,3.21,0,0,1,1.3-.79.44.44,0,0,1,.16,0c.28,0,.21.51.39.95-1.08,2.08-2.94,3.94-4.78,3.94l-.33,0a2.2,2.2,0,0,1-1.27-.76h0a2.81,2.81,0,0,0,.43,0" transform="translate(-56.18 -51.75)"/><path class="cls-42" d="M288.9,384.61c0-.65,0-1.29,0-1.91.36-18.81,4.61-23.68,6.33-27.79,0-.33,0-.67,0-1,0-3-.55-6-.55-9.08v-.4a32.44,32.44,0,0,1-1.35-9.83v-2.92c-3.84-6-10.24-20-7.06-28.11-5.38,5.32-1.57,13.15-1.27,13.74-1.95-3.39-4.1-8.38-4.1-12.06,0-3.42,1.42-7.21,2.81-10.18.73-1.56,1.45-2.89,2-3.83h0a18.16,18.16,0,0,0,11.86,8.68c-.28,2.94-.65,5.86-.65,8.84,0,9.21,6.51,35.52,6.51,41.08a34.93,34.93,0,0,1-1.84,10.25,33.41,33.41,0,0,0-2.3,4.1c-1.82,4.6-4.11,30.93-4.11,30.95a10.72,10.72,0,0,0,1.39,5.31h0a10.13,10.13,0,0,1-5,1.75,7.58,7.58,0,0,1-3.66-.91l-.2-.12a12.88,12.88,0,0,1-.67-4.37c0-5.49,1.53-4.23,1.53-7.73,0-.48,0-1,0-1.44a1.85,1.85,0,0,1,0-.23,14.47,14.47,0,0,1,.19-2c0-.25.09-.5.14-.75" transform="translate(-56.18 -51.75)"/><path class="cls-39" d="M302.09,254.68a7,7,0,0,1,1,3.16,4.43,4.43,0,0,1-2.61.88,32.81,32.81,0,0,1-5.62-.39,7.12,7.12,0,0,1-.54-1.48.69.69,0,0,0,.05-.13,12.21,12.21,0,0,0,3.54.5,11.83,11.83,0,0,0,4-.6c0-.67.1-1.32.2-1.94" transform="translate(-56.18 -51.75)"/><path class="cls-39" d="M301.91,299.17a7.19,7.19,0,0,0-.05.81.6.6,0,0,0,0,.08,15.48,15.48,0,0,1-1.65.09,14.41,14.41,0,0,1-2.28-.18,39.28,39.28,0,0,0,.29-4.59,20.48,20.48,0,0,0,2.94.33c.29,1.5.54,2.71.74,3.46" transform="translate(-56.18 -51.75)"/><path class="cls-39" d="M300.23,290.91c.35,1.75.66,3.4.94,4.8a20.48,20.48,0,0,1-2.94-.33v-.26c0-9.59-2.85-13.28-2.85-18.42a8.73,8.73,0,0,1,.09-1.27c1.87,1.88,3.53,9.29,4.76,15.48" transform="translate(-56.18 -51.75)"/><path class="cls-36" d="M299.46,245.58c.41,0,1,0,1.68-.08-.48,6.64-3.57,2.92-6.81,11.22l-.09,0c-2.44-.76-4.33-2.39-4.33-5h0a1.26,1.26,0,0,1,.8-1.13,3,3,0,0,0,1.51-1.37,4.51,4.51,0,0,0,.42-1.1,4.56,4.56,0,0,0,3.94-3h0a6.3,6.3,0,0,0,2.88.52" transform="translate(-56.18 -51.75)"/><path class="cls-41" d="M297.58,299.91a18.16,18.16,0,0,1-11.86-8.68h0l.2-.38c-.07-.7-.27-1.4-.27-2.11a3.92,3.92,0,0,1,.67-1.94c.93,2.31,4.65,7.22,11.91,8.58a39.28,39.28,0,0,1-.29,4.59l-.36-.06" transform="translate(-56.18 -51.75)"/><path class="cls-43" d="M297.94,300a14.41,14.41,0,0,0,2.28.18,15.48,15.48,0,0,0,1.65-.09c.16,1,1.9,11.72,5.47,19.16a20.7,20.7,0,0,1,.39,3.67,11.59,11.59,0,0,1-.2,2.19,9.54,9.54,0,0,0-.8,3.52c0,1.24.26,2.69.26,3.93,0,1.6-.44,2.85-2.46,2.85a6.39,6.39,0,0,1-.72-.05.87.87,0,0,0-.05.28,1.73,1.73,0,0,0,.11.65,2.28,2.28,0,0,0,1.12.45h0a2.21,2.21,0,0,0,1.26.76c.34.47.64.64.94.64a4.9,4.9,0,0,0,2.46-.61,2.36,2.36,0,0,1,.42-.1c.11,2.74.28,5.17.34,6.49-1,12.09-3.24,17.28-4,22.12-.28.85-.61,1.88-1,3.11-.74,2.42-1.67,5.64-2.86,9.95-.2.69-.39,1.41-.6,2.16s-.4,1.47-.61,2.26c.06.64.13,1.28.13,1.92,0,2.11-1,3.23-1,5s1.68,1.85,2.38,3.2l-.07.12a21.68,21.68,0,0,1-1.62,2.45,17.64,17.64,0,0,1-4.55,4.27,10.72,10.72,0,0,1-1.39-5.31s2.29-26.35,4.11-30.95a33.41,33.41,0,0,1,2.3-4.1,34.93,34.93,0,0,0,1.84-10.25c0-5.56-6.51-31.87-6.51-41.08,0-3,.37-5.9.65-8.84l.36.06" transform="translate(-56.18 -51.75)"/><path class="cls-44" d="M297.22,241.93a7.8,7.8,0,0,1-.65,3.13,4.54,4.54,0,0,1-3.93,3h-.17a5,5,0,0,1-2.57-.74,7.85,7.85,0,0,1-2.64-2.67c.82-2.62,3.61-6.92,8.74-7.1a8.15,8.15,0,0,1,1.22,4.35" transform="translate(-56.18 -51.75)"/><path class="cls-45" d="M296,237.58h0c-5.13.18-7.92,4.48-8.74,7.1l-.1-.16a4.68,4.68,0,0,1-1.41-3.4,8.58,8.58,0,0,1,4.83-7.13,4,4,0,0,1,.74-.25,9.75,9.75,0,0,1,4.68,3.84" transform="translate(-56.18 -51.75)"/><path class="cls-43" d="M295.28,353.9c0,.34,0,.68,0,1-1.72,4.11-6,9-6.33,27.79h0a4.87,4.87,0,0,1-1.64.31,3.29,3.29,0,0,1-2.3-.9,3.22,3.22,0,0,1-.54-.63,4,4,0,0,1-.53-3.3,17.39,17.39,0,0,1,1.65-3.35c-1.27-2.54-1.27-5.87-1.27-10.27,0-6.1.87-12.08,1.5-18.15a7.65,7.65,0,0,1,.15-.94c1.6-6,3.52-8.21,3.87-13.66a84,84,0,0,1-3.18-12c-.46-.64-1-1.48-1.57-2.45v0c-.3-.59-4.11-8.42,1.27-13.74-3.18,8.1,3.22,22.1,7.06,28.11v2.92a32.44,32.44,0,0,0,1.35,9.83v.4c0,3,.55,6.07.55,9.08" transform="translate(-56.18 -51.75)"/><path class="cls-41" d="M292.22,249.19a3,3,0,0,1-1.51,1.37,1.26,1.26,0,0,0-.8,1.13h0c0,2.6,1.89,4.22,4.33,5a1.24,1.24,0,0,1,0,.16,7.12,7.12,0,0,0,.54,1.48c-3.93-.71-6.32-2.59-6.32-7.13v0a1.36,1.36,0,0,1,1.15-1.32c.88-.16,1.71-.46,2.57-.67Z" transform="translate(-56.18 -51.75)"/><path class="cls-46" d="M291.32,233.74a4,4,0,0,0-.74.25h0c1-5.68,4.64-9.32,11.16-9.32a16.46,16.46,0,0,1,3.8.44L306,225a2.69,2.69,0,0,1,.79,2.06v0a3.94,3.94,0,0,1-2.52,3.62c-3.94,1.56-7.53,3-8.24,6.85a9.75,9.75,0,0,0-4.68-3.84" transform="translate(-56.18 -51.75)"/><path class="cls-40" d="M288.92,382.7h0c0,.62,0,1.26,0,1.91,0,.25-.1.5-.14.75a3.67,3.67,0,0,1-1,.11c-1.56,0-3.4-.78-3.94-2a9.42,9.42,0,0,1,.58-2,3.22,3.22,0,0,0,.54.63,3.29,3.29,0,0,0,2.3.9,4.87,4.87,0,0,0,1.64-.31" transform="translate(-56.18 -51.75)"/><path class="cls-37" d="M288.76,385.36a14.47,14.47,0,0,0-.19,2h0a2,2,0,0,1-1,.24,4.38,4.38,0,0,1-3.84-2.39v-.17a9.36,9.36,0,0,1,.16-1.63c.53,1.25,2.38,2,3.94,2a3.67,3.67,0,0,0,1-.11" transform="translate(-56.18 -51.75)"/><path class="cls-47" d="M348.69,296.71a1.94,1.94,0,0,1,1-.3c.71,0,.2,2.88.2,2.88l-1.72.11Z" transform="translate(-56.18 -51.75)"/><path class="cls-48" d="M356.17,400.16a.33.33,0,0,0,0,.11c-.16.84-1.39,6.55-2.15,7.06s-5.73,7.79-8,11.1-9.61,12.7-12.27,18.48-3.89,4.48-3.89,4.48-4.9-1.17-3.07-3.53,7.36-20.18,9.72-29.36a16.6,16.6,0,0,1,9.91-11.65Z" transform="translate(-56.18 -51.75)"/><path class="cls-49" d="M356.15,400.27c-.16.84-1.39,6.55-2.15,7.06s-5.73,7.79-8,11.1-9.61,12.7-12.27,18.48-3.89,4.48-3.89,4.48,6.44-15,9.36-18.93A61.31,61.31,0,0,1,349.58,411c4.1-3.37,6.26-9.77,6.57-10.7" transform="translate(-56.18 -51.75)"/><path class="cls-49" d="M345,397.48s8.27,6.27,7.15,10.67,2.56-2.35,2.56-2.35l.82-3.94Z" transform="translate(-56.18 -51.75)"/><polygon class="cls-50" points="311.41 395.71 309.08 399.67 308.67 395.71 309.61 394.77 311.41 395.71"/><path class="cls-48" d="M379.88,453.87c-1.52,2-7.27,2.67-10.33,2.67s-7.25,2.67-10.23.64-.61-5.34-.1-8.21-1.12-15.81-2.56-22.65.72-13,1.44-15.48.48-9.4.48-9.4l12.91-2.56s0,.53-.08,1.37c-.21,2.89-.76,9.46-1.54,10.7-1,1.61-1.44,6.2-1.23,8.87s-.93,11.42-1.94,15.26c-.95,3.55-1.65,11.53-.28,13.67a1.2,1.2,0,0,0,.38.42c1.84,1.19,6.95-.2,9.19.64s5.43,2,3.89,4.06" transform="translate(-56.18 -51.75)"/><path class="cls-49" d="M369.87,411c-1,1.61-1.44,6.2-1.23,8.87s-.93,11.42-1.94,15.26c-.95,3.55-1.65,11.53-.28,13.67l-1.16,2.67a227.25,227.25,0,0,1-2.41-23c-.27-9.66,1.16-11.38,2.92-15.18s0-10,0-10l5.64-3c-.21,2.89-.76,9.46-1.54,10.7" transform="translate(-56.18 -51.75)"/><path class="cls-48" d="M364.24,294.79s-.44.55-1,1.17a7.25,7.25,0,0,1-1.62,1.39c-1,.53-.32,1.72-1,3.53a2.78,2.78,0,0,0,1,3.09,20,20,0,0,1-8.79,1.72c-5.22-.11-6.66-5.45-4.5-6.95a.24.24,0,0,0,.08-.09,1.15,1.15,0,0,1,.19-.13c1.84-1.7,1.57-6,1.57-6Z" transform="translate(-56.18 -51.75)"/><path class="cls-51" d="M339.23,301.5s-.09,13.93.73,18.84.68,12.25,1.57,15.09,2.25,8.19,4.09,10.11,4-15.2,4-15.2l-2.53-10.28Z" transform="translate(-56.18 -51.75)"/><path class="cls-41" d="M375.7,398.58s1.46,1.39-4.42,3.28a55.44,55.44,0,0,1-5.51,1.41c-12.17,2.56-22.91-6.83-22.61-8.11s-.91-16.24-2.85-27.24,1.2-13.06,1.2-13.06l22,3.11L375,359.6s1.63,9.93,2.37,17.51-1.65,21.47-1.65,21.47" transform="translate(-56.18 -51.75)"/><path class="cls-42" d="M375,351.38v8.22c-1.5,2.14-6,3-11.43,3.13a86.08,86.08,0,0,1-14.05-1c-6.87-1.06-8-4.61-8-6.88a9.59,9.59,0,0,1,.23-1.87c.09-.64,5.41-13.57,5.58-18.8s-6.72-18.79-8.56-24.77.93-9.72,3.68-10.78a9.36,9.36,0,0,1,4.88-.64l.45,5.12L363.49,306l3.72,2.53s1.47,2,3.29,4.5h0c1.44,2.05,3.13,4.44,4.46,6.51,3,4.59.19,5.65-1.65,9.29S375,351.38,375,351.38" transform="translate(-56.18 -51.75)"/><path class="cls-52" d="M408.15,344.4c.06,1.5-3.64,2-3.64,2l0,4.41a3.92,3.92,0,0,1-1.1,3s-3.89,1.92-3.74.58c0-.07,0-.14,0-.18a1.37,1.37,0,0,1,.81-.88h0a1.26,1.26,0,0,1,.46-.18,3.58,3.58,0,0,1-1.14-.15,19.62,19.62,0,0,1-3-1.81l-.06-.16-.95-2.12s-1.5-3.41-.4-4.85a5.1,5.1,0,0,1,3.4-2.2c.91,0,1.29.39,1.41.86a2,2,0,0,1,0,1.08v0l3.07.29c1.14.13,3.51-.71,4.44-.29a.6.6,0,0,1,.4.58" transform="translate(-56.18 -51.75)"/><path class="cls-41" d="M340.3,367.93s3.63,9.46,18.28,6.75c0,0,6.74.31,5.66,13.82s-2.53,15.21-2.53,15.21,1.79-20-3.13-20.31-16.09,3.91-18.28-15.47" transform="translate(-56.18 -51.75)"/><path class="cls-41" d="M375.7,398.58s1.46,1.39-4.42,3.28c.62-7,2.28-37.54-14-37.3-18.49.27-15.72-9.7-15.72-9.7,0,2.27,1.12,5.82,8,6.88,9.82,1.48,22.71,1.81,25.48-2.14,0,0,1.63,9.93,2.37,17.51s-1.65,21.47-1.65,21.47" transform="translate(-56.18 -51.75)"/><path class="cls-53" d="M329.31,452.81a9.23,9.23,0,0,1-1.56.94,4.11,4.11,0,0,1-4.74-.94c-2.86-2.57-4.8-3-4.8-3a1.56,1.56,0,0,1-.17-.25,3.86,3.86,0,0,1,1-5.52c3.38-2.45,4-7.79,7.35-7.37,0,0,2.16-.74,3.38.43s2.46,2.25,2.46,3.74-2,6.3-2.91,7.15,1.07,4.06,0,4.81" transform="translate(-56.18 -51.75)"/><path class="cls-54" d="M327.75,453.75a4.11,4.11,0,0,1-4.74-.94c-2.86-2.57-4.8-3-4.8-3a1.56,1.56,0,0,1-.17-.25,2.12,2.12,0,0,1,.68-3c1.94-1.38,3.48-5.12,5.42-5.65s4.91.11,5.32,2.46-1.84,3-2.15,5.44a16.12,16.12,0,0,0,.44,4.89" transform="translate(-56.18 -51.75)"/><path class="cls-51" d="M375,351.38v8.22c-1.5,2.14-6,3-11.43,3.13-5.49-6.13-1.94-18.9-.74-23.51s-3.91-15.44-3.91-15.44c2-8,7.52-10.23,11.6-10.72h0c1.44,2.05,3.13,4.44,4.46,6.51,3,4.59.19,5.65-1.65,9.29S375,351.38,375,351.38" transform="translate(-56.18 -51.75)"/><polygon class="cls-55" points="327.4 312.82 331 312.82 331.9 300.1 328.61 300.68 327.4 312.82"/><path class="cls-51" d="M397.08,350.27a6.31,6.31,0,0,1-.25.88s-17.94,3.07-24.13,1.22c-2.9-.86-4.78-4.1-6-7.66a46.74,46.74,0,0,1-1.65-6.63V338c-.28-1.54-.44-2.8-.55-3.53-.32-2.16-3.55-7.5-5.6-10.72a6.5,6.5,0,0,1,.17-7.28c2.79-3.7,7.86-3.83,11-2.84a2,2,0,0,1,1,.73c1.23,1.61,1.57,5.42,2.62,9.19a128.23,128.23,0,0,1,2.18,12.84c.53,3.82.89,6.9.89,6.9s.33,0,.88.05a71.38,71.38,0,0,1,8.33.68c2.51.49,9.13-1,9.13-1,3.06,1.26,2.43,5.38,2,7.21" transform="translate(-56.18 -51.75)"/><path class="cls-56" d="M400.19,396.9c-1.58,4.76-5.32,5.91-7.8,5.07a1.28,1.28,0,0,1-.31-.11,7.52,7.52,0,0,0-4.46-.42c-.63.11-1.25.27-1.82.42-1.79.47-3.12-2.45-3.12-2.45l-2.84-5s-.5-29.82,1.61-29.82h5.73l13-1s1.63,28.34,0,33.33" transform="translate(-56.18 -51.75)"/><path class="cls-55" d="M392.39,402a1.28,1.28,0,0,1-.31-.11,7.52,7.52,0,0,0-4.46-.42,23.27,23.27,0,0,0,.87-4.59c.19-1.76.38-3.5.59-5.24a66.44,66.44,0,0,0,.59-9.45c-.06-1.65-.21-3.48.78-4.76.3,3.42.51,6.86.72,10.28.27,4.19.08,8.69.87,12.79.1.51.25,1,.35,1.5" transform="translate(-56.18 -51.75)"/><path class="cls-43" d="M377.66,343.37a3.51,3.51,0,0,0-2.43,1.43,32.21,32.21,0,0,0,.66-8.38c.53,3.82.89,6.9.89,6.9s.33,0,.88.05" transform="translate(-56.18 -51.75)"/><path class="cls-43" d="M397.08,350.27a6.31,6.31,0,0,1-.25.88s-17.94,3.07-24.13,1.22c-2.9-.86-4.78-4.1-6-7.66a.41.41,0,0,1,0,.09c.32,1,3.08,2.15,3.61,3,.76,1.18,1.06,2.93,1.38,3s1.67.77,2.49,1.1,11.47-.82,12.15-1.9-.38-5.91-.38-5.91l4.65,6.8Z" transform="translate(-56.18 -51.75)"/><path class="cls-56" d="M386,344.05s2.92,4.48,2.49,21.76h5.75s-3.11-20.42-5.44-22.07a4.44,4.44,0,0,0-2.8.31" transform="translate(-56.18 -51.75)"/><path class="cls-43" d="M371.09,314.39v0s-6.7-2.65-10.16,2c-1.59,2.1-1.82,5.72,1.08,10.74a26.43,26.43,0,0,1,3,10.9c-.28-1.54-.44-2.8-.55-3.53-.32-2.16-3.55-7.5-5.6-10.72a6.5,6.5,0,0,1,.17-7.28c2.79-3.7,7.86-3.83,11-2.84a2,2,0,0,1,1,.73" transform="translate(-56.18 -51.75)"/><path class="cls-53" d="M366.25,446.78l-.43-.24a1.06,1.06,0,0,1,.43.24" transform="translate(-56.18 -51.75)"/><path class="cls-53" d="M380.45,453v.09c-.07,1.9-1.82,3.29-7.93,3.75-7.31.57-11,2.25-12.06,1.92-.76-.22-2.88-1-3.47-2.87a.15.15,0,0,0,0-.06,4.1,4.1,0,0,1,.11-2.5c1.22-3.86,2.15-4.39,2.15-4.39s4.69,2.89,6.64,0a1.54,1.54,0,0,0,.36-.26,1.19,1.19,0,0,0,.46-1.24,1.88,1.88,0,0,0-.42-.66,11.51,11.51,0,0,0,5.13,1.59c2.56-.07,8.26,1.1,8.9,3.57a5.29,5.29,0,0,1,.15,1.06" transform="translate(-56.18 -51.75)"/><path class="cls-54" d="M380.45,453.11c-.07,1.9-1.82,3.29-7.93,3.75-7.31.57-11,2.25-12.06,1.92-.76-.22-2.88-1-3.47-2.87a.15.15,0,0,0,0-.06c0-.47-.27-2.87,1-2.74s0,2.47,1.07,3.31.49,1.19,3.74.75,6.66-1.48,8.58-1.26,7-.64,7.71-1.34c.6-.56,1.17-.95,1.34-1.46" transform="translate(-56.18 -51.75)"/><path class="cls-54" d="M325.19,441.51s1.23-3.65,2.38-3.42,2.08.67,2.3,1.2-.93,3.61-1.29,4.06-3.39-1.84-3.39-1.84" transform="translate(-56.18 -51.75)"/><path class="cls-54" d="M369.58,449.58c-.05.19-.35.27-.68.18s-.54-.33-.49-.52.36-.27.68-.18.54.33.49.52" transform="translate(-56.18 -51.75)"/><path class="cls-54" d="M371.52,449.73c0,.2-.31.32-.64.29s-.59-.23-.57-.43.31-.33.64-.29.59.23.57.43" transform="translate(-56.18 -51.75)"/><path class="cls-54" d="M373.72,449.84c0,.2-.3.33-.64.29s-.58-.23-.56-.43.31-.32.64-.28.59.23.56.42" transform="translate(-56.18 -51.75)"/><path class="cls-54" d="M378,451.24s-7-.29-8.3-.23-3.68-1.23-3.78-2.05a1.54,1.54,0,0,0,.36-.26,4.16,4.16,0,0,0,3.44,2c2.51,0,7.94.46,8.28.51" transform="translate(-56.18 -51.75)"/><g class="cls-20"><g class="cls-57"><path class="cls-58" d="M360.56,300.88a2.78,2.78,0,0,0,1,3.09,20,20,0,0,1-8.79,1.72c-5.22-.11-6.66-5.45-4.5-6.95a.24.24,0,0,0,.08-.09,1.15,1.15,0,0,1,.19-.13s.26,3.11,1.73,3.44,6,.86,6.66.26,1.75-1.49,1.77-2.62a17.38,17.38,0,0,0-.19-2.58s-4.39,1.06-5.28,1.72a7.07,7.07,0,0,1-2.62.86l3.13-2.78,5.6-.86h3.84a7.25,7.25,0,0,1-1.62,1.39c-1,.53-.32,1.72-1,3.53" transform="translate(-56.18 -51.75)"/></g></g><path class="cls-59" d="M350,273.44c-1.08,1-3.58-.22-5.12,1.6s-4,4.59-2.65,9.18,8.69,13.35,8.38,15.37c0,0,5.83-3.52,8.39-2.88s12.48-3.31,12.48-3.31,4-15.27-3.79-19.43-12.47-5.34-17.69-.53" transform="translate(-56.18 -51.75)"/><path class="cls-43" d="M348.69,296.71l-3.07,2.88s-.2,6.52,5.52,7.27,12.48-1,16.06,1.7c0,0-2.37-3.51-4.5-4.69s-9.1-.5-12.17-1.23-1.84-5.93-1.84-5.93" transform="translate(-56.18 -51.75)"/></g></g></g></g></g></svg>