<?xml version="1.0" encoding="UTF-8"?>
<svg width="85px" height="85px" viewBox="0 0 85 85" version="1.1" xmlns="http://www.w3.org/2000/svg" xmlns:xlink="http://www.w3.org/1999/xlink">
    <title>fast-service</title>
    <g id="Website-Pages" stroke="none" stroke-width="1" fill="none" fill-rule="evenodd">
        <g id="Landing-Page" transform="translate(-918.000000, -2172.000000)" fill="#505050" fill-rule="nonzero" stroke="#505050" stroke-width="0.5">
            <g id="Online-Menu-Boost" transform="translate(295.000000, 1205.000000)">
                <g id="Faster-Service" transform="translate(480.000000, 968.000000)">
                    <g id="Fast-Service" transform="translate(143.000000, 0.000000)">
                        <path d="M84.4671088,40.6167069 C83.6939023,24.0661234 69.4870638,11.2684141 52.7353642,12.0325106 C37.0662938,12.7471545 24.5269771,25.1357548 23.8038243,40.6167069 L19.50411,40.6167069 L15.4438132,34.1470449 C15.1884695,33.7401838 14.7383366,33.4927473 14.2537262,33.4927473 L1.90044813,33.4927473 C1.1272416,33.4925744 0.5,34.1119439 0.5,34.8758675 C0.5,35.1335058 0.572976086,35.3861297 0.710361129,35.6050359 L4.75245661,42.0428821 L0.710361129,48.4821116 C0.302931345,49.1313948 0.505246135,49.9840221 1.16241917,50.3867333 C1.38398537,50.5224689 1.63967906,50.5944002 1.90044813,50.5944002 L14.2535511,50.5944002 C14.7381616,50.5944002 15.1882945,50.3469636 15.4436381,49.9401025 L19.5585389,43.3832931 L23.8036493,43.3832931 C24.5768558,59.9338766 38.7836943,72.7315859 55.5353939,71.9674894 C72.2870935,71.2033928 85.2403153,57.1674633 84.4671088,40.6167069 Z M13.4736941,47.8278139 L4.41223174,47.8278139 L7.14803173,43.4704406 L16.2052938,43.4704406 L13.4736941,47.8278139 Z M7.15223204,40.6167069 L4.41223174,36.2593335 L13.4736941,36.2593335 L16.2094941,40.6167069 L7.15223204,40.6167069 Z M54.2058217,69.2356817 C39.5117475,69.2545057 27.3858111,57.88228 26.6402566,43.3832931 L32.3596747,43.3832931 C33.1328812,55.2766745 43.5184904,64.299031 55.5563954,63.5349345 C67.5943004,62.7708379 76.726293,52.5100883 75.9529114,40.6167069 C75.1795299,28.7233255 64.7940957,19.700969 52.7561907,20.4650655 C41.7963646,21.1606891 33.0635762,29.7884612 32.3596747,40.6167069 L26.6402566,40.6167069 C27.3900114,26.1481524 39.4704445,14.7901055 54.1340664,14.7670848 C69.3579043,14.7475692 81.7153827,26.9248715 81.7351829,41.9659364 C81.7549356,57.0070013 69.4296596,69.2161193 54.2058217,69.2356817 Z M54.1326663,40.6167069 L52.6989615,40.6167069 C53.4721681,39.8304776 54.744161,39.8123219 55.5399442,40.5762456 C56.3357274,41.3401692 56.3541037,42.596891 55.5808972,43.3832931 C54.8076907,44.1696953 53.5356977,44.1876781 52.7397395,43.4235815 C52.7259135,43.4102673 52.7122625,43.3967802 52.6989615,43.3832931 L54.1326663,43.3832931 C54.9058729,43.3832931 55.5327687,42.7639236 55.5327687,42 C55.5327687,41.2360764 54.9058729,40.6167069 54.1326663,40.6167069 Z M55.5623459,46.5444637 C58.1026566,45.7805401 59.5351363,43.1265193 58.7617547,40.6168798 C57.9885482,38.1070673 55.3022768,36.6917855 52.7621412,37.4558821 C51.2290291,37.9168645 50.0293164,39.1023467 49.5627323,40.6168798 L43.7103045,40.6168798 C44.483511,34.9244557 49.7811482,30.9289864 55.5429194,31.69291 C61.3046906,32.4568336 65.3485362,37.690869 64.5753297,43.383466 C63.8021232,49.0760631 58.5044859,53.0713594 52.7427147,52.3074358 C48.040471,51.6839164 44.3414006,48.0294289 43.7103045,43.383466 L49.5627323,43.383466 C50.3359388,45.8931056 53.0222102,47.3083874 55.5623459,46.5444637 Z M55.5346938,55.0933882 C62.8537289,54.3294645 68.1602918,47.8480446 67.3870853,40.6167069 C66.6138787,33.3855421 60.0536992,28.1426882 52.7344891,28.9066118 C46.4826821,29.5591804 41.542596,34.4397843 40.8820977,40.6167069 L35.1598794,40.6167069 C35.9330859,30.2548039 45.0621033,22.4741259 55.5497449,23.2382224 C66.0373866,24.002319 73.9127873,33.0215631 73.1394058,43.3832931 C72.3660242,53.7450232 63.2371819,61.5258741 52.7495402,60.7619505 C43.3373522,60.0763558 35.8538051,52.6824812 35.1598794,43.3832931 L40.8820977,43.3832931 C41.6553042,50.6146308 48.2154838,55.8573118 55.5346938,55.0933882 Z" id="Shape"></path>
                        <rect id="Rectangle" x="14.5" y="0" width="12" height="2"></rect>
                        <rect id="Rectangle" x="25.5" y="10" width="12" height="2"></rect>
                        <rect id="Rectangle" x="9.5" y="0" width="2" height="2"></rect>
                        <rect id="Rectangle" x="5.5" y="27" width="12" height="2"></rect>
                        <rect id="Rectangle" x="1.5" y="27" width="2" height="2"></rect>
                        <rect id="Rectangle" x="12.5" y="57" width="8" height="2"></rect>
                        <rect id="Rectangle" x="6.5" y="57" width="2" height="2"></rect>
                        <rect id="Rectangle" x="29.5" y="69" width="2" height="2"></rect>
                        <rect id="Rectangle" x="5.5" y="81" width="12" height="2"></rect>
                        <rect id="Rectangle" x="1.5" y="81" width="2" height="2"></rect>
                    </g>
                </g>
            </g>
        </g>
    </g>
</svg>