<?xml version="1.0" encoding="UTF-8"?>
<svg width="110px" height="80px" viewBox="0 0 110 80" version="1.1" xmlns="http://www.w3.org/2000/svg" xmlns:xlink="http://www.w3.org/1999/xlink">
    <title>faster-service</title>
    <g id="Website-Pages" stroke="none" stroke-width="1" fill="none" fill-rule="evenodd">
        <g id="Landing-Page" transform="translate(-905.000000, -2175.000000)" fill-rule="nonzero">
            <g id="Online-Menu-Boost" transform="translate(295.000000, 1205.000000)">
                <g id="Faster-Service" transform="translate(480.000000, 970.000000)">
                    <g id="Group" transform="translate(130.000000, 0.000000)">
                        <g id="faster-service" transform="translate(-0.000000, 0.000000)">
                            <g id="Group" transform="translate(16.363636, 2.272727)">
                                <path d="M70.9090909,54.0909091 L70.9090909,63.1818182 L56.5272727,63.1818182 C56.8569105,61.1459415 57.7730981,59.2503809 59.1636364,57.7272727 L31.7454545,57.7272727 C33.1359928,59.2503809 34.0521804,61.1459415 34.3818182,63.1818182 L20,63.1818182 L20,54.0909091 L70.9090909,54.0909091 Z" id="Path" fill="#CFF09E"></path>
                                <path d="M45.4545455,10.4545455 C47.8970321,10.4526813 50.3335213,10.6963302 52.7272727,11.1818182 L52.7272727,6.81818182 C48.3300176,6.81529568 44.3619897,4.17949379 42.6545455,0.127272727 C39.9415769,1.2403215 38.1731477,3.88577656 38.1817864,6.81818182 L38.1817864,11.1818182 C40.5755696,10.6963302 43.0120588,10.4526813 45.4545455,10.4545455 Z" id="Path" fill="#CFF09E"></path>
                                <circle id="Oval" fill="#79BD9A" cx="70.9090909" cy="65" r="10.9090909"></circle>
                                <circle id="Oval" fill="#A8DBA8" cx="70.9090909" cy="65" r="3.63636364"></circle>
                                <circle id="Oval" fill="#79BD9A" cx="20" cy="65" r="10.9090909"></circle>
                                <circle id="Oval" fill="#A8DBA8" cx="20" cy="65" r="3.63636364"></circle>
                                <g transform="translate(0.000000, 19.090909)" fill="#CFF09E" id="Path">
                                    <path d="M81.8181819,27.7272727 L9.09084265,27.7272727 C9.07044979,17.0399634 13.7758753,6.89035381 21.9454545,0 C26.2617206,11.2339948 37.0562624,18.6448491 49.0909091,18.6363636 L80.6727273,18.6363636 C81.4335127,21.6067846 81.8181819,24.6609728 81.8181819,27.7272727 Z"></path>
                                    <path d="M90.9090909,31.3636364 C90.8942414,33.3657614 89.2748523,34.9851505 87.2727273,35 L3.63636364,35 C1.63054206,34.9940095 0.00599054748,33.3694579 0,31.3636364 C0.0148494991,29.3615113 1.63423858,27.7421222 3.63636364,27.7272727 C3.64235418,29.7330943 5.2669057,31.3576458 7.27272727,31.3636364 L90.9090909,31.3636364 Z"></path>
                                </g>
                            </g>
                            <g id="Group" fill="#3B8686">
                                <path d="M88.2527273,33.0909091 C88.0709091,32.8036364 87.8890909,32.5163636 87.7072727,32.2345455 C87.1585025,31.3935664 86.0318881,31.1566843 85.1909091,31.7054545 C84.34993,32.2542248 84.113048,33.3808391 84.6618182,34.2218182 C84.8254545,34.4727273 84.9836364,34.7254545 85.14,34.98 C85.4774536,35.5360352 86.0859148,35.8698035 86.7361822,35.8555777 C87.3864496,35.8413519 87.979732,35.4812932 88.2925458,34.9110323 C88.6053596,34.3407713 88.5901809,33.6469443 88.2527273,33.0909091 L88.2527273,33.0909091 Z" id="Path"></path>
                                <path d="M61.8181818,18.1817649 C60.8140277,18.1817649 60,18.9958459 60,20 C60,21.0041541 60.8140277,21.8181818 61.8181818,21.8181818 C68.9543429,21.8059123 75.807534,24.6079463 80.8909091,29.6163636 C81.6088793,30.3192715 82.7607285,30.3070611 83.4636364,29.5890909 C84.1665442,28.8711207 84.1543338,27.7192715 83.4363636,27.0163636 C77.6738379,21.3411439 69.9061108,18.1667632 61.8181818,18.1817649 Z" id="Path"></path>
                                <path d="M103.636364,47.2727273 L99.9072727,47.2727273 C99.0859976,30.4139051 87.2962856,16.093127 70.9090909,12.0490909 L70.9090909,9.09090909 C70.9090909,4.07013864 66.8389523,6.45947942e-15 61.8181818,6.45947942e-15 C56.7974114,6.45947942e-15 52.7272727,4.07013864 52.7272727,9.09090909 L52.7272727,12.0490909 C36.340078,16.093127 24.550366,30.4139051 23.7290909,47.2727273 L20,47.2727273 C16.9875377,47.2727273 14.5454545,49.7148105 14.5454545,52.7272727 C14.5514808,53.3480721 14.6646586,53.9631691 14.88,54.5454545 L7.27272727,54.5454545 C6.26857318,54.5454545 5.45454545,55.3594823 5.45454545,56.3636364 C5.45454545,57.3677905 6.26857318,58.1818182 7.27272727,58.1818182 L27.4727273,58.1818182 C25.4690854,60.141527 24.1695347,62.7086669 23.7763636,65.4836364 C23.7303197,65.4711525 23.6835693,65.4614382 23.6363636,65.4545455 L16.3636364,65.4545455 C15.3594823,65.4545455 14.5454545,66.2685732 14.5454545,67.2727273 C14.5454545,68.2768814 15.3594823,69.0909091 16.3636364,69.0909091 L23.6363636,69.0909091 C23.6835693,69.0840164 23.7303197,69.074302 23.7763636,69.0618182 C24.1695347,71.8367877 25.4690854,74.4039276 27.4727273,76.3636364 L1.81818182,76.3636364 C0.814027728,76.3636364 0,77.1776641 0,78.1818182 C0,79.1859723 0.814027728,80 1.81818182,80 L36.3636364,80 C43.3893921,79.9919843 49.0828934,74.298483 49.0909091,67.2727273 L74.5454545,67.2727273 C74.545005,70.6965822 75.9285949,73.9752313 78.3818182,76.3636364 L70.9090909,76.3636364 C69.9049368,76.3636364 69.0909091,77.1776641 69.0909091,78.1818182 C69.0909091,79.1859723 69.9049368,80 70.9090909,80 L87.2727273,80 C92.4469752,80.005328 97.1083583,76.8745317 99.060625,72.0827132 C101.012892,67.2908947 99.8665933,61.7939521 96.1618182,58.1818182 L103.636364,58.1818182 C106.648826,58.1818182 109.090909,55.739735 109.090909,52.7272727 C109.090909,49.7148105 106.648826,47.2727273 103.636364,47.2727273 Z M56.3636364,9.09090909 C56.3636364,6.07844682 58.8057195,3.63636364 61.8181818,3.63636364 C64.8306441,3.63636364 67.2727273,6.07844682 67.2727273,9.09090909 L67.2727273,11.3454545 C63.6596364,10.7636364 59.9767273,10.7636364 56.3636364,11.3454545 L56.3636364,9.09090909 Z M61.8181818,14.5454545 C80.1820146,14.5670979 95.3279104,28.9355033 96.3163636,47.2727273 L27.32,47.2727273 C28.3084533,28.9355033 43.4543491,14.5670979 61.8181818,14.5454545 L61.8181818,14.5454545 Z M36.3636364,76.3636364 C31.3428659,76.3636364 27.2727273,72.2934977 27.2727273,67.2727273 C27.2727273,62.2519568 31.3428659,58.1818182 36.3636364,58.1818182 C41.3844068,58.1818182 45.4545455,62.2519568 45.4545455,67.2727273 C45.4485343,72.2910057 41.3819148,76.3576252 36.3636364,76.3636364 Z M48.5454545,63.6363636 C47.9254862,61.5674792 46.7892241,59.6903943 45.2436364,58.1818182 L78.3818182,58.1818182 C76.8401984,59.691629 75.7077555,61.5686062 75.0909091,63.6363636 L48.5454545,63.6363636 Z M96.3636364,67.2727273 C96.3636364,72.2934977 92.2934977,76.3636364 87.2727273,76.3636364 C82.2519568,76.3636364 78.1818182,72.2934977 78.1818182,67.2727273 C78.1818182,62.2519568 82.2519568,58.1818182 87.2727273,58.1818182 C92.2910057,58.1878293 96.3576252,62.2544488 96.3636364,67.2727273 Z M103.636364,54.5454545 L20,54.5454545 C18.9958459,54.5454545 18.1818182,53.7314268 18.1818182,52.7272727 C18.1818182,51.7231186 18.9958459,50.9090909 20,50.9090909 L103.636364,50.9090909 C104.640518,50.9090909 105.454545,51.7231186 105.454545,52.7272727 C105.454545,53.7314268 104.640518,54.5454545 103.636364,54.5454545 Z" id="Shape"></path>
                                <path d="M87.2727273,72.7272727 C90.2851895,72.7272727 92.7272727,70.2851895 92.7272727,67.2727273 C92.7272727,64.260265 90.2851895,61.8181818 87.2727273,61.8181818 C84.260265,61.8181818 81.8181818,64.260265 81.8181818,67.2727273 C81.8181818,70.2851895 84.260265,72.7272727 87.2727273,72.7272727 L87.2727273,72.7272727 Z M87.2727273,65.4545455 C88.2768814,65.4545455 89.0909091,66.2685732 89.0909091,67.2727273 C89.0909091,68.2768814 88.2768814,69.0909091 87.2727273,69.0909091 C86.2685732,69.0909091 85.4545455,68.2768814 85.4545455,67.2727273 C85.4545455,66.2685732 86.2685732,65.4545455 87.2727273,65.4545455 Z" id="Shape"></path>
                                <path d="M36.3636364,61.8181818 C34.1574787,61.8181818 32.1685535,63.1471392 31.3242935,65.1853631 C30.4800335,67.223587 30.9467012,69.5696843 32.5066903,71.1296734 C34.0666794,72.6896624 36.4127766,73.1563302 38.4510005,72.3120702 C40.4892245,71.4678102 41.8181818,69.478885 41.8181818,67.2727273 C41.8181818,64.260265 39.3760986,61.8181818 36.3636364,61.8181818 L36.3636364,61.8181818 Z M36.3636364,69.0909091 C35.3594823,69.0909091 34.5454545,68.2768814 34.5454545,67.2727273 C34.5454545,66.2685732 35.3594823,65.4545455 36.3636364,65.4545455 C37.3677905,65.4545455 38.1818182,66.2685732 38.1818182,67.2727273 C38.1818182,68.2768814 37.3677905,69.0909091 36.3636364,69.0909091 Z" id="Shape"></path>
                                <path d="M63.6363636,76.3636364 L54.5454545,76.3636364 C53.5413005,76.3636364 52.7272727,77.1776641 52.7272727,78.1818182 C52.7272727,79.1859723 53.5413005,80 54.5454545,80 L63.6363636,80 C64.6405177,80 65.4545455,79.1859723 65.4545455,78.1818182 C65.4545455,77.1776641 64.6405177,76.3636364 63.6363636,76.3636364 Z" id="Path"></path>
                                <path d="M10.9090909,23.6363636 L27.2727273,23.6363636 C28.2768814,23.6363636 29.0909091,22.8223359 29.0909091,21.8181818 C29.0909091,20.8140277 28.2768814,20 27.2727273,20 L10.9090909,20 C9.90493682,20 9.09090909,20.8140277 9.09090909,21.8181818 C9.09090909,22.8223359 9.90493682,23.6363636 10.9090909,23.6363636 Z" id="Path"></path>
                                <path d="M1.81818182,34.5454545 L18.1818182,34.5454545 C19.1859723,34.5454545 20,33.7314268 20,32.7272727 C20,31.7231186 19.1859723,30.9090909 18.1818182,30.9090909 L1.81818182,30.9090909 C0.814027728,30.9090909 0,31.7231186 0,32.7272727 C0,33.7314268 0.814027728,34.5454545 1.81818182,34.5454545 Z" id="Path"></path>
                                <path d="M18.1818182,40 L9.09090909,40 C8.086755,40 7.27272727,40.8140277 7.27272727,41.8181818 C7.27272727,42.8223359 8.086755,43.6363636 9.09090909,43.6363636 L18.1818182,43.6363636 C19.1859723,43.6363636 20,42.8223359 20,41.8181818 C20,40.8140277 19.1859723,40 18.1818182,40 Z" id="Path"></path>
                            </g>
                        </g>
                    </g>
                </g>
            </g>
        </g>
    </g>
</svg>