<svg xmlns="http://www.w3.org/2000/svg" viewBox="0 0 1224.82 1377.11"><defs><style>.cls-1{fill:#e8e5ea;}.cls-2{fill:#d8d5db;}.cls-3{fill:#d1cdd3;}.cls-4,.cls-6{fill:#4d8dff;}.cls-4,.cls-5{opacity:0.3;}.cls-7{fill:#ff4e4a;}.cls-8{fill:#ffc84d;}.cls-9{fill:#ffad69;}.cls-10{fill:#d88344;}.cls-11{fill:#232323;}.cls-12{fill:#e5aa33;}.cls-13{fill:#fff;}</style></defs><title>Asset 4</title><g id="Layer_2" data-name="Layer 2"><g id="Слой_2" data-name="Слой 2"><path class="cls-1" d="M1219.06,894.58c-19.91,102.52-67.55,179.13-133.3,237.75a504.9,504.9,0,0,1-78.08,57.15c-97.89,59.18-219.2,95-345.49,123.91-7.13,1.59-14.37,3.28-21.61,4.87a217.51,217.51,0,0,1-57.26,5.2C382.46,1315,245.64,1017.25,203.55,703.9,166,425,228.1,109,506.26,95,610.7,89.77,732.58,141.82,846,225.56c8.15,6,16.29,12.23,24.33,18.56v.12h.11c1.7,1.24,3.4,2.6,5,4C1086.32,416.24,1258.9,689.3,1219.06,894.58Z"/><path class="cls-1" d="M233.17,1157.31c15.77,31.79,21.54,72-10.08,85-35.31,14.46-91.59-8.92-108-62-10.46-33.91-6.87-81.24,22.05-99.44C161.93,1065.28,213.82,1118.31,233.17,1157.31Z"/><path class="cls-1" d="M1097.4,444.09c-14.12-12.32-25.4-30.64-13.49-43,13.29-13.78,44.41-13.31,63.36,9.16,12.11,14.37,20.57,37.91,11,52.27C1150.15,474.83,1114.72,459.2,1097.4,444.09Z"/><path class="cls-2" d="M529.23,1377.11h-.08a188.45,188.45,0,0,1-22.6-2.72,1.4,1.4,0,0,1-1.13-1.64,1.36,1.36,0,0,1,1.64-1.14,182.87,182.87,0,0,0,22.25,2.67,1.42,1.42,0,0,1-.08,2.83Zm22.65-.11a1.41,1.41,0,0,1-.1-2.82,186.29,186.29,0,0,0,22.3-2.94,1.45,1.45,0,0,1,1.65,1.12,1.41,1.41,0,0,1-1.12,1.66,183.42,183.42,0,0,1-22.64,3Zm-67-7.94a1.45,1.45,0,0,1-.41-.06,219,219,0,0,1-21.4-7.8,1.41,1.41,0,1,1,1.1-2.6,216.75,216.75,0,0,0,21.12,7.69,1.42,1.42,0,0,1-.41,2.77Zm111.43-.66a1.41,1.41,0,0,1-.43-2.76c3.37-1.08,6.76-2.26,10.1-3.52l11.11-4.23a1.43,1.43,0,0,1,1.84.82,1.41,1.41,0,0,1-.82,1.82l-11.14,4.23c-3.38,1.28-6.82,2.48-10.23,3.58A1.59,1.59,0,0,1,596.28,1368.4Zm42.42-15.94a1.42,1.42,0,0,1-1.31-.9,1.4,1.4,0,0,1,.79-1.83q10.55-4.14,21-8.35a1.41,1.41,0,0,1,1.85.78,1.43,1.43,0,0,1-.79,1.84q-10.49,4.23-21,8.36A1.55,1.55,0,0,1,638.7,1352.46Zm-195.48-1a1.36,1.36,0,0,1-.67-.17c-6.52-3.51-13.1-7.43-19.55-11.64a1.42,1.42,0,0,1-.41-2,1.4,1.4,0,0,1,2-.41c6.38,4.17,12.89,8,19.35,11.53a1.41,1.41,0,0,1,.57,1.91A1.45,1.45,0,0,1,443.22,1351.48Zm237.44-16a1.39,1.39,0,0,1-1.3-.87,1.42,1.42,0,0,1,.76-1.85q10.49-4.36,20.86-8.83a1.42,1.42,0,1,1,1.12,2.6q-10.4,4.47-20.9,8.84A1.27,1.27,0,0,1,680.66,1335.53Zm-275.41-8.69a1.35,1.35,0,0,1-.85-.29c-5.92-4.5-11.86-9.32-17.66-14.34a1.42,1.42,0,0,1,1.86-2.14c5.74,5,11.63,9.76,17.5,14.23a1.41,1.41,0,0,1-.85,2.54Zm317-9.27a1.42,1.42,0,0,1-.57-2.71q10.37-4.65,20.6-9.44a1.42,1.42,0,0,1,1.19,2.57q-10.23,4.79-20.64,9.46A1.47,1.47,0,0,1,722.28,1317.57Zm41.08-19.25a1.41,1.41,0,0,1-.62-2.68q10.2-5,20.21-10.18a1.41,1.41,0,1,1,1.3,2.51q-10,5.19-20.27,10.21A1.37,1.37,0,0,1,763.36,1298.32ZM371,1297.25a1.43,1.43,0,0,1-1-.4c-5.28-5.11-10.65-10.57-15.94-16.23a1.41,1.41,0,0,1,2.06-1.93c5.27,5.62,10.6,11,15.84,16.12a1.42,1.42,0,0,1,0,2A1.45,1.45,0,0,1,371,1297.25Zm432.67-19.75a1.4,1.4,0,0,1-1.24-.73,1.42,1.42,0,0,1,.56-1.92c6.73-3.68,13.38-7.41,19.73-11.09a1.41,1.41,0,1,1,1.41,2.45c-6.37,3.68-13,7.43-19.79,11.12A1.34,1.34,0,0,1,803.64,1277.5ZM340,1264.18a1.39,1.39,0,0,1-1.07-.5c-4.83-5.63-9.68-11.54-14.43-17.56a1.42,1.42,0,0,1,2.23-1.75c4.72,6,9.55,11.87,14.34,17.47a1.4,1.4,0,0,1-.15,2A1.36,1.36,0,0,1,340,1264.18Zm502.88-9.4a1.41,1.41,0,0,1-.74-2.62c6.56-4.05,13-8.14,19.08-12.15a1.41,1.41,0,1,1,1.55,2.36c-6.11,4-12.56,8.14-19.15,12.2A1.34,1.34,0,0,1,842.85,1254.78Zm37.85-25a1.39,1.39,0,0,1-1.15-.6,1.4,1.4,0,0,1,.33-2c6.24-4.43,12.37-8.93,18.2-13.39a1.41,1.41,0,1,1,1.72,2.24c-5.86,4.48-12,9-18.28,13.46A1.4,1.4,0,0,1,880.7,1229.83Zm-568.84-1.22a1.39,1.39,0,0,1-1.14-.58c-4.38-6-8.78-12.2-13.13-18.54a1.41,1.41,0,0,1,2.34-1.59c4.32,6.31,8.71,12.53,13.07,18.46a1.42,1.42,0,0,1-.3,2A1.4,1.4,0,0,1,311.86,1228.61Zm604.81-26.32a1.47,1.47,0,0,1-1.1-.51,1.42,1.42,0,0,1,.19-2c5.81-4.83,11.56-9.8,17.09-14.79a1.41,1.41,0,0,1,2,.09,1.44,1.44,0,0,1-.1,2c-5.56,5-11.34,10-17.18,14.86A1.34,1.34,0,0,1,916.67,1202.29Zm-630.43-11.08a1.44,1.44,0,0,1-1.19-.66c-4-6.28-8.07-12.77-12-19.29a1.41,1.41,0,0,1,.49-1.94,1.42,1.42,0,0,1,1.94.48c3.9,6.49,7.92,13,11.95,19.23a1.41,1.41,0,0,1-.43,2A1.44,1.44,0,0,1,286.24,1191.21Zm664-19.34a1.43,1.43,0,0,1-1-.42,1.41,1.41,0,0,1,0-2c5.4-5.36,10.65-10.85,15.61-16.3a1.42,1.42,0,0,1,2.1,1.9c-5,5.49-10.29,11-15.72,16.41A1.44,1.44,0,0,1,950.24,1171.87Zm-687.41-19.49a1.39,1.39,0,0,1-1.23-.71c-3.66-6.43-7.35-13.12-11-19.88a1.42,1.42,0,0,1,2.5-1.34c3.63,6.74,7.32,13.41,11,19.82a1.4,1.4,0,0,1-.53,1.93A1.42,1.42,0,0,1,262.83,1152.38Zm717.88-14a1.42,1.42,0,0,1-1.1-2.31c4.81-5.88,9.44-11.88,13.8-17.85a1.41,1.41,0,1,1,2.27,1.67c-4.37,6-9,12-13.88,18A1.39,1.39,0,0,1,980.71,1138.41Zm-739.36-26a1.42,1.42,0,0,1-1.26-.77c-3.45-6.81-6.85-13.66-10.07-20.35a1.41,1.41,0,1,1,2.54-1.23c3.22,6.68,6.61,13.5,10.05,20.3a1.41,1.41,0,0,1-.62,1.9A1.46,1.46,0,0,1,241.35,1112.44Zm766-10.62a1.33,1.33,0,0,1-.76-.23,1.41,1.41,0,0,1-.43-1.95c4.05-6.28,8-12.8,11.66-19.36a1.42,1.42,0,0,1,2.48,1.39c-3.73,6.61-7.69,13.17-11.75,19.5A1.44,1.44,0,0,1,1007.37,1101.82ZM221.64,1071.6a1.41,1.41,0,0,1-1.28-.83q-4.71-10.26-9.25-20.73a1.41,1.41,0,1,1,2.58-1.13c3,6.95,6.11,13.86,9.23,20.68a1.41,1.41,0,0,1-.7,1.88A1.29,1.29,0,0,1,221.64,1071.6Zm807.92-9.26a1.33,1.33,0,0,1-.61-.14,1.42,1.42,0,0,1-.66-1.89c3.25-6.7,6.35-13.62,9.22-20.59a1.41,1.41,0,0,1,2.61,1.09c-2.89,7-6,14-9.28,20.74A1.44,1.44,0,0,1,1029.56,1062.34Zm-826-32.33a1.42,1.42,0,0,1-1.3-.88q-4.33-10.44-8.48-21.05a1.41,1.41,0,1,1,2.63-1q4.16,10.59,8.45,21a1.42,1.42,0,0,1-.76,1.85A1.49,1.49,0,0,1,203.56,1030Zm843.26-9.51a1.55,1.55,0,0,1-.47-.08,1.42,1.42,0,0,1-.87-1.8c2.44-7.11,4.68-14.36,6.68-21.53a1.41,1.41,0,1,1,2.72.76c-2,7.22-4.27,14.52-6.73,21.69A1.41,1.41,0,0,1,1046.82,1020.5ZM187,987.79a1.41,1.41,0,0,1-1.32-.92q-3.94-10.61-7.75-21.34a1.42,1.42,0,0,1,2.68-.94q3.78,10.71,7.72,21.29a1.41,1.41,0,0,1-.83,1.82A1.43,1.43,0,0,1,187,987.79Zm872-10.88a1.36,1.36,0,0,1-.29,0,1.42,1.42,0,0,1-1.09-1.68c1.6-7.44,3-14.9,4.2-22.17a1.41,1.41,0,1,1,2.79.45c-1.19,7.32-2.61,14.82-4.23,22.31A1.4,1.4,0,0,1,1059,976.91ZM171.88,945a1.41,1.41,0,0,1-1.34-1q-3.61-10.71-7-21.52a1.42,1.42,0,0,1,.92-1.78,1.45,1.45,0,0,1,1.78.91q3.42,10.8,7,21.49a1.4,1.4,0,0,1-.88,1.79A1.47,1.47,0,0,1,171.88,945Zm894.36-12.8h-.15a1.41,1.41,0,0,1-1.25-1.56c.81-7.33,1.46-14.9,1.91-22.49a1.43,1.43,0,0,1,1.42-1.33h.08a1.43,1.43,0,0,1,1.33,1.51c-.46,7.63-1.12,15.24-1.93,22.62A1.41,1.41,0,0,1,1066.24,932.24ZM158.17,901.9a1.44,1.44,0,0,1-1.36-1q-3.24-10.85-6.34-21.76a1.41,1.41,0,0,1,1-1.75,1.39,1.39,0,0,1,1.75,1c2.05,7.27,4.18,14.51,6.34,21.72a1.43,1.43,0,0,1-.95,1.77A1.4,1.4,0,0,1,158.17,901.9ZM1068.71,887a1.41,1.41,0,0,1-1.42-1.39c-.11-7.44-.49-15-1.16-22.53a1.43,1.43,0,0,1,1.3-1.53,1.41,1.41,0,0,1,1.53,1.29c.65,7.58,1,15.22,1.16,22.73a1.41,1.41,0,0,1-1.39,1.43ZM145.8,858.3a1.41,1.41,0,0,1-1.37-1.06l-.3-1.14q-2.91-10.94-5.61-22a1.42,1.42,0,0,1,1-1.71,1.4,1.4,0,0,1,1.7,1q2.72,11,5.61,21.93l.3,1.15a1.44,1.44,0,0,1-1.37,1.78Zm919-16.37a1.41,1.41,0,0,1-1.4-1.2c-1.14-7.28-2.53-14.74-4.15-22.17A1.41,1.41,0,0,1,1062,818c1.64,7.5,3,15,4.18,22.35a1.4,1.4,0,0,1-1.17,1.61Zm-930-28.82a1.4,1.4,0,0,1-1.38-1.11c-1.66-7.47-3.23-14.94-4.68-22.21a1.42,1.42,0,0,1,1.12-1.66,1.4,1.4,0,0,1,1.67,1.11c1.43,7.25,3,14.7,4.65,22.16a1.41,1.41,0,0,1-1.07,1.68Zm920.4-15.42a1.41,1.41,0,0,1-1.36-1c-2-7.1-4.21-14.37-6.63-21.59a1.4,1.4,0,0,1,.88-1.79,1.38,1.38,0,0,1,1.79.89c2.45,7.27,4.69,14.58,6.68,21.73a1.41,1.41,0,0,1-1,1.74A1.28,1.28,0,0,1,1055.17,797.69Zm-929.25-29a1.42,1.42,0,0,1-1.4-1.17c-1.3-7.41-2.55-15-3.69-22.4a1.42,1.42,0,0,1,2.81-.43c1.13,7.43,2.36,15,3.67,22.34a1.42,1.42,0,0,1-1.15,1.64A1,1,0,0,1,125.92,768.65Zm914.88-13.93a1.4,1.4,0,0,1-1.31-.9c-2.69-6.9-5.59-13.92-8.65-20.88a1.41,1.41,0,1,1,2.58-1.14c3.09,7,6,14.06,8.7,21a1.42,1.42,0,0,1-.81,1.84A1.48,1.48,0,0,1,1040.8,754.72ZM119.07,723.83a1.41,1.41,0,0,1-1.4-1.24c-1-7.48-1.83-15.07-2.62-22.55a1.41,1.41,0,0,1,1.26-1.56,1.44,1.44,0,0,1,1.55,1.26c.78,7.47,1.67,15,2.62,22.5a1.42,1.42,0,0,1-1.23,1.58Zm903.5-10.61a1.4,1.4,0,0,1-1.27-.8c-3.23-6.61-6.69-13.38-10.31-20.12a1.42,1.42,0,1,1,2.5-1.34c3.63,6.78,7.11,13.58,10.35,20.22a1.4,1.4,0,0,1-.65,1.89A1.38,1.38,0,0,1,1022.57,713.22Zm-908.16-34.5a1.42,1.42,0,0,1-1.41-1.31c-.59-7.67-1.07-15.3-1.45-22.67a1.41,1.41,0,0,1,1.35-1.48,1.39,1.39,0,0,1,1.48,1.34c.36,7.35.85,14.95,1.45,22.59a1.43,1.43,0,0,1-1.31,1.52Zm886.75-5.46a1.43,1.43,0,0,1-1.22-.7c-3.72-6.4-7.65-12.91-11.7-19.37a1.41,1.41,0,0,1,.45-2,1.4,1.4,0,0,1,1.94.45c4.08,6.48,8,13,11.76,19.44a1.41,1.41,0,0,1-.52,1.93A1.3,1.3,0,0,1,1001.16,673.26ZM977.1,634.83a1.41,1.41,0,0,1-1.18-.63c-4.06-6.07-8.4-12.33-12.88-18.61a1.41,1.41,0,0,1,2.3-1.64c4.5,6.3,8.85,12.58,12.93,18.68a1.42,1.42,0,0,1-1.17,2.2Zm-864.94-1.4a1.41,1.41,0,0,1-1.42-1.39c-.11-5.31-.16-10.6-.18-15.87,0-2.29,0-4.57,0-6.84a1.42,1.42,0,0,1,1.41-1.41h0a1.42,1.42,0,0,1,1.41,1.43c0,2.27,0,4.54,0,6.82,0,5.25.07,10.52.18,15.81a1.43,1.43,0,0,1-1.38,1.45Zm838.59-35.51a1.41,1.41,0,0,1-1.13-.56c-4.62-6.09-9.3-12.1-13.91-17.87a1.42,1.42,0,1,1,2.21-1.77c4.63,5.79,9.33,11.82,14,17.93a1.42,1.42,0,0,1-1.13,2.27ZM112.6,588.09h-.06a1.42,1.42,0,0,1-1.36-1.47c.33-7.6.79-15.22,1.36-22.68a1.37,1.37,0,0,1,1.53-1.3,1.42,1.42,0,0,1,1.3,1.52c-.58,7.42-1,15-1.36,22.58A1.41,1.41,0,0,1,112.6,588.09Zm809.85-25.61a1.41,1.41,0,0,1-1.08-.5c-5-5.89-10-11.66-14.81-17.13a1.42,1.42,0,1,1,2.12-1.88c4.86,5.49,9.86,11.27,14.85,17.19a1.41,1.41,0,0,1-1.08,2.32ZM116.16,542.91H116a1.42,1.42,0,0,1-1.24-1.57c.9-7.65,1.94-15.22,3.11-22.52a1.41,1.41,0,0,1,1.61-1.17,1.39,1.39,0,0,1,1.17,1.62c-1.16,7.26-2.18,14.79-3.08,22.4A1.41,1.41,0,0,1,116.16,542.91Zm776.22-14.39a1.42,1.42,0,0,1-1-.45c-5.11-5.49-10.36-11-15.62-16.4a1.42,1.42,0,0,1,2-2c5.27,5.41,10.53,10.95,15.66,16.46a1.41,1.41,0,0,1-.08,2A1.38,1.38,0,0,1,892.38,528.52Zm-769-30.37-.29,0a1.41,1.41,0,0,1-1.09-1.67c1.52-7.4,3.26-14.85,5.14-22.14a1.37,1.37,0,0,1,1.72-1,1.41,1.41,0,0,1,1,1.72c-1.87,7.24-3.59,14.65-5.12,22A1.4,1.4,0,0,1,123.33,498.15ZM860.74,496a1.45,1.45,0,0,1-1-.4c-5.46-5.35-11-10.65-16.4-15.73a1.42,1.42,0,0,1,1.95-2.06c5.43,5.09,11,10.4,16.44,15.77a1.42,1.42,0,0,1-1,2.42Zm-33.16-31.1a1.42,1.42,0,0,1-.94-.35c-5.61-5-11.34-10.06-17.06-15a1.41,1.41,0,0,1,1.84-2.14c5.73,4.91,11.48,9.95,17.09,15a1.41,1.41,0,0,1,.11,2A1.38,1.38,0,0,1,827.58,464.92ZM134.75,454.3a1.67,1.67,0,0,1-.44-.06,1.41,1.41,0,0,1-.91-1.78c2.36-7.38,4.9-14.6,7.58-21.46a1.41,1.41,0,0,1,2.63,1c-2.64,6.8-5.17,14-7.52,21.29A1.4,1.4,0,0,1,134.75,454.3Zm658.37-18.92a1.4,1.4,0,0,1-.9-.32c-5.86-4.8-11.8-9.57-17.65-14.15a1.41,1.41,0,1,1,1.75-2.22c5.87,4.59,11.81,9.36,17.69,14.18a1.41,1.41,0,0,1-.89,2.51Zm-642-23.29a1.41,1.41,0,0,1-1.29-2c3.23-6.93,6.72-13.75,10.36-20.27a1.41,1.41,0,0,1,2.47,1.38c-3.61,6.46-7.06,13.22-10.26,20.08A1.41,1.41,0,0,1,151.16,412.09Zm606.33-4.63a1.4,1.4,0,0,1-.85-.28c-6-4.49-12.16-9-18.29-13.35a1.42,1.42,0,0,1-.33-2,1.4,1.4,0,0,1,2-.33c6.16,4.38,12.33,8.89,18.36,13.39a1.42,1.42,0,0,1-.85,2.55Zm-36.93-26.33a1.44,1.44,0,0,1-.8-.24c-6.16-4.19-12.52-8.4-18.88-12.5A1.41,1.41,0,1,1,702.4,366c6.39,4.12,12.76,8.34,19,12.54a1.41,1.41,0,0,1-.79,2.58Zm-547.28-8.54a1.37,1.37,0,0,1-.78-.23,1.4,1.4,0,0,1-.39-2c4.23-6.36,8.75-12.55,13.42-18.4a1.4,1.4,0,0,1,2-.22,1.43,1.43,0,0,1,.23,2c-4.62,5.78-9.1,11.9-13.3,18.19A1.39,1.39,0,0,1,173.28,372.59Zm509.15-16a1.52,1.52,0,0,1-.74-.2c-6.38-3.9-12.94-7.78-19.48-11.56a1.41,1.41,0,1,1,1.41-2.45c6.57,3.78,13.14,7.68,19.55,11.58a1.43,1.43,0,0,1,.47,1.95A1.41,1.41,0,0,1,682.43,356.56ZM201.54,337.25a1.44,1.44,0,0,1-1-.39,1.42,1.42,0,0,1,0-2c5.26-5.51,10.81-10.78,16.49-15.69a1.42,1.42,0,0,1,1.86,2.15c-5.62,4.84-11.11,10.05-16.32,15.49A1.38,1.38,0,0,1,201.54,337.25Zm441.57-3.33a1.34,1.34,0,0,1-.67-.17c-6.7-3.62-13.44-7.16-20.06-10.5a1.41,1.41,0,0,1-.62-1.9,1.39,1.39,0,0,1,1.9-.62c6.63,3.35,13.41,6.9,20.13,10.53a1.42,1.42,0,0,1-.68,2.66Zm-40.47-20.46a1.42,1.42,0,0,1-.6-.14c-6.76-3.19-13.7-6.32-20.63-9.31a1.42,1.42,0,0,1,1.13-2.6c7,3,13.93,6.16,20.71,9.35a1.42,1.42,0,0,1,.68,1.88A1.43,1.43,0,0,1,602.64,313.46Zm-366.91-5.78a1.39,1.39,0,0,1-1.15-.6,1.41,1.41,0,0,1,.33-2c6.16-4.38,12.6-8.51,19.15-12.3a1.42,1.42,0,1,1,1.42,2.45c-6.48,3.74-12.84,7.83-18.93,12.16A1.38,1.38,0,0,1,235.73,307.68ZM561,295.45a1.6,1.6,0,0,1-.52-.1c-7-2.77-14.14-5.43-21.19-7.93a1.41,1.41,0,0,1-.86-1.8,1.43,1.43,0,0,1,1.81-.86c7.07,2.5,14.23,5.18,21.28,8a1.41,1.41,0,0,1-.52,2.73ZM274.87,285a1.4,1.4,0,0,1-1.28-.82,1.42,1.42,0,0,1,.68-1.88c6.79-3.13,13.86-6,21.05-8.64a1.41,1.41,0,0,1,1.81.85,1.42,1.42,0,0,1-.84,1.81c-7.12,2.57-14.13,5.45-20.82,8.55A1.44,1.44,0,0,1,274.87,285Zm243.38-4.66a1.2,1.2,0,0,1-.42-.07c-7.24-2.25-14.56-4.36-21.73-6.26a1.41,1.41,0,0,1,.73-2.73c7.22,1.91,14.55,4,21.84,6.29a1.42,1.42,0,0,1-.42,2.77ZM317.4,269.6a1.42,1.42,0,0,1-.38-2.78c7.16-2,14.62-3.7,22.15-5.17a1.36,1.36,0,0,1,1.66,1.11,1.41,1.41,0,0,1-1.11,1.66c-7.47,1.47-14.85,3.19-22,5.13A1.64,1.64,0,0,1,317.4,269.6Zm157-.84-.3,0c-7.48-1.62-14.95-3-22.2-4.23a1.42,1.42,0,0,1-1.16-1.63,1.44,1.44,0,0,1,1.62-1.17c7.3,1.2,14.81,2.64,22.34,4.27a1.41,1.41,0,0,1-.3,2.79Zm-44.72-7.29h-.16c-7.52-.82-15.09-1.39-22.49-1.71a1.42,1.42,0,0,1-1.36-1.47,1.43,1.43,0,0,1,1.42-1.36h.05c7.46.33,15.1.91,22.69,1.72a1.41,1.41,0,0,1-.15,2.82Zm-67.86-.4a1.42,1.42,0,0,1-.15-2.83c7.4-.78,15-1.29,22.72-1.5h0a1.42,1.42,0,0,1,.05,2.83c-7.62.21-15.19.71-22.5,1.49Z"/><path class="cls-3" d="M1063.58,895.6c-.11,1.35.11,2.49,0,3.73-2.83,31.57-30,98.9-57,158.65.9,21.51,1.58,40.74,1.69,56.59.12,2.94.12,5.65.12,8.37,0,0-1.14,0-3.29.23.8,14,1.82,38.36,2.61,66.31-97.89,59.18-219.2,95-345.49,123.91-7.13,1.59-14.37,3.28-21.61,4.87a217.51,217.51,0,0,1-57.26,5.2,47.72,47.72,0,0,1-1.25-14.48c3.74-65.41,9.74-139.53,19.92-190.34-2.26-.34-4.64-.68-7-1,25.68-86.68,38.58-211.73,45.26-320.25a.11.11,0,0,1-.11.12c.79-12.79,1.47-25.24,2-37.57-16.4,16.74-27.72,27.15-27.72,27.15L579.7,729.93c-42.89,31-83.4,58.39-103.21,71.06-16.4,15.39-44.35,17.66-66.31-11.2-35.53-46.51-85.66-241.71-91.55-274.87a8.55,8.55,0,0,1-2-2c-8.15-11.2-36.67-73-34.4-85,2.15-11.2,16.06-37.91,31.57-41.42-1.81-5.54-3.85-11.65-6.79-19.35-6.57-17.88-14.37-36-2.6-34.29,10.63,1.47,38.7,68.13,43.34,79.33.68-5.32,1.35-9.62,1.35-9.62,3.63-10.64,22.07-16.3,19.81-.11-3.28,23.08,4.64,34.28,4.3,52.62,0,1,0,2.15-.12,3.73a15.62,15.62,0,0,1-.33,2,5.65,5.65,0,0,1-.12,1.47c0,.34-.11.57-.11.79-1.92,11.2-8.26,29.42-14.49,39.72,0,.11.12.11.12.23,12.33,40.28,68.91,145.64,102,203.8,20.14-16.75,45.6-36.66,71.29-56.24l-2.26-3.73s134.21-125.5,203.69-135c1-4.86,1.69-10.18,2.37-15.72.68-7.25,1.13-14.94,1.36-22.86-51-.57-55.79-38.14-50.7-85.89l-7.69-1.59,12.11-30.66c.11-.8.22-1.59.34-2.27a8.86,8.86,0,0,1-2.15-5.43c-.34-3.73,1-6.9,3-7,.34-.11.68.12.91.23.45-2.72.9-5.43,1.24-8.15.91-6,2-11.54,3.17-16.86a23.76,23.76,0,0,0-9.16-.45l-1.25-5.55a32.38,32.38,0,0,1,11.77.46c4.41-17,10.64-31.35,18-43-16.29-1.14-24-6.46-12.67-19.58C721,227.15,804.1,217,846,225.56c14.71,3.06,24.33,8.38,24.44,16.3,0,.91-.11,1.47-.11,2.26v.12h.11a24.89,24.89,0,0,0,10.64-8.6l4.75,3.16a31.89,31.89,0,0,1-10.41,9.4,11.15,11.15,0,0,1-1.7.9c44.36,28.75-19,184.68-19.23,185.25-1.25,26.82-2,53.3-1.93,72,40.29,4.64,65.75,16.41,82.61,34.85,45.15,36.33,114.75,185.36,114.75,185.36L1021.48,734c20.26,65,37.46,130.14,42.44,152A38.68,38.68,0,0,1,1063.58,895.6Z"/><rect class="cls-4" x="95.99" y="53.47" width="757.38" height="591.29" rx="6.72" ry="6.72" transform="translate(949.36 698.23) rotate(180)"/><path class="cls-4" d="M802.72,698.23H90.86A91,91,0,0,1,0,607.38V90.85A91,91,0,0,1,90.86,0H802.72a91,91,0,0,1,90.85,90.85V607.38A91,91,0,0,1,802.72,698.23ZM90.86,2.83a88.13,88.13,0,0,0-88,88V607.38a88.13,88.13,0,0,0,88,88H802.72a88.12,88.12,0,0,0,88-88V90.85a88.11,88.11,0,0,0-88-88Z"/><g class="cls-5"><rect class="cls-6" x="158.68" y="129.95" width="126.5" height="98.76" rx="1.12" ry="1.12" transform="translate(443.85 358.65) rotate(180)"/><rect class="cls-6" x="327.18" y="129.95" width="126.5" height="98.76" rx="1.12" ry="1.12" transform="translate(780.86 358.65) rotate(180)"/><rect class="cls-6" x="495.68" y="129.95" width="126.5" height="98.76" rx="1.12" ry="1.12" transform="translate(1117.87 358.65) rotate(180)"/><rect class="cls-6" x="664.19" y="129.95" width="126.5" height="98.76" rx="1.12" ry="1.12" transform="translate(1454.88 358.65) rotate(180)"/></g><g class="cls-5"><rect class="cls-6" x="158.68" y="299.74" width="126.5" height="98.76" rx="1.12" ry="1.12" transform="translate(443.85 698.24) rotate(180)"/><rect class="cls-6" x="327.18" y="299.74" width="126.5" height="98.76" rx="1.12" ry="1.12" transform="translate(780.86 698.24) rotate(180)"/><rect class="cls-6" x="495.68" y="299.74" width="126.5" height="98.76" rx="1.12" ry="1.12" transform="translate(1117.87 698.24) rotate(180)"/><rect class="cls-6" x="664.19" y="299.74" width="126.5" height="98.76" rx="1.12" ry="1.12" transform="translate(1454.88 698.24) rotate(180)"/></g><g class="cls-5"><rect class="cls-6" x="158.68" y="469.53" width="126.5" height="98.76" rx="1.12" ry="1.12" transform="translate(443.85 1037.82) rotate(180)"/><rect class="cls-6" x="327.18" y="469.53" width="126.5" height="98.76" rx="1.12" ry="1.12" transform="translate(780.86 1037.82) rotate(180)"/><rect class="cls-6" x="495.68" y="469.53" width="126.5" height="98.76" rx="1.12" ry="1.12" transform="translate(1117.87 1037.82) rotate(180)"/><rect class="cls-6" x="664.19" y="469.53" width="126.5" height="98.76" rx="1.12" ry="1.12" transform="translate(1454.88 1037.82) rotate(180)"/></g><rect class="cls-6" x="511.72" y="113.91" width="126.5" height="98.76" rx="1.12" ry="1.12" transform="translate(1149.95 326.57) rotate(180)"/><rect class="cls-7" x="511.72" y="453.49" width="126.5" height="98.76" rx="1.12" ry="1.12" transform="translate(1149.95 1005.74) rotate(180)"/><rect class="cls-8" x="174.72" y="283.7" width="126.5" height="98.76" rx="1.12" ry="1.12" transform="translate(475.93 666.16) rotate(180)"/><path class="cls-9" d="M941.66,336.66c-3.79,24.64-11.37,158-8.21,189s-146.62,39.81-127,5.69,5.68-147.25,5.68-147.25Z"/><path class="cls-10" d="M931.29,340.43,812.12,384.07s8,65.88,3.19,112.27c49.16-20.16,38.28-61.42,38.26-83.58C853.54,392.61,931.42,344.26,931.29,340.43Z"/><polygon class="cls-10" points="774.2 345.61 755.72 385.22 778.31 394.32 774.2 345.61"/><path class="cls-9" d="M773.86,332.46c-11,76.12-29.8,152,62.48,139.53S943,341.19,942.68,318.88C941.25,199.8,795.58,182.78,773.86,332.46Z"/><path class="cls-11" d="M953.93,249.13c7.13-3.24,11.82-10,12.05-10.35l-4.69-3.16c-1.34,2-5.66,6.8-10.83,8.67.06-.82.18-1.54.17-2.45-.25-30.73-143.26-21.86-166.93,5.62-14,16.22.88,20.53,25.15,19.78-2,1.77-3.48,3.57-3.85,5.39-16,78.2,59.4,155.18,68.16,161.76h61.52S998.27,277.84,953.93,249.13Z"/><path class="cls-9" d="M1144.08,886c-8.2-36.32-50.68-193.42-84.33-268.83L973.6,635.52s55.57,185.8,85.09,255.17c-6.84,37.3-41.75,211-63.28,259.58-9.44,22.11,26.48,31.34,35.29,20.47s107.62-209.59,113-271.35c.12-1.34,0-2.48,0-3.76A35,35,0,0,0,1144.08,886Z"/><path class="cls-12" d="M1014.66,540.55c45.14,35.36,115.4,186,115.4,186L981.81,765S895.57,447.28,1014.66,540.55Z"/><path class="cls-11" d="M1085.76,1132.33a504.9,504.9,0,0,1-78.08,57.15c-97.89,59.18-219.2,95-345.49,123.91a29.51,29.51,0,0,1,0-4.41c4.08-70,10.75-150.06,22.3-200.86l323.75,6.45,76.5,1.58C1085.08,1120,1085.42,1125.43,1085.76,1132.33Z"/><path class="cls-8" d="M906.24,504.43c88.87,2.93,118.92,32.93,134.25,84.82,17.4,58.91,48,414.74,48,533.64,0,0-266,18.85-413.33-5.31,46.19-156,51.19-436.65,52.12-520.25C728,534.6,793.57,500.72,906.24,504.43Z"/><path class="cls-13" d="M924,568.92a8.38,8.38,0,0,1-6.75-3.39l-24.14-32.09a8.49,8.49,0,0,1,6.78-13.59H937a8.48,8.48,0,0,1,7.86,11.66L931.92,563.6a8.39,8.39,0,0,1-6.77,5.25A8.68,8.68,0,0,1,924,568.92Zm-24.11-43.41a2.81,2.81,0,0,0-2.25,4.52l24.14,32.1a2.69,2.69,0,0,0,2.61,1.1,2.75,2.75,0,0,0,2.27-1.74l12.93-32.1a2.82,2.82,0,0,0-2.62-3.88Z"/><path class="cls-11" d="M775.85,346.81c.3,3.7-1.08,6.84-3.07,7s-3.85-2.71-4.15-6.42,1.08-6.84,3.07-7S775.55,343.1,775.85,346.81Z"/><path class="cls-11" d="M789.4,324.37c-7.83-12-21-9.3-21.56-9.17l-1.22-5.52c.72-.16,17.54-3.72,27.51,11.6Z"/><path class="cls-12" d="M727,617.65c-.68,41.08-2.27,106.6-6.68,179.82,37.68-45,74.69-98.8,76.84-139C800.25,603.28,768.57,599.88,727,617.65Z"/><path class="cls-9" d="M777.2,636.88l-45.62-75.35S607,651.35,540.24,706.82c-33.05-58.11-89.6-163.5-101.89-203.76,0-.11-.09-.19-.13-.3,6.18-10.25,12.54-28.46,14.43-39.62.06-.28.15-.49.2-.81.07-.53,0-1,.11-1.5s.24-1.48.28-2.06c.08-1.59.13-2.74.15-3.75.37-18.3-7.57-29.49-4.32-52.6,2.27-16.11-16.18-10.55-19.77.15,0,0-.72,4.31-1.44,9.55-4.64-11.18-32.62-77.75-43.3-79.27-11.77-1.68-3.92,16.44,2.66,34.25,2.84,7.7,4.95,13.84,6.77,19.35-15.56,3.54-29.44,30.26-31.59,41.45-2.31,12,26.22,73.75,34.34,85a8.52,8.52,0,0,0,2.11,2c5.81,33.21,56,228.37,91.47,275,22,28.86,50,26.58,66.42,11.17C596.33,775.61,720.1,690.5,777.2,636.88Z"/><path class="cls-8" d="M853.57,561.53c-4.59,83.13-158.9,225.59-158.9,225.59L609.3,646.84S861.89,410.49,853.57,561.53Z"/><path class="cls-9" d="M806,355.91c-3.39,20-8.33,39.73,10.35,38.34s23.39-32.49,23.68-38.42C841.62,324.2,812.7,316.63,806,355.91Z"/></g></g></svg>