<?xml version="1.0" encoding="UTF-8"?>
<svg width="68px" height="80px" viewBox="0 0 68 80" version="1.1" xmlns="http://www.w3.org/2000/svg" xmlns:xlink="http://www.w3.org/1999/xlink">
    <title>online-order</title>
    <g id="Website-Pages" stroke="none" stroke-width="1" fill="none" fill-rule="evenodd">
        <g id="Landing-Page" transform="translate(-446.000000, -2175.000000)" fill="#505050" fill-rule="nonzero">
            <g id="Online-Menu-Boost" transform="translate(295.000000, 1205.000000)">
                <g id="Smoother-Ordering" transform="translate(0.000000, 970.000000)">
                    <g id="online-order" transform="translate(151.000000, 0.000000)">
                        <path d="M67.59375,33.4128125 C67.59375,31.5182813 66.7559031,29.8171875 65.4336516,28.6582813 C66.7559031,27.4995313 67.59375,25.7984375 67.59375,23.9039063 C67.59375,20.4207813 64.7658998,17.586875 61.2904099,17.586875 L59.936821,17.586875 C59.1878413,17.586875 58.4756559,17.746875 57.8309784,18.0326562 L57.8309784,5.98140625 C57.8311343,2.68328125 55.1537348,0 51.8628394,0 L25.6094199,0 C22.3185244,0 19.6411249,2.68328125 19.6411249,5.98140625 L19.6411249,18.5004687 C18.061782,16.743125 15.9553158,15.5095312 13.4865205,15.0214063 C11.468298,14.6248437 9.54143722,16.2334375 9.54143722,18.2875 L9.54143722,37.4557812 C9.54143722,39.8717187 9.11253569,42.2279688 8.2664257,44.4589062 C6.93123389,47.9804688 5.3470578,53.3103125 5.25366921,58.9496875 L0.900575956,64.8315625 C0.701482081,65.1007812 0.59375,65.4271875 0.59375,65.7623437 L0.59375,78.4375 C0.59375,79.3004687 1.29190378,80 2.15282498,80 L26.6257808,80 C27.085708,80 27.5220931,79.7965625 27.8183173,79.4439062 L33.1642295,73.0814062 C35.7106667,72.788125 44.7967997,71.393125 49.7986241,66.0528125 L51.8628394,66.0528125 C55.1537348,66.0528125 57.8311343,63.3695312 57.8311343,60.0714062 L57.8311343,58.3015625 C58.4758118,58.5873437 59.1878413,58.7473437 59.9369769,58.7473437 L61.2905658,58.7473437 C64.7660557,58.7473437 67.59375,55.9135937 67.59375,52.4303125 C67.59375,50.5357812 66.756059,48.8346875 65.4338075,47.6759375 C66.756059,46.5171875 67.59375,44.8159375 67.59375,42.9214062 C67.59375,41.026875 66.756059,39.3257812 65.4338075,38.1670312 C66.7559031,37.0084375 67.59375,35.3073437 67.59375,33.4128125 L67.59375,33.4128125 Z M59.9369769,20.7120312 L61.2905658,20.7120312 C63.0468637,20.7120312 64.4756,22.1439062 64.4756,23.9040625 C64.4756,25.6640625 63.0468637,27.0959375 61.2905658,27.0959375 L59.9369769,27.0959375 C58.7759337,27.0959375 57.8311343,26.1490625 57.8311343,24.9854688 L57.8311343,22.8226562 C57.8311343,21.65875 58.7759337,20.7120312 59.9369769,20.7120312 L59.9369769,20.7120312 Z M41.671478,3.125 L41.671478,3.47046875 C41.671478,5.0846875 40.3610755,6.39796875 38.7503951,6.39796875 C37.1397148,6.39796875 35.8294682,5.0846875 35.8294682,3.47046875 L35.8294682,3.125 L41.671478,3.125 Z M54.7129843,60.0715625 C54.7129843,61.6465625 53.4343869,62.9279687 51.8628394,62.9279687 L25.6094199,62.9279687 C24.0378723,62.9279687 22.7592749,61.6465625 22.7592749,60.0715625 L22.7592749,51.84875 C22.7592749,50.9857812 22.0611211,50.28625 21.2001999,50.28625 C20.3392787,50.28625 19.6411249,50.9857812 19.6411249,51.84875 L19.6411249,60.0715625 L19.6411249,60.071875 C19.6411249,63.37 22.3185244,66.053125 25.609264,66.053125 L44.9095209,66.053125 C39.6838133,69.3959375 32.3450915,70.0257812 32.256536,70.0329687 C31.8405748,70.0657812 31.4550156,70.2642187 31.1862311,70.5842187 L25.9003433,76.875 L3.71205587,76.875 L3.71205587,66.27875 L8.06078371,60.4028125 C8.25987758,60.1335938 8.36760966,59.8071875 8.36760966,59.4720313 C8.36760966,54.1146875 9.89768585,48.9545313 11.1814282,45.5692188 C12.1623982,42.9823438 12.6597431,40.2526563 12.6597431,37.4559375 L12.6597431,18.2875 C12.6597431,18.170625 12.7656043,18.0645313 12.8848735,18.0876563 C16.9259959,18.8865625 19.6411249,22.5078125 19.6411249,27.0984375 L19.6411249,38.0995312 C19.6411249,38.9625 20.3392787,39.6620312 21.2001999,39.6620312 C22.0611211,39.6620312 22.7592749,38.9625 22.7592749,38.0995312 L22.7592749,27.0984375 L22.7592749,5.98140625 C22.7592749,4.40640625 24.0378723,3.125 25.6094199,3.125 L32.7111623,3.125 L32.7111623,3.47046875 C32.7111623,6.8078125 35.4203669,9.52296875 38.7502392,9.52296875 C42.0802675,9.52296875 44.7894721,6.8078125 44.7894721,3.47046875 L44.7894721,3.125 L51.8626835,3.125 C53.434231,3.125 54.7129843,4.40640625 54.7129843,5.98140625 L54.7129843,60.0715625 L54.7129843,60.0715625 Z M64.4754441,52.430625 C64.4754441,54.1907813 63.0467078,55.6226563 61.2904099,55.6226563 L59.936821,55.6226563 C58.7757778,55.6226563 57.8309784,54.6757813 57.8309784,53.5121875 L57.8309784,51.349375 C57.8309784,50.185625 58.7757778,49.2389062 59.936821,49.2389062 L61.2904099,49.2389062 C63.0467078,49.2385938 64.4754441,50.670625 64.4754441,52.430625 Z M64.4754441,42.9217188 C64.4754441,44.6817188 63.0467078,46.1135938 61.2904099,46.1135938 L59.936821,46.1135938 C58.7757778,46.1135938 57.8309784,45.1667188 57.8309784,44.003125 L57.8309784,41.8403125 C57.8309784,40.6765625 58.7757778,39.7298438 59.936821,39.7298438 L61.2904099,39.7298438 C63.0467078,39.7298438 64.4754441,41.1617188 64.4754441,42.9217188 Z M59.9369769,36.6048438 C58.7759337,36.6048438 57.8311343,35.6579688 57.8311343,34.494375 L57.8311343,32.3315625 C57.8311343,31.1678125 58.7759337,30.2210938 59.9369769,30.2210938 L61.2905658,30.2210938 C63.0468637,30.2210938 64.4756,31.6529687 64.4756,33.413125 C64.4756,35.173125 63.0468637,36.605 61.2905658,36.605 L59.9369769,36.605 L59.9369769,36.6048438 Z" id="Shape"></path>
                        <path d="M42.2705826,44 L34.9169174,44 C31.9817015,44 29.59375,46.4672778 29.59375,49.5 C29.59375,52.5327222 31.9817015,55 34.9169174,55 L42.2705826,55 C45.2057985,55 47.59375,52.5327222 47.59375,49.5 C47.59375,46.4672778 45.2059525,44 42.2705826,44 Z M42.2705826,51.8187195 L34.9169174,51.8187195 C33.6793761,51.8187195 32.6725941,50.7784927 32.6725941,49.4998409 C32.6725941,48.2211892 33.6793761,47.1809624 34.9169174,47.1809624 L42.2705826,47.1809624 C43.5081239,47.1809624 44.5149059,48.2211892 44.5149059,49.4998409 C44.5149059,50.7784927 43.5081239,51.8187195 42.2705826,51.8187195 Z" id="Shape"></path>
                        <path d="M50.002942,21.6194425 C49.9176899,20.8285755 49.2389944,20.2285055 48.4301272,20.2285055 L44.2828244,20.2285055 L44.2828244,19.0792137 C44.2828244,16.2785243 41.9652001,14 39.1164502,14 C36.2677004,14 33.9502342,16.2785243 33.9502342,19.0792137 L33.9502342,20.2285055 L29.757063,20.2285055 C28.9481958,20.2285055 28.2695002,20.8285755 28.1842481,21.6194425 L26.6025759,36.2809605 C26.5552839,36.7194672 26.6995324,37.1570409 26.9995756,37.4849879 C27.2994606,37.8127794 27.7269866,38 28.1755489,38 L50.0119576,38 C50.4605198,38 50.8878877,37.8127794 51.1879309,37.4849879 C51.4878159,37.1571964 51.6322226,36.7194672 51.5849306,36.2809605 L50.002942,21.6194425 Z M37.1135787,19.0792137 C37.1135787,17.9933654 38.0121267,17.1099765 39.1164502,17.1099765 C40.220932,17.1099765 41.1194799,17.9933654 41.1194799,19.0792137 L41.1194799,20.2285055 L37.1135787,20.2285055 L37.1135787,19.0792137 Z M29.9337357,34.889868 L31.1799353,23.3383266 L33.9503924,23.3383266 L33.9503924,24.8844514 C33.9503924,25.7432714 34.6586652,26.4394397 35.5320646,26.4394397 C36.405464,26.4394397 37.1137369,25.7432714 37.1137369,24.8844514 L37.1137369,23.3383266 L41.1196381,23.3383266 L41.1196381,24.8844514 C41.1196381,25.7432714 41.8279109,26.4394397 42.7013104,26.4394397 C43.5747098,26.4394397 44.2829826,25.7432714 44.2829826,24.8844514 L44.2829826,23.3383266 L47.0075712,23.3383266 L48.2537707,34.889868 L29.9337357,34.889868 Z" id="Shape"></path>
                        <path d="M23.4817084,43.9249824 C23.1713238,43.1674957 22.2732376,42.7984484 21.5185446,43.1117253 C20.7621982,43.4257537 20.391841,44.3174804 20.7055323,45.0749671 C21.0186224,45.8309504 21.9125,46.2021024 22.6685458,45.8882242 C23.4232388,45.574797 23.7966022,44.6809658 23.4817084,43.9249824 Z" id="Path"></path>
                    </g>
                </g>
            </g>
        </g>
    </g>
</svg>