<?xml version="1.0" encoding="utf-8"?>
<!-- Generator: Adobe Illustrator 22.0.1, SVG Export Plug-In . SVG Version: 6.00 Build 0)  -->
<svg version="1.1" id="Layer_1" xmlns="http://www.w3.org/2000/svg" xmlns:xlink="http://www.w3.org/1999/xlink" x="0px" y="0px"
	 viewBox="0 0 486.1 359.4" style="enable-background:new 0 0 486.1 359.4;" xml:space="preserve">
<style type="text/css">
	.st0{clip-path:url(#SVGID_2_);}
	.st1{clip-path:url(#SVGID_4_);}
	.st2{opacity:0.49;}
	.st3{clip-path:url(#SVGID_6_);}
	.st4{fill:#FFFFFF;}
	.st5{fill:#455A64;}
	.st6{fill:#37474F;}
	.st7{clip-path:url(#SVGID_8_);}
	.st8{fill:#EACA81;}
	.st9{fill:#D8735A;}
	.st10{fill:#F2DEB2;}
	.st11{fill:#F3D4BE;}
	.st12{fill:#101C52;}
	.st13{fill:#8A734B;}
	.st14{fill:#9E3939;}
	.st15{fill:#16246C;}
	.st16{fill:#121D52;}
	.st17{fill:#636F9E;}
	.st18{fill:#C64646;}
	.st19{fill:#7F2D2D;}
	.st20{opacity:0.6;}
	.st21{clip-path:url(#SVGID_10_);}
	.st22{fill:#9D471A;}
	.st23{fill:#26444D;}
	.st24{fill:#ECC143;}
	.st25{fill:#DB972A;}
	.st26{fill:#140060;}
	.st27{fill:#11004A;}
	.st28{fill:#2F4855;}
	.st29{fill:#415485;}
	.st30{fill:#CCA70E;}
	.st31{fill:#EFCA11;}
	.st32{fill:#E28560;}
	.st33{fill:#263A5A;}
	.st34{fill:#5E8D7C;}
</style>
<title>Asset 2</title>
<g>
	<g>
		<g>
			<defs>
				<rect id="SVGID_1_" x="-50.7" y="-177.3" width="600" height="600"/>
			</defs>
			<clipPath id="SVGID_2_">
				<use xlink:href="#SVGID_1_"  style="overflow:visible;"/>
			</clipPath>
			<g class="st0">
				<g id="Layer_2_1_">
					<defs>
						<rect id="SVGID_3_" x="-50.7" y="-177.3" width="600" height="600"/>
					</defs>
					<clipPath id="SVGID_4_">
						<use xlink:href="#SVGID_3_"  style="overflow:visible;"/>
					</clipPath>
					<g id="Layer_1-2" class="st1">
						<g>
							<g class="st2">
								<defs>
									<rect id="SVGID_5_" x="3.5" y="0" class="st2" width="482.6" height="356.6"/>
								</defs>
								<clipPath id="SVGID_6_">
									<use xlink:href="#SVGID_5_"  style="overflow:visible;"/>
								</clipPath>
								<g class="st3">
									<path class="st4" d="M67.1,49c-108.7,105.4-45,306.7-45,306.7l429.3,0.9c0,0,80-143.2-2.7-259.5
										C372.4-10.4,150.5-31.9,67.1,49"/>
								</g>
							</g>
						</g>
						<rect x="29.5" y="49" class="st5" width="132.2" height="304.1"/>
						<rect x="109.8" y="31" class="st6" width="8.6" height="322.2"/>
						<g>
							<defs>
								<rect id="SVGID_7_" x="-50.7" y="-177.3" width="600" height="600"/>
							</defs>
							<clipPath id="SVGID_8_">
								<use xlink:href="#SVGID_7_"  style="overflow:visible;"/>
							</clipPath>
							<g class="st7">
								<path class="st5" d="M109.9,31c0,0.8,0.1,322,0.1,322h-80V48.7L109.9,31z"/>
								<path class="st6" d="M39.1,75.4l0.4,85c0.3,0,0.7-0.1,1-0.1c4.4,0,8,3.6,8.1,8l44.4-5.5c0-4.1,3-7.5,7.1-8l-0.4-89
									c-0.6,0.1-1.1,0.2-1.7,0.2c-4.4,0-8-3.6-8.1-8l-44.4,9.4C45.5,71.4,42.8,74.7,39.1,75.4 M42.2,77.7c3.1-1.5,5.3-4.2,6.1-7.6
									l39.1-8.4c1.4,4,4.9,6.8,9.1,7.4l0.4,83.4c-3.3,1.3-5.8,4.2-6.7,7.6L51.1,165c-1.3-3.9-4.5-6.7-8.5-7.5L42.2,77.7z"/>
								<path class="st6" d="M39.2,230.4l0.1,101.4l0,0c4.5,0,8.1,3.6,8.1,8.1H59c0-4.5,3.6-8.1,8.1-8.1V229.4h-0.7
									c-4.5,0-8.1-3.6-8.1-8.1l-11.8,1C46.5,226.5,43.3,230,39.2,230.4 M42.2,232.8c3.4-1.3,6-4.1,7-7.6l6.5-0.6
									c1.2,3.8,4.4,6.7,8.3,7.6V329c-3.7,1.1-6.6,3.9-7.6,7.6h-6.3c-1.1-3.7-4-6.6-7.6-7.6L42.2,232.8z"/>
								<path class="st6" d="M72.3,227.5v104.2l0,0c4.5,0,8.1,3.6,8.1,8.1l0,0h9.5c0-4.4,3.6-8,8-8l0.8-105c-0.2,0-0.5,0-0.7,0
									c-4.5,0-8.1-3.6-8.1-8.1c0,0,0,0,0-0.1l-10.3,0.9C79.6,223.7,76.4,227.2,72.3,227.5 M75.4,230c3.5-1.2,6.1-4.1,7-7.6
									l4.9-0.4c0.5,1.7,1.5,3.3,2.8,4.6c1.5,1.5,3.4,2.6,5.5,3l-0.8,99.5c-3.7,1.1-6.5,3.9-7.6,7.6H83c-1.1-3.7-4-6.6-7.6-7.6
									L75.4,230z"/>
								<path class="st8" d="M88.3,192.2c0,3.5,1.5,6.3,3.3,6.3s3.3-2.8,3.3-6.3s-1.5-6.3-3.3-6.3S88.3,188.7,88.3,192.2"/>
								<path class="st9" d="M85.3,190v5h6.8c0.2-0.9,0.3-1.8,0.3-2.7c0-0.8-0.1-1.5-0.2-2.3L85.3,190z"/>
								<path class="st10" d="M80.6,192.2c0,5.3,2.2,9.5,4.9,9.5s4.9-4.3,4.9-9.5s-2.2-9.5-4.9-9.5S80.6,186.9,80.6,192.2"/>
								<path class="st10" d="M79.2,192.2c0,5.3,2.2,9.5,4.9,9.5s4.9-4.3,4.9-9.5s-2.2-9.5-4.9-9.5S79.2,186.9,79.2,192.2"/>
								<path class="st6" d="M2.2,359.4h476.1c1.2,0,2.2-1.4,2.2-3.2s-1-3.2-2.2-3.2H2.2C1,353,0,354.4,0,356.2S1,359.4,2.2,359.4"
									/>
								<path class="st11" d="M422.4,338c0,0,0,0.3,0,0.8c0.1,2.7-0.9,5.4-2.7,7.4c-3.2,3.3-3.2,7.5,0.2,8.2s11.4-0.2,11.4-0.2
									s1.8-3.2,0.6-11.6s-2-17.7-2-17.7l-9.2-1.4L422.4,338z"/>
								<path class="st12" d="M420.6,341.6c-1.6,2.1-3,4.3-4.2,6.5c-0.8,1.9-0.6,6.7,0,7.2c5.5,4.3,15.9,0.4,15.9,0.4
									c0.5-2.3,0.9-4.7,1.1-7.1c0.4-3.9,0.2-7.6-1.1-7.6s-1.5,2.1-4.3,1.5S423.5,341,420.6,341.6"/>
								<path class="st4" d="M433.2,350.6c-2.5,1-5,1.7-7.7,2.2c-2.9,0.4-6.7-0.9-9.6-2.1c-0.1,2,0.1,4.3,0.5,4.7
									c5.5,4.3,15.9,0.4,15.9,0.4S432.8,353.6,433.2,350.6"/>
								<path class="st13" d="M433.2,350.6c-7.9,2.4-9.4,2.8-17.3,0c1.3,0.7,2.7,1.3,4.1,1.8c2.2,0.8,4.5,0.9,6.8,0.4
									C429,352.4,431.2,351.6,433.2,350.6"/>
								<path class="st11" d="M330.5,194.2c2.3,0.9,5.2,2.1,5.2,2.1c0.4-0.9-7.1-2.5-8.1-4.8c-0.6-1.2,8.6,3.3,9.2,2.7
									c0.3-0.2-10.3-3.7-9.8-4.5s11.1,3.1,11.2,2.6c0.1-0.7-9.3-2.6-8.4-3.6c0.4-0.5,11.8,2.5,13,2.7c1.5,0-3.9-3.7-2.1-4.2
									c2.5-0.7,8.8,6.5,9.3,6.7c1.4,0.3,13.6,1.8,19.5-2.1c4.8-3.1,9.5-8,10.6-12.1s2.7-9.9,1.3-14.4c5.3-0.9,10.8-1,16.1-0.4
									c0.3,6.8-7.7,33.5-11.1,35.7c-7.4,4.9-20.7,3.7-30,2.9c-7.5-0.6-14.9-2.1-21.7-5.5c-1.5-0.8-3.5-1.6-4.7-3
									c-0.2-0.2-0.2-0.5,0-0.6C330.2,194.1,330.4,194.1,330.5,194.2"/>
								<path class="st14" d="M384.9,142.5c-4,4.2-8.1,29.1-6.6,35c2.6,4.8,14.3,5.7,18.1,8c8.7-3.6,2.8-19.7,2.8-19.7l3.2-31.3
									C395.7,134.9,389.5,137.8,384.9,142.5"/>
								<path class="st11" d="M395.9,332.4c1.2,3.7,0,7.8-3,10.3c-1.1,0.9-2.3,1.7-3.7,2.3c-5.3,2.3-12.3,1.8-13.2,6.6
									s33.9-1.3,33.9-1.3s-2.4-11.7-2.6-13.6s0.2-9.1,0.2-9.1l-13.5-1L395.9,332.4z"/>
								<path class="st12" d="M408.4,342c0,0,0.4,1.9,1.4,5c0.6,2,0.7,4.1,0.4,6.1c0,0-32.7,1.5-34,0.5s-0.6-4.8-0.3-5.1
									s4.5-1.5,6.6-2.8s9.4-6.3,11.8-6.1s3.6,2,8.2,2.2S407.3,341.1,408.4,342"/>
								<path class="st4" d="M376.2,353.7c1.3,1,34-0.5,34-0.5c0.2-1.4,0.2-2.9,0-4.3c-17,3.2-34.3-0.3-34.3-0.3
									C375.6,348.9,374.9,352.6,376.2,353.7"/>
								<path class="st13" d="M410.2,348.8c-11.4,2.1-23,2-34.3-0.3c10.3,1.6,20.8,1.8,31.1,0.7L410.2,348.8"/>
								<path class="st15" d="M435.5,219.2c5.6,20.5-1.4,112.4-1.4,112.4l-16.8-1.1c0,0-3.8-91.5-6.6-94.2c-0.6-0.7-1.7-0.7-2.4-0.1
									c-0.7,0.5-1.2,1.2-1.4,2c-1.7,5.6-11.6,38.5-9.6,45.7c2.2,7.9,11.9,50.1,11.9,50.1l-14.1,0.6c0,0-19.3-32.3-19.3-54.8
									s3.1-52.3,12.3-64.5c4.1-5.5,24.6-9.8,24.6-9.8S433.7,212.9,435.5,219.2"/>
								<path class="st16" d="M405.1,333.9c0,0-9.7-45-11.9-53.4c-1.6-6.1,4.3-29.5,7.7-41.9c0.8-2.9,3.7-4.6,6.6-3.8
									c0.7,0.2,1.3,0.5,1.9,0.9c0,0-14.2,40.2-12,48.1s11.9,50.1,11.9,50.1l-14.1,0.6l-0.1-0.2L405.1,333.9z"/>
								<path class="st16" d="M432,215c1.8,1.4,3.1,2.9,3.5,4.3c5.6,20.5-1.4,112.4-1.4,112.4l-4.2-0.3
									C430.2,328.1,436.2,241.5,432,215"/>
								<path class="st16" d="M385,220.7c0.9-1.9,2-3.8,3.2-5.5c0.6-0.7,1.2-1.4,2-1.9c3.2,1.6,6.6,2.9,10,3.9
									c13.5,4.1,28,1.9,34-0.2c0.6,0.6,1,1.4,1.2,2.2c0.6,2.2,1,4.5,1.2,6.8c-3,2.2-20.5,7.6-36.4,2.6
									C390.1,225.4,386.4,223.5,385,220.7"/>
								<path class="st17" d="M434.1,338.6c-4.3,1.4-14.6,1-17.1,0c-2.3-1-2.4-9.4,0-9.9c3.4-0.6,13.1-0.6,17.1,0
									C436.6,329.1,436.5,337.9,434.1,338.6"/>
								<path class="st17" d="M408.6,334.8c-4.3,1.4-14.6,1-17.1,0c-2.3-1-2.4-9.5,0-9.9c3.4-0.6,13.1-0.6,17.1,0
									C411.1,325.3,411,334.1,408.6,334.8"/>
								<path class="st18" d="M415,133.7c0,0,14-0.7,19.7,6s5.2,78,2.9,80s-22.2,8-38,3.3S382.9,212,382.9,212s4.2-47.9,4.2-61
									S399.8,130.2,415,133.7"/>
								<path class="st19" d="M427.3,205.9c1.2-3.4-0.1-14.4-1.5-22.3c-1.1,0.2-2.2,0.5-3.2,0.8c-1.7-5.2-3.2-18.8-3.2-27.4
									c-0.1-16,8-20.7,8-20.7c1.6-0.4,4.2,1.1,8.2,5.3c4.6,12.7,3.7,71.8,1.5,73.6c-0.9,0.8-2.7,5.8-7.4,6.8
									C428.5,217.3,426.2,209.1,427.3,205.9"/>
								<path class="st19" d="M416.2,133.9c3,2.8,3.3,2.9,0.1,6.5s-13.6,7.8-15.1,7.1c-3.7-1.7-0.3-7.6,2.2-11.8
									C404.2,134.4,413.2,131.1,416.2,133.9"/>
								<path class="st11" d="M402.6,123.3c0,0-0.8,19.3,0,20.1s12.5-3.2,13.5-5.6s-4.3-37.2-4.3-37.2L402.6,123.3z"/>
								<g>
									<g class="st20">
										<defs>
											<rect id="SVGID_9_" x="402.3" y="105.9" class="st20" width="7.7" height="30.1"/>
										</defs>
										<clipPath id="SVGID_10_">
											<use xlink:href="#SVGID_9_"  style="overflow:visible;"/>
										</clipPath>
										<g class="st21">
											<path class="st22" d="M402.3,136.1c2.1-0.4,3.9-0.9,4.4-1.5c4.8-5.4,1.2-14.1,1.6-16.4c0.8-4.5,2.3-8.3,1.5-12.2
												l-7.1,17.4C402.7,123.3,402.4,130.3,402.3,136.1"/>
										</g>
									</g>
									<path class="st23" d="M339.9,145.2c-0.8,2,0.9,4,2.6,3.1c0.4-0.2,0.7-0.6,0.9-1c0.8-2-0.9-4-2.6-3.1
										C340.3,144.5,340,144.8,339.9,145.2"/>
									<path class="st23" d="M340.9,146.2l0.6,0.8l0.4-1c0.5-1.3,4.5-12.8,0-15.4c-1-0.8-2.5-0.5-3.2,0.5c0,0.1-0.1,0.1-0.1,0.2
										C336.6,134.1,337.2,141,340.9,146.2 M339.4,132.2c0.3-0.5,1-0.8,1.5-0.5c0.2,0.1,0.3,0.1,0.4,0.2c2.7,1.6,1,8.9-0.2,12.6
										C338.2,139.8,338.1,134.1,339.4,132.2"/>
									<path class="st23" d="M341.5,145.6l0.9,0.2c0.8,0.2,1.6,0.3,2.5,0.3c4.1,0,7.6-2.1,8.5-4.5c0.5-1.2,0.1-2.6-1-3.4
										c-3.7-2.8-9.6,5.6-10.3,6.6L341.5,145.6z M343.6,144.6c1.7-2.3,4.9-5.8,7.1-5.8c0.4,0,0.8,0.1,1.1,0.4
										c0.6,0.4,0.9,1.1,0.6,1.8C351.7,142.9,347.9,145.2,343.6,144.6"/>
									<path class="st24" d="M331.7,196.2h16.2c13.7,0,24.9-11.1,24.9-24.9s-11.1-24.9-24.9-24.9c0,0,0,0,0,0h-16.2
										c-13.7,0-24.9,11.1-24.9,24.9l0,0C306.8,185.1,318,196.2,331.7,196.2C331.7,196.2,331.7,196.2,331.7,196.2"/>
									<path class="st25" d="M311.2,146.5h20.6v49.8h-20.6c-2.4,0-4.3-3.1-4.3-6.9v-36C306.9,149.5,308.8,146.4,311.2,146.5"/>
									<path class="st23" d="M350.3,146.5h1.6c8.8,15.9,3.4,43.7,2.1,49.8h-1.3c0.9-4.1,7.2-34.4-2.4-49.6
										C350.4,146.6,350.4,146.5,350.3,146.5"/>
									<path class="st23" d="M319.9,196c0,0.1,0,0.1,0,0.2h-1.2c-3.5-28.4,0.4-43.4,3-49.8h1.5C320.8,151.8,316.2,166.6,319.9,196
										"/>
									<path class="st19" d="M423.3,250h30.2c3.8,0,6.9-3.1,6.9-6.9v-15.8c0-3.8-3.1-6.9-6.9-6.9h-30.2c-3.8,0-6.9,3.1-6.9,6.9
										v15.8C416.4,247,419.5,250,423.3,250"/>
									<rect x="418.1" y="223.9" class="st4" width="37.2" height="22.7"/>
									<path class="st25" d="M417.4,241.8L417.4,241.8c1.1,0,2-0.9,2-2v-9c0.2-1.1-0.5-2.1-1.6-2.4s-2.1,0.5-2.4,1.6
										c-0.1,0.3-0.1,0.5,0,0.8v9.1C415.5,240.9,416.4,241.8,417.4,241.8"/>
									<path class="st11" d="M430.7,205.9c-2.8,8.4,7,26.6,3,32.5s-2,12,2.8,15s10.8-1.2,10.3-3.5l-2.4-11.4
										c-0.6-2.8,10.6-25.6,2.7-39.4c-4.7-8.2,2.2-22.3-1.4-31.4c-3.3,6.1-18.7,2.3-17.8,8.9C429.4,182.2,432.3,201.1,430.7,205.9
										"/>
									<path class="st11" d="M395.8,103.4c-1.2,4.1-1.8,8.3-2,12.6c0,5.7,0.1,15.5,4.1,15.5s9.8-1.1,11.1-9.1s0-16.9-4-19
										S395.8,103.4,395.8,103.4"/>
									<path class="st26" d="M397.3,108.5c0.8-0.3,1.6,0.1,1.9,0.9c0.1,0.3,0.1,0.5,0.1,0.8c-0.3,1.9-0.2,4,1.5,4.4
										c3.4,0.8,5,0,5.6,0.6s-1.6,3.7,0,4.2s2.5-4.9,3.9-4.9s1.7,8,0,9.7s0.2,4.2,2.5,4.2s-0.3,2.9,2.8,3.8s5.6,1,6.6-3
										s0-6.1,0-6.1s3.2-3.7,2.4-7.4c-0.6-2-1.5-3.9-2.5-5.7c-0.8-2.2-1.5-4.5-2-6.8c-0.4-2.5-6.6-5-10.8-5.5s-2.1-3-5.6-3
										s-4,4.7-4,4.7s-5-3-5.3-2.9c-2.9,1.8-0.5,4.9-0.5,4.9s-2.4,0.2-2.9,3.4s1.5,5.1,4.8,4C396.4,108.8,396.9,108.6,397.3,108.5
										"/>
									<path class="st27" d="M393.9,97c0.8,0.1,1.6,0.3,2.4,0.6c1.5,0.8,3.4,2,3.4,2c3.5,1,7,2.2,10.4,3.6
										c4.1,1.9,8.1,4.1,11.9,6.5l0.2,0.5c0,0,0.8,1.4,1.5,2.9c-3-0.7-8.9-2.9-15.4-6C400.8,103.5,393.4,97.4,393.9,97"/>
									<path class="st11" d="M408.1,114c0,0,1.7-3.1,3.2-1.4s0.7,9.2-1.6,9.2S407.3,116,408.1,114"/>
									<path class="st14" d="M427,136.5c0,0-4.7,3.6-4.7,19.6c0,8.5,2.6,23,4.1,28.2c7.2-2.1,14.8-2.1,22,0c0.9-7-0.9-21.9-2-26.7
										C443.7,145.8,433.8,133.8,427,136.5"/>
									<path class="st18" d="M398.2,97.9c3.3-6.6,11.4-9.4,18-6c6.5,3.2,9.2,11,6.2,17.6c-0.1,0.2-0.2,0.5-0.4,0.7l-24.2-11.5
										C398,98.4,398.1,98.1,398.2,97.9"/>
									<path class="st14" d="M403.3,100.9c0.1-0.3,0.2-0.5,0.3-0.8c2.6-5.4,8.5-8.4,14.5-7.3c-0.6-0.4-1.3-0.8-2-1.1
										c-6.7-3.2-14.7-0.4-17.9,6.2c0,0,0,0,0,0c-0.1,0.2-0.2,0.5-0.3,0.8l24.2,11.5C422.1,110.1,403.3,100.9,403.3,100.9"/>
									<path class="st19" d="M387.1,93.8c0.3-0.5,12.9,4.6,20.9,8.5s14.4,7.4,14.1,7.9s-13.6-2.6-21.7-6.5S386.8,94.4,387.1,93.8"
										/>
									<path class="st11" d="M148.6,332.1c0,0-2.9,2.8-2.9,3.9s-0.3,12.1,0.9,13.2s4.6,1.8,3.5,2.9c-0.8,0.9-7.2,0.7-11.4,0.5
										c-1.2-0.1-2.8-10.1-3.3-11.5c-0.7-2.1-3-7.5-2.3-9c0.3-0.7,2.3-1.6,4.5-3c1.7-1.3,3.2-2.9,4.4-4.7L148.6,332.1z"/>
									<path class="st11" d="M186.8,339c0,0-2.6,7.3-2.6,7.3c-0.2,1.2-0.9,4-0.9,5.1c0,4,17.6-3.3,13.6-5.1
										c-0.9-0.7-1.4-1.7-1.6-2.8c-0.2-2.1,1.5-4.7,1.5-4.7L186.8,339z"/>
									<path class="st28" d="M185.3,208.8l-9.1,10.6l-8.9,55.6l-28.1,51.8c0,0,4.2,6.5,8.8,7.5l39.9-52.4l21.6-65.6l-0.8-14.6
										L185.3,208.8z"/>
									<path class="st29" d="M208.1,198.5l6.3,19.4c0,0,5.5,57.8,4.7,61.8c-1.9,9.7-21.3,62.6-21.3,62.6l-12.5-1.6l13.6-62.5
										l-22.8-58.8L208.1,198.5z"/>
									<path class="st11" d="M268.5,132.5c-2.9,3.2-2.3,3.6-2.7,4s-9,2.3-9,2.3s-25.1,5.5-26.5,5.8l-26.1-5.8l-6.3,12.6
										c0,0,28.5,5.7,30,5.7s34.6-11.6,37.5-12.5c0,0,3.9,0.3,6.4,0.3s4.8-1,5.5-1.1c1.8-0.4,3.5-1,5.1-1.8
										c2.3-1.1-0.4-1.2-0.4-1.2s-4.7,1.3-4.7,0.9s2.6-0.9,5.1-2.1c0.7-0.3,1.3-0.6,1.9-0.9c1.6-0.8,1.5-2-0.2-1.5
										c-0.8,0.2-1.6,0.5-2.4,0.9c-0.7,0.3-1.5,0.5-2.2,0.7c-0.8,0.3-1.5,0.5-2.3,0.7c0-0.1-0.3-0.2,0.4-0.6
										c1.4-0.5,2.7-1.1,4-1.7c0.7-0.4,2.1-1.2,2.1-1.2s2.4-1.6,2.2-1.9c-0.5-0.7-2.2,0-3,0.7c-0.8,0.3-1.5,0.6-2.2,1
										c0,0-3.4,1-3.6,0.5c-0.1-0.2,1.7-1.2,3.5-2.4s3.1-2.3,3-2.7c-0.3-0.7-1.9,0.2-1.9,0.2s-1.4,0.8-1.9,1s-2.3,1-2.3,1
										s-6.2,2.1-6.3,1.6c-0.1-0.7,0.1-1.5,0.4-2.1c0.3-0.3,1.2-0.4,1.5-0.7s1-0.9,0.7-1.4s-2.9,0.2-2.9,0.2
										C270.2,131.3,269.3,131.8,268.5,132.5"/>
									<path class="st30" d="M213.2,140c0,0-0.9,5.5-1.5,7.6c-0.5,1.7-3.9,8.7-3.9,8.7s-12.1-4-17.8-6.2
										c-6.9-2.8-14.9-8.7-14.4-9.4c1.7-2.6,4.2-4.5,7.1-5.4C194.3,132.4,213.2,140,213.2,140"/>
									<path class="st31" d="M214.6,217.5c-11.5,4.5-38.6,1.9-38.6,1.9s1.7-11.8,2.3-19.8s-4.5-20.6-6.6-42.6
										c-0.5-4.6,1.4-17.2,7.9-21.2c1.1-0.8,2.4-1.3,3.7-1.6c0.1,0,9-1.8,13.5-0.4c1.3,1.1,5.3,4.5,7.6,8.4
										c2.4,4.1,4.5,8.5,6.1,13c2.6,8.7,3.7,33.9,3.7,38.6S214.6,217.5,214.6,217.5"/>
									<path class="st11" d="M204.4,142.3L204.4,142.3c-4.4,1.4-21.1-7.9-21.1-7.9l0,0l2-13.2c0,0,10.4-2.5,9.8,1.3
										s1.4,11.3,1.4,11.3l0.3,0.2C198,135.1,202.1,138.4,204.4,142.3"/>
									<path class="st32" d="M195.1,122.4c0.6-3.8-9.8-1.3-9.8-1.3l-0.2,1.1c0.3,0.7,0.6,1.3,1.1,1.9c2.4,2.5,5.7,3.9,9.1,4.1
										C195,126.3,194.9,124.3,195.1,122.4"/>
									<path class="st11" d="M183.2,100.7c-0.3-0.1-2.6,16.4,1.7,21s12.5,6,15.5,2.5c3.3-4,3.1-21.7-3.5-26.4
										S183.2,100.8,183.2,100.7"/>
									<path class="st33" d="M194.4,88.9c-3.7,0.8-7.1,2.7-9.6,5.5c-2.3,0.3-5.5,1.5-8.7,6.9c-4,6.6-1.1,13.9,3.6,17.5
										s4.6,7.7,4.6,7.7s7.9-4,7.1-10.3c-0.3-2.6-1.5-3.2-0.6-5.3s0.2-5.4,0.4-8.3l0.5-1.8c0,0,3.3-2.5,6.5-1.8
										S201,87.6,194.4,88.9"/>
									<path class="st11" d="M192.1,112.6c0,2-0.4,3.6-1.6,3.6s-1.5-0.8-2.5-3.6c-0.9-2.7,0.2-3.7,1.4-3.7
										S192.1,110.6,192.1,112.6"/>
									<path class="st34" d="M137.7,328.8c0,0,6,18.3,8.5,19.2c0.7,0.2,4.6,1.3,5.2,2.8c0,0,0,0.1,0,0.1c0.1,0.8-0.4,1.6-1.3,1.8
										c-0.1,0-0.2,0-0.3,0h-12.2c0,0-1.7-8.3-2.4-11.9c0,0-3.6-8.9-3.2-9.7S137.7,328.8,137.7,328.8"/>
									<path class="st34" d="M182.3,352.7l2-6.5c0,0,4.2,1.8,6.3,1.5c2.1-0.4,4.2-0.9,6.2-1.5c8.4,2.8,15.3,4.2,14.1,6.5H182.3z"
										/>
									<path class="st11" d="M269.2,160.4c-1.5,0.8-2.9,1.8-4.2,2.9c-0.6,0.3-9.8-0.1-9.8-0.1s-27.2-1-28.7-1.1L201.5,150
										l-9.9,10.4c0,0,27.7,12.5,29.2,12.9s38.5-2.4,41.8-2.5c0,0,3.9,1.2,6.4,1.9s5.2,0.3,5.9,0.4c1.9,0.1,3.8-0.1,5.7-0.4
										c2.7-0.5-0.1-1.2-0.1-1.2s-5.1,0.1-5-0.3s2.9-0.2,5.8-0.7l2.2-0.4c1.8-0.4,2.1-1.5,0.2-1.5c-0.9,0-1.8,0.1-2.6,0.3
										c-0.8,0.1-1.7,0.1-2.5,0.1c-0.8,0.1-1.7,0.1-2.5,0.1c0-0.1-0.4-0.3,0.5-0.4c1-0.2,3.1-0.2,4.5-0.6c0.8-0.2,2.5-0.6,2.5-0.6
										c0.7-0.4,1.4-0.9,2-1.4c-0.1-0.9-1.5-0.5-2.5,0c-0.9,0.1-1.7,0.2-2.6,0.4c0,0-3.8,0.1-3.8-0.4c0-0.2,2.2-0.3,4.4-1.1
										c2.6-0.8,3.2-2,3.1-2.4c-0.1-0.7-1.5,0-1.5,0c-0.8,0.4-1.7,0.7-2.5,1c-0.6,0.1-9.1,0.3-9.1-0.2s0.8-1.1,1.3-1.3
										s1.2-0.4,1.6-0.6c0.5-0.4,0.7-1,0.5-1.5c-0.2-0.5-2-0.2-2-0.2C271.3,159.7,270.2,160,269.2,160.4"/>
									<path class="st30" d="M199,171.6c0,0,4.9-6.2,6.6-8.8c2.2-3.3,4.3-6.8,6.1-10.4c0,0-13.8-7.9-18.9-10.6
										c-18.8-9.9-18.4,4.9-17.5,8.1C177.4,157.3,199,171.6,199,171.6"/>
									<path class="st32" d="M268.8,139.4c1.6-0.9,2.9-2.4,2.5-4.2C272.7,136.6,270.9,139.3,268.8,139.4"/>
								</g>
							</g>
						</g>
					</g>
				</g>
			</g>
		</g>
	</g>
</g>
</svg>
