<?xml version="1.0" encoding="UTF-8"?>
<svg width="78px" height="80px" viewBox="0 0 78 80" version="1.1" xmlns="http://www.w3.org/2000/svg" xmlns:xlink="http://www.w3.org/1999/xlink">
    <title>order-information</title>
    <g id="Website-Pages" stroke="none" stroke-width="1" fill="none" fill-rule="evenodd">
        <g id="Group" fill="#505050" fill-rule="nonzero">
            <g id="review">
                <path d="M48,70.667 L46.6666667,70.667 L46.6666667,50.6666667 L44,50.6666667 L44,73.3336667 L6.66666667,73.3336667 L6.66666667,6.667 L14.8562017,6.667 C15.4672532,9.02002878 17.5897597,10.6639072 20.0208333,10.667 L30.6875,10.667 C33.1185736,10.6639072 35.2410802,9.02002878 35.8521317,6.667 L44,6.667 L44,38.6666667 L46.6666667,38.6666667 L46.6666667,9.33365833 L48,9.33365833 L48,10.6666667 L50.6666667,10.6666667 L50.6666667,4.00033333 C50.6641409,1.79224139 48.8747586,0.00285910001 46.6666667,0.000333333333 L4,0.000333333333 C1.79190805,0.00285910001 0.00252576668,1.79224139 -9.47390314e-15,4.00033333 L-9.47390314e-15,76.0003333 C0.00252576668,78.2084253 1.79190805,79.9978076 4,80.0003333 L46.6666667,80.0003333 C48.8747586,79.9978076 50.6641409,78.2084253 50.6666667,76.0003333 L50.6666667,69.3333333 L48,69.3333333 L48,70.667 Z M4,2.667 L46.6666667,2.667 C47.4026972,2.66784223 47.9991578,3.26430281 48,4.00033333 L48,6.667 L46.6666667,6.667 L46.6666667,5.33366667 C46.6666768,4.98004156 46.5262043,4.64089711 46.2761536,4.3908464 C46.0261029,4.14079569 45.6869584,4.00032317 45.3333333,4.00033333 L34.6875,4.00033333 C34.3338749,4.00032317 33.9947304,4.14079569 33.7446797,4.3908464 C33.494629,4.64089711 33.3541565,4.98004156 33.3541667,5.33366667 C33.3524831,6.80572809 32.1595614,7.99864979 30.6875,8.00033333 L20.0208333,8.00033333 C18.5487719,7.99864979 17.3558502,6.80572809 17.3541667,5.33366667 C17.3541768,4.98004156 17.2137043,4.64089711 16.9636536,4.3908464 C16.7136029,4.14079569 16.3744584,4.00032317 16.0208333,4.00033333 L5.33333333,4.00033333 C4.97970823,4.00032317 4.64056377,4.14079569 4.39051306,4.3908464 C4.14046236,4.64089711 3.99998983,4.98004156 4,5.33366667 L4,6.667 L2.66666667,6.667 L2.66666667,4.00033333 C2.66750889,3.26430281 3.26396948,2.66784223 4,2.667 L4,2.667 Z M4,70.667 L2.66666667,70.667 L2.66666667,9.33366667 L4,9.33366667 L4,70.667 Z M46.6666667,77.3336667 L4,77.3336667 C3.2639691,77.3328254 2.66750798,76.7363642 2.66666667,76.0003333 L2.66666667,73.3336667 L4,73.3336667 L4,74.667 C3.99998983,75.0206251 4.14046236,75.3597696 4.39051306,75.6098203 C4.64056377,75.859871 4.97970823,76.0003435 5.33333333,76.0003333 L45.3333333,76.0003333 C45.6869584,76.0003435 46.0261029,75.859871 46.2761536,75.6098203 C46.5262043,75.3597696 46.6666768,75.0206251 46.6666667,74.667 L46.6666667,73.3336667 L48,73.3336667 L48,76.0003333 C47.9991587,76.7363642 47.4026976,77.3328254 46.6666667,77.3336667 L46.6666667,77.3336667 Z" id="Shape"></path>
                <polygon id="Path" points="22.6875 4.00033333 28.0208333 4.00033333 28.0208333 6.667 22.6875 6.667"></polygon>
                <circle id="Oval" cx="30.6875" cy="5.33366667" r="1.33333333"></circle>
                <path d="M40,50.6666667 L38.5998333,50.6666667 C38.0581158,45.3629119 34.4164746,40.8882539 29.3333333,39.2804767 L29.3333333,37.3333333 C29.3333333,35.1241943 27.5424723,33.3333333 25.3333333,33.3333333 C23.1241943,33.3333333 21.3333333,35.1241943 21.3333333,37.3333333 L21.3333333,39.2804767 C16.2501921,40.8882539 12.6085509,45.3629119 12.0668333,50.6666667 L10.6666667,50.6666667 C10.3130416,50.6666565 9.97389711,50.807129 9.7238464,51.0571797 C9.47379569,51.3072304 9.33333333,51.6463749 9.33333333,52 C9.33748582,55.6801769 12.3198231,58.6625142 16,58.6666667 L34.6666667,58.6666667 C38.3468436,58.6625142 41.3291808,55.6801769 41.3333333,52 C41.3333333,51.6463749 41.192871,51.3072304 40.9428203,51.0571797 C40.6927696,50.807129 40.3536251,50.6666565 40,50.6666667 L40,50.6666667 Z M24,37.3333333 C24,36.5969537 24.5969537,36 25.3333333,36 C26.069713,36 26.6666667,36.5969537 26.6666667,37.3333333 L26.6666667,38.7335 C26.228,38.6897383 25.7833333,38.6666667 25.3333333,38.6666667 C24.8833333,38.6666667 24.4386667,38.6897383 24,38.7335 L24,37.3333333 Z M25.3333333,41.3333333 C30.7055325,41.3407124 35.2361707,45.3373575 35.9136967,50.6666667 L14.75297,50.6666667 C15.430496,45.3373575 19.9611342,41.3407124 25.3333333,41.3333333 L25.3333333,41.3333333 Z M34.6666667,56 L16,56 C14.3054294,55.9980537 12.7953062,54.9303058 12.228515,53.3333333 L38.4381517,53.3333333 C37.8713605,54.9303058 36.3612373,55.9980537 34.6666667,56 Z" id="Shape"></path>
                <path d="M76,13.3333333 L45.3333333,13.3333333 C44.9797082,13.3333333 44.6405638,13.4737957 44.3905131,13.7238464 C44.1404624,13.9738971 43.9999898,14.3130416 44,14.6666667 L44,40.781 L39.05721,45.72387 C38.6758582,46.1051881 38.5617678,46.6786851 38.7681422,47.1769244 C38.9745166,47.6751636 39.4607109,48.0000182 40,48 L44,48 L44,65.3333333 C43.9999898,65.6869584 44.1404624,66.0261029 44.3905131,66.2761536 C44.6405638,66.5262043 44.9797082,66.6666667 45.3333333,66.6666667 L76,66.6666667 C76.3536251,66.6666667 76.6927696,66.5262043 76.9428203,66.2761536 C77.192871,66.0261029 77.3333333,65.6869584 77.3333333,65.3333333 L77.3333333,14.6666667 C77.3333333,14.3130416 77.192871,13.9738971 76.9428203,13.7238464 C76.6927696,13.4737957 76.3536251,13.3333333 76,13.3333333 L76,13.3333333 Z M74.6666667,64 L46.6666667,64 L46.6666667,46.6666667 C46.6666768,46.3130416 46.5262043,45.9738971 46.2761536,45.7238464 C46.0261029,45.4737957 45.6869584,45.3333232 45.3333333,45.3333333 L43.219,45.3333333 L46.27613,42.2761233 C46.5261975,42.0260943 46.6666809,41.686955 46.6666667,41.3333333 L46.6666667,16 L74.6666667,16 L74.6666667,64 Z" id="Shape"></path>
                <path d="M53.3333333,29.3333333 C56.278852,29.3333333 58.6666667,26.9455187 58.6666667,24 C58.6666667,21.0544813 56.278852,18.6666667 53.3333333,18.6666667 C50.3878147,18.6666667 48,21.0544813 48,24 C48.0033066,26.9441479 50.3891854,29.3300267 53.3333333,29.3333333 Z M53.3333333,21.3333333 C54.8060927,21.3333333 56,22.5272407 56,24 C56,25.4727593 54.8060927,26.6666667 53.3333333,26.6666667 C51.860574,26.6666667 50.6666667,25.4727593 50.6666667,24 C50.6683502,22.5279386 51.8612719,21.3350169 53.3333333,21.3333333 L53.3333333,21.3333333 Z" id="Shape"></path>
                <polygon id="Path" points="61.3333333 18.6666667 66.6666667 18.6666667 66.6666667 21.3333333 61.3333333 21.3333333"></polygon>
                <polygon id="Path" points="68 18.6666667 73.3333333 18.6666667 73.3333333 21.3333333 68 21.3333333"></polygon>
                <polygon id="Path" points="61.3333333 22.6666667 64 22.6666667 64 25.3333333 61.3333333 25.3333333"></polygon>
                <polygon id="Path" points="60 26.6666667 68 26.6666667 68 29.3333333 60 29.3333333"></polygon>
                <polygon id="Path" points="65.3333333 22.6666667 73.3333333 22.6666667 73.3333333 25.3333333 65.3333333 25.3333333"></polygon>
                <polygon id="Path" points="69.3333333 26.6666667 73.3333333 26.6666667 73.3333333 29.3333333 69.3333333 29.3333333"></polygon>
                <path d="M53.3333333,45.3333333 C56.278852,45.3333333 58.6666667,42.9455187 58.6666667,40 C58.6666667,37.0544813 56.278852,34.6666667 53.3333333,34.6666667 C50.3878147,34.6666667 48,37.0544813 48,40 C48.0033066,42.9441479 50.3891854,45.3300267 53.3333333,45.3333333 Z M53.3333333,37.3333333 C54.8060927,37.3333333 56,38.5272407 56,40 C56,41.4727593 54.8060927,42.6666667 53.3333333,42.6666667 C51.860574,42.6666667 50.6666667,41.4727593 50.6666667,40 C50.6683502,38.5279386 51.8612719,37.3350169 53.3333333,37.3333333 L53.3333333,37.3333333 Z" id="Shape"></path>
                <polygon id="Path" points="61.3333333 34.6666667 66.6666667 34.6666667 66.6666667 37.3333333 61.3333333 37.3333333"></polygon>
                <polygon id="Path" points="68 34.6666667 73.3333333 34.6666667 73.3333333 37.3333333 68 37.3333333"></polygon>
                <polygon id="Path" points="61.3333333 38.6666667 64 38.6666667 64 41.3333333 61.3333333 41.3333333"></polygon>
                <polygon id="Path" points="60 42.6666667 68 42.6666667 68 45.3333333 60 45.3333333"></polygon>
                <polygon id="Path" points="65.3333333 38.6666667 73.3333333 38.6666667 73.3333333 41.3333333 65.3333333 41.3333333"></polygon>
                <polygon id="Path" points="69.3333333 42.6666667 73.3333333 42.6666667 73.3333333 45.3333333 69.3333333 45.3333333"></polygon>
                <path d="M53.3333333,61.3333333 C56.278852,61.3333333 58.6666667,58.9455187 58.6666667,56 C58.6666667,53.0544813 56.278852,50.6666667 53.3333333,50.6666667 C50.3878147,50.6666667 48,53.0544813 48,56 C48.0033066,58.9441479 50.3891854,61.3300267 53.3333333,61.3333333 L53.3333333,61.3333333 Z M53.3333333,53.3333333 C54.8060927,53.3333333 56,54.5272407 56,56 C56,57.4727593 54.8060927,58.6666667 53.3333333,58.6666667 C51.860574,58.6666667 50.6666667,57.4727593 50.6666667,56 C50.6683502,54.5279386 51.8612719,53.3350169 53.3333333,53.3333333 L53.3333333,53.3333333 Z" id="Shape"></path>
                <polygon id="Path" points="61.3333333 50.6666667 66.6666667 50.6666667 66.6666667 53.3333333 61.3333333 53.3333333"></polygon>
                <polygon id="Path" points="68 50.6666667 73.3333333 50.6666667 73.3333333 53.3333333 68 53.3333333"></polygon>
                <polygon id="Path" points="61.3333333 54.6666667 64 54.6666667 64 57.3333333 61.3333333 57.3333333"></polygon>
                <polygon id="Path" points="60 58.6666667 68 58.6666667 68 61.3333333 60 61.3333333"></polygon>
                <polygon id="Path" points="65.3333333 54.6666667 73.3333333 54.6666667 73.3333333 57.3333333 65.3333333 57.3333333"></polygon>
                <polygon id="Path" points="69.3333333 58.6666667 73.3333333 58.6666667 73.3333333 61.3333333 69.3333333 61.3333333"></polygon>
            </g>
        </g>
    </g>
</svg>