<?xml version="1.0" encoding="UTF-8"?>
<svg width="69px" height="80px" viewBox="0 0 69 80" version="1.1" xmlns="http://www.w3.org/2000/svg" xmlns:xlink="http://www.w3.org/1999/xlink">
    <title>pre-order</title>
    <g id="Website-Pages" stroke="none" stroke-width="1" fill="none" fill-rule="evenodd">
        <g id="Group" fill="#505050" fill-rule="nonzero">
            <g id="shopping-bag" transform="translate(-0.000000, 0.000000)">
                <path d="M34.2299349,36.1388286 C24.9335684,36.1388286 17.3969631,43.6754339 17.3969631,52.9718004 C17.3969631,62.2688449 24.9335684,69.8047722 34.2299349,69.8047722 C43.5263014,69.8047722 51.0629067,62.2688449 51.0629067,52.9718004 C51.0527386,43.6795011 43.5222343,36.1496746 34.2299349,36.1388286 Z M34.2299349,67.3752711 C26.2750813,67.3752711 19.8264642,60.9266541 19.8264642,52.9718004 C19.8264642,45.0169468 26.2750813,38.5683297 34.2299349,38.5683297 C42.1847885,38.5683297 48.6334056,45.0169468 48.6334056,52.9718004 C48.6245933,60.9232646 42.181399,67.3664588 34.2299349,67.3752711 Z" id="Shape"></path>
                <path d="M41.7062093,47.6118492 L32.186822,56.7055315 L27.1393709,51.6574023 C26.664859,51.1828904 25.8954718,51.1828904 25.4216378,51.6574023 C24.9471257,52.1319143 24.9471257,52.9013015 25.4216378,53.3758134 L31.3082971,59.2624729 C31.7746745,59.7288503 32.5291486,59.7376626 33.0063721,59.2814534 L43.3839479,49.3688991 C43.7018709,49.0699566 43.8354121,48.6232375 43.733731,48.1988883 C43.631372,47.774539 43.3093817,47.4376356 42.8904555,47.3162961 C42.4708514,47.1949567 42.0187092,47.3074837 41.7055315,47.6118492 L41.7062093,47.6118492 Z" id="Path"></path>
                <path d="M60.4548536,25.1376085 C60.0427061,22.4769524 57.7467462,20.5185737 55.0542299,20.5294197 L49.5058298,20.5294197 L49.5058298,15.2758948 C49.5058298,6.83907262 42.6667571,0 34.2299349,0 C25.7931127,0 18.9540401,6.83907262 18.9540401,15.2758948 L18.9540401,20.5294197 L13.4056399,20.5294197 C10.7131236,20.5185737 8.41716373,22.4769524 8.00501623,25.1376085 L0.0623644252,69.978308 C0.0494847722,70.0481291 0.0433839479,70.1193059 0.0433839479,70.1898048 C0.050162603,75.5572127 4.39940338,79.9071313 9.76681128,79.9132321 L58.6930586,79.9132321 C64.0604665,79.9071313 68.4103851,75.5572127 68.4164859,70.1898048 C68.4164859,70.118628 68.4103851,70.0481291 68.3981833,69.9776302 L60.4548536,25.1376085 Z M21.3835412,15.2758948 C21.3835412,8.18126351 27.1353038,2.42950108 34.2299349,2.42950108 C41.3252441,2.42950108 47.0763287,8.18126351 47.0763287,15.2758948 L47.0763287,20.5294197 L21.3835412,20.5294197 L21.3835412,15.2758948 Z M58.6937364,77.483731 L9.76681128,77.483731 C5.78023323,77.4796637 2.53389362,74.2787419 2.47288503,70.2928416 L10.3979122,25.5504338 C10.3999459,25.5429772 10.4006237,25.5355207 10.4019793,25.527386 C10.6283894,24.0455531 11.9055044,22.95282 13.4042843,22.9588954 L18.9526844,22.9588954 L18.9526844,31.0242679 C18.9526844,31.6953633 19.4963394,32.2390185 20.167435,32.2390185 C20.8385303,32.2390185 21.3821855,31.6953633 21.3821855,31.0242679 L21.3821855,22.9588954 L47.0763287,22.9588954 L47.0763287,31.0242679 C47.0763287,31.6953633 47.6206615,32.2390185 48.2910792,32.2390185 C48.9621746,32.2390185 49.5058298,31.6953633 49.5058298,31.0242679 L49.5058298,22.9588954 L55.0542299,22.9588954 C56.5530098,22.9534978 57.8301248,24.0455531 58.0565347,25.527386 C58.0578905,25.5355207 58.0592462,25.5429772 58.060602,25.5504338 L65.9869848,70.2928416 C65.9259762,74.2787419 62.6796366,77.4796637 58.6930586,77.483731 L58.6937364,77.483731 Z" id="Shape"></path>
            </g>
        </g>
    </g>
</svg>