<?xml version="1.0" encoding="utf-8"?>
<!-- Generator: Adobe Illustrator 22.0.1, SVG Export Plug-In . SVG Version: 6.00 Build 0)  -->
<svg version="1.1" id="Layer_1" xmlns="http://www.w3.org/2000/svg" xmlns:xlink="http://www.w3.org/1999/xlink" x="0px" y="0px"
	 viewBox="0 0 465.2 500" style="enable-background:new 0 0 465.2 500;" xml:space="preserve">
<style type="text/css">
	.st0{fill:#828282;}
	.st1{fill:#B4B4B4;}
	.st2{fill:#FFFFFF;}
	.st3{fill:#DFDFDF;}
	.st4{clip-path:url(#SVGID_2_);}
	.st5{fill:#14022B;}
	.st6{fill:#13022A;}
	.st7{fill:#120228;}
	.st8{fill:#120227;}
	.st9{fill:#110226;}
	.st10{fill:#100224;}
	.st11{fill:#100223;}
	.st12{fill:#0F0222;}
	.st13{fill:#13022E;}
	.st14{clip-path:url(#SVGID_4_);}
	.st15{clip-path:url(#SVGID_6_);}
	.st16{fill:#858585;}
	.st17{clip-path:url(#SVGID_8_);}
	.st18{fill:#0F0221;}
	.st19{clip-path:url(#SVGID_10_);}
	.st20{clip-path:url(#SVGID_12_);}
	.st21{fill:#A8A8A8;}
	.st22{fill:#A3A3A3;}
	.st23{fill:#9E9E9E;}
	.st24{clip-path:url(#SVGID_14_);}
	.st25{clip-path:url(#SVGID_16_);}
	.st26{fill:#8A8A8A;}
	.st27{fill:#8F8F8F;}
	.st28{fill:#949494;}
	.st29{fill:#999999;}
	.st30{clip-path:url(#SVGID_18_);}
	.st31{clip-path:url(#SVGID_20_);}
	.st32{clip-path:url(#SVGID_22_);}
	.st33{clip-path:url(#SVGID_24_);}
	.st34{clip-path:url(#SVGID_26_);}
	.st35{clip-path:url(#SVGID_28_);}
	.st36{clip-path:url(#SVGID_30_);}
	.st37{clip-path:url(#SVGID_32_);}
	.st38{fill:#AE0010;}
	.st39{font-family:'Raleway-Bold';}
	.st40{font-size:14.904px;}
	.st41{letter-spacing:1;}
	.st42{enable-background:new    ;}
	.st43{fill:#BF0019;}
	.st44{fill:none;stroke:#000000;stroke-width:5;stroke-miterlimit:10;}
	.st45{fill:#FF9400;}
</style>
<title>qr-code-menu</title>
<g id="Layer_2_1_">
	<g id="OBJECTS">
		<g id="_Group_">
			<g>
				<polygon class="st0" points="227.4,345.1 220,344.2 217.1,336.9 224.5,337.8 				"/>
				<polygon class="st1" points="221,348.7 213.6,347.8 220,344.2 227.4,345.1 				"/>
				<polygon points="221,348.7 213.6,347.8 210.8,340.5 218.2,341.4 				"/>
				<polygon points="218.2,341.4 210.8,340.5 217.1,336.9 224.5,337.8 				"/>
				<polygon class="st0" points="217.5,359.6 210.1,358.7 207.3,351.4 214.7,352.3 				"/>
				<polygon class="st1" points="211.1,363.2 203.8,362.3 210.1,358.7 217.5,359.6 				"/>
				<polygon class="st0" points="214.7,352.3 207.3,351.4 204.4,344.1 211.8,345 				"/>
				<polygon class="st1" points="204.8,366.8 197.4,365.9 203.8,362.3 211.1,363.2 				"/>
				<polygon class="st0" points="212.5,326.9 205.1,326 202.2,318.7 209.6,319.6 				"/>
				<polygon points="205.4,348.6 198,347.7 204.4,344.1 211.8,345 				"/>
				<polygon class="st0" points="213.1,308.8 205.7,307.9 202.9,300.6 210.3,301.5 				"/>
				<polygon class="st0" points="209,337.8 201.6,336.9 198.7,329.6 206.1,330.5 				"/>
				<polygon class="st1" points="206.1,330.5 198.7,329.6 205.1,326 212.5,326.9 				"/>
				<polygon class="st1" points="206.8,312.4 199.4,311.5 205.7,307.9 213.1,308.8 				"/>
				<polygon class="st0" points="205.4,348.6 198,347.7 195.2,340.5 202.6,341.4 				"/>
				<polygon class="st1" points="202.6,341.4 195.2,340.5 201.6,336.9 209,337.8 				"/>
				<polygon class="st1" points="198.4,370.4 191,369.5 197.4,365.9 204.8,366.8 				"/>
				<polygon class="st0" points="210.3,301.5 202.9,300.6 200,293.3 207.4,294.2 				"/>
				<polygon points="203.3,323.2 195.9,322.3 202.2,318.7 209.6,319.6 				"/>
				<polygon points="206.8,312.4 199.4,311.5 196.5,304.2 203.9,305.1 				"/>
				<polygon class="st0" points="203.3,323.2 195.9,322.3 193,315 200.4,316 				"/>
				<polygon points="199.1,352.2 191.7,351.3 188.8,344.1 196.2,345 				"/>
				<polygon class="st1" points="192.1,374 184.7,373.1 191,369.5 198.4,370.4 				"/>
				<polygon points="203.9,305.1 196.5,304.2 193.6,296.9 201.1,297.8 				"/>
				<polygon points="201.1,297.8 193.6,296.9 200,293.3 207.4,294.2 				"/>
				<polygon points="192.7,355.8 185.3,354.9 191.7,351.3 199.1,352.2 				"/>
				<polygon class="st0" points="204.6,287 197.2,286 194.3,278.8 201.7,279.7 				"/>
				<polygon class="st0" points="200.4,316 193,315 190.1,307.8 197.6,308.7 				"/>
				<polygon points="192.1,374 184.7,373.1 181.8,365.8 189.2,366.7 				"/>
				<polygon class="st1" points="198.2,290.5 190.8,289.6 197.2,286 204.6,287 				"/>
				<polygon class="st1" points="189.9,348.6 182.5,347.7 188.8,344.1 196.2,345 				"/>
				<polygon class="st0" points="192.7,355.8 185.3,354.9 182.5,347.7 189.9,348.6 				"/>
				<polygon points="195.4,283.3 187.9,282.4 194.3,278.8 201.7,279.7 				"/>
				<polygon points="191.2,312.3 183.8,311.4 190.1,307.8 197.6,308.7 				"/>
				<polygon points="189.9,348.6 182.5,347.7 179.6,340.4 187,341.3 				"/>
				<polygon class="st1" points="182.9,370.3 175.5,369.4 181.8,365.8 189.2,366.7 				"/>
				<polygon class="st1" points="191.9,294.1 184.4,293.2 190.8,289.6 198.2,290.5 				"/>
				<polygon points="190.5,330.4 183.1,329.5 180.3,322.2 187.7,323.2 				"/>
				<polygon points="183.5,352.2 176.1,351.3 182.5,347.7 189.9,348.6 				"/>
				<polygon class="st0" points="195.4,283.3 187.9,282.4 185.1,275.1 192.5,276 				"/>
				<polygon points="187,341.3 179.6,340.4 176.8,333.1 184.2,334 				"/>
				<polygon points="184.2,334 176.8,333.1 183.1,329.5 190.5,330.4 				"/>
				<polygon points="191.9,294.1 184.4,293.2 181.6,286 189,286.9 				"/>
				<polygon points="184.8,315.9 177.4,315 183.8,311.4 191.2,312.3 				"/>
				<polygon points="187.7,323.2 180.3,322.2 177.4,315 184.8,315.9 				"/>
				<polygon class="st0" points="183.5,352.2 176.1,351.3 173.3,344 180.7,344.9 				"/>
				<polygon class="st0" points="179.4,381.2 172,380.3 169.1,373 176.5,373.9 				"/>
				<polygon class="st1" points="176.5,373.9 169.1,373 175.5,369.4 182.9,370.3 				"/>
				<polygon class="st0" points="184.2,334 176.8,333.1 173.9,325.9 181.3,326.8 				"/>
				<polygon points="189,286.9 181.6,286 178.7,278.7 186.1,279.6 				"/>
				<polygon points="186.1,279.6 178.7,278.7 185.1,275.1 192.5,276 				"/>
				<polygon class="st1" points="173,384.8 165.6,383.9 172,380.3 179.4,381.2 				"/>
				<polygon class="st1" points="177.8,337.6 170.4,336.7 176.8,333.1 184.2,334 				"/>
				<polygon class="st0" points="189.6,268.7 182.2,267.8 179.4,260.6 186.8,261.5 				"/>
				<polygon class="st0" points="185.5,297.8 178.1,296.8 175.2,289.6 182.6,290.5 				"/>
				<polygon class="st0" points="190.3,250.6 182.9,249.7 180,242.4 187.4,243.3 				"/>
				<polygon points="174.3,348.5 166.9,347.6 173.3,344 180.7,344.9 				"/>
				<polygon class="st0" points="186.1,279.6 178.7,278.7 175.9,271.4 183.3,272.3 				"/>
				<polygon class="st1" points="183.3,272.3 175.9,271.4 182.2,267.8 189.6,268.7 				"/>
				<polygon points="173,384.8 165.6,383.9 162.8,376.6 170.2,377.5 				"/>
				<polygon class="st1" points="179.1,301.4 171.7,300.4 178.1,296.8 185.5,297.8 				"/>
				<polygon points="175,330.4 167.6,329.5 173.9,325.9 181.3,326.8 				"/>
				<polygon points="177.8,337.6 170.4,336.7 167.6,329.5 175,330.4 				"/>
				<polygon class="st1" points="183.9,254.2 176.5,253.3 182.9,249.7 190.3,250.6 				"/>
				<polygon points="173.7,366.6 166.3,365.7 163.4,358.5 170.8,359.4 				"/>
				<polygon points="170.8,359.4 163.4,358.5 169.8,354.9 177.2,355.8 				"/>
				<polygon class="st0" points="173.7,366.6 166.3,365.7 163.4,358.5 170.8,359.4 				"/>
				<polygon class="st1" points="170.8,359.4 163.4,358.5 169.8,354.9 177.2,355.8 				"/>
				<polygon class="st1" points="179.8,283.2 172.4,282.3 178.7,278.7 186.1,279.6 				"/>
				<polygon class="st0" points="182.6,290.5 175.2,289.6 172.4,282.3 179.8,283.2 				"/>
				<polygon class="st0" points="178.5,319.5 171.1,318.6 168.2,311.3 175.6,312.2 				"/>
				<polygon class="st0" points="187.4,243.3 180,242.4 177.2,235.1 184.6,236.1 				"/>
				<polygon class="st0" points="174.3,348.5 166.9,347.6 164.1,340.3 171.5,341.2 				"/>
				<polygon points="186.8,261.5 189.6,268.7 183.3,272.3 180.4,265.1 				"/>
				<polygon points="183.3,272.3 175.9,271.4 173,264.2 180.4,265.1 				"/>
				<polygon points="180.4,265.1 173,264.2 179.4,260.6 186.8,261.5 				"/>
				<polygon points="179.1,301.4 171.7,300.4 168.9,293.2 176.3,294.1 				"/>
				<polygon class="st1" points="172.1,323.1 164.7,322.2 171.1,318.6 178.5,319.5 				"/>
				<polygon points="176.9,275.9 169.5,275 175.9,271.4 183.3,272.3 				"/>
				<polygon class="st1" points="163.8,381.1 156.4,380.2 162.8,376.6 170.2,377.5 				"/>
				<polygon class="st0" points="166.6,388.4 159.2,387.5 156.4,380.2 163.8,381.1 				"/>
				<polygon class="st0" points="175.6,312.2 168.2,311.3 165.4,304 172.8,305 				"/>
				<polygon class="st0" points="184.6,236.1 177.2,235.1 174.3,227.9 181.8,228.8 				"/>
				<polygon class="st1" points="177.6,257.8 170.2,256.9 176.5,253.3 183.9,254.2 				"/>
				<polygon points="167.3,370.2 159.9,369.3 157.1,362.1 164.5,363 				"/>
				<polygon points="176.3,294.1 168.9,293.2 166,285.9 173.4,286.8 				"/>
				<polygon class="st1" points="160.3,392 152.9,391.1 159.2,387.5 166.6,388.4 				"/>
				<polygon points="172.1,323.1 164.7,322.2 161.9,314.9 169.3,315.8 				"/>
				<polygon points="165.1,344.8 157.7,343.9 164.1,340.3 171.5,341.2 				"/>
				<polygon points="168,352.1 160.6,351.2 157.7,343.9 165.1,344.8 				"/>
				<polygon class="st0" points="176.9,275.9 169.5,275 166.7,267.8 174.1,268.7 				"/>
				<polygon points="160.9,373.8 153.5,372.9 159.9,369.3 167.3,370.2 				"/>
				<polygon class="st0" points="172.8,305 165.4,304 162.5,296.8 169.9,297.7 				"/>
				<polygon class="st0" points="181.8,228.8 174.3,227.9 171.5,220.6 178.9,221.5 				"/>
				<polygon class="st0" points="168.6,334 161.2,333 158.4,325.8 165.8,326.7 				"/>
				<polygon points="161.6,355.7 154.2,354.8 160.6,351.2 168,352.1 				"/>
				<polygon points="173.4,286.8 166,285.9 163.2,278.6 170.6,279.5 				"/>
				<polygon points="160.3,392 152.9,391.1 150,383.8 157.4,384.7 				"/>
				<polygon points="169.3,315.8 161.9,314.9 159,307.6 166.4,308.6 				"/>
				<polygon class="st1" points="162.3,337.6 154.9,336.6 161.2,333 168.6,334 				"/>
				<polygon class="st1" points="171.2,261.4 163.8,260.5 170.2,256.9 177.6,257.8 				"/>
				<polygon class="st1" points="158.1,366.6 150.7,365.7 157.1,362.1 164.5,363 				"/>
				<polygon class="st0" points="169.9,297.7 162.5,296.8 159.7,289.5 167.1,290.4 				"/>
				<polygon class="st0" points="178.9,221.5 171.5,220.6 168.6,213.3 176,214.2 				"/>
				<polygon class="st0" points="161.6,355.7 154.2,354.8 151.4,347.5 158.8,348.4 				"/>
				<polygon points="170.6,279.5 163.2,278.6 160.3,271.4 167.7,272.3 				"/>
				<polygon points="167.7,272.3 160.3,271.4 166.7,267.8 174.1,268.7 				"/>
				<polygon points="154.6,377.4 147.2,376.5 153.5,372.9 160.9,373.8 				"/>
				<polygon points="157.4,384.7 150,383.8 147.2,376.5 154.6,377.4 				"/>
				<polygon points="165.8,326.7 168.6,334 162.3,337.6 159.4,330.3 				"/>
				<polygon points="159.4,330.3 152,329.4 158.4,325.8 165.8,326.7 				"/>
				<polygon points="162.3,337.6 154.9,336.6 152,329.4 159.4,330.3 				"/>
				<polygon class="st0" points="167.1,290.4 159.7,289.5 156.8,282.2 164.2,283.1 				"/>
				<polygon class="st0" points="153.9,395.6 146.5,394.7 143.7,387.4 151.1,388.3 				"/>
				<polygon class="st0" points="176,214.2 168.6,213.3 165.8,206.1 173.2,207 				"/>
				<polygon class="st1" points="160.1,312.1 152.6,311.2 159,307.6 166.4,308.6 				"/>
				<polygon class="st1" points="164.9,265 157.5,264.1 163.8,260.5 171.2,261.4 				"/>
				<polygon class="st1" points="151.7,370.2 144.3,369.3 150.7,365.7 158.1,366.6 				"/>
				<polygon class="st2" points="167.3,370.2 160.9,373.8 154.6,377.4 151.7,370.2 158.1,366.6 164.5,363 				"/>
				<polygon class="st0" points="154.6,377.4 147.2,376.5 144.3,369.3 151.7,370.2 				"/>
				<polygon class="st1" points="147.6,399.2 140.2,398.3 146.5,394.7 153.9,395.6 				"/>
				<polygon class="st0" points="159.4,330.3 152,329.4 149.1,322.1 156.6,323 				"/>
				<polygon points="152.4,352 145,351.1 151.4,347.5 158.8,348.4 				"/>
				<polygon class="st0" points="164.2,283.1 156.8,282.2 154,275 161.4,275.9 				"/>
				<polygon class="st0" points="151.1,388.3 143.7,387.4 140.8,380.1 148.2,381 				"/>
				<polygon class="st1" points="148.2,381 140.8,380.1 147.2,376.5 154.6,377.4 				"/>
				<polygon class="st0" points="173.2,207 165.8,206.1 162.9,198.8 170.3,199.7 				"/>
				<polygon class="st1" points="153.1,333.9 145.6,333 152,329.4 159.4,330.3 				"/>
				<polygon class="st0" points="155.9,341.2 148.5,340.2 145.6,333 153.1,333.9 				"/>
				<polygon points="151.7,370.2 144.3,369.3 141.5,362 148.9,362.9 				"/>
				<polygon points="147.6,399.2 140.2,398.3 137.3,391 144.7,391.9 				"/>
				<polygon class="st1" points="153.7,315.8 146.3,314.8 152.6,311.2 160.1,312.1 				"/>
				<polygon class="st0" points="156.6,323 149.1,322.1 146.3,314.8 153.7,315.8 				"/>
				<polygon class="st0" points="152.4,352 145,351.1 142.1,343.9 149.5,344.8 				"/>
				<polygon class="st1" points="149.5,344.8 142.1,343.9 148.5,340.2 155.9,341.2 				"/>
				<polygon class="st1" points="158.5,268.6 151.1,267.7 157.5,264.1 164.9,265 				"/>
				<polygon points="145.4,373.8 138,372.9 144.3,369.3 151.7,370.2 				"/>
				<polygon points="153.1,333.9 145.6,333 142.8,325.7 150.2,326.6 				"/>
				<polygon points="157.9,286.8 150.4,285.8 147.6,278.6 155,279.5 				"/>
				<polygon points="155,279.5 147.6,278.6 154,275 161.4,275.9 				"/>
				<polygon points="144.7,391.9 137.3,391 134.5,383.7 141.9,384.6 				"/>
				<polygon points="164,203.3 156.6,202.4 162.9,198.8 170.3,199.7 				"/>
				<polygon points="146.7,337.5 139.3,336.6 145.6,333 153.1,333.9 				"/>
				<polygon class="st1" points="142.5,366.5 135.1,365.6 141.5,362 148.9,362.9 				"/>
				<polygon class="st0" points="145.4,373.8 138,372.9 135.1,365.6 142.5,366.5 				"/>
				<polygon points="151.5,290.3 144.1,289.4 150.4,285.8 157.9,286.8 				"/>
				<polygon class="st0" points="141.2,402.8 133.8,401.9 131,394.6 138.4,395.5 				"/>
				<polygon points="160.5,214.2 153.1,213.3 159.4,209.7 166.8,210.6 				"/>
				<polygon class="st1" points="160.5,214.2 153.1,213.3 159.4,209.7 166.8,210.6 				"/>
				<polygon points="150.2,326.6 142.8,325.7 139.9,318.4 147.4,319.4 				"/>
				<polygon class="st1" points="152.1,272.2 144.8,271.3 151.1,267.7 158.5,268.6 				"/>
				<polygon points="141.9,384.6 134.5,383.7 131.6,376.5 139,377.4 				"/>
				<polygon points="157.2,304.9 150.9,308.5 148,301.2 154.4,297.6 				"/>
				<polygon points="148,301.2 140.6,300.3 146.9,296.7 154.4,297.6 				"/>
				<polygon class="st0" points="150.9,308.5 143.4,307.6 140.6,300.3 148,301.2 				"/>
				<polygon class="st1" points="148,301.2 140.6,300.3 146.9,296.7 154.4,297.6 				"/>
				<polygon points="150.9,308.5 143.4,307.6 140.6,300.3 148,301.2 				"/>
				<polygon class="st1" points="134.9,406.4 127.5,405.5 133.8,401.9 141.2,402.8 				"/>
				<polygon points="157,225.1 149.6,224.1 155.9,220.5 163.3,221.4 				"/>
				<polygon class="st1" points="157,225.1 149.6,224.1 155.9,220.5 163.3,221.4 				"/>
				<polygon class="st0" points="151.5,290.3 144.1,289.4 141.2,282.2 148.6,283.1 				"/>
				<polygon class="st0" points="138.4,395.5 131,394.6 128.1,387.3 135.5,388.2 				"/>
				<polygon points="157.6,206.9 150.2,206 156.6,202.4 164,203.3 				"/>
				<polygon points="143.2,348.4 135.8,347.5 132.9,340.2 140.3,341.1 				"/>
				<polygon points="140.3,341.1 132.9,340.2 139.3,336.6 146.7,337.5 				"/>
				<polygon points="139,377.4 131.6,376.5 128.8,369.2 136.2,370.1 				"/>
				<polygon class="st1" points="154.1,217.8 146.7,216.9 153.1,213.3 160.5,214.2 				"/>
				<polygon points="154.1,217.8 146.7,216.9 153.1,213.3 160.5,214.2 				"/>
				<polygon class="st1" points="141,323 133.6,322 139.9,318.4 147.4,319.4 				"/>
				<polygon class="st0" points="143.8,330.2 136.4,329.3 133.6,322 141,323 				"/>
				<polygon points="152.8,254.1 145.4,253.1 142.6,245.9 150,246.8 				"/>
				<polygon class="st0" points="152.8,254.1 145.4,253.1 142.6,245.9 150,246.8 				"/>
				<polygon points="136.8,352 129.4,351 135.8,347.5 143.2,348.4 				"/>
				<polygon points="139.7,359.2 132.3,358.3 129.4,351 136.8,352 				"/>
				<polygon class="st1" points="145.8,275.8 138.4,274.9 144.8,271.3 152.1,272.2 				"/>
				<polygon class="st0" points="135.5,388.2 128.1,387.3 125.3,380.1 132.7,381 				"/>
				<polygon points="144.5,312.1 137.1,311.2 134.2,303.9 141.6,304.8 				"/>
				<polygon class="st1" points="128.5,410 121.1,409.1 127.5,405.5 134.9,406.4 				"/>
				<polygon points="150.6,228.7 143.2,227.7 149.6,224.1 157,225.1 				"/>
				<polygon class="st1" points="150.6,228.7 143.2,227.7 149.6,224.1 157,225.1 				"/>
				<polygon class="st1" points="137.5,333.8 130.1,332.9 136.4,329.3 143.8,330.2 				"/>
				<polygon class="st0" points="149.3,264.9 141.9,264 139.1,256.8 146.4,257.7 				"/>
				<polygon points="149.3,264.9 141.9,264 139.1,256.8 146.4,257.7 				"/>
				<polygon points="136.2,370.1 128.8,369.2 125.9,361.9 133.3,362.8 				"/>
				<polygon points="133.3,362.8 125.9,361.9 132.3,358.3 139.7,359.2 				"/>
				<polygon points="203.3,323.2 209.6,319.6 212.5,326.9 206.1,330.5 209,337.8 202.6,341.4 205.4,348.6 211.8,345 214.7,352.3 
					217.5,359.6 211.1,363.2 204.8,366.8 198.4,370.4 192.1,374 189.2,366.7 182.9,370.3 176.5,373.9 179.4,381.2 173,384.8 
					170.2,377.5 163.8,381.1 166.6,388.4 160.3,392 157.4,384.7 154.6,377.4 160.9,373.8 167.3,370.2 164.5,363 158.1,366.6 
					151.7,370.2 148.9,362.9 142.5,366.5 145.4,373.8 151.7,370.2 154.6,377.4 148.2,381 151.1,388.3 153.9,395.6 147.6,399.2 
					144.7,391.9 141.9,384.6 139,377.4 136.2,370.1 133.3,362.8 139.7,359.2 136.8,352 143.2,348.4 140.3,341.1 146.7,337.5 
					153.1,333.9 155.9,341.2 149.5,344.8 152.4,352 158.8,348.4 161.6,355.7 168,352.1 165.1,344.8 171.5,341.2 174.3,348.5 
					180.7,344.9 183.5,352.2 189.9,348.6 192.7,355.8 199.1,352.2 196.2,345 189.9,348.6 187,341.3 184.2,334 190.5,330.4 
					187.7,323.2 184.8,315.9 191.2,312.3 197.6,308.7 200.4,316 				"/>
				<polygon points="142.3,286.7 134.9,285.8 141.2,282.2 148.6,283.1 				"/>
				<polygon points="145.1,293.9 137.7,293 134.9,285.8 142.3,286.7 				"/>
				<polygon points="151.3,210.5 143.9,209.6 150.2,206 157.6,206.9 				"/>
				<polygon points="138.1,315.7 130.7,314.8 137.1,311.2 144.5,312.1 				"/>
				<polygon points="150,246.8 142.6,245.9 139.7,238.6 147.1,239.5 				"/>
				<polygon class="st0" points="150,246.8 142.6,245.9 139.7,238.6 147.1,239.5 				"/>
				<polygon class="st0" points="136.8,352 129.4,351 126.6,343.8 134,344.7 				"/>
				<polygon points="145.8,275.8 138.4,274.9 135.5,267.6 142.9,268.5 				"/>
				<polygon class="st0" points="132.7,381 125.3,380.1 122.4,372.8 129.8,373.7 				"/>
				<polygon points="138.8,297.5 131.4,296.6 137.7,293 145.1,293.9 				"/>
				<polygon class="st1" points="147.8,221.4 140.4,220.5 146.7,216.9 154.1,217.8 				"/>
				<polygon points="147.8,221.4 140.4,220.5 146.7,216.9 154.1,217.8 				"/>
				<polygon points="146.4,257.7 139.1,256.8 136.2,249.5 143.6,250.4 				"/>
				<polygon class="st0" points="146.4,257.7 139.1,256.8 136.2,249.5 143.6,250.4 				"/>
				<polygon class="st1" points="130.5,355.6 123.1,354.7 129.4,351 136.8,352 				"/>
				<polygon class="st0" points="138.1,315.7 130.7,314.8 127.9,307.5 135.3,308.4 				"/>
				<polygon class="st1" points="135.3,308.4 127.9,307.5 134.2,303.9 141.6,304.8 				"/>
				<polygon class="st1" points="122.2,413.6 114.8,412.7 121.1,409.1 128.5,410 				"/>
				<polygon points="163.3,221.4 166.2,228.7 169,236 171.9,243.3 165.5,246.9 159.2,250.5 152.8,254.1 150,246.8 147.1,239.5 
					144.3,232.2 150.6,228.7 157,225.1 				"/>
				<polygon points="144.3,232.2 136.9,231.3 143.2,227.7 150.6,228.7 				"/>
				<polygon points="147.1,239.5 139.7,238.6 136.9,231.3 144.3,232.2 				"/>
				<polygon class="st1" points="144.3,232.2 136.9,231.3 143.2,227.7 150.6,228.7 				"/>
				<polygon class="st0" points="147.1,239.5 139.7,238.6 136.9,231.3 144.3,232.2 				"/>
				<polygon points="169.7,217.8 172.5,225.1 175.4,232.4 178.2,239.7 181.1,246.9 174.7,250.5 168.4,254.1 162,257.7 155.7,261.3 
					149.3,264.9 146.4,257.7 143.6,250.4 140.8,243.1 137.9,235.9 135,228.6 141.4,225 147.8,221.4 154.1,217.8 160.5,214.2 
					166.8,210.6 				"/>
				<polygon class="st3" points="154.1,217.8 160.5,214.2 166.8,210.6 169.7,217.8 172.5,225.1 175.4,232.4 178.2,239.7 
					181.1,246.9 174.7,250.5 168.4,254.1 162,257.7 155.7,261.3 149.3,264.9 146.4,257.7 143.6,250.4 140.8,243.1 137.9,235.9 
					135,228.6 141.4,225 147.8,221.4 				"/>
				<polygon class="st3" points="166.2,228.7 169,236 171.9,243.3 165.5,246.9 159.2,250.5 152.8,254.1 150,246.8 147.1,239.5 
					144.3,232.2 150.6,228.7 157,225.1 163.3,221.4 				"/>
				<polygon class="st0" points="134,344.7 126.6,343.8 123.7,336.5 131.1,337.4 				"/>
				<polygon class="st1" points="131.1,337.4 123.7,336.5 130.1,332.9 137.5,333.8 				"/>
				<polygon points="142.9,268.5 135.5,267.6 132.7,260.4 140.1,261.3 				"/>
				<polygon class="st0" points="129.8,373.7 122.4,372.8 119.6,365.5 127,366.4 				"/>
				<polygon class="st0" points="138.8,297.5 131.4,296.6 128.5,289.4 135.9,290.3 				"/>
				<polygon points="144.9,214.1 137.5,213.2 143.9,209.6 151.3,210.5 				"/>
				<polygon points="143.6,250.4 136.2,249.5 133.3,242.2 140.8,243.1 				"/>
				<polygon class="st0" points="143.6,250.4 136.2,249.5 133.3,242.2 140.8,243.1 				"/>
				<polygon points="130.5,355.6 123.1,354.7 120.2,347.4 127.6,348.3 				"/>
				<polygon class="st0" points="139.4,279.4 132,278.5 129.2,271.2 136.6,272.1 				"/>
				<polygon points="135.3,308.4 127.9,307.5 125,300.2 132.4,301.1 				"/>
				<polygon class="st1" points="141.4,225 134,224.1 140.4,220.5 147.8,221.4 				"/>
				<polygon points="141.4,225 134,224.1 140.4,220.5 147.8,221.4 				"/>
				<polygon points="140.1,261.3 132.7,260.4 129.8,253.1 137.2,254 				"/>
				<polygon class="st0" points="127,366.4 119.6,365.5 116.7,358.3 124.1,359.2 				"/>
				<polygon class="st1" points="133.1,283 125.7,282.1 132,278.5 139.4,279.4 				"/>
				<polygon points="131.8,319.3 124.4,318.4 121.5,311.1 128.9,312 				"/>
				<polygon points="128.9,312 121.5,311.1 127.9,307.5 135.3,308.4 				"/>
				<polygon class="st1" points="115.8,417.2 108.4,416.3 114.8,412.7 122.2,413.6 				"/>
				<polygon points="140.8,243.1 133.3,242.2 130.5,234.9 137.9,235.9 				"/>
				<polygon class="st0" points="140.8,243.1 133.3,242.2 130.5,234.9 137.9,235.9 				"/>
				<polygon points="127.6,348.3 120.2,347.4 117.4,340.1 124.8,341 				"/>
				<polygon points="132.4,301.1 125,300.2 122.2,293 129.6,293.9 				"/>
				<polygon points="129.6,293.9 122.2,293 128.5,289.4 135.9,290.3 				"/>
				<polygon points="138.6,217.7 131.1,216.8 137.5,213.2 144.9,214.1 				"/>
				<polygon points="128.3,330.1 120.9,329.2 118,322 125.4,322.9 				"/>
				<polygon points="125.4,322.9 118,322 124.4,318.4 131.8,319.3 				"/>
				<polygon points="137.2,254 129.8,253.1 127,245.8 134.4,246.7 				"/>
				<polygon class="st0" points="124.1,359.2 116.7,358.3 113.9,351 121.3,351.9 				"/>
				<polygon points="133.1,283 125.7,282.1 122.8,274.8 130.2,275.7 				"/>
				<polygon points="130.2,275.7 122.8,274.8 129.2,271.2 136.6,272.1 				"/>
				<polygon points="135,228.6 127.6,227.7 134,224.1 141.4,225 				"/>
				<polygon points="137.9,235.9 130.5,234.9 127.6,227.7 135,228.6 				"/>
				<polygon class="st1" points="135,228.6 127.6,227.7 134,224.1 141.4,225 				"/>
				<polygon class="st0" points="137.9,235.9 130.5,234.9 127.6,227.7 135,228.6 				"/>
				<polygon points="121.9,333.8 114.5,332.9 120.9,329.2 128.3,330.1 				"/>
				<polygon class="st0" points="133.7,264.9 126.3,264 123.5,256.7 130.9,257.6 				"/>
				<polygon class="st0" points="125.4,322.9 118,322 115.2,314.7 122.6,315.6 				"/>
				<polygon class="st1" points="109.4,420.8 102,419.9 108.4,416.3 115.8,417.2 				"/>
				<polygon points="134.4,246.7 127,245.8 124.1,238.5 131.5,239.5 				"/>
				<polygon class="st1" points="118.4,344.6 111,343.7 117.4,340.1 124.8,341 				"/>
				<polygon class="st0" points="130.2,275.7 122.8,274.8 120,267.5 127.4,268.5 				"/>
				<polygon class="st1" points="127.4,268.5 120,267.5 126.3,264 133.7,264.9 				"/>
				<polygon points="132.2,221.3 124.8,220.4 131.1,216.8 138.6,217.7 				"/>
				<polygon class="st1" points="119.1,326.5 111.7,325.6 118,322 125.4,322.9 				"/>
				<polygon class="st0" points="130.9,257.6 123.5,256.7 120.6,249.4 128,250.3 				"/>
				<polygon points="114.9,355.5 107.5,354.6 113.9,351 121.3,351.9 				"/>
				<polygon class="st0" points="126.7,286.6 119.3,285.7 116.5,278.4 123.9,279.3 				"/>
				<polygon class="st1" points="123.9,279.3 116.5,278.4 122.8,274.8 130.2,275.7 				"/>
				<polygon points="131.5,239.5 124.1,238.5 121.3,231.3 128.7,232.2 				"/>
				<polygon points="115.6,337.4 108.2,336.5 114.5,332.9 121.9,333.8 				"/>
				<polygon points="127.4,268.5 120,267.5 117.1,260.3 124.5,261.2 				"/>
				<polygon points="111.4,366.4 104,365.5 110.4,361.9 117.8,362.8 				"/>
				<polygon class="st1" points="111.4,366.4 104,365.5 110.4,361.9 117.8,362.8 				"/>
				<polygon class="st0" points="123.2,297.5 115.8,296.6 113,289.3 120.4,290.2 				"/>
				<polygon class="st1" points="120.4,290.2 113,289.3 119.3,285.7 126.7,286.6 				"/>
				<polygon points="116.2,319.2 108.8,318.3 115.2,314.7 122.6,315.6 				"/>
				<polygon class="st1" points="103.1,424.4 95.7,423.5 102,419.9 109.4,420.8 				"/>
				<polygon class="st0" points="128,250.3 120.6,249.4 117.8,242.1 125.2,243.1 				"/>
				<polygon class="st1" points="112.1,348.2 104.7,347.3 111,343.7 118.4,344.6 				"/>
				<polygon points="121,272.1 113.6,271.2 120,267.5 127.4,268.5 				"/>
				<polygon points="123.9,279.3 116.5,278.4 113.6,271.2 121,272.1 				"/>
				<polygon points="107.9,377.2 100.5,376.3 106.8,372.7 114.2,373.6 				"/>
				<polygon class="st1" points="107.9,377.2 100.5,376.3 106.8,372.7 114.2,373.6 				"/>
				<polygon class="st0" points="119.7,308.3 112.3,307.4 109.5,300.2 116.9,301.1 				"/>
				<polygon class="st1" points="116.9,301.1 109.5,300.2 115.8,296.6 123.2,297.5 				"/>
				<polygon points="128.7,232.2 121.3,231.3 118.4,224 125.8,224.9 				"/>
				<polygon points="125.8,224.9 118.4,224 124.8,220.4 132.2,221.3 				"/>
				<polygon class="st1" points="112.7,330.1 105.3,329.2 111.7,325.6 119.1,326.5 				"/>
				<polygon points="124.5,261.2 117.1,260.3 114.3,253 121.7,253.9 				"/>
				<polygon points="108.6,359.1 101.2,358.2 107.5,354.6 114.9,355.5 				"/>
				<polygon points="120.4,290.2 113,289.3 110.1,282 117.5,282.9 				"/>
				<polygon points="117.5,282.9 110.1,282 116.5,278.4 123.9,279.3 				"/>
				<polygon class="st1" points="113.4,312 105.9,311 112.3,307.4 119.7,308.3 				"/>
				<polygon class="st0" points="125.2,243.1 117.8,242.1 114.9,234.9 122.3,235.8 				"/>
				<polygon points="109.2,341 101.8,340 108.2,336.5 115.6,337.4 				"/>
				<polygon points="112.1,348.2 104.7,347.3 101.8,340 109.2,341 				"/>
				<polygon points="105,370 97.6,369.1 104,365.5 111.4,366.4 				"/>
				<polygon class="st1" points="105,370 97.6,369.1 104,365.5 111.4,366.4 				"/>
				<polygon points="116.9,301.1 109.5,300.2 106.6,292.9 114,293.8 				"/>
				<polygon points="120.4,290.2 123.2,297.5 116.9,301.1 114,293.8 				"/>
				<polygon points="114,293.8 106.6,292.9 113,289.3 120.4,290.2 				"/>
				<polygon points="103.7,406.2 96.3,405.3 93.5,398.1 100.9,399 				"/>
				<polygon class="st0" points="103.7,406.2 96.3,405.3 93.5,398.1 100.9,399 				"/>
				<polygon points="109.8,322.8 102.4,321.9 108.8,318.3 116.2,319.2 				"/>
				<polygon class="st1" points="96.7,428 89.3,427.1 95.7,423.5 103.1,424.4 				"/>
				<polygon points="101.5,380.8 94.1,379.9 100.5,376.3 107.9,377.2 				"/>
				<polygon class="st1" points="101.5,380.8 94.1,379.9 100.5,376.3 107.9,377.2 				"/>
				<polygon points="110.5,304.7 103.1,303.8 109.5,300.2 116.9,301.1 				"/>
				<polygon points="100.2,417.1 92.8,416.2 90,408.9 97.4,409.9 				"/>
				<polygon class="st0" points="100.2,417.1 92.8,416.2 90,408.9 97.4,409.9 				"/>
				<polygon class="st0" points="122.3,235.8 114.9,234.9 112.1,227.6 119.5,228.5 				"/>
				<polygon class="st1" points="106.3,333.7 98.9,332.8 105.3,329.2 112.7,330.1 				"/>
				<polygon class="st1" points="115.3,257.5 107.9,256.6 114.3,253 121.7,253.9 				"/>
				<polygon points="102.2,362.7 94.8,361.8 101.2,358.2 108.6,359.1 				"/>
				<polygon class="st0" points="114,293.8 106.6,292.9 103.8,285.6 111.2,286.5 				"/>
				<polygon points="100.9,399 93.5,398.1 90.6,390.8 98,391.7 				"/>
				<polygon class="st0" points="100.9,399 93.5,398.1 90.6,390.8 98,391.7 				"/>
				<polygon class="st1" points="107,315.5 99.6,314.6 105.9,311 113.4,312 				"/>
				<polygon points="96.7,428 89.3,427.1 86.5,419.8 93.9,420.7 				"/>
				<polygon class="st0" points="105.7,351.8 98.3,350.9 95.4,343.6 102.8,344.6 				"/>
				<polygon class="st0" points="114.7,275.7 107.3,274.8 104.4,267.5 111.8,268.4 				"/>
				<polygon class="st1" points="98.7,373.6 91.3,372.7 97.6,369.1 105,370 				"/>
				<polygon points="98.7,373.6 91.3,372.7 97.6,369.1 105,370 				"/>
				<polygon class="st1" points="107.7,297.4 100.2,296.5 106.6,292.9 114,293.8 				"/>
				<polygon class="st0" points="97.4,409.9 90,408.9 87.1,401.7 94.5,402.6 				"/>
				<polygon points="97.4,409.9 90,408.9 87.1,401.7 94.5,402.6 				"/>
				<polygon points="103.5,326.4 96.1,325.5 102.4,321.9 109.8,322.8 				"/>
				<polygon class="st1" points="99.3,355.4 91.9,354.5 98.3,350.9 105.7,351.8 				"/>
				<polygon class="st0" points="111.2,286.5 103.8,285.6 100.9,278.4 108.3,279.3 				"/>
				<polygon class="st1" points="108.3,279.3 100.9,278.4 107.3,274.8 114.7,275.7 				"/>
				<polygon points="98,391.7 90.6,390.8 87.8,383.5 95.2,384.4 				"/>
				<polygon class="st1" points="95.2,384.4 87.8,383.5 94.1,379.9 101.5,380.8 				"/>
				<polygon class="st0" points="98,391.7 90.6,390.8 87.8,383.5 95.2,384.4 				"/>
				<polygon points="94.5,402.6 87.1,401.7 84.3,394.4 91.7,395.3 				"/>
				<polygon class="st0" points="94.5,402.6 87.1,401.7 84.3,394.4 91.7,395.3 				"/>
				<polygon class="st1" points="92.3,377.2 84.9,376.3 91.3,372.7 98.7,373.6 				"/>
				<polygon points="92.3,377.2 84.9,376.3 91.3,372.7 98.7,373.6 				"/>
				<polygon points="91.7,395.3 84.3,394.4 81.4,387.1 88.8,388 				"/>
				<polygon class="st0" points="91.7,395.3 84.3,394.4 81.4,387.1 88.8,388 				"/>
				<polygon points="86,380.8 78.6,379.9 84.9,376.3 92.3,377.2 				"/>
				<polygon class="st1" points="86,380.8 78.6,379.9 84.9,376.3 92.3,377.2 				"/>
				<polygon class="st0" points="88.8,388 81.4,387.1 78.6,379.9 86,380.8 				"/>
				<polygon points="88.8,388 81.4,387.1 78.6,379.9 86,380.8 				"/>
				<polygon points="114.9,355.5 121.3,351.9 124.1,359.2 127,366.4 129.8,373.7 132.7,381 135.5,388.2 138.4,395.5 141.2,402.8 
					134.9,406.4 128.5,410 122.2,413.6 115.8,417.2 109.4,420.8 103.1,424.4 96.7,428 93.9,420.7 91,413.5 88.2,406.2 85.3,398.9 
					82.5,391.6 79.6,384.4 76.8,377.1 83.1,373.5 89.5,369.9 95.8,366.3 102.2,362.7 108.6,359.1 				"/>
				<polygon points="120.6,370 123.5,377.3 126.3,384.6 129.2,391.8 132,399.1 125.7,402.7 119.3,406.3 112.9,409.9 106.6,413.5 
					100.2,417.1 97.4,409.9 94.5,402.6 91.7,395.3 88.8,388 86,380.8 92.3,377.2 98.7,373.6 105,370 111.4,366.4 117.8,362.8 				
					"/>
				<polygon class="st2" points="105,370 111.4,366.4 117.8,362.8 120.6,370 123.5,377.3 126.3,384.6 129.2,391.8 132,399.1 
					125.7,402.7 119.3,406.3 112.9,409.9 106.6,413.5 100.2,417.1 97.4,409.9 94.5,402.6 91.7,395.3 88.8,388 86,380.8 92.3,377.2 
					98.7,373.6 				"/>
				<polygon class="st3" points="117.1,380.9 120,388.2 122.8,395.4 116.4,399 110.1,402.6 103.7,406.2 100.9,399 98,391.7 
					95.2,384.4 101.5,380.8 107.9,377.2 114.2,373.6 				"/>
				<polygon points="104.2,308.3 96.8,307.4 103.1,303.8 110.5,304.7 				"/>
				<polygon points="93.9,420.7 86.5,419.8 83.6,412.5 91,413.5 				"/>
				<polygon points="113.1,232.1 105.7,231.2 112.1,227.6 119.5,228.5 				"/>
				<polygon class="st1" points="100,337.3 92.6,336.4 98.9,332.8 106.3,333.7 				"/>
				<polygon class="st0" points="102.8,344.6 95.4,343.6 92.6,336.4 100,337.3 				"/>
				<polygon class="st0" points="111.8,268.4 104.4,267.5 101.6,260.2 109,261.1 				"/>
				<polygon class="st1" points="109,261.1 101.6,260.2 107.9,256.6 115.3,257.5 				"/>
				<polygon points="95.8,366.3 88.4,365.4 94.8,361.8 102.2,362.7 				"/>
				<polygon points="107.7,297.4 100.2,296.5 97.4,289.2 104.8,290.1 				"/>
				<polygon class="st1" points="100.7,319.1 93.2,318.2 99.6,314.6 107,315.5 				"/>
				<polygon class="st0" points="103.5,326.4 96.1,325.5 93.2,318.2 100.7,319.1 				"/>
				<polygon class="st0" points="112.5,250.3 105.1,249.3 102.2,242.1 109.6,243 				"/>
				<polygon class="st1" points="109.6,243 102.2,242.1 108.6,238.5 116,239.4 				"/>
				<polygon points="109.6,243 102.2,242.1 108.6,238.5 116,239.4 				"/>
				<polygon points="112.5,250.3 105.1,249.3 102.2,242.1 109.6,243 				"/>
				<polygon points="99.3,355.4 91.9,354.5 89.1,347.2 96.5,348.2 				"/>
				<polygon points="108.3,279.3 100.9,278.4 98.1,271.1 105.5,272 				"/>
				<polygon points="91,413.5 83.6,412.5 80.8,405.3 88.2,406.2 				"/>
				<polygon points="100,337.3 92.6,336.4 89.7,329.1 97.1,330 				"/>
				<polygon points="109,261.1 101.6,260.2 98.7,252.9 106.1,253.9 				"/>
				<polygon points="101.9,282.9 94.6,282 100.9,278.4 108.3,279.3 				"/>
				<polygon points="104.8,290.1 97.4,289.2 94.6,282 101.9,282.9 				"/>
				<polygon points="100.7,319.1 93.2,318.2 90.4,311 97.8,311.9 				"/>
				<polygon points="97.8,311.9 90.4,311 96.8,307.4 104.2,308.3 				"/>
				<polygon points="106.8,235.7 99.4,234.8 105.7,231.2 113.1,232.1 				"/>
				<polygon points="93.6,340.9 86.2,340 92.6,336.4 100,337.3 				"/>
				<polygon points="102.6,264.7 95.2,263.8 101.6,260.2 109,261.1 				"/>
				<polygon points="89.5,369.9 82.1,369 88.4,365.4 95.8,366.3 				"/>
				<polygon class="st0" points="101.3,301 93.9,300.1 91,292.8 98.4,293.7 				"/>
				<polygon points="88.2,406.2 80.8,405.3 77.9,398 85.3,398.9 				"/>
				<polygon points="94.3,322.8 86.9,321.8 93.2,318.2 100.7,319.1 				"/>
				<polygon class="st1" points="90.1,351.8 82.7,350.9 89.1,347.2 96.5,348.2 				"/>
				<polygon class="st0" points="93,359 85.6,358.1 82.7,350.9 90.1,351.8 				"/>
				<polygon class="st1" points="99.1,275.6 91.7,274.7 98.1,271.1 105.5,272 				"/>
				<polygon class="st1" points="94.9,304.6 87.5,303.7 93.9,300.1 101.3,301 				"/>
				<polygon class="st0" points="93.6,340.9 86.2,340 83.4,332.7 90.8,333.6 				"/>
				<polygon class="st1" points="90.8,333.6 83.4,332.7 89.7,329.1 97.1,330 				"/>
				<polygon points="90.8,333.6 83.4,332.7 80.5,325.4 87.9,326.4 				"/>
				<polygon class="st3" points="90.8,333.6 97.1,330 100,337.3 93.6,340.9 				"/>
				<polygon class="st1" points="99.8,257.5 92.3,256.5 98.7,252.9 106.1,253.9 				"/>
				<polygon class="st1" points="86.6,362.6 79.2,361.7 85.6,358.1 93,359 				"/>
				<polygon class="st0" points="98.4,293.7 91,292.8 88.2,285.6 95.6,286.5 				"/>
				<polygon points="85.3,398.9 77.9,398 75.1,390.7 82.5,391.6 				"/>
				<polygon class="st0" points="94.3,322.8 86.9,321.8 84,314.6 91.4,315.5 				"/>
				<polygon points="103.3,246.6 95.9,245.7 93,238.4 100.4,239.3 				"/>
				<polygon points="100.4,239.3 93,238.4 99.4,234.8 106.8,235.7 				"/>
				<polygon points="99.1,275.6 91.7,274.7 88.8,267.4 96.2,268.3 				"/>
				<polygon points="96.2,268.3 88.8,267.4 95.2,263.8 102.6,264.7 				"/>
				<polygon points="83.1,373.5 75.7,372.6 82.1,369 89.5,369.9 				"/>
				<polygon points="96.9,250.2 89.5,249.3 95.9,245.7 103.3,246.6 				"/>
				<polygon class="st0" points="95.6,286.5 88.2,285.6 85.3,278.3 92.8,279.2 				"/>
				<polygon points="82.5,391.6 75.1,390.7 72.2,383.5 79.6,384.4 				"/>
				<polygon class="st1" points="88.6,308.2 81.2,307.3 87.5,303.7 94.9,304.6 				"/>
				<polygon points="84.4,337.2 77,336.3 83.4,332.7 90.8,333.6 				"/>
				<polygon class="st1" points="93.4,261.1 86,260.1 92.3,256.5 99.8,257.5 				"/>
				<polygon class="st1" points="80.3,366.2 72.9,365.3 79.2,361.7 86.6,362.6 				"/>
				<polygon points="85.1,319.1 77.7,318.2 84,314.6 91.4,315.5 				"/>
				<polygon class="st0" points="92.8,279.2 85.3,278.3 82.5,271 89.9,271.9 				"/>
				<polygon points="76.8,377.1 69.4,376.2 75.7,372.6 83.1,373.5 				"/>
				<polygon points="79.6,384.4 72.2,383.5 69.4,376.2 76.8,377.1 				"/>
				<polygon class="st1" points="81.6,330 74.2,329 80.5,325.4 87.9,326.4 				"/>
				<polygon class="st0" points="84.4,337.2 77,336.3 74.2,329 81.6,330 				"/>
				<polygon points="90.5,253.8 83.1,252.9 89.5,249.3 96.9,250.2 				"/>
				<polygon points="93.4,261.1 86,260.1 83.1,252.9 90.5,253.8 				"/>
				<polygon points="80.3,366.2 72.9,365.3 70,358 77.4,359 				"/>
				<polygon class="st1" points="82.2,311.8 74.8,310.9 81.2,307.3 88.6,308.2 				"/>
				<polygon class="st0" points="89.9,271.9 82.5,271 79.6,263.8 87,264.7 				"/>
				<polygon points="78.7,322.7 71.3,321.8 77.7,318.2 85.1,319.1 				"/>
				<polygon points="78.1,340.8 70.7,339.9 67.8,332.6 75.2,333.5 				"/>
				<polygon class="st0" points="87,264.7 79.6,263.8 76.8,256.5 84.2,257.4 				"/>
				<polygon class="st1" points="71.1,362.6 63.7,361.6 70,358 77.4,359 				"/>
				<polygon class="st1" points="75.9,315.4 68.5,314.5 74.8,310.9 82.2,311.8 				"/>
				<polygon points="71.7,344.4 64.3,343.5 70.7,339.9 78.1,340.8 				"/>
				<polygon points="72.4,326.3 65,325.4 71.3,321.8 78.7,322.7 				"/>
				<polygon class="st0" points="84.2,257.4 76.8,256.5 73.9,249.2 81.3,250.1 				"/>
				<polygon points="71.1,362.6 63.7,361.6 60.8,354.4 68.2,355.3 				"/>
				<polygon class="st1" points="68.9,337.1 61.5,336.2 67.8,332.6 75.2,333.5 				"/>
				<polygon class="st1" points="69.5,319 62.1,318.1 68.5,314.5 75.9,315.4 				"/>
				<polygon points="65.3,348 58,347.1 64.3,343.5 71.7,344.4 				"/>
				<polygon points="68.2,355.3 60.8,354.4 58,347.1 65.3,348 				"/>
				<polygon points="66,329.9 58.6,329 65,325.4 72.4,326.3 				"/>
				<polygon points="75,253.7 67.6,252.8 73.9,249.2 81.3,250.1 				"/>
				<polygon class="st1" points="62.5,340.8 55.1,339.8 61.5,336.2 68.9,337.1 				"/>
				<polygon points="71.5,264.6 64.1,263.7 70.4,260.1 77.8,261 				"/>
				<polygon class="st1" points="71.5,264.6 64.1,263.7 70.4,260.1 77.8,261 				"/>
				<polygon class="st1" points="63.2,322.6 55.8,321.7 62.1,318.1 69.5,319 				"/>
				<polygon points="68,275.5 60.6,274.5 66.9,271 74.3,271.9 				"/>
				<polygon class="st1" points="68,275.5 60.6,274.5 66.9,271 74.3,271.9 				"/>
				<polygon points="62.5,340.8 55.1,339.8 52.2,332.6 59.7,333.5 				"/>
				<polygon points="59.7,333.5 52.2,332.6 58.6,329 66,329.9 				"/>
				<polygon points="68.6,257.3 61.2,256.4 67.6,252.8 75,253.7 				"/>
				<polygon points="65.1,268.2 57.7,267.3 64.1,263.7 71.5,264.6 				"/>
				<polygon class="st1" points="65.1,268.2 57.7,267.3 64.1,263.7 71.5,264.6 				"/>
				<polygon points="63.8,304.5 56.4,303.6 53.6,296.3 61,297.2 				"/>
				<polygon class="st0" points="63.8,304.5 56.4,303.6 53.6,296.3 61,297.2 				"/>
				<polygon class="st1" points="56.8,326.2 49.4,325.3 55.8,321.7 63.2,322.6 				"/>
				<polygon points="61.6,279.1 54.2,278.1 60.6,274.5 68,275.5 				"/>
				<polygon class="st1" points="61.6,279.1 54.2,278.1 60.6,274.5 68,275.5 				"/>
				<polygon points="60.3,315.3 52.9,314.4 50,307.2 57.5,308.1 				"/>
				<polygon class="st0" points="60.3,315.3 52.9,314.4 50,307.2 57.5,308.1 				"/>
				<polygon points="62.3,260.9 54.9,260 61.2,256.4 68.6,257.3 				"/>
				<polygon points="61,297.2 53.6,296.3 50.7,289 58.1,289.9 				"/>
				<polygon class="st0" points="61,297.2 53.6,296.3 50.7,289 58.1,289.9 				"/>
				<polygon points="56.8,326.2 49.4,325.3 46.5,318 54,318.9 				"/>
				<polygon class="st1" points="58.8,271.8 51.4,270.9 57.7,267.3 65.1,268.2 				"/>
				<polygon points="58.8,271.8 51.4,270.9 57.7,267.3 65.1,268.2 				"/>
				<polygon class="st0" points="57.5,308.1 50,307.2 47.2,299.9 54.6,300.8 				"/>
				<polygon points="57.5,308.1 50,307.2 47.2,299.9 54.6,300.8 				"/>
				<polygon points="58.1,289.9 50.7,289 47.8,281.8 55.3,282.7 				"/>
				<polygon points="55.3,282.7 47.8,281.8 54.2,278.1 61.6,279.1 				"/>
				<polygon points="74.3,271.9 77.2,279.1 80,286.4 82.9,293.7 76.5,297.3 70.2,300.9 63.8,304.5 61,297.2 58.1,289.9 55.3,282.7 
					61.6,279.1 68,275.5 				"/>
				<polygon class="st1" points="55.3,282.7 47.8,281.8 54.2,278.1 61.6,279.1 				"/>
				<polygon class="st0" points="58.1,289.9 50.7,289 47.8,281.8 55.3,282.7 				"/>
				<polygon points="54,318.9 46.5,318 43.7,310.8 51.1,311.7 				"/>
				<polygon points="55.9,264.5 48.5,263.6 54.9,260 62.3,260.9 				"/>
				<polygon points="54.6,300.8 47.2,299.9 44.3,292.6 51.7,293.5 				"/>
				<polygon class="st0" points="54.6,300.8 47.2,299.9 44.3,292.6 51.7,293.5 				"/>
				<polygon points="52.4,275.4 45,274.5 51.4,270.9 58.8,271.8 				"/>
				<polygon class="st1" points="52.4,275.4 45,274.5 51.4,270.9 58.8,271.8 				"/>
				<polygon points="51.1,311.7 43.7,310.8 40.8,303.5 48.2,304.4 				"/>
				<polygon class="st0" points="51.7,293.5 44.3,292.6 41.5,285.4 48.9,286.3 				"/>
				<polygon points="51.7,293.5 44.3,292.6 41.5,285.4 48.9,286.3 				"/>
				<polygon points="49.5,268.1 42.2,267.2 48.5,263.6 55.9,264.5 				"/>
				<polygon points="48.2,304.4 40.8,303.5 38,296.2 45.4,297.1 				"/>
				<polygon points="48.9,286.3 41.5,285.4 38.6,278.1 46,279 				"/>
				<polygon points="46,279 38.6,278.1 45,274.5 52.4,275.4 				"/>
				<polygon class="st0" points="48.9,286.3 41.5,285.4 38.6,278.1 46,279 				"/>
				<polygon class="st1" points="46,279 38.6,278.1 45,274.5 52.4,275.4 				"/>
				<polygon points="45.4,297.1 38,296.2 35.1,289 42.5,289.9 				"/>
				<polygon points="43.2,271.7 35.8,270.8 42.2,267.2 49.5,268.1 				"/>
				<polygon points="42.5,289.9 35.1,289 32.3,281.7 39.7,282.6 				"/>
				<polygon points="36.8,275.3 29.4,274.4 35.8,270.8 43.2,271.7 				"/>
				<polygon points="39.7,282.6 32.3,281.7 29.4,274.4 36.8,275.3 				"/>
				<path class="st2" d="M0,260.6l82.7,210.8l184.4-104.4l-82.7-210.8L0,260.6z M54,318.9l-2.8-7.3l-2.9-7.3l-2.8-7.3l-2.8-7.3
					l-2.8-7.3l-2.9-7.3l6.4-3.6l6.4-3.6l6.4-3.6l6.3-3.6l6.4-3.6l6.3-3.6l6.3-3.6l2.9,7.3l2.8,7.3l2.8,7.3l2.9,7.3l2.8,7.3l2.8,7.3
					l2.9,7.3l-6.4,3.6l-6.3,3.6l-6.4,3.6l-6.3,3.6l-6.4,3.6l-6.4,3.6l-6.3,3.6L54,318.9 M124.2,359.2l2.8,7.3l2.8,7.3l2.9,7.3
					l2.9,7.3l2.9,7.3l2.9,7.3l-6.4,3.6l-6.4,3.6l-6.4,3.6l-6.3,3.6l-6.4,3.6l-6.4,3.6l-6.4,3.6l-2.8-7.3l-2.9-7.3l-2.8-7.3l-2.9-7.3
					l-2.8-7.3l-2.8-7.3l-2.8-7.3l6.4-3.6l6.4-3.6l6.4-3.6l6.3-3.6l6.4-3.6l6.4-3.6l6.3-3.6L124.2,359.2 M209,337.8l-6.4,3.6l2.9,7.3
					l6.4-3.6l2.9,7.3l2.9,7.3l-6.4,3.6l-6.4,3.6l-6.4,3.6l-6.4,3.6l-2.9-7.3l-6.4,3.6l-6.4,3.6l2.9,7.3l-6.4,3.6l-2.9-7.3l-6.4,3.6
					l2.9,7.3l-6.3,3.6l-2.9-7.3l-2.9-7.3l-6.4,3.6l2.9,7.3l2.9,7.3l-6.4,3.6l-2.9-7.3l-2.9-7.3l-2.9-7.3l-2.9-7.3l-2.9-7.3l6.4-3.6
					l-2.8-7.2l-6.4,3.6l-2.8-7.3l-2.9-7.3l-6.3,3.6l-6.4,3.6l-2.9-7.2l6.4-3.6l6.3-3.6l6.4-3.6l-2.8-7.3l-6.4,3.6l-6.3,3.6l-6.4,3.6
					l-6.3,3.6l2.8,7.3l2.8,7.3l-6.4,3.6l-2.9-7.3l-6.3,3.6L93,359l-6.3,3.6l-6.4,3.6l-2.9-7.2l-6.3,3.6l-2.8-7.3l-2.9-7.3l6.4-3.6
					l6.4-3.6l-2.8-7.3l-6.4,3.6l-6.4,3.6l-2.8-7.3l6.4-3.6l6.4-3.6l6.3-3.6l6.4-3.6l6.4-3.6l2.8,7.3l6.4-3.6l-2.8-7.3l6.3-3.6
					l6.4-3.6l6.4-3.6l-2.9-7.3l-6.4,3.6l-2.8-7.3l-2.8-7.3l6.4-3.6l-2.9-7.3l-6.4,3.6l-2.9-7.3l6.4-3.6l6.3-3.6l-2.8-7.3l-6.3,3.6
					l-6.4,3.6l-2.8-7.3l6.4-3.6l6.3-3.6l-2.8-7.3l6.3-3.6l6.4-3.6l6.3-3.6l2.9,7.3l2.8,7.3l2.9,7.3l2.9,7.3l2.9,7.3l-6.3,3.6
					l2.8,7.3l6.4-3.6l2.9,7.3l-6.4,3.6l-2.9-7.3l-6.4,3.6l2.8,7.3l-6.3,3.6l2.8,7.3l-6.3,3.6l2.8,7.3l-6.4,3.7l-6.4,3.6l-6.3,3.6
					l2.8,7.3l6.3-3.6l6.4-3.6l6.4-3.6l2.9,7.3l6.3-3.6l-2.9-7.3l6.4-3.6l-2.9-7.3l-2.9-7.3l6.4-3.6l2.9,7.3l6.4-3.6l-2.9-7.3
					l6.4-3.6l2.9,7.3l6.4-3.6l-2.9-7.3l6.4-3.6l2.9,7.3l2.9,7.3l2.9,7.3l2.9,7.3l2.9,7.3l2.9,7.3l-6.4,3.6l-2.9-7.3l-2.9-7.3
					l-6.4,3.6l-6.4,3.6l2.9,7.3l2.9,7.3l6.4-3.6l2.9,7.3l-6.4,3.6l-2.9-7.3l-6.4,3.6l2.9,7.3l-6.4,3.6l2.9,7.3l6.4-3.6l2.9,7.3
					l6.4-3.6l-2.9-7.3l6.4-3.6l2.9,7.3l6.4-3.6l2.9,7.3l6.4-3.6l-2.9-7.3l-2.8-7.3l-6.4,3.6l-2.8-7.2l6.4-3.6l2.9,7.3l6.4-3.6
					l-2.9-7.3l-2.9-7.3l6.4-3.6l6.4-3.6l2.9,7.3l2.9,7.3l6.4-3.6l2.9,7.3l-6.4,3.6L209,337.8 M227.4,345.1l-6.4,3.6l-2.9-7.3
					l6.4-3.6L227.4,345.1 M210.2,301.5l2.9,7.3l-6.4,3.6l-2.9-7.3l-2.9-7.3l6.4-3.6L210.2,301.5 M204.6,287l-6.4,3.6l-6.4,3.6
					l-2.8-7.3l-2.9-7.3l-6.4,3.6l2.9,7.3l2.9,7.3l-6.4,3.6l-2.9-7.3l-2.9-7.3l-2.9-7.3l-2.9-7.3l6.4-3.6l2.9,7.3l6.4-3.6l-2.9-7.3
					l6.4-3.6l2.9,7.3l-6.4,3.6l2.9,7.3l6.4-3.6l2.9,7.3l6.4-3.6L204.6,287 M173.2,206.9l2.9,7.3l2.9,7.3l2.9,7.3l2.9,7.3l2.9,7.3
					l2.9,7.3l-6.4,3.6l-6.4,3.6l-6.4,3.6l-6.4,3.6l-6.4,3.6l-6.4,3.6l-6.4,3.6l-2.8-7.2l-2.9-7.3l-2.9-7.3l-2.9-7.3l-2.9-7.3
					l-2.9-7.3l-2.8-7.3l6.3-3.6l6.4-3.6l6.4-3.6l6.4-3.6l6.4-3.6l6.4-3.6l6.4-3.6L173.2,206.9"/>
				<polygon points="224.5,337.8 227.4,345.1 221,348.7 218.2,341.4 				"/>
				<polygon points="207.4,294.2 210.3,301.5 213.1,308.8 206.8,312.4 203.9,305.1 201.1,297.8 				"/>
				<polygon class="st3" points="199.1,352.2 192.7,355.8 189.9,348.6 196.2,345 				"/>
				<polygon points="192.5,276 195.4,283.3 201.7,279.7 204.6,287 198.2,290.5 191.9,294.1 189,286.9 186.1,279.6 				"/>
				<polygon points="181.3,326.8 184.2,334 177.8,337.6 175,330.4 				"/>
				<polygon class="st3" points="173.7,366.6 170.8,359.4 177.2,355.8 180,363 				"/>
				<polygon points="180,363 173.7,366.6 170.8,359.4 177.2,355.8 				"/>
				<polygon points="174.1,268.7 176.9,275.9 183.3,272.3 186.1,279.6 179.8,283.2 182.6,290.5 185.5,297.8 179.1,301.4 
					176.3,294.1 173.4,286.8 170.6,279.5 167.7,272.3 				"/>
				<polygon class="st2" points="142.5,366.5 148.9,362.9 151.7,370.2 145.4,373.8 				"/>
				<polygon class="st3" points="154.4,297.6 157.2,304.9 150.9,308.5 148,301.2 				"/>
				<polygon class="st2" points="144.5,312.1 138.1,315.7 135.3,308.4 141.6,304.8 				"/>
				<polygon class="st2" points="140.3,341.1 143.2,348.4 136.8,352 134,344.7 131.1,337.4 137.5,333.8 143.8,330.2 141,323 
					147.4,319.4 150.2,326.6 153.1,333.9 146.7,337.5 				"/>
				<polygon points="136.6,272.1 139.4,279.4 133.1,283 130.2,275.7 				"/>
				<polygon points="127.4,268.5 130.2,275.7 123.9,279.3 121,272.1 				"/>
				<polygon points="164,203.3 170.3,199.7 173.2,207 176,214.2 178.9,221.5 181.8,228.8 184.6,236.1 187.4,243.3 190.3,250.6 
					183.9,254.2 177.6,257.8 171.2,261.4 164.9,265 158.5,268.6 152.1,272.2 145.8,275.8 142.9,268.5 140.1,261.3 137.2,254 
					134.4,246.7 131.5,239.5 128.7,232.2 125.8,224.9 132.2,221.3 138.6,217.7 144.9,214.1 151.3,210.5 157.6,206.9 				"/>
				<polygon points="123.9,279.3 126.7,286.6 120.4,290.2 117.5,282.9 				"/>
				<polygon points="91.4,315.5 94.3,322.8 100.7,319.1 103.5,326.4 109.8,322.8 116.2,319.2 122.6,315.6 125.4,322.9 119.1,326.5 
					112.7,330.1 106.3,333.7 100,337.3 97.1,330 90.8,333.6 87.9,326.4 81.6,330 84.4,337.2 90.8,333.6 93.6,340.9 100,337.3 
					102.8,344.6 105.7,351.8 99.3,355.4 96.5,348.2 90.1,351.8 93,359 86.6,362.6 80.3,366.2 77.4,359 71.1,362.6 68.2,355.3 
					65.3,348 71.7,344.4 78.1,340.8 75.2,333.5 68.9,337.1 62.5,340.8 59.7,333.5 66,329.9 72.4,326.3 78.7,322.7 85.1,319.1 				
					"/>
				<polygon points="155,279.5 161.4,275.9 164.2,283.1 167.1,290.4 169.9,297.7 172.8,305 175.6,312.2 178.5,319.5 172.1,323.1 
					169.3,315.8 166.4,308.6 160.1,312.1 153.7,315.8 156.6,323 159.4,330.3 153.1,333.9 150.2,326.6 147.4,319.4 141,323 
					143.8,330.2 137.5,333.8 131.1,337.4 134,344.7 136.8,352 130.5,355.6 127.6,348.3 124.8,341 118.4,344.6 112.1,348.2 
					109.2,341 115.6,337.4 121.9,333.8 128.3,330.1 125.4,322.9 131.8,319.3 128.9,312 135.3,308.4 138.1,315.7 144.5,312.1 
					141.6,304.8 135.3,308.4 132.4,301.1 129.6,293.9 135.9,290.3 138.8,297.5 145.1,293.9 142.3,286.7 148.6,283.1 151.5,290.3 
					157.9,286.8 				"/>
				<polygon points="114.2,373.6 117.1,380.9 120,388.2 122.8,395.4 116.4,399 110.1,402.6 103.7,406.2 100.9,399 98,391.7 
					95.2,384.4 101.5,380.8 107.9,377.2 				"/>
				<polygon class="st2" points="117.5,282.9 120.4,290.2 114,293.8 111.2,286.5 108.3,279.3 114.7,275.7 111.8,268.4 109,261.1 
					115.3,257.5 121.7,253.9 124.5,261.2 127.4,268.5 121,272.1 123.9,279.3 				"/>
				<polygon class="st3" points="116,239.4 118.8,246.7 112.5,250.3 109.6,243 				"/>
				<polygon points="118.8,246.7 112.5,250.3 109.6,243 116,239.4 				"/>
				<polygon points="108.3,279.3 111.2,286.5 114,293.8 107.7,297.4 104.8,290.1 101.9,282.9 				"/>
				<polygon points="116.9,301.1 119.7,308.3 113.4,312 107,315.5 100.7,319.1 97.8,311.9 104.2,308.3 110.5,304.7 				"/>
				<polygon points="109,261.1 111.8,268.4 114.7,275.7 108.3,279.3 105.5,272 99.1,275.6 96.2,268.3 102.6,264.7 				"/>
				<polygon class="st3" points="81.6,330 87.9,326.4 90.8,333.6 84.4,337.2 				"/>
				<polygon points="113.1,232.1 119.5,228.5 122.3,235.8 125.2,243.1 128,250.3 130.9,257.6 133.7,264.9 127.4,268.5 124.5,261.2 
					121.7,253.9 115.3,257.5 109,261.1 106.1,253.9 99.8,257.5 93.4,261.1 90.5,253.8 96.9,250.2 103.3,246.6 100.4,239.3 
					106.8,235.7 				"/>
				<polygon points="80.7,268.3 83.5,275.5 86.4,282.8 89.2,290.1 92.1,297.3 85.7,300.9 79.4,304.5 73,308.1 66.7,311.7 
					60.3,315.3 57.5,308.1 54.6,300.8 51.7,293.5 48.9,286.3 46,279 52.4,275.4 58.8,271.8 65.1,268.2 71.5,264.6 77.8,261 				"/>
				<polygon class="st3" points="73,308.1 66.7,311.7 60.3,315.3 57.5,308.1 54.6,300.8 51.7,293.5 48.9,286.3 46,279 52.4,275.4 
					58.8,271.8 65.1,268.2 71.5,264.6 77.8,261 80.7,268.3 83.5,275.5 86.4,282.8 89.2,290.1 92.1,297.3 85.7,300.9 79.4,304.5 				
					"/>
				<polygon class="st3" points="61,297.2 58.1,289.9 55.3,282.7 61.6,279.1 68,275.5 74.3,271.9 77.2,279.1 80,286.4 82.9,293.7 
					76.5,297.3 70.2,300.9 63.8,304.5 				"/>
				<polygon points="75,253.7 81.3,250.1 84.2,257.4 87,264.7 89.9,271.9 92.8,279.2 95.6,286.5 98.4,293.7 101.3,301 94.9,304.6 
					88.6,308.2 82.2,311.8 75.9,315.4 69.5,319 63.2,322.6 56.8,326.2 54,318.9 51.1,311.7 48.2,304.4 45.4,297.1 42.5,289.9 
					39.7,282.6 36.8,275.3 43.2,271.7 49.5,268.1 55.9,264.5 62.3,260.9 68.6,257.3 				"/>
			</g>
		</g>
		<g>
			<g>
				<g>
					<defs>
						<path id="SVGID_1_" d="M446.9,411.8l-9.5-1.2c9.9-5.6,14.5-19,10.3-29.8l9.5,1.2C461.4,392.9,456.8,406.2,446.9,411.8z"/>
					</defs>
					<clipPath id="SVGID_2_">
						<use xlink:href="#SVGID_1_"  style="overflow:visible;"/>
					</clipPath>
					<g class="st4">
						<g>
							<path class="st5" d="M446.9,411.8l-9.5-1.2c1.8-1,3.5-2.3,5-3.9l9.5,1.2C450.4,409.5,448.7,410.8,446.9,411.8"/>
							<path class="st6" d="M451.8,407.9l-9.5-1.2c0.9-0.9,1.7-2,2.5-3l9.5,1.2C453.6,406,452.7,407,451.8,407.9"/>
							<path class="st7" d="M454.3,404.9l-9.5-1.2c0.6-0.9,1.1-1.8,1.6-2.8l9.5,1.2C455.4,403.1,454.9,404,454.3,404.9"/>
							<path class="st8" d="M455.9,402.1l-9.5-1.2c0.4-0.9,0.8-1.8,1.2-2.7l9.5,1.2C456.7,400.4,456.4,401.3,455.9,402.1"/>
							<path class="st9" d="M457.1,399.4l-9.5-1.2c0.3-0.9,0.6-1.8,0.9-2.8l9.5,1.2C457.7,397.6,457.4,398.5,457.1,399.4"/>
							<path class="st10" d="M458,396.7l-9.5-1.2c0.2-1,0.4-2,0.6-3l9.5,1.2C458.4,394.7,458.2,395.7,458,396.7"/>
							<path class="st11" d="M458.5,393.7l-9.5-1.2c0.2-1.2,0.2-2.4,0.2-3.6l9.5,1.2C458.7,391.3,458.6,392.5,458.5,393.7"/>
							<path class="st12" d="M458.7,390.1l-9.5-1.2c0-2.8-0.6-5.5-1.6-8.1l9.5,1.2C458.1,384.6,458.7,387.3,458.7,390.1"/>
						</g>
					</g>
				</g>
			</g>
			<polygon class="st13" points="308.9,490.3 299.5,489.1 437.4,410.6 446.9,411.8 			"/>
			<g>
				<g>
					<defs>
						<path id="SVGID_3_" d="M297.8,492.5l-9.5-1.2c3.8,0.5,7.7-0.3,11.1-2.2l9.5,1.2C305.6,492.2,301.7,493,297.8,492.5z"/>
					</defs>
					<clipPath id="SVGID_4_">
						<use xlink:href="#SVGID_3_"  style="overflow:visible;"/>
					</clipPath>
					<g class="st14">
						<g>
							<path class="st7" d="M297.8,492.5l-9.5-1.2l0.7,0.1l9.5,1.2L297.8,492.5"/>
							<path class="st6" d="M298.5,492.6l-9.5-1.2c1.2,0.1,2.3,0.1,3.5,0l9.5,1.2C300.8,492.7,299.6,492.7,298.5,492.6"/>
							<path class="st5" d="M302,492.6l-9.5-1.2c2.4-0.3,4.8-1.1,6.9-2.3l9.5,1.2C306.8,491.5,304.4,492.3,302,492.6"/>
						</g>
					</g>
				</g>
			</g>
			<g>
				<g>
					<defs>
						<path id="SVGID_5_" d="M297.8,492.5l-9.5-1.2c-6.2-0.8-11.6-5-14.2-11.8l9.5,1.2C286.2,487.5,291.6,491.7,297.8,492.5z"/>
					</defs>
					<clipPath id="SVGID_6_">
						<use xlink:href="#SVGID_5_"  style="overflow:visible;"/>
					</clipPath>
					<g class="st15">
						<g>
							<path class="st16" d="M297.8,492.5l-9.5-1.2c-6.2-0.8-11.6-5-14.2-11.8l9.5,1.2C286.2,487.5,291.6,491.7,297.8,492.5"/>
						</g>
					</g>
				</g>
			</g>
			<g>
				<g>
					<defs>
						<path id="SVGID_7_" d="M296.6,499.8l-9.5-1.2c-8.2-1.1-15.5-6.7-19-15.6l9.5,1.2C281.1,493.1,288.4,498.7,296.6,499.8z"/>
					</defs>
					<clipPath id="SVGID_8_">
						<use xlink:href="#SVGID_7_"  style="overflow:visible;"/>
					</clipPath>
					<g class="st17">
						<g>
							<path class="st12" d="M296.6,499.8l-9.5-1.2c-8.2-1.1-15.5-6.7-19-15.6l9.5,1.2C281.1,493.2,288.3,498.7,296.6,499.8"/>
						</g>
					</g>
				</g>
			</g>
			<polygon class="st18" points="457.1,382 447.7,380.8 307.9,19.2 317.4,20.5 			"/>
			<g>
				<g>
					<defs>
						<path id="SVGID_9_" d="M293.6,7.4l9.5,1.2c6.1,0.8,11.6,5,14.3,11.8l-9.5-1.2C305.3,12.4,299.8,8.3,293.6,7.4z"/>
					</defs>
					<clipPath id="SVGID_10_">
						<use xlink:href="#SVGID_9_"  style="overflow:visible;"/>
					</clipPath>
					<g class="st19">
						<g>
							<path class="st12" d="M317.4,20.5l-9.5-1.2c-2.6-6.8-8.1-11-14.2-11.8l9.5,1.2C309.3,9.5,314.7,13.7,317.4,20.5"/>
						</g>
					</g>
				</g>
			</g>
			<g>
				<g>
					<defs>
						<path id="SVGID_11_" d="M282.4,9.8c3.4-2,7.4-2.8,11.3-2.3l9.5,1.3c-3.9-0.5-7.9,0.3-11.3,2.3L282.4,9.8z"/>
					</defs>
					<clipPath id="SVGID_12_">
						<use xlink:href="#SVGID_11_"  style="overflow:visible;"/>
					</clipPath>
					<g class="st20">
						<g>
							<path class="st21" d="M291.8,11l-9.5-1.2c2.2-1.2,4.6-2,7.1-2.3l9.5,1.2C296.4,9,294,9.8,291.8,11"/>
							<path class="st22" d="M298.9,8.7l-9.5-1.2c1.2-0.1,2.3-0.1,3.5,0l9.5,1.2C301.3,8.6,300.1,8.6,298.9,8.7"/>
							<path class="st23" d="M302.5,8.6L293,7.4l0.7,0.1l9.5,1.2L302.5,8.6"/>
						</g>
					</g>
				</g>
			</g>
			<g>
				<g>
					<defs>
						<path id="SVGID_13_" d="M294.9,0.2l9.5,1.2c-5.2-0.6-10.5,0.4-15.1,3.1l-9.5-1.2C284.4,0.6,289.7-0.4,294.9,0.2z"/>
					</defs>
					<clipPath id="SVGID_14_">
						<use xlink:href="#SVGID_13_"  style="overflow:visible;"/>
					</clipPath>
					<g class="st24">
						<g>
							<path d="M289.3,4.5l-9.5-1.2c2.9-1.6,6.1-2.7,9.4-3.1l9.5,1.2C295.4,1.8,292.2,2.9,289.3,4.5"/>
							<path class="st6" d="M298.7,1.4l-9.5-1.2c1.6-0.2,3.2-0.2,4.7-0.1l9.5,1.2C301.9,1.2,300.3,1.2,298.7,1.4"/>
							<path d="M303.4,1.3L294,0.1l0.9,0.1l9.5,1.2L303.4,1.3"/>
						</g>
					</g>
				</g>
			</g>
			<polygon class="st1" points="263.4,27.2 253.9,26 282.4,9.8 291.8,11 			"/>
			<g>
				<g>
					<defs>
						<path id="SVGID_15_" d="M251.1,35c-1.4-3.3-0.2-7.1,2.8-9l9.5,1.2c-3,1.9-4.2,5.7-2.8,9c0,0,0,0.1,0,0.1l-9.5-1.2L251.1,35z"
							/>
					</defs>
					<clipPath id="SVGID_16_">
						<use xlink:href="#SVGID_15_"  style="overflow:visible;"/>
					</clipPath>
					<g class="st25">
						<g>
							<path class="st16" d="M261.3,40l-9.5-1.2c0-1.3-0.3-2.6-0.7-3.8c-0.3-0.9-0.5-1.8-0.5-2.7l9.4,1.2c0,0.9,0.2,1.9,0.5,2.7
								C261,37.4,261.2,38.7,261.3,40"/>
							<path class="st26" d="M260,33.5l-9.5-1.2c0-0.4,0-0.7,0.1-1.1l9.5,1.2C260,32.8,260,33.1,260,33.5"/>
							<path class="st27" d="M260.1,32.4l-9.5-1.2c0-0.3,0.1-0.6,0.2-0.9l9.5,1.2C260.2,31.8,260.1,32.1,260.1,32.4"/>
							<path class="st28" d="M260.3,31.5l-9.5-1.2c0.1-0.3,0.2-0.5,0.2-0.8l9.5,1.2C260.4,31,260.3,31.2,260.3,31.5"/>
							<path class="st29" d="M260.5,30.7l-9.5-1.2c0.1-0.3,0.2-0.5,0.3-0.8l9.5,1.3C260.7,30.2,260.6,30.5,260.5,30.7"/>
							<path class="st23" d="M260.9,30l-9.5-1.2c0.1-0.3,0.3-0.5,0.4-0.8l9.5,1.2C261.1,29.5,261,29.7,260.9,30"/>
							<path class="st22" d="M261.3,29.2l-9.5-1.2c0.2-0.3,0.4-0.6,0.7-0.9l9.5,1.2C261.7,28.6,261.5,28.9,261.3,29.2"/>
							<path class="st21" d="M262,28.3l-9.5-1.2c0.4-0.4,0.9-0.8,1.4-1.1l9.5,1.2C262.9,27.5,262.4,27.9,262,28.3"/>
						</g>
					</g>
				</g>
			</g>
			<g>
				<g>
					<defs>
						<path id="SVGID_17_" d="M251.2,35.1l9.5,1.2c1.8,5.1-0.2,10.7-4.8,13.6l-9.5-1.2C251,45.9,253,40.2,251.2,35.1z"/>
					</defs>
					<clipPath id="SVGID_18_">
						<use xlink:href="#SVGID_17_"  style="overflow:visible;"/>
					</clipPath>
					<g class="st30">
						<g>
							<path class="st21" d="M255.9,49.9l-9.5-1.2c0.8-0.5,1.6-1.1,2.3-1.8l9.5,1.2C257.5,48.9,256.7,49.5,255.9,49.9"/>
							<path class="st22" d="M258.1,48.1l-9.5-1.2c0.4-0.4,0.8-0.9,1.1-1.4l9.5,1.2C258.9,47.2,258.6,47.7,258.1,48.1"/>
							<path class="st23" d="M259.3,46.7l-9.5-1.2c0.3-0.4,0.5-0.8,0.7-1.3l9.5,1.2C259.8,45.9,259.5,46.3,259.3,46.7"/>
							<path class="st29" d="M260,45.5l-9.5-1.2c0.2-0.4,0.4-0.8,0.5-1.2l9.5,1.2C260.4,44.7,260.2,45.1,260,45.5"/>
							<path class="st28" d="M260.5,44.3l-9.5-1.3c0.2-0.4,0.3-0.8,0.4-1.3L261,43C260.9,43.4,260.8,43.9,260.5,44.3"/>
							<path class="st27" d="M261,43l-9.5-1.2c0.1-0.5,0.2-0.9,0.2-1.4l9.5,1.2C261.2,42.1,261.1,42.5,261,43"/>
							<path class="st26" d="M261.2,41.6l-9.5-1.2c0.1-0.5,0.1-1.1,0.1-1.6l9.5,1.3C261.3,40.5,261.3,41.1,261.2,41.6"/>
							<path class="st16" d="M261.3,40l-9.5-1.2c0-1.3-0.3-2.6-0.7-3.8c-0.3-0.9-0.5-1.8-0.5-2.7l9.4,1.2c0,0.9,0.2,1.9,0.5,2.7
								C261,37.4,261.2,38.7,261.3,40"/>
						</g>
					</g>
				</g>
			</g>
			<polygon class="st1" points="205,78.9 195.5,77.6 246.4,48.7 255.9,49.9 			"/>
			<g>
				<g>
					<defs>
						<polygon id="SVGID_19_" points="195.5,77.7 195.5,77.7 205,78.9 205,78.9 						"/>
					</defs>
					<clipPath id="SVGID_20_">
						<use xlink:href="#SVGID_19_"  style="overflow:visible;"/>
					</clipPath>
					<g class="st31">
						<g>
							<path class="st21" d="M201.8,79.9l-9.5-1.2c1.1-0.1,2.2-0.5,3.1-1l9.5,1.2C204,79.4,203,79.7,201.8,79.9"/>
						</g>
					</g>
				</g>
			</g>
			<g>
				<g>
					<defs>
						<path id="SVGID_21_" d="M190.5,78.7c1.7,0.2,3.5-0.1,5-1l9.5,1.2c-1.5,0.9-3.3,1.2-5,1L190.5,78.7z"/>
					</defs>
					<clipPath id="SVGID_22_">
						<use xlink:href="#SVGID_21_"  style="overflow:visible;"/>
					</clipPath>
					<g class="st32">
						<g>
							<path class="st23" d="M200,79.9l-9.5-1.2h0.3l9.5,1.2H200"/>
							<path class="st22" d="M200.3,79.9l-9.5-1.2c0.5,0.1,1,0.1,1.6,0l9.5,1.2C201.3,80,200.8,80,200.3,79.9"/>
							<path class="st21" d="M201.8,79.9l-9.5-1.2c1.1-0.1,2.2-0.5,3.1-1l9.5,1.2C204,79.4,203,79.7,201.8,79.9"/>
						</g>
					</g>
				</g>
			</g>
			<g>
				<g>
					<defs>
						<path id="SVGID_23_" d="M199.9,79.9l-9.5-1.2c-3-0.4-5.5-2.5-6.5-5.4l9.5,1.2C194.4,77.4,196.9,79.4,199.9,79.9z"/>
					</defs>
					<clipPath id="SVGID_24_">
						<use xlink:href="#SVGID_23_"  style="overflow:visible;"/>
					</clipPath>
					<g class="st33">
						<g>
							<path class="st12" d="M199.9,79.9l-9.5-1.2c-3-0.4-5.5-2.5-6.5-5.4l9.5,1.2C194.4,77.4,196.9,79.4,199.9,79.9"/>
						</g>
					</g>
				</g>
			</g>
			<g>
				<g>
					<defs>
						<path id="SVGID_25_" d="M179.5,69.5l9.5,1.2c2,0.4,3.7,1.8,4.4,3.8l-9.5-1.2C183.2,71.3,181.6,69.8,179.5,69.5z"/>
					</defs>
					<clipPath id="SVGID_26_">
						<use xlink:href="#SVGID_25_"  style="overflow:visible;"/>
					</clipPath>
					<g class="st34">
						<g>
							<path class="st12" d="M193.3,74.5l-9.5-1.2c-0.6-2-2.3-3.4-4.4-3.8l9.5,1.2C191,71.1,192.7,72.5,193.3,74.5"/>
						</g>
					</g>
				</g>
			</g>
			<g>
				<g>
					<defs>
						<path id="SVGID_27_" d="M176.3,70.1c1-0.6,2.1-0.8,3.3-0.7l9.5,1.2c-1.1-0.1-2.3,0.1-3.3,0.7L176.3,70.1z"/>
					</defs>
					<clipPath id="SVGID_28_">
						<use xlink:href="#SVGID_27_"  style="overflow:visible;"/>
					</clipPath>
					<g class="st35">
						<g>
							<path class="st21" d="M185.8,71.4l-9.5-1.2c0.6-0.4,1.3-0.6,2.1-0.7l9.5,1.2C187.1,70.8,186.4,71,185.8,71.4"/>
							<path class="st22" d="M187.9,70.7l-9.5-1.2c0.3,0,0.7,0,1,0l9.5,1.2C188.5,70.7,188.2,70.7,187.9,70.7"/>
							<path class="st23" d="M188.9,70.7l-9.5-1.2h0.2l9.5,1.2L188.9,70.7"/>
						</g>
					</g>
				</g>
			</g>
			<polygon class="st1" points="154.1,89.4 144.6,88.2 176.3,70.1 185.8,71.4 			"/>
			<polygon points="151.5,82.9 142.1,81.7 279.8,3.3 289.3,4.5 			"/>
			<polygon class="st0" points="283.6,480.8 274.1,479.5 134.3,118 143.8,119.2 			"/>
			<polygon points="277.6,484.2 268.1,482.9 128.4,121.4 137.8,122.6 			"/>
			<g>
				<g>
					<defs>
						<path id="SVGID_29_" d="M143.8,119.2l-9.5-1.2c-4.2-10.8,0.4-24.2,10.3-29.8l9.5,1.2C144.2,95.1,139.6,108.4,143.8,119.2z"/>
					</defs>
					<clipPath id="SVGID_30_">
						<use xlink:href="#SVGID_29_"  style="overflow:visible;"/>
					</clipPath>
					<g class="st36">
						<g>
							<path class="st16" d="M143.8,119.2l-9.5-1.2c-1-2.6-1.5-5.3-1.6-8.1l9.5,1.2C142.3,113.9,142.8,116.7,143.8,119.2"/>
							<path class="st26" d="M142.2,111.1l-9.5-1.2c0-1.2,0-2.4,0.2-3.6l9.5,1.2C142.3,108.8,142.2,109.9,142.2,111.1"/>
							<path class="st27" d="M142.4,107.6l-9.4-1.2c0.1-1,0.3-2,0.6-3l9.5,1.2C142.8,105.6,142.6,106.6,142.4,107.6"/>
							<path class="st28" d="M143,104.6l-9.5-1.2c0.2-0.9,0.5-1.9,0.9-2.8l9.5,1.2C143.5,102.7,143.2,103.6,143,104.6"/>
							<path class="st29" d="M143.8,101.8l-9.5-1.2c0.3-0.9,0.7-1.8,1.2-2.7l9.5,1.2C144.6,100,144.2,100.9,143.8,101.8"/>
							<path class="st23" d="M145,99.1l-9.5-1.2c0.5-0.9,1-1.9,1.6-2.7l9.5,1.2C146,97.2,145.5,98.2,145,99.1"/>
							<path class="st22" d="M146.6,96.4l-9.5-1.2c0.7-1.1,1.6-2.1,2.5-3.1l9.5,1.2C148.2,94.3,147.4,95.3,146.6,96.4"/>
							<path class="st21" d="M149.1,93.3l-9.5-1.2c1.5-1.5,3.2-2.8,5-3.9l9.5,1.2C152.3,90.5,150.6,91.8,149.1,93.3"/>
						</g>
					</g>
				</g>
			</g>
			<path d="M323.3,17.1l139.8,361.5c5.6,14.4-0.5,32.2-13.7,39.7l-137.8,78.4c-13.3,7.4-28.4,1.8-34-12.6L137.8,122.6
				c-5.6-14.4,0.5-32.2,13.7-39.7L289.3,4.5C302.6-2.9,317.8,2.7,323.3,17.1z M446.9,411.8c9.9-5.6,14.5-19,10.3-29.8L317.4,20.5
				c-4.2-10.8-15.5-15-25.4-9.5l-28.6,16.3c-2.9,1.8-4.2,5.4-3,8.7c2.1,5.3,0,11.5-4.6,14.1l-50.7,28.9c-3.8,2.3-8.7,1.1-11-2.7
				c-0.3-0.5-0.6-1.1-0.8-1.6c-1.4-3.5-4.6-4.7-7.5-3.2l-31.8,18.1c-9.9,5.6-14.5,19-10.3,29.8l139.8,361.5
				c4.2,10.8,15.5,15,25.4,9.5L446.9,411.8"/>
			<path class="st2" d="M291.8,11c10-5.6,21.3-1.3,25.5,9.4L457.1,382c4.2,10.8-0.4,24.2-10.3,29.8l-137.8,78.4
				c-10,5.6-21.3,1.3-25.5-9.4L143.8,119.2c-4.2-10.8,0.4-24.2,10.3-29.8l31.7-18.1c2.4-1.4,5.5-0.7,7,1.7c0.2,0.3,0.3,0.6,0.5,1
				c2.1,5.3,7.3,7.3,11.8,4.8l50.9-28.9c4.6-2.9,6.6-8.6,4.7-13.7c-1.4-3.3-0.2-7.1,2.8-9L291.8,11z"/>
			<g>
				<g>
					<defs>
						<path id="SVGID_31_" d="M137.8,122.6l-9.5-1.2c-5.6-14.4,0.5-32.2,13.7-39.7l9.5,1.2C138.4,90.4,132.2,108.2,137.8,122.6z"/>
					</defs>
					<clipPath id="SVGID_32_">
						<use xlink:href="#SVGID_31_"  style="overflow:visible;"/>
					</clipPath>
					<g class="st37">
						<g>
							<path d="M137.8,122.6l-9.5-1.2c-1.3-3.4-2-7.1-2.1-10.8l9.5,1.2C135.8,115.5,136.5,119.2,137.8,122.6"/>
							<path d="M135.8,111.9l-9.5-1.2c0-1.6,0.1-3.2,0.3-4.8l9.5,1.2C135.8,108.7,135.7,110.3,135.8,111.9"/>
							<path d="M136,107.1l-9.5-1.2c0.2-1.3,0.4-2.7,0.7-4l9.5,1.2C136.4,104.4,136.2,105.8,136,107.1"/>
							<path d="M136.8,103.1l-9.5-1.2c0.3-1.3,0.7-2.5,1.1-3.7l9.5,1.2C137.5,100.6,137.1,101.8,136.8,103.1"/>
							<path d="M137.9,99.4l-9.5-1.2c0.5-1.2,1-2.4,1.6-3.6l9.5,1.2C138.9,97,138.4,98.2,137.9,99.4"/>
							<path d="M139.5,95.8l-9.5-1.2c0.6-1.3,1.4-2.5,2.2-3.7l9.5,1.2C140.8,93.3,140.1,94.5,139.5,95.8"/>
							<path d="M141.6,92.1l-9.5-1.2c1-1.4,2.1-2.8,3.3-4.1l9.5,1.2C143.7,89.3,142.6,90.7,141.6,92.1"/>
							<path d="M144.9,88l-9.5-1.2c1.9-2,4.1-3.8,6.6-5.2l9.5,1.2C149.1,84.3,146.9,86,144.9,88"/>
						</g>
					</g>
				</g>
			</g>
		</g>
		<g>
			<path class="st38" d="M400.4,341.9L400.4,341.9c2.8,7,0,14.9-6.5,18.6l-73.4,42.1c-7.2,4.1-16.4,1.6-20.6-5.6
				c-0.4-0.6-0.7-1.3-0.9-1.9l0,0c-2.8-7,0-14.9,6.5-18.6l73.4-42c7.2-4.1,16.4-1.7,20.6,5.6C399.8,340.6,400.1,341.3,400.4,341.9z"
				/>
		</g>
		<text transform="matrix(0.8403 -0.4902 0.3401 0.9404 334.1702 384.3697)" class="st2 st39 st40 st41">S</text>
		<text transform="matrix(0.8403 -0.4902 0.3401 0.9404 343.0991 379.1613)" class="st2 st39 st40 st41">C</text>
		<text transform="matrix(0.8403 -0.4902 0.3401 0.9404 352.8178 373.492)" class="st2 st39 st40 st41">AN</text>
		<g class="st42">
			<path class="st43" d="M214.4,175.2c-0.3,0.4-0.6,0.7-0.9,1.1c-0.3,0.3-0.7,0.6-1.1,0.8c-0.7,0.4-1.4,0.7-2.1,0.7
				c-0.7,0-1.4-0.1-2-0.3c-0.6-0.3-1.1-0.7-1.6-1.2s-0.8-1.1-1.1-1.8c-0.3-0.7-0.4-1.5-0.4-2.2c0-0.8,0.1-1.6,0.4-2.3
				c0.3-0.8,0.6-1.5,1.1-2.1c0.5-0.6,1.1-1.2,1.8-1.6c0.7-0.4,1.4-0.7,2.2-0.7c0.7,0,1.4,0.1,2,0.4c0.6,0.3,1.1,0.7,1.6,1.2
				c0.5,0.5,0.8,1.1,1.1,1.8c0.2,0.7,0.4,1.4,0.4,2.1c0,0.7-0.1,1.4-0.3,2.2l2.1,0.9l-2.5,1.4L214.4,175.2z M211.5,174.5
				c0.2-0.1,0.4-0.2,0.5-0.4l-2.3-1l2.5-1.4l0.8,0.3c0-0.3,0-0.6,0-0.8c0-0.3-0.1-0.5-0.2-0.8c-0.1-0.4-0.3-0.7-0.5-1
				c-0.2-0.3-0.5-0.5-0.7-0.7c-0.3-0.2-0.6-0.2-0.9-0.2c-0.3,0-0.7,0.1-1,0.3c-0.4,0.2-0.7,0.5-0.9,0.8c-0.2,0.3-0.4,0.7-0.4,1
				c-0.1,0.4-0.1,0.8-0.1,1.1c0,0.4,0.1,0.8,0.2,1.1c0.1,0.4,0.3,0.7,0.5,1c0.2,0.3,0.5,0.5,0.7,0.7c0.3,0.2,0.6,0.2,0.9,0.2
				C210.8,174.8,211.1,174.7,211.5,174.5z"/>
			<path class="st43" d="M219,173.1l-3.9-10.7l4.4-2.6c0.5-0.3,0.9-0.4,1.4-0.4c0.5,0,0.9,0.1,1.3,0.3s0.8,0.4,1.1,0.8
				c0.3,0.4,0.6,0.8,0.7,1.2c0.2,0.6,0.3,1.3,0.3,2c0,0.7-0.2,1.3-0.5,1.9l3.4,2.8l-3,1.7l-2.9-2.3l-1,0.6l1.2,3.3L219,173.1z
				 M219.5,165.8l1.7-1c0.2-0.1,0.3-0.3,0.3-0.6c0.1-0.3,0-0.6-0.1-1c-0.1-0.4-0.3-0.6-0.5-0.7c-0.2-0.1-0.4-0.1-0.6,0l-1.6,0.9
				L219.5,165.8z"/>
			<path class="st43" d="M235.6,154.7c-0.3,0-0.7,0-1,0c-0.3,0-0.6,0.1-0.9,0.1c-0.3,0.1-0.7,0.2-0.9,0.4c-0.2,0.1-0.4,0.3-0.5,0.4
				c-0.1,0.2-0.1,0.3-0.1,0.5c0.1,0.1,0.1,0.2,0.2,0.3c0.1,0,0.3,0.1,0.4,0c0.2,0,0.4-0.1,0.6-0.1c0.2-0.1,0.5-0.1,0.8-0.2
				c0.5-0.1,1-0.2,1.4-0.2c0.4,0,0.8,0,1.1,0.1c0.3,0.1,0.6,0.3,0.9,0.6c0.3,0.3,0.5,0.7,0.7,1.2c0.2,0.6,0.3,1.2,0.3,1.8
				c-0.1,0.6-0.2,1.1-0.5,1.5c-0.3,0.5-0.6,0.9-1,1.2c-0.4,0.4-0.8,0.7-1.3,0.9c-0.3,0.2-0.7,0.4-1.1,0.5c-0.4,0.2-0.8,0.3-1.2,0.4
				c-0.4,0.1-0.8,0.2-1.2,0.2c-0.4,0-0.8,0.1-1.1,0l0.2-3.2c0.4,0,0.8,0,1.2,0c0.3,0,0.7-0.1,1.1-0.2c0.4-0.1,0.8-0.2,1.2-0.5
				c0.3-0.2,0.5-0.3,0.6-0.5c0.1-0.1,0.1-0.3,0-0.4c-0.1-0.2-0.2-0.2-0.3-0.3c-0.2,0-0.3,0-0.6,0c-0.2,0-0.5,0.1-0.8,0.2
				c-0.3,0.1-0.6,0.1-0.9,0.2c-0.5,0.1-0.9,0.1-1.3,0.1c-0.4,0-0.7-0.1-1-0.2c-0.3-0.1-0.5-0.3-0.7-0.6c-0.2-0.2-0.4-0.6-0.5-1
				c-0.2-0.6-0.3-1.2-0.3-1.7c0-0.6,0.2-1.1,0.4-1.6c0.2-0.5,0.5-0.9,0.9-1.3c0.4-0.4,0.8-0.7,1.3-1c0.3-0.2,0.7-0.4,1.1-0.5
				c0.4-0.1,0.7-0.2,1.1-0.3c0.4-0.1,0.7-0.1,1-0.1c0.3,0,0.6,0,0.9,0L235.6,154.7z"/>
		</g>
		<g class="st42">
			<path class="st43" d="M239,154.9c-0.2-0.7-0.4-1.4-0.4-2.1c0-0.8,0.1-1.5,0.3-2.3c0.2-0.7,0.6-1.5,1.1-2.1
				c0.5-0.7,1.1-1.2,1.9-1.7c0.9-0.5,1.8-0.8,2.6-0.8c0.8,0,1.5,0.3,2.1,0.8l-1.4,2.8c-0.2-0.2-0.4-0.4-0.6-0.4
				c-0.2-0.1-0.4-0.1-0.6-0.1s-0.4,0-0.6,0.1c-0.2,0.1-0.4,0.2-0.6,0.3c-0.4,0.2-0.7,0.5-0.9,0.8c-0.2,0.3-0.4,0.7-0.4,1
				c-0.1,0.4-0.1,0.7-0.1,1.1c0,0.4,0.1,0.7,0.2,1.1c0.1,0.4,0.3,0.7,0.5,1s0.5,0.5,0.8,0.7c0.3,0.2,0.6,0.2,0.9,0.2
				c0.3,0,0.7-0.1,1-0.3c0.2-0.1,0.4-0.2,0.5-0.4c0.2-0.2,0.3-0.3,0.5-0.5c0.1-0.2,0.2-0.4,0.3-0.7c0.1-0.2,0.1-0.5,0.1-0.8l2.7,0.2
				c0,0.5-0.1,1-0.3,1.4c-0.2,0.5-0.4,0.9-0.7,1.4c-0.3,0.4-0.6,0.8-1,1.2c-0.4,0.4-0.8,0.7-1.2,0.9c-0.7,0.4-1.4,0.6-2.1,0.7
				s-1.4-0.1-2-0.4c-0.6-0.3-1.2-0.7-1.6-1.2C239.6,156.2,239.2,155.6,239,154.9z"/>
		</g>
		<g class="st42">
			<path class="st43" d="M249.9,142.2l2.4-1.4l7.2,8.8l-2.7,1.6l-1.3-1.8l-2.5,1.5l0.2,2.4l-2.7,1.6L249.9,142.2z M254.4,147.6
				l-2-2.8l0.3,3.8L254.4,147.6z"/>
			<path class="st43" d="M261.7,141.9l1.9,5.3l-2.6,1.5l-3.9-10.7l2-1.2l5.8,3.2l-2-5.4l2.6-1.5l3.9,10.7l-2.1,1.2L261.7,141.9z"/>
			<path class="st43" d="M272.5,135.6l1.9,5.3l-2.6,1.5l-3.9-10.7l2-1.2l5.8,3.2l-2-5.4l2.6-1.5l3.9,10.7l-2.1,1.2L272.5,135.6z"/>
			<path class="st43" d="M282.6,136.1l-3.9-10.7l2.6-1.5l3.9,10.7L282.6,136.1z"/>
			<path class="st43" d="M288.2,126.4l1.9,5.3l-2.6,1.5l-3.9-10.7l2-1.2l5.8,3.2l-2-5.4l2.6-1.5l3.9,10.7l-2.1,1.2L288.2,126.4z"/>
			<path class="st43" d="M304.5,122.2c-0.5,1-1.1,1.8-2,2.3c-0.6,0.4-1.3,0.6-1.9,0.7c-0.7,0.1-1.3,0-1.9-0.2
				c-0.6-0.2-1.1-0.6-1.6-1.1c-0.5-0.5-0.9-1.2-1.2-2.1c-0.3-0.8-0.4-1.5-0.4-2.3c0-0.8,0.2-1.6,0.4-2.3c0.3-0.7,0.6-1.4,1.1-2
				c0.5-0.6,1.1-1.1,1.8-1.5c0.4-0.3,0.9-0.4,1.3-0.6c0.4-0.1,0.9-0.2,1.3-0.2c0.4,0,0.8,0.1,1.2,0.2c0.4,0.1,0.7,0.3,1,0.6
				l-1.3,2.8c-0.3-0.3-0.7-0.5-1.2-0.5c-0.5,0-0.9,0.1-1.3,0.3c-0.3,0.2-0.6,0.4-0.8,0.7c-0.2,0.3-0.4,0.6-0.5,1
				c-0.1,0.4-0.1,0.7-0.1,1.2c0,0.4,0.1,0.8,0.2,1.2c0.2,0.4,0.3,0.8,0.6,1.1c0.2,0.3,0.5,0.5,0.8,0.6c0.3,0.1,0.6,0.2,0.9,0.2
				s0.6-0.1,1-0.3c0.8-0.4,1.3-1.2,1.6-2.2l-1.7,1l-0.8-2.1l3.9-2.3l2.1,5.7l-2.2,1.3L304.5,122.2z"/>
		</g>
		<g id="_Group_2">
			<g id="_Group_3">
				<polygon id="_Path_" class="st44" points="217.1,231.6 239.1,218.2 318.4,170.1 340.3,156.7 352.2,187.7 391.3,289.1 268.1,364 
					217.1,231.6 				"/>
				<g id="_Group_4">
					<path id="_Compound_Path_" d="M248.3,272.6l4.7-2.8l4.7-2.8l4.7-2.8l4.7-2.8l4.7-2.8l4.7-2.8l4.7-2.8l-1.9-5l-1.9-5l-1.9-5
						l-1.9-5l-1.9-5l-1.9-5l-1.9-5l-4.7,2.8l-4.7,2.8l-4.7,2.8l-4.7,2.8l-4.7,2.8l-4.7,2.8l-4.7,2.8l1.9,5l1.9,5l1.9,5l1.9,5l1.9,5
						l1.9,5L248.3,272.6 M251.1,264.7l4.7-2.8l4.7-2.8l4.7-2.8l4.7-2.8l4.7-2.8l-1.9-5l-1.9-5l-1.9-5l-1.9-5l-1.9-5l-4.7,2.8
						l-4.7,2.8l-4.7,2.8l-4.7,2.8l-4.7,2.8l1.9,5l1.9,5l1.9,5l1.9,5L251.1,264.7"/>
					<path id="_Compound_Path_2" d="M300.6,228.5l4.7-2.8l-1.9-5l-1.9-5l-1.9-5l-1.9-5l-1.9-5l-4.7,2.8l-4.7,2.8l-4.7,2.7l1.9,5
						l-4.7,2.8l-4.7,2.8l1.9,5l4.7-2.8l4.7-2.8l1.9,5l4.7-2.8l4.7-2.8l1.9,5l1.9,5 M290.1,216.1l4.7-2.8l-1.9-5l-4.7,2.8
						L290.1,216.1"/>
					<path id="_Compound_Path_3" d="M313.8,232.8l4.7-2.8l4.7-2.8l4.7-2.8l4.7-2.8l4.7-2.8l4.7-2.8l4.7-2.8l-1.9-5l-1.9-5l-1.9-5
						l-1.9-5l-1.9-5l-1.9-5l-1.9-5l-4.7,2.8l-4.7,2.8l-4.7,2.8l-4.7,2.8l-4.7,2.7l-4.7,2.8l-4.7,2.8l1.9,5l1.9,5l1.9,5l1.9,5l1.9,5
						l1.9,5l1.9,5 M316.5,224.8l4.7-2.8l4.7-2.8l4.7-2.8l4.7-2.8l4.7-2.8l-1.9-5l-1.9-5l-1.9-5l-1.9-5l-1.9-5l-4.7,2.8l-4.7,2.8
						l-4.7,2.8l-4.7,2.9l-4.7,2.8l1.9,5l1.9,5l1.9,5l1.9,5L316.5,224.8"/>
					<polyline id="_Path_2" points="253.8,256.9 258.5,254 263.2,251.2 267.8,248.3 265.9,243.3 264,238.3 262,233.3 257.4,236.1 
						252.7,239 248,241.8 249.9,246.8 251.9,251.8 253.8,256.9 					"/>
					<polyline id="_Path_3" points="319.3,217.1 323.9,214.3 328.6,211.4 333.3,208.6 331.4,203.6 329.4,198.6 327.5,193.5 
						322.8,196.4 318.1,199.2 313.5,202.1 315.4,207.1 317.3,212.1 319.3,217.1 					"/>
					<polyline id="_Path_4" points="286.5,237 291.2,234.2 289.3,229.1 287.3,224.1 282.7,226.9 278,229.8 279.9,234.8 284.6,232 
						286.5,237 					"/>
					<polyline id="_Path_5" points="285.7,249.9 290.4,247 288.5,242 286.5,237 281.9,239.8 283.8,244.8 285.7,249.9 					"/>
					<polyline id="_Path_6" points="297.8,236.3 302.5,233.5 300.6,228.5 295.9,231.3 					"/>
					<polyline id="_Path_7" points="295.1,244.2 299.8,241.4 297.8,236.3 293.1,239.2 					"/>
					<polyline id="_Path_8" points="304.4,238.5 309.1,235.7 307.2,230.7 302.5,233.5 					"/>
					<polyline id="_Path_9" points="292.4,252.1 297,249.2 295.1,244.2 290.4,247 					"/>
					<polyline id="_Path_10" points="264.6,299.9 269.3,297 274,294.2 272,289.2 276.7,286.3 278.6,291.4 283.3,288.5 281.4,283.5 
						279.5,278.5 274.8,281.3 272.9,276.3 268.2,279.1 266.2,274.1 270.9,271.3 272.9,276.3 277.5,273.5 279.5,278.5 284.1,275.6 
						288.8,272.8 293.5,270 298.1,267.1 296.2,262.1 291.5,264.9 286.9,267.8 282.2,270.6 280.3,265.6 275.6,268.4 273.6,263.4 
						269,266.2 264.3,269.1 259.6,271.9 254.9,274.8 250.3,277.6 252.2,282.6 256.9,279.8 261.6,277 263.5,282 258.8,284.8 
						254.1,287.6 256.1,292.7 258,297.7 262.7,294.9 264.6,299.9 					"/>
					<polyline id="_Path_11" points="280.3,265.6 284.9,262.8 289.6,259.9 294.3,257.1 292.4,252.1 287.7,254.9 283,257.7 
						278.3,260.6 280.3,265.6 					"/>
					<path id="_Compound_Path_4" d="M301.2,290.1l4.7-2.8l-1.9-5l-1.9-5l4.7-2.8l4.7-2.8l-1.9-5l4.7-2.8l1.9,5l1.9,5l4.7-2.8l-1.9-5
						l-1.9-5l4.7-2.8l4.7-2.8l1.9,5l1.9,5l4.7-2.8l-1.9-5l-1.9-5l-1.9-5l-1.9-5l-1.9-5l-1.9-5l-4.7,2.6l1.9,5l-4.7,2.8l-1.9-5
						l-4.7,2.8l1.9,5l-4.7,2.8l-1.9-5l-4.7,2.8l1.9,5l1.9,5l4.7-2.8l1.9,5l-4.7,2.8l-1.9-5l-4.7,2.8l1.9,5l-4.7,2.8l1.9,5l-4.7,3
						l-4.7,2.8l-4.7,2.8l1.9,5l4.7-2.8l4.7-2.8l1.9,5L301.2,290.1 M316.8,255.7l4.7-2.8l-1.9-5l-4.7,2.8L316.8,255.7"/>
					<polyline id="_Path_12" points="337.5,249.4 342.2,246.6 340.2,241.6 338.3,236.6 343,233.7 341,228.7 336.4,231.5 
						334.4,226.5 329.7,229.4 331.7,234.4 333.6,239.4 335.5,244.4 337.5,249.4 					"/>
					<polyline id="_Path_13" points="341,228.7 345.7,225.9 343.8,220.8 339.1,223.7 					"/>
					<polyline id="_Path_14" points="346.8,243.8 351.5,240.9 356.2,238.1 354.2,233.1 349.6,235.9 347.6,230.9 343,233.7 
						344.9,238.7 346.8,243.8 					"/>
					<polyline id="_Path_15" points="357.3,256 362,253.2 360.1,248.1 358.1,243.1 353.5,246 355.4,251 357.3,256 					"/>
					<path id="_Compound_Path_5" d="M275.4,342.9l4.7-2.8l4.7-2.8l4.7-2.8l4.7-2.8l4.7-2.8l4.7-2.8l4.7-2.8l-1.9-5l-1.9-5l-1.9-5
						l-1.9-5l-1.9-5l-1.9-5l-1.9-5l-4.7,2.8l-4.7,2.8l-4.7,2.8l-4.7,2.8l-4.7,2.8l-4.7,2.8l-4.7,2.8l1.9,5l1.9,5l1.9,5l1.9,5l1.9,5
						l1.9,5L275.4,342.9 M278.2,335l4.7-2.8l4.7-2.8l4.7-2.8l4.7-2.8l4.7-2.8l-1.9-5l-1.9-5l-1.9-5l-1.9-5l-1.9-5l-4.7,2.8l-4.7,2.8
						l-4.7,2.8l-4.7,2.8l-4.7,2.8l1.9,5l1.9,5l1.9,5l1.9,5L278.2,335"/>
					<path id="_Compound_Path_6" d="M312.8,320.2l4.7-2.8l-1.9-5l-1.9-5l4.7-2.8l-1.9-5l-4.7,2.8l-1.9-5l4.7-2.8l1.9,5l4.7-2.8
						l4.7-2.8l1.9,5l-4.7,2.8l-4.7,2.8l1.9,5l1.9,5l4.7-2.8l-1.9-5l4.7-2.8l1.9,5l4.7-2.8l-1.9-5l4.7-2.8l4.7-2.8l1.9,5l4.7-2.8
						l4.7-2.8l4.7-2.8l4.7-2.8l-1.9-5l-1.9-5l-4.7,2.8l-1.9-5l4.7-2.8l-1.9-5l4.7-2.8l-1.9-5l-4.7,2.8l-1.9-5l-1.9-5l-4.7,2.7
						l-4.7,2.8l1.9,5l1.9,5l-4.7,2.8l1.9,5l1.9,5l4.7-2.8l1.9,5l-4.7,2.8l-1.9-5l-4.7,2.8l-1.9-5l-4.7,2.8l-1.9-5l-4.7,2.8l1.9,5
						l-4.7,2.8l-1.9-5l-4.7,2.8l-1.9-5l4.7-2.8l-1.9-5l-4.7,2.8l-4.7,2.8l1.9,5l-4.7,2.8l1.9,5l-4.7,2.8l1.9,5l1.9,5l1.9,5l1.9,5
						l1.9,5 M332.3,296l4.7-2.8l-1.9-5l-4.7,2.8L332.3,296"/>
					<polyline id="_Path_16" points="324.6,275.9 329.3,273 327.3,268 322.7,270.8 					"/>
					<polyline id="_Path_17" points="335.9,275.2 340.5,272.4 338.6,267.4 333.9,270.2 					"/>
					<polyline id="_Path_18" points="280.9,327.2 285.6,324.3 290.3,321.5 294.9,318.7 293,313.6 291.1,308.6 289.1,303.6 
						284.5,306.4 279.8,309.3 275.1,312.1 277,317.1 279,322.1 280.9,327.2 					"/>
					<polyline id="_Path_19" points="367,281.1 371.7,278.3 369.7,273.2 365.1,276.1 					"/>
				</g>
			</g>
		</g>
		<polyline class="st45" points="232,312.2 227.9,301.7 376.6,213.6 380.7,224.1 		"/>
	</g>
</g>
</svg>
