<?xml version="1.0" encoding="UTF-8"?>
<svg width="80px" height="80px" viewBox="0 0 80 80" version="1.1" xmlns="http://www.w3.org/2000/svg" xmlns:xlink="http://www.w3.org/1999/xlink">
    <title>customer</title>
    <g id="Website-Pages" stroke="none" stroke-width="1" fill="none" fill-rule="evenodd">
        <g id="Group" fill="#505050" fill-rule="nonzero">
            <g id="customer">
                <path d="M10.2592771,41.2851406 L16.8674699,41.2851406 L16.8674699,38.7148594 L10.2592771,38.7148594 C9.61212269,36.2084412 7.2022018,34.5742327 4.6342162,34.9004096 C2.0662306,35.2265865 0.141386864,37.4113823 0.141386864,40 C0.141386864,42.5886177 2.0662306,44.7734135 4.6342162,45.0995904 C7.2022018,45.4257673 9.61212269,43.7915588 10.2592771,41.2851406 Z M5.30120482,42.5702811 C3.88167775,42.5702811 2.73092369,41.4195271 2.73092369,40 C2.73092369,38.5804729 3.88167775,37.4297189 5.30120482,37.4297189 C6.72073189,37.4297189 7.87148594,38.5804729 7.87148594,40 C7.87148594,41.4195271 6.72073189,42.5702811 5.30120482,42.5702811 Z" id="Shape"></path>
                <path d="M74.6987952,34.859432 C72.3618807,34.8681957 70.3249392,36.4521315 69.7407229,38.7148594 L63.1325301,38.7148594 L63.1325301,41.2851406 L69.7407229,41.2851406 C70.4131231,43.8651794 72.9493362,45.500476 75.5769135,45.0481929 C78.2044908,44.5959099 80.0479751,42.206739 79.8190356,39.5503675 C79.5900961,36.8939961 77.365011,34.855475 74.6987952,34.859432 L74.6987952,34.859432 Z M74.6987952,42.5702811 C73.2792681,42.5702811 72.1285141,41.4195271 72.1285141,40 C72.1285141,38.5804729 73.2792681,37.4297189 74.6987952,37.4297189 C76.1183222,37.4297189 77.2690763,38.5804729 77.2690763,40 C77.2690763,41.4195271 76.1183222,42.5702811 74.6987952,42.5702811 Z" id="Shape"></path>
                <polygon id="Path" transform="translate(47.919757, 8.665652) rotate(-67.155222) translate(-47.919757, -8.665652) " points="46.6347553 7.50330661 49.2047589 7.50330661 49.2047589 9.82799749 46.6347553 9.82799749"></polygon>
                <polygon id="Path" transform="translate(56.490126, 12.284607) rotate(-67.155222) translate(-56.490126, -12.284607) " points="55.2051238 11.1222611 57.7751274 11.1222611 57.7751274 13.446952 55.2051238 13.446952"></polygon>
                <polygon id="Path" transform="translate(52.245791, 10.478554) rotate(-67.102409) translate(-52.245791, -10.478554) " points="50.9615742 9.31511431 53.5300075 9.31511431 53.5300075 11.6419941 50.9615742 11.6419941"></polygon>
                <polygon id="Path" transform="translate(71.294010, 47.955640) rotate(-67.155222) translate(-71.294010, -47.955640) " points="70.1316645 46.6706377 72.4563554 46.6706377 72.4563554 49.2406413 70.1316645 49.2406413"></polygon>
                <polygon id="Path" transform="translate(67.676839, 56.524824) rotate(-67.155222) translate(-67.676839, -56.524824) " points="66.5144938 55.2398226 68.8391846 55.2398226 68.8391846 57.8098262 66.5144938 57.8098262"></polygon>
                <polygon id="Path" transform="translate(69.539438, 52.265068) rotate(-67.102409) translate(-69.539438, -52.265068) " points="68.3759978 50.9808513 70.7028777 50.9808513 70.7028777 53.5492846 68.3759978 53.5492846"></polygon>
                <polygon id="Path" transform="translate(32.003236, 71.336420) rotate(-67.155222) translate(-32.003236, -71.336420) " points="30.7182342 70.1740742 33.2882378 70.1740742 33.2882378 72.498765 30.7182342 72.498765"></polygon>
                <polygon id="Path" transform="translate(27.747284, 69.576605) rotate(-67.102409) translate(-27.747284, -69.576605) " points="26.4630669 68.4131654 29.0315002 68.4131654 29.0315002 70.7400452 26.4630669 70.7400452"></polygon>
                <polygon id="Path" transform="translate(23.434051, 67.717964) rotate(-67.155222) translate(-23.434051, -67.717964) " points="22.1490493 66.5556183 24.7190529 66.5556183 24.7190529 68.8803091 22.1490493 68.8803091"></polygon>
                <polygon id="Path" transform="translate(8.627098, 32.041689) rotate(-67.155222) translate(-8.627098, -32.041689) " points="7.46475239 30.7566869 9.78944327 30.7566869 9.78944327 33.3266905 7.46475239 33.3266905"></polygon>
                <polygon id="Path" transform="translate(12.244767, 23.471320) rotate(-67.155222) translate(-12.244767, -23.471320) " points="11.0824218 22.1863184 13.4071127 22.1863184 13.4071127 24.7563219 11.0824218 24.7563219"></polygon>
                <polygon id="Path" transform="translate(10.447812, 27.772986) rotate(-67.102409) translate(-10.447812, -27.772986) " points="9.28437247 26.4887697 11.6112523 26.4887697 11.6112523 29.057203 9.28437247 29.057203"></polygon>
                <polygon id="Path" transform="translate(10.459445, 52.215743) rotate(-22.897591) translate(-10.459445, -52.215743) " points="9.17522881 51.0523031 11.7436621 51.0523031 11.7436621 53.3791829 9.17522881 53.3791829"></polygon>
                <polygon id="Path" transform="translate(12.228942, 56.501701) rotate(-22.844778) translate(-12.228942, -56.501701) " points="10.9439402 55.3393554 13.5139438 55.3393554 13.5139438 57.6640463 10.9439402 57.6640463"></polygon>
                <polygon id="Path" transform="translate(8.618430, 47.929711) rotate(-22.844778) translate(-8.618430, -47.929711) " points="7.33342778 46.7673651 9.90343134 46.7673651 9.90343134 49.092056 7.33342778 49.092056"></polygon>
                <polygon id="Path" transform="translate(56.462360, 67.734973) rotate(-22.844778) translate(-56.462360, -67.734973) " points="55.3000147 66.4499707 57.6247056 66.4499707 57.6247056 69.0199743 55.3000147 69.0199743"></polygon>
                <polygon id="Path" transform="translate(52.228594, 69.514852) rotate(-22.897591) translate(-52.228594, -69.514852) " points="51.0651545 68.2306351 53.3920343 68.2306351 53.3920343 70.7990684 51.0651545 70.7990684"></polygon>
                <polygon id="Path" transform="translate(47.889871, 71.344301) rotate(-22.844778) translate(-47.889871, -71.344301) " points="46.7275257 70.0592996 49.0522166 70.0592996 49.0522166 72.6293031 46.7275257 72.6293031"></polygon>
                <polygon id="Path" transform="translate(67.694635, 23.495332) rotate(-22.844778) translate(-67.694635, -23.495332) " points="66.4096328 22.3329863 68.9796363 22.3329863 68.9796363 24.6576772 66.4096328 24.6576772"></polygon>
                <polygon id="Path" transform="translate(69.527203, 27.744519) rotate(-22.897591) translate(-69.527203, -27.744519) " points="68.2429866 26.5810793 70.8114199 26.5810793 70.8114199 28.9079591 68.2429866 28.9079591"></polygon>
                <polygon id="Path" transform="translate(71.303177, 32.072860) rotate(-22.844778) translate(-71.303177, -32.072860) " points="70.0181751 30.9105143 72.5881786 30.9105143 72.5881786 33.2352052 70.0181751 33.2352052"></polygon>
                <polygon id="Path" transform="translate(23.459846, 12.269280) rotate(-22.844778) translate(-23.459846, -12.269280) " points="22.297501 10.9842782 24.6221919 10.9842782 24.6221919 13.5542818 22.297501 13.5542818"></polygon>
                <polygon id="Path" transform="translate(32.033020, 8.659554) rotate(-22.844778) translate(-32.033020, -8.659554) " points="30.870675 7.37455227 33.1953658 7.37455227 33.1953658 9.94455584 30.870675 9.94455584"></polygon>
                <polygon id="Path" transform="translate(27.758656, 10.447094) rotate(-22.897591) translate(-27.758656, -10.447094) " points="26.5952158 9.16287732 28.9220956 9.16287732 28.9220956 11.7313106 26.5952158 11.7313106"></polygon>
                <path d="M55.4486747,22.7341365 L57.2658635,24.5513253 L61.8229719,19.9942169 C62.6063415,20.4666359 63.5028878,20.7184149 64.4176707,20.7228916 C67.2567248,20.7228916 69.5582329,18.4213835 69.5582329,15.5823293 C69.5582329,12.7432752 67.2567248,10.4417671 64.4176707,10.4417671 C61.5786165,10.4417671 59.2771084,12.7432752 59.2771084,15.5823293 C59.2815851,16.4971122 59.5333641,17.3936585 60.0057831,18.1770281 L55.4486747,22.7341365 Z M64.4176707,13.0120482 C65.8371978,13.0120482 66.9879518,14.1628022 66.9879518,15.5823293 C66.9879518,17.0018564 65.8371978,18.1526104 64.4176707,18.1526104 C62.9981436,18.1526104 61.8473896,17.0018564 61.8473896,15.5823293 C61.8473896,14.1628022 62.9981436,13.0120482 64.4176707,13.0120482 Z" id="Shape"></path>
                <path d="M15.5823293,20.7228916 C16.4971122,20.7184149 17.3936585,20.4666359 18.1770281,19.9942169 L22.7341365,24.5513253 L24.5513253,22.7341365 L19.9942169,18.1770281 C20.4666359,17.3936585 20.7184149,16.4971122 20.7228916,15.5823293 C20.7228916,12.7432752 18.4213835,10.4417671 15.5823293,10.4417671 C12.7432752,10.4417671 10.4417671,12.7432752 10.4417671,15.5823293 C10.4417671,18.4213835 12.7432752,20.7228916 15.5823293,20.7228916 L15.5823293,20.7228916 Z M15.5823293,13.0120482 C17.0018564,13.0120482 18.1526104,14.1628022 18.1526104,15.5823293 C18.1526104,17.0018564 17.0018564,18.1526104 15.5823293,18.1526104 C14.1628022,18.1526104 13.0120482,17.0018564 13.0120482,15.5823293 C13.0120482,14.1628022 14.1628022,13.0120482 15.5823293,13.0120482 Z" id="Shape"></path>
                <path d="M64.4176707,59.2771084 C63.5024489,59.285047 62.6060593,59.5379886 61.8216867,60.0096386 L57.9919679,56.1799197 L57.9919679,55.4216867 C57.984631,50.6384833 54.2355141,46.6973936 49.4586345,46.4514056 L45.1405622,43.2128514 L45.1405622,39.6658635 C47.552676,37.9836169 48.991878,35.2299438 48.9959839,32.2891566 L48.9959839,26.788755 C51.4055619,25.1160277 52.8452532,22.3710162 52.8514056,19.437751 L52.8514056,14.2971888 C52.8514056,13.5874252 52.2760286,13.0120482 51.5662651,13.0120482 L41.2851406,13.0120482 L41.2851406,10.2618474 C43.7915588,9.61469297 45.4257673,7.20477208 45.0995904,4.63678649 C44.7734135,2.06880089 42.5886177,0.143957145 40,0.143957145 C37.4113823,0.143957145 35.2265865,2.06880089 34.9004096,4.63678649 C34.5742327,7.20477208 36.2084412,9.61469297 38.7148594,10.2618474 L38.7148594,13.0120482 L36.1445783,13.0120482 C31.1785823,13.0177139 27.1542601,17.0420361 27.1485944,22.0080321 L27.1485944,24.5783133 C27.1549458,26.7049675 28.8773619,28.4273835 31.0040161,28.4337349 L31.0040161,32.2891566 C31.008122,35.2299438 32.447324,37.9836169 34.8594378,39.6658635 L34.8594378,43.2128514 L30.5413655,46.4514056 C25.7644859,46.6973936 22.015369,50.6384833 22.0080321,55.4216867 L22.0080321,56.1799197 L18.1783133,60.0096386 C15.9203295,58.6655908 13.0148594,59.2134204 11.4013563,61.2874413 C9.78785319,63.3614621 9.97140629,66.312425 11.8294906,68.1705094 C13.687575,70.0285937 16.6385379,70.2121468 18.7125587,68.5986437 C20.7865796,66.9851406 21.3344092,64.0796705 19.9903614,61.8216867 L22.0080321,59.8040161 L22.0080321,60.562249 C22.0143836,62.6889032 23.7367996,64.4113193 25.8634538,64.4176707 L38.7148594,64.4176707 L38.7148594,69.7381526 C36.2084412,70.385307 34.5742327,72.7952279 34.9004096,75.3632135 C35.2265865,77.9311991 37.4113823,79.8560429 40,79.8560429 C42.5886177,79.8560429 44.7734135,77.9311991 45.0995904,75.3632135 C45.4257673,72.7952279 43.7915588,70.385307 41.2851406,69.7381526 L41.2851406,64.4176707 L54.1365462,64.4176707 C56.2632004,64.4113193 57.9856164,62.6889032 57.9919679,60.562249 L57.9919679,59.8040161 L60.0096386,61.8216867 C58.8410695,63.8282347 59.1683413,66.3698455 60.8071114,68.014905 C62.4458815,69.6599646 64.9862199,69.9969697 66.9972295,68.8360954 C69.008239,67.6752211 69.9868758,65.3068542 69.3819028,63.0650254 C68.7769298,60.8231967 66.7396779,59.2686882 64.4176707,59.2771084 Z M15.5823293,66.9879518 C14.1628022,66.9879518 13.0120482,65.8371978 13.0120482,64.4176707 C13.0120482,62.9981436 14.1628022,61.8473896 15.5823293,61.8473896 C17.0018564,61.8473896 18.1526104,62.9981436 18.1526104,64.4176707 C18.1483762,65.8354401 17.0000988,66.9837175 15.5823293,66.9879518 Z M37.4297189,5.30120482 C37.4297189,3.88167775 38.5804729,2.73092369 40,2.73092369 C41.4195271,2.73092369 42.5702811,3.88167775 42.5702811,5.30120482 C42.5702811,6.72073189 41.4195271,7.87148594 40,7.87148594 C38.5822305,7.86725166 37.4339532,6.71897429 37.4297189,5.30120482 L37.4297189,5.30120482 Z M31.0040161,24.5783133 L31.0040161,25.8634538 C30.2942525,25.8634538 29.7188755,25.2880768 29.7188755,24.5783133 L29.7188755,22.0080321 C29.7188755,18.4592145 32.5957606,15.5823293 36.1445783,15.5823293 L50.2811245,15.5823293 L50.2811245,19.437751 C50.2780231,21.0142228 49.692132,22.5338778 48.6361446,23.7044177 C48.4672353,23.5276511 48.2543272,23.3990191 48.0192771,23.3317269 L37.7381526,20.7614458 C37.4399477,20.6860572 37.1244501,20.7226366 36.8514056,20.864257 L31.7108434,23.4345382 C31.2761387,23.6495267 31.0018622,24.0933559 31.0040161,24.5783133 L31.0040161,24.5783133 Z M33.5742972,32.2891566 L33.5742972,25.3751004 L37.5839357,23.3702811 L46.4257028,25.5807229 L46.4257028,32.2891566 C46.4257028,35.8379743 43.5488177,38.7148594 40,38.7148594 C36.4511823,38.7148594 33.5742972,35.8379743 33.5742972,32.2891566 Z M36.9156627,44.8835341 C37.237069,44.6390004 37.4269357,44.259267 37.4297189,43.8554217 L37.4297189,40.9124498 C39.1072176,41.4093378 40.8927824,41.4093378 42.5702811,40.9124498 L42.5702811,43.8554217 C42.5730643,44.259267 42.762931,44.6390004 43.0843373,44.8835341 L46.6570281,47.5694779 L40,51.373494 L33.3429719,47.5694779 L36.9156627,44.8835341 Z M42.5702811,74.6987952 C42.5702811,76.1183222 41.4195271,77.2690763 40,77.2690763 C38.5804729,77.2690763 37.4297189,76.1183222 37.4297189,74.6987952 C37.4297189,73.2792681 38.5804729,72.1285141 40,72.1285141 C41.4177695,72.1327483 42.5660468,73.2810257 42.5702811,74.6987952 L42.5702811,74.6987952 Z M55.4216867,60.562249 C55.4216867,61.2720125 54.8463097,61.8473896 54.1365462,61.8473896 L25.8634538,61.8473896 C25.1536903,61.8473896 24.5783133,61.2720125 24.5783133,60.562249 L24.5783133,55.4216867 C24.5841229,52.000912 27.2663937,49.1831159 30.6827309,49.0088353 L39.3574297,53.9694779 C39.7579458,54.1879857 40.2420542,54.1879857 40.6425703,53.9694779 L49.3172691,49.0088353 C52.7336063,49.1831159 55.4158771,52.000912 55.4216867,55.4216867 L55.4216867,60.562249 Z M64.4176707,66.9879518 C62.9981436,66.9879518 61.8473896,65.8371978 61.8473896,64.4176707 C61.8473896,62.9981436 62.9981436,61.8473896 64.4176707,61.8473896 C65.8371978,61.8473896 66.9879518,62.9981436 66.9879518,64.4176707 C66.9837175,65.8354401 65.8354401,66.9837175 64.4176707,66.9879518 Z" id="Shape"></path>
                <polygon id="Path" points="36.1445783 27.1485944 38.7148594 27.1485944 38.7148594 29.7188755 36.1445783 29.7188755"></polygon>
                <polygon id="Path" points="41.2851406 27.1485944 43.8554217 27.1485944 43.8554217 29.7188755 41.2851406 29.7188755"></polygon>
            </g>
        </g>
    </g>
</svg>