<?xml version="1.0" encoding="UTF-8"?>
<svg width="90px" height="75px" viewBox="0 0 90 75" version="1.1" xmlns="http://www.w3.org/2000/svg" xmlns:xlink="http://www.w3.org/1999/xlink">
    <title>Logo</title>
    <g id="Website-Pages" stroke="none" stroke-width="1" fill="none" fill-rule="evenodd">
        <g id="Landing-Page" transform="translate(-255.000000, -20.000000)" fill-rule="nonzero">
            <g id="Logo" transform="translate(255.000000, 20.000000)">
                <path d="M67.3847817,54.8076923 L27.2292725,54.8076923 C23.0288763,54.7955272 19.6270747,51.4640144 19.6153846,47.3511244 L19.6153846,8.03349101 C19.6270747,3.92060102 23.0288763,0.589088229 27.2292725,0.576923077 L67.3847817,0.576923077 C71.5853952,0.589084686 74.9875796,3.92039029 75,8.03349101 L75,47.3511244 C74.9875796,51.4642251 71.5853952,54.7955307 67.3847817,54.8076923" id="Path" fill="#AF1F24"></path>
                <g id="Group" opacity="0.29" style="mix-blend-mode: multiply;" transform="translate(21.923077, 1.730769)" fill="#AF1F24">
                    <g id="Path">
                        <path d="M0.120448878,50.7592749 C1.53705659,52.1827387 3.46225735,52.9833974 5.47049683,52.9842701 L45.4211395,52.9842701 C49.6001059,52.9719095 52.9845522,49.5868719 52.9961826,45.4079033 L52.9961826,5.45858431 C52.9961826,3.44988601 52.1949762,1.52414413 50.7711874,0.107212737 L0.120448878,50.7592749 Z"></path>
                    </g>
                </g>
                <path d="M4.61372186,64.8954956 L4.61372186,67.2284549 L4.02675652,67.2284549 C3.6354463,67.2174373 3.31555019,67.2119286 3.06706819,67.2119286 L3.06706819,64.8954956 C3.07071664,64.7450834 3.00865671,64.5998152 2.89530206,64.4934301 C2.78194741,64.3870451 2.6271623,64.3288009 2.46689613,64.332225 L2.1440652,64.332225 C1.98379903,64.3288009 1.82901392,64.3870451 1.71565927,64.4934301 C1.60230462,64.5998152 1.54024469,64.7450834 1.54389314,64.8954956 L1.54389314,66.9709204 C1.54209582,67.1476801 1.59567404,67.3210401 1.69797154,67.4694631 C1.79688714,67.6276661 1.94698928,67.7521362 2.12645624,67.824778 L2.19542466,67.8564533 C2.25265378,67.8771112 2.44635235,67.9638741 2.78239,68.1139878 C2.92032686,68.1676982 3.09201422,68.2379349 3.29745209,68.3233206 C3.50288996,68.4087064 3.74794799,68.5326535 4.03115876,68.6607321 C4.20295635,68.7367579 4.35064798,68.8535328 4.45964346,68.9995208 C4.5613231,69.1543753 4.61517329,69.3326929 4.61518928,69.5145897 L4.61518928,72.8294852 C4.62216332,73.2533432 4.44212918,73.6610517 4.11773615,73.9560263 C3.80343689,74.2604741 3.36901823,74.4294388 2.91739203,74.4228936 L1.69943895,74.4228936 C1.24781275,74.4294388 0.813394094,74.2604741 0.499094832,73.9560263 C0.174162209,73.6612875 -0.00641645934,73.2535486 0.000174293348,72.8294852 L0.000174293348,70.1095356 L0.587139633,70.1095356 C0.964264864,70.0985181 1.28562839,70.0930093 1.54829538,70.0930093 L1.54829538,72.4108195 C1.54464693,72.5612317 1.60670686,72.7064999 1.72006151,72.812885 C1.83341616,72.91927 1.98820127,72.9775142 2.14846744,72.9740901 L2.4742332,72.9740901 C2.63449936,72.9775142 2.78928448,72.91927 2.90263913,72.812885 C3.01599378,72.7064999 3.07805371,72.5612317 3.07440526,72.4108195 L3.07440526,71.1878751 C3.07440526,70.9730335 3.06853561,70.7099903 3.0567963,70.3987454 C3.05842118,70.2220079 3.00485704,70.0486935 2.9027179,69.9002028 C2.80052199,69.7504846 2.65836745,69.6284652 2.49037475,69.546265 L2.40526477,69.5145897 C2.34803565,69.4925547 2.16020674,69.4071689 1.84031063,69.2570552 C1.70237378,69.2033448 1.53068642,69.1275994 1.32524855,69.0311961 C1.11981068,68.9347928 0.873285236,68.8383896 0.591541873,68.7089337 C0.412123555,68.6368991 0.261973717,68.512872 0.163057175,68.354996 C0.0634990038,68.2057551 0.0125013435,68.0324944 0.0163158402,67.8564533 L0.0163158402,64.4768299 C0.00916581815,64.0529404 0.189227784,63.6451689 0.513768966,63.3502888 C0.824442563,63.0501864 1.25214878,62.8820623 1.69797154,62.8847987 L2.91592462,62.8847987 C3.36755082,62.8782535 3.80196948,63.0472182 4.11626874,63.351666 C4.44080992,63.6465461 4.62087189,64.0543176 4.61372186,64.4782071 L4.61372186,64.8954956 Z" id="Path" fill="#AF1F24"></path>
                <path d="M9.80769231,69.5292203 C10.4419768,66.5760626 10.9199882,64.3611943 11.2417267,62.8846154 L12.6923077,62.8846154 L12.6923077,74.4189575 L11.2582733,74.4189575 L11.2582733,69.737937 C10.850125,71.8241882 10.5440138,73.3859016 10.3399397,74.4230769 L9.27544492,74.4230769 C8.86729666,72.3468953 8.56670099,70.7906746 8.37365789,69.7544146 L8.37365789,74.4230769 L6.92307692,74.4230769 L6.92307692,62.8887348 L8.35711134,62.8887348 L9.80769231,69.5292203 Z" id="Path" fill="#AF1F24"></path>
                <path d="M17.6339351,63.124254 C17.6656494,63.2853903 17.7083946,63.5112566 17.7621709,63.8004756 C17.8485807,64.3265788 17.9722202,65.0294269 18.1330894,65.90902 C18.2939587,66.788613 18.4552875,67.7168684 18.617076,68.6937859 C18.8009266,69.7129386 18.9778828,70.7320914 19.1479446,71.7512441 C19.3180063,72.7703968 19.4738197,73.6610078 19.6153846,74.4230769 L18.1330894,74.4230769 L18.0200213,73.8914648 C17.9547544,73.5242026 17.9009781,73.2239657 17.8586925,72.9907542 L15.602846,72.9907542 L15.5063245,73.520989 C15.4419768,73.8882513 15.3882005,74.1889472 15.3449956,74.4230769 L13.8461538,74.4230769 L13.8957935,74.1820611 C13.9164767,74.0209248 13.9537064,73.7950585 14.0074827,73.5058395 C14.099408,72.9797363 14.2230475,72.281938 14.3784012,71.4124447 C14.533755,70.5429513 14.6950838,69.6096461 14.8623879,68.6125292 C15.0462384,67.5933764 15.230089,66.5792736 15.4139395,65.5702205 C15.5977901,64.5611675 15.7526842,63.6659658 15.8786219,62.8846154 L17.6022209,62.8846154 L17.6339351,63.124254 Z M17.4560597,70.641194 C17.3705692,70.0609196 17.2740477,69.3957159 17.1664951,68.6455828 L16.9403589,67.130626 C16.8658994,66.6265586 16.802471,66.1858439 16.7307692,65.8112364 L16.6025335,66.6802707 C16.5156641,67.2600859 16.413627,67.9294214 16.2964223,68.6924087 C16.2210435,69.1854583 16.1456648,69.6840167 16.0702861,70.1880842 C15.9949073,70.6921516 15.9305596,71.1374571 15.877243,71.5240006 L17.600842,71.5240006 L17.4560597,70.641194 Z" id="Shape" fill="#AF1F24"></path>
                <path d="M26.5383548,64.6206851 L26.5383548,69.8812102 C26.5431533,70.2898926 26.386,70.6857342 26.0972642,70.9922398 C25.8160599,71.296894 25.424212,71.4931042 24.9974783,71.5429359 L25.2386079,71.9779859 C25.3875985,72.2671014 25.5650149,72.6048617 25.7708572,72.9912669 C25.9090656,73.2377034 26.0458036,73.4896469 26.184012,73.7470974 C26.3222204,74.0045478 26.4354337,74.2303333 26.5265924,74.4230769 L24.9974783,74.4230769 L24.7578191,73.9728828 C24.6107889,73.6823906 24.4314121,73.3450892 24.2255698,72.9582251 C24.0873614,72.7117886 23.9506233,72.4598451 23.812415,72.2023946 C23.6742066,71.9449442 23.5609933,71.7356796 23.4683643,71.5429359 L23.4683643,71.9711022 C23.4585623,72.2602177 23.4531712,72.597978 23.452191,72.9843832 L23.452191,74.4161932 L21.9230769,74.4161932 L21.9230769,62.8846154 L24.7739924,62.8846154 C25.7484229,62.8846154 26.5383548,63.6242806 26.5383548,64.5367039 L26.5383548,64.6206851 Z M24.8033985,64.5077924 C24.680878,64.3918911 24.5129069,64.3281817 24.3387831,64.3315696 L23.4566019,64.3315696 L23.4566019,70.0753306 L24.3387831,70.0753306 C24.5132219,70.0788501 24.6814254,70.0145542 24.8033985,69.8977311 C24.9238466,69.7899715 24.9918655,69.6406968 24.9915971,69.484709 L24.9915971,64.949726 C24.9959182,64.7865619 24.9277707,64.6290284 24.8033985,64.5146761" id="Shape" fill="#AF1F24"></path>
                <polygon id="Path" fill="#AF1F24" points="28.8461538 64.3621097 28.8461538 62.8846154 34.6153846 62.8846154 34.6153846 64.3621097 32.4379828 64.3621097 32.4379828 74.4230769 31.3091611 74.4230769 31.0235557 74.4230769 31.0235557 64.3621097"></polygon>
                <path d="M76.1537395,64.6217214 L76.1537395,69.8853868 C76.1585365,70.2943131 76.0014331,70.690391 75.7127893,70.9970796 C75.4314974,71.3017079 75.0398655,71.4979894 74.6133537,71.5481045 L73.0847266,71.5481045 L73.0847266,71.9765263 C73.0847266,72.2658144 73.0788473,72.6037764 73.0670886,72.9904122 L73.0670886,74.4230769 L71.5384615,74.4230769 L71.5384615,62.8846154 L74.389939,62.8846154 C75.3640591,62.8846154 76.1537395,63.6247221 76.1537395,64.5376901 L76.1537395,64.6217214 Z M74.4178658,64.5087613 C74.2959349,64.3928657 74.128494,64.3290975 73.9548682,64.3324333 L73.072968,64.3324333 L73.072968,70.0796231 L73.9548682,70.0796231 C74.1288103,70.0830933 74.2964849,70.0187372 74.4178658,69.9019176 C74.5386728,69.794235 74.6071872,69.6449016 74.6074744,69.4886489 L74.6074744,64.9509588 C74.6112318,64.7875227 74.5425884,64.6299287 74.4178658,64.5156491" id="Shape" fill="#AF1F24"></path>
                <path d="M82.2479409,63.124254 C82.281034,63.2853903 82.3237792,63.5112566 82.3775555,63.8004756 C82.463046,64.3265788 82.5866855,65.0294269 82.748474,65.90902 C82.9102625,66.788613 83.0711318,67.7168684 83.2310818,68.6937859 C83.4149323,69.7129386 83.5923481,70.7320914 83.7633292,71.7512441 C83.9343102,72.7703968 84.0901235,73.6610078 84.2307692,74.4230769 L82.748474,74.4230769 L82.6354059,73.8914648 C82.570139,73.5242026 82.5163627,73.2239657 82.4740771,72.9907542 L80.2182306,72.9907542 L80.1217091,73.520989 C80.0564421,73.8882513 80.0026658,74.1889472 79.9603802,74.4230769 L78.4615385,74.4230769 L78.5070415,74.1779294 C78.5291035,74.0167931 78.5663333,73.7909268 78.6201096,73.5017078 C78.7120349,72.9756046 78.8356744,72.2778063 78.9910281,71.408313 C79.1463818,70.5388196 79.3072511,69.6055144 79.4736358,68.6083975 C79.6574864,67.5892447 79.841337,66.5751419 80.0251875,65.5660888 C80.2090381,64.5570358 80.3648514,63.6632113 80.4926276,62.8846154 L82.2162267,62.8846154 L82.2479409,63.124254 Z M82.0714443,70.641194 C81.9859538,70.0613787 81.8880534,69.4016839 81.7818797,68.6455828 L81.5557435,67.130626 C81.4799051,66.6265586 81.4109612,66.1858439 81.3461538,65.8112364 L81.2179181,66.6802707 C81.1310487,67.2600859 81.0290116,67.9294214 80.910428,68.6924087 C80.8359685,69.1854583 80.7610494,69.6840167 80.6856707,70.1880842 C80.6098323,70.6935288 80.5477828,71.1383752 80.4926276,71.5240006 L82.2162267,71.5240006 L82.0714443,70.641194 Z" id="Shape" fill="#AF1F24"></path>
                <path d="M90,64.6047799 L90,72.8296179 C90,73.709661 89.2390836,74.4230769 88.3004456,74.4230769 L85.3846154,74.4230769 L85.3846154,62.8846154 L88.3033834,62.8846154 C89.2403008,62.8861335 89.9991916,63.5982663 90,64.4766972 L90,64.6047799 Z M88.2372815,64.5372955 C88.0987951,64.4012174 87.9061173,64.3253644 87.7055281,64.3278917 L86.9299319,64.3278917 L86.9299319,72.9700957 L87.7025902,72.9700957 C88.1179216,72.9663619 88.453639,72.6516019 88.4576213,72.2621977 L88.4576213,65.0551352 C88.4653205,64.8611176 88.3853056,64.6730676 88.2372815,64.5372955" id="Shape" fill="#AF1F24"></path>
                <path d="M43.2699204,69.5292203 C43.903437,66.5760626 44.3815627,64.3611943 44.7042976,62.8846154 L46.1538462,62.8846154 L46.1538462,74.4189575 L44.7194689,74.4189575 L44.7194689,69.737937 C44.3112231,71.8241882 44.0050387,73.3859016 43.8009158,74.4230769 L42.7416834,74.4230769 C42.3334375,72.3468953 42.03277,70.7906746 41.8396808,69.7544146 L41.8396808,74.4230769 L40.3846154,74.4230769 L40.3846154,62.8887348 L41.8189926,62.8887348 L43.2699204,69.5292203 Z" id="Path" fill="#AF1F24"></path>
                <polygon id="Path" fill="#AF1F24" points="48.8520258 64.3621097 48.8520258 67.940502 51.9230769 67.940502 51.9230769 69.4001456 48.8520258 69.4001456 48.8520258 72.9785379 51.9230769 72.9785379 51.9230769 74.4230769 48.2692308 74.4230769 47.3076923 74.4230769 47.3076923 62.8846154 51.9230769 62.8846154 51.9230769 64.3621097"></polygon>
                <path d="M57.3018203,68.660043 L57.3018203,62.8846154 L58.8461538,62.8846154 L58.8461538,74.4230769 L57.3018203,74.4230769 L55.7574868,68.6462723 L55.7574868,74.4230769 L54.2307692,74.4230769 L54.2307692,62.8846154 L55.7574868,62.8846154 C56.4425524,65.4487179 56.9573302,67.3766146 57.3018203,68.6683054" id="Path" fill="#AF1F24"></path>
                <path d="M64.2110066,72.2651466 L64.2110066,62.8846154 L65.7689826,62.8846154 L65.7689826,72.9578076 C65.7766154,73.3472444 65.6078633,73.7214943 65.3045294,73.9878484 C65.0183415,74.2694831 64.620151,74.4270897 64.2051275,74.4230769 L62.7177013,74.4230769 C61.8589673,74.4118901 61.1657033,73.7623641 61.1538462,72.9578076 L61.1538462,62.8846154 L62.7177013,62.8846154 L62.7177013,72.4758367 C62.7148721,72.6086932 62.7707139,72.7367495 62.8720291,72.8297411 C62.9803486,72.9210567 63.1217204,72.9702956 63.2674023,72.9674471 L63.6627754,72.9674471 C63.8079783,72.9700826 63.9488101,72.9208487 64.0566788,72.8297411 C64.1553014,72.7355895 64.2084234,72.6076792 64.2036577,72.4758367 L64.2110066,72.2651466 Z" id="Path" fill="#AF1F24"></path>
                <polygon id="Path" fill="#F8991D" points="62.2690706 24.8643596 62.3635706 24.7698596 62.3635706 24.7698596"></polygon>
                <path d="M49.894594,7.6789066 C49.6361096,7.89275678 49.5585643,8.21222809 49.7059004,8.39087123 L52.6875176,11.9728618 C52.8348537,12.1515049 52.771525,12.4527207 52.5427663,12.6457075 C52.3140077,12.8386943 52.0102885,12.849126 51.86166,12.6717868 L48.8813352,9.08979622 C48.7327067,8.91115308 48.405724,8.9398403 48.1549941,9.15369048 C47.9042643,9.36754067 47.817672,9.68701198 47.9663006,9.86435115 L50.9388708,13.4489497 C51.0874993,13.6262888 51.0228782,13.9288086 50.795412,14.1217954 C50.5679457,14.3147821 50.2616418,14.3252138 50.1143057,14.1478746 L47.1417354,10.5632761 C46.9931069,10.385937 46.6661242,10.4146242 46.4153943,10.6271704 C46.1646645,10.8397166 46.0780722,11.1604919 46.2267007,11.3378311 L49.4461236,15.2079978 C50.498155,16.4689315 51.3330595,16.1677157 52.1162671,15.5704999 L60.4006912,25.5249652 C60.8078041,26.0139519 61.503127,26.1065334 61.9515974,25.7296876 C62.4000678,25.3528419 62.4272087,24.6460931 62.0200958,24.1571064 L53.7356717,14.2013372 C54.4555507,13.5245796 54.8988514,12.7461128 53.8403579,11.4799632 L50.620935,7.6163163 C50.4723065,7.43897712 50.1466162,7.46766434 49.894594,7.68021056" id="Path" fill="#F8991D"></path>
                <path d="M34.1752021,29.7685123 L38.5787309,34.0700281 L39.5014899,34.9708284 L39.5014899,34.9708284 L42.0380725,37.44738 L43.9344827,39.2996018 L48.2750658,43.5375165 C48.4151137,43.6676146 48.4823438,43.8548819 48.4558676,44.0411339 C48.4371178,44.1774221 48.3018512,44.3773115 47.9563189,44.411059 C46.538029,44.5486452 44.0818027,43.5323245 40.4014812,39.9395075 C40.2675539,39.8097092 40.1336266,39.6734209 40.0090742,39.5501125 C39.7680051,39.2905159 39.5242575,39.0140455 39.2805099,38.7103175 C38.7938219,38.1034197 38.3580585,37.4597263 37.9773975,36.7854087 C37.9006999,36.6077718 37.8415084,36.4235032 37.8006134,36.2350638 C37.7647918,36.0737552 37.7455019,35.9094111 37.7430247,35.7444263 L32.6645024,31.2274453 C32.2145067,30.788727 32.186382,30.1033919 32.6015566,29.7036132 C33.0167311,29.3038344 33.7252064,29.334986 34.1752021,29.7737042" id="Path" fill="#F8991D"></path>
                <path d="M52.6739105,4.04630931 C51.2695969,4.50017227 49.8836574,4.961883 48.5489032,5.50076351 C47.8834948,5.77543562 47.2272734,6.05926346 46.5959885,6.37579036 C45.9704747,6.6815661 45.3639135,7.02443104 44.7795678,7.40254085 C44.2161239,7.76021453 43.6851825,8.16636145 43.1928246,8.61632996 C42.7333361,9.03679121 42.3297596,9.51415504 41.9919396,10.0367771 C41.9722529,10.0681682 41.9499414,10.0982514 41.9315672,10.1296425 L41.8777571,10.2264317 L41.7727617,10.4213181 L41.6795782,10.6162045 C41.646093,10.6798498 41.6162955,10.7453553 41.5903321,10.8123988 L41.5102731,11.0099012 C41.4813994,11.0739913 41.4656501,11.1406974 41.4420261,11.2100194 C41.4184021,11.2793414 41.3960906,11.3408157 41.3790289,11.4114456 L41.3304685,11.6154878 C41.2910952,11.746284 41.2779708,11.8875439 41.2517219,12.023572 C41.2398183,12.0919412 41.2319302,12.1609446 41.2280979,12.2302301 L41.2097237,12.4355802 C41.2097237,12.5755322 41.2031615,12.7141762 41.2097237,12.8541282 L41.2202233,13.0660181 C41.2213926,13.1365031 41.2270915,13.2068411 41.237285,13.2766 C41.3540924,14.4106034 41.8042603,15.5916935 42.4184835,16.7440084 C43.0718636,17.9301351 43.8118897,19.0667681 44.6325742,20.1447106 C45.4646629,21.2604026 46.3558115,22.3682467 47.270584,23.4656272 L50.0568998,26.8035472 C50.522817,27.368587 50.9874217,27.9375506 51.450714,28.51567 C51.9140062,29.0937894 52.3694238,29.6810645 52.8195917,30.2814193 C53.2697595,30.881774 53.7107402,31.4925925 54.1320343,32.1230303 C54.5533284,32.7534682 54.9746225,33.3996017 55.364418,34.0732023 C55.7639362,34.7540421 56.1275395,35.4551909 56.4537454,36.1737899 C56.7952734,36.9193597 57.0765905,37.6908876 57.2950212,38.4810356 C57.5277566,39.3134338 57.6599363,40.1705472 57.688754,41.0341782 C57.7150375,41.9363494 57.5953863,42.8368529 57.3343945,43.7011136 C57.0713107,44.5607805 56.6605486,45.3684364 56.120385,46.088145 C55.8582309,46.4344177 55.5718421,46.7617883 55.2633599,47.0678088 C54.9623635,47.3614994 54.6437269,47.6366793 54.3092141,47.8918251 C52.983647,48.8898004 51.5347103,49.5359339 50.0844611,50.01988 C49.3564929,50.2553132 48.6250249,50.4554314 47.890057,50.6202347 L47.338831,50.7366434 L46.7862927,50.8399724 C46.6025507,50.8752874 46.4188087,50.9066785 46.2337543,50.9341457 C46.0486999,50.9616129 45.8662704,50.993004 45.6812159,51.0178553 C44.212405,51.225692 42.7312876,51.3353697 41.2477846,51.3461538 C42.6534107,50.8962148 44.0432875,50.4449677 45.3990408,49.9414022 C46.7375802,49.4519161 48.0423431,48.8751663 49.3048702,48.2148918 C50.5372538,47.5609106 51.6764541,46.7918287 52.5767898,45.8997984 C52.7943202,45.6799174 52.999797,45.4485082 53.1923254,45.2065783 C53.373559,44.9731361 53.538442,44.7275298 53.6858038,44.4715034 C53.9681256,43.9849886 54.1656049,43.454278 54.2698408,42.9019485 C54.4732694,41.8254955 54.3131514,40.6784125 53.8984195,39.5182498 C53.4836877,38.3580871 52.8392783,37.1926926 52.1056228,36.0547653 C51.3719674,34.916838 50.5306916,33.7972222 49.6592297,32.6854542 C49.2248112,32.1295702 48.7759558,31.5749941 48.3218506,31.021726 C47.8677454,30.4684579 47.4110154,29.909958 46.9490356,29.352766 L45.5604712,27.6668024 C45.0998038,27.0978388 44.6351991,26.5288751 44.1771566,25.9468319 C43.2584468,24.7853612 42.3594235,23.5924995 41.5115856,22.3276999 C41.0854792,21.698134 40.6786219,21.0441528 40.2910139,20.3657563 C39.8961726,19.6822625 39.5378145,18.9784712 39.2174358,18.2573209 C38.8840904,17.5085416 38.6128211,16.7338197 38.4063462,15.9409194 C38.1877473,15.1042374 38.0769231,14.2432 38.0769231,13.3786211 C38.0769231,13.2687522 38.0769231,13.1562675 38.0874226,13.0450907 L38.1071093,12.7102523 C38.1136715,12.6003835 38.1333581,12.4878987 38.1464825,12.3767219 C38.159607,12.2655451 38.1753563,12.1530603 38.1950429,12.0431915 L38.2646024,11.710969 C38.2882263,11.6011002 38.3092254,11.4899234 38.3433489,11.3813625 C38.4089711,11.1655487 38.4627812,10.945811 38.5494024,10.737845 C38.8576454,9.90605885 39.3103399,9.13481075 39.8867815,8.45937447 L40.0993972,8.22394124 C40.1715816,8.14415553 40.2477033,8.06960168 40.3212001,7.99373986 C40.4695061,7.83940029 40.6269992,7.69944832 40.7831799,7.55949634 C40.860614,7.48755841 40.9419854,7.4287001 41.0220444,7.35807013 L41.2648463,7.16187577 L41.5142104,6.98006899 C41.5968943,6.92121068 41.6795782,6.85973645 41.764887,6.80610999 C42.4285376,6.36556348 43.1314729,5.98683637 43.8647953,5.67472251 C45.271746,5.09214152 46.7419455,4.67470987 48.2457289,4.43085026 C49.7089472,4.18272802 51.1897194,4.05151427 52.6739105,4.03846154" id="Path" fill="#F8991D"></path>
            </g>
        </g>
    </g>
</svg>