<svg enable-background="new 0 0 36 36" height="512" viewBox="0 0 36 36" width="512" xmlns="http://www.w3.org/2000/svg"><path d="m11.532 34.802c6.645-1.919 12.203.206 15.405-.719s9.396-4.708 5.142-19.44-13.924-14.28-17.447-13.263c-16.493 4.763-14.869 36.821-3.1 33.422z" fill="#efefef"/><g fill="#a4afc1"><path d="m5.75 6.122c-.827 0-1.5-.673-1.5-1.5s.673-1.5 1.5-1.5 1.5.673 1.5 1.5-.673 1.5-1.5 1.5zm0-2c-.275 0-.5.224-.5.5s.225.5.5.5.5-.224.5-.5-.225-.5-.5-.5z"/><path d="m27.556 2.967h1v2h-1z" transform="matrix(.707 -.707 .707 .707 5.409 20.996)"/><path d="m31.621 7.033h1v2h-1z" transform="matrix(.707 -.707 .707 .707 3.725 25.061)"/><path d="m30.944 3.467h2v1h-2z" transform="matrix(.707 -.707 .707 .707 6.551 23.75)"/></g><path d="m27.25 10.22v8.03c0 1.1-.9 2-2 2h-17c-.83 0-1.5-.67-1.5-1.5v-8.53l9.41 4.66c.52.26 1.16.26 1.68 0z" fill="#f3f3f1"/><path d="m27.25 9.25v.97l-9.41 4.66c-.52.26-1.16.26-1.68 0l-9.41-4.66v-.97c0-.83.67-1.5 1.5-1.5h17.5c.83 0 1.5.67 1.5 1.5z" fill="#2fdf84"/><path d="m9 18.75v-7.416l-2.25-1.114v8.53c0 .83.67 1.5 1.5 1.5h2.25c-.83 0-1.5-.67-1.5-1.5z" fill="#d5dbe1"/><path d="m9 9.731v-.481c0-.83.67-1.5 1.5-1.5h-2.25c-.83 0-1.5.67-1.5 1.5v.97l9.41 4.66c.52.26 1.16.26 1.68 0l.285-.63z" fill="#00b871"/><circle cx="23.5" cy="23.5" fill="#2fdf84" r="5.75"/><path d="m20 23.5c0-2.79 1.988-5.115 4.625-5.638-.364-.072-.74-.112-1.125-.112-3.176 0-5.75 2.574-5.75 5.75s2.574 5.75 5.75 5.75c.385 0 .761-.039 1.125-.112-2.637-.523-4.625-2.848-4.625-5.638z" fill="#00b871"/><path d="m26.25 24.25h-2.75c-.414 0-.75-.336-.75-.75v-2.75h1.5v2h2z"/><path d="m23.5 30c-3.584 0-6.5-2.916-6.5-6.5s2.916-6.5 6.5-6.5 6.5 2.916 6.5 6.5-2.916 6.5-6.5 6.5zm0-11.5c-2.757 0-5 2.243-5 5s2.243 5 5 5 5-2.243 5-5-2.243-5-5-5z"/><path d="m15.25 21h-7c-1.24 0-2.25-1.009-2.25-2.25v-9.5c0-1.241 1.01-2.25 2.25-2.25h17.5c1.24 0 2.25 1.009 2.25 2.25v6h-1.5v-6c0-.414-.337-.75-.75-.75h-17.5c-.413 0-.75.336-.75.75v9.5c0 .414.337.75.75.75h7z"/><path d="m17.001 15.827c-.404 0-.809-.092-1.177-.277l-9.407-4.658.666-1.344 9.41 4.66c.311.155.706.155 1.011.001l9.413-4.661.666 1.344-9.41 4.66c-.366.183-.769.275-1.172.275z"/></svg>