<?xml version="1.0" encoding="UTF-8"?>
<svg width="54px" height="80px" viewBox="0 0 54 80" version="1.1" xmlns="http://www.w3.org/2000/svg" xmlns:xlink="http://www.w3.org/1999/xlink">
    <title>custom-menu</title>
    <g id="Website-Pages" stroke="none" stroke-width="1" fill="none" fill-rule="evenodd">
        <g id="Group" fill-rule="nonzero">
            <g id="menu">
                <path d="M40.7205791,9.85185142 L40.7205791,4.34600468 C40.7205791,1.85953363 38.325168,0.0751010637 35.9427433,0.786996564 L0.735677504,9.73137679 L0.735677504,9.85185142 L40.7205791,9.85185142 Z" id="Path" fill="#505050"></path>
                <g id="Group" transform="translate(44.434796, 10.795778)" fill="#000000">
                    <path d="M6.24058548,0.49253781 C6.24058548,0.761493494 6.45869148,0.979755961 6.72764717,0.979755961 C6.97782758,0.979755961 7.18169568,0.790438696 7.20923274,0.547455463 C7.04854775,0.353600842 6.87096503,0.174297052 6.68008316,0.0103263963 C6.43381425,0.0344213209 6.24058548,0.239854022 6.24058548,0.49253781 L6.24058548,0.49253781 Z" id="Path"></path>
                    <path d="M5.09842346,1.63485628 C4.82931132,1.63485628 4.61136177,1.85296229 4.61136177,2.12191797 C4.61136177,2.39103012 4.82946778,2.60913612 5.09842346,2.60913612 C5.36753561,2.60913612 5.58548515,2.39103012 5.58548515,2.12191797 C5.58548515,1.85280583 5.36737915,1.63485628 5.09842346,1.63485628 Z" id="Path"></path>
                    <path d="M6.72780363,3.14595227 C6.45884794,3.14595227 6.24074194,3.36405827 6.24074194,3.63317042 C6.24074194,3.9021261 6.45884794,4.12038857 6.72780363,4.12038857 C6.99691577,4.12038857 7.21486532,3.9021261 7.21486532,3.63317042 C7.21486532,3.36390181 6.99675931,3.14595227 6.72780363,3.14595227 Z" id="Path"></path>
                    <path d="M5.09842346,4.77533243 C4.82931132,4.77533243 4.61136177,4.99343844 4.61136177,5.26239412 C4.61136177,5.53150627 4.82946778,5.74961227 5.09842346,5.74961227 C5.36753561,5.74961227 5.58548515,5.53150627 5.58548515,5.26239412 C5.58548515,4.99343844 5.36737915,4.77533243 5.09842346,4.77533243 Z" id="Path"></path>
                    <path d="M6.72780363,6.28642842 C6.45884794,6.28642842 6.24074194,6.50453442 6.24074194,6.77364657 C6.24074194,7.04260225 6.45884794,7.26086472 6.72780363,7.26086472 C6.99691577,7.26086472 7.21486532,7.04260225 7.21486532,6.77364657 C7.21486532,6.50453442 6.99675931,6.28642842 6.72780363,6.28642842 Z" id="Path"></path>
                    <path d="M5.09842346,7.91580858 C4.82931132,7.91580858 4.61136177,8.13391458 4.61136177,8.40287027 C4.61136177,8.67198241 4.82946778,8.89008842 5.09842346,8.89008842 C5.36753561,8.89008842 5.58548515,8.67198241 5.58548515,8.40287027 C5.58548515,8.13391458 5.36737915,7.91580858 5.09842346,7.91580858 Z" id="Path"></path>
                    <circle id="Oval" transform="translate(6.728432, 9.925857) rotate(-0.630228) translate(-6.728432, -9.925857) " cx="6.72843182" cy="9.92585726" r="1"></circle>
                    <path d="M5.09842346,11.0564412 C4.82931132,11.0564412 4.61136177,11.2745472 4.61136177,11.5435029 C4.61136177,11.812615 4.82946778,12.030721 5.09842346,12.030721 C5.36753561,12.030721 5.58548515,11.812615 5.58548515,11.5435029 C5.58548515,11.2743907 5.36737915,11.0564412 5.09842346,11.0564412 Z" id="Path"></path>
                    <path d="M6.72780363,12.5675372 C6.45884794,12.5675372 6.24074194,12.7856432 6.24074194,13.0547553 C6.24074194,13.323711 6.45884794,13.5419735 6.72780363,13.5419735 C6.99691577,13.5419735 7.21486532,13.323711 7.21486532,13.0547553 C7.21486532,12.7854867 6.99675931,12.5675372 6.72780363,12.5675372 Z" id="Path"></path>
                    <path d="M5.09842346,14.1969173 C4.82931132,14.1969173 4.61136177,14.4150233 4.61136177,14.683979 C4.61136177,14.9530912 4.82946778,15.1711972 5.09842346,15.1711972 C5.36753561,15.1711972 5.58548515,14.9530912 5.58548515,14.683979 C5.58548515,14.4150233 5.36737915,14.1969173 5.09842346,14.1969173 Z" id="Path"></path>
                    <path d="M6.72780363,15.7080133 C6.45884794,15.7080133 6.24074194,15.9261193 6.24074194,16.1952315 C6.24074194,16.4641872 6.45884794,16.6824496 6.72780363,16.6824496 C6.99691577,16.6824496 7.21486532,16.4641872 7.21486532,16.1952315 C7.21486532,15.9261193 6.99675931,15.7080133 6.72780363,15.7080133 Z" id="Path"></path>
                    <path d="M5.09842346,17.3373935 C4.82931132,17.3373935 4.61136177,17.5554995 4.61136177,17.8244552 C4.61136177,18.0935673 4.82946778,18.3116733 5.09842346,18.3116733 C5.36753561,18.3116733 5.58548515,18.0935673 5.58548515,17.8244552 C5.58548515,17.5554995 5.36737915,17.3373935 5.09842346,17.3373935 Z" id="Path"></path>
                    <path d="M6.72780363,18.8484895 C6.45884794,18.8484895 6.24074194,19.0665955 6.24074194,19.3357076 C6.24074194,19.6046633 6.45884794,19.8229258 6.72780363,19.8229258 C6.99691577,19.8229258 7.21486532,19.6046633 7.21486532,19.3357076 C7.21486532,19.0665955 6.99675931,18.8484895 6.72780363,18.8484895 Z" id="Path"></path>
                    <path d="M5.09842346,20.4780261 C4.82931132,20.4780261 4.61136177,20.6961321 4.61136177,20.9650878 C4.61136177,21.2341999 4.82946778,21.4523059 5.09842346,21.4523059 C5.36753561,21.4523059 5.58548515,21.2341999 5.58548515,20.9650878 C5.58548515,20.6959756 5.36737915,20.4780261 5.09842346,20.4780261 Z" id="Path"></path>
                    <path d="M6.72780363,21.9891221 C6.45884794,21.9891221 6.24074194,22.2072281 6.24074194,22.4763402 C6.24074194,22.7452959 6.45884794,22.9635584 6.72780363,22.9635584 C6.99691577,22.9635584 7.21486532,22.7452959 7.21486532,22.4763402 C7.21486532,22.2070716 6.99675931,21.9891221 6.72780363,21.9891221 Z" id="Path"></path>
                    <path d="M5.09842346,23.6185022 C4.82931132,23.6185022 4.61136177,23.8366082 4.61136177,24.1055639 C4.61136177,24.3746761 4.82946778,24.5927821 5.09842346,24.5927821 C5.36753561,24.5927821 5.58548515,24.3746761 5.58548515,24.1055639 C5.58548515,23.8366082 5.36737915,23.6185022 5.09842346,23.6185022 Z" id="Path"></path>
                    <circle id="Oval" transform="translate(6.725926, 25.629490) rotate(-0.630228) translate(-6.725926, -25.629490) " cx="6.72592563" cy="25.6294897" r="1"></circle>
                    <path d="M5.09842346,26.7589784 C4.82931132,26.7589784 4.61136177,26.9770844 4.61136177,27.2460401 C4.61136177,27.5151522 4.82946778,27.7332582 5.09842346,27.7332582 C5.36753561,27.7332582 5.58548515,27.5151522 5.58548515,27.2460401 C5.58548515,26.9770844 5.36737915,26.7589784 5.09842346,26.7589784 Z" id="Path"></path>
                    <path d="M6.72780363,28.2700744 C6.45884794,28.2700744 6.24074194,28.4881804 6.24074194,28.7572925 C6.24074194,29.0262482 6.45884794,29.2445107 6.72780363,29.2445107 C6.99691577,29.2445107 7.21486532,29.0262482 7.21486532,28.7572925 C7.21486532,28.4881804 6.99675931,28.2700744 6.72780363,28.2700744 Z" id="Path"></path>
                    <path d="M5.09842346,29.899611 C4.82931132,29.899611 4.61136177,30.117717 4.61136177,30.3866727 C4.61136177,30.6557848 4.82946778,30.8738908 5.09842346,30.8738908 C5.36753561,30.8738908 5.58548515,30.6557848 5.58548515,30.3866727 C5.58548515,30.1175605 5.36737915,29.899611 5.09842346,29.899611 Z" id="Path"></path>
                    <path d="M6.72780363,31.410707 C6.45884794,31.410707 6.24074194,31.628813 6.24074194,31.8979251 C6.24074194,32.1668808 6.45884794,32.3851433 6.72780363,32.3851433 C6.99691577,32.3851433 7.21486532,32.1668808 7.21486532,31.8979251 C7.21486532,31.6286565 6.99675931,31.410707 6.72780363,31.410707 Z" id="Path"></path>
                    <path d="M5.09842346,33.0400871 C4.82931132,33.0400871 4.61136177,33.2581932 4.61136177,33.5271488 C4.61136177,33.796261 4.82946778,34.014367 5.09842346,34.014367 C5.36753561,34.014367 5.58548515,33.796261 5.58548515,33.5271488 C5.58548515,33.2581932 5.36737915,33.0400871 5.09842346,33.0400871 Z" id="Path"></path>
                    <path d="M6.72780363,34.5511831 C6.45884794,34.5511831 6.24074194,34.7692891 6.24074194,35.0384013 C6.24074194,35.307357 6.45884794,35.5256194 6.72780363,35.5256194 C6.99691577,35.5256194 7.21486532,35.307357 7.21486532,35.0384013 C7.21486532,34.7692891 6.99675931,34.5511831 6.72780363,34.5511831 Z" id="Path"></path>
                    <path d="M5.09842346,36.1805633 C4.82931132,36.1805633 4.61136177,36.3986693 4.61136177,36.667625 C4.61136177,36.9367371 4.82946778,37.1548431 5.09842346,37.1548431 C5.36753561,37.1548431 5.58548515,36.9367371 5.58548515,36.667625 C5.58548515,36.3986693 5.36737915,36.1805633 5.09842346,36.1805633 Z" id="Path"></path>
                    <path d="M6.72780363,37.6916593 C6.45884794,37.6916593 6.24074194,37.9097653 6.24074194,38.1788774 C6.24074194,38.4478331 6.45884794,38.6660956 6.72780363,38.6660956 C6.99691577,38.6660956 7.21486532,38.4478331 7.21486532,38.1788774 C7.21486532,37.9097653 6.99675931,37.6916593 6.72780363,37.6916593 Z" id="Path"></path>
                    <path d="M5.09842346,39.3211959 C4.82931132,39.3211959 4.61136177,39.5393019 4.61136177,39.8082576 C4.61136177,40.0773697 4.82946778,40.2954757 5.09842346,40.2954757 C5.36753561,40.2954757 5.58548515,40.0773697 5.58548515,39.8082576 C5.58548515,39.5391455 5.36737915,39.3211959 5.09842346,39.3211959 Z" id="Path"></path>
                    <circle id="Oval" transform="translate(6.723418, 41.332966) rotate(-0.630228) translate(-6.723418, -41.332966) " cx="6.72341772" cy="41.3329657" r="1"></circle>
                    <path d="M5.09842346,42.4616721 C4.82931132,42.4616721 4.61136177,42.6797781 4.61136177,42.9487337 C4.61136177,43.2178459 4.82946778,43.4359519 5.09842346,43.4359519 C5.36753561,43.4359519 5.58548515,43.2178459 5.58548515,42.9487337 C5.58548515,42.6797781 5.36737915,42.4616721 5.09842346,42.4616721 Z" id="Path"></path>
                    <path d="M6.72780363,43.972768 C6.45884794,43.972768 6.24074194,44.190874 6.24074194,44.4599862 C6.24074194,44.7289419 6.45884794,44.9472043 6.72780363,44.9472043 C6.99691577,44.9472043 7.21486532,44.7289419 7.21486532,44.4599862 C7.21486532,44.190874 6.99675931,43.972768 6.72780363,43.972768 Z" id="Path"></path>
                    <path d="M5.09842346,45.6021482 C4.82931132,45.6021482 4.61136177,45.8202542 4.61136177,46.0892099 C4.61136177,46.358322 4.82946778,46.576428 5.09842346,46.576428 C5.36753561,46.576428 5.58548515,46.358322 5.58548515,46.0892099 C5.58548515,45.8202542 5.36737915,45.6021482 5.09842346,45.6021482 Z" id="Path"></path>
                    <circle id="Oval" transform="translate(6.722416, 47.614544) rotate(-0.630228) translate(-6.722416, -47.614544) " cx="6.72241559" cy="47.6145438" r="1"></circle>
                    <path d="M5.09842346,48.7427808 C4.82931132,48.7427808 4.61136177,48.9608868 4.61136177,49.2298425 C4.61136177,49.4989546 4.82946778,49.7170607 5.09842346,49.7170607 C5.36753561,49.7170607 5.58548515,49.4989546 5.58548515,49.2298425 C5.58548515,48.9607304 5.36737915,48.7427808 5.09842346,48.7427808 Z" id="Path"></path>
                    <path d="M6.72780363,50.2538768 C6.45884794,50.2538768 6.24074194,50.4719828 6.24074194,50.741095 C6.24074194,51.0100506 6.45884794,51.2283131 6.72780363,51.2283131 C6.99691577,51.2283131 7.21486532,51.0100506 7.21486532,50.741095 C7.21486532,50.4718263 6.99675931,50.2538768 6.72780363,50.2538768 Z" id="Path"></path>
                    <path d="M5.09842346,51.883257 C4.82931132,51.883257 4.61136177,52.101363 4.61136177,52.3703187 C4.61136177,52.6394308 4.82946778,52.8575368 5.09842346,52.8575368 C5.36753561,52.8575368 5.58548515,52.6394308 5.58548515,52.3703187 C5.58548515,52.101363 5.36737915,51.883257 5.09842346,51.883257 Z" id="Path"></path>
                    <path d="M6.72780363,53.3943529 C6.45884794,53.3943529 6.24074194,53.612459 6.24074194,53.8815711 C6.24074194,54.1505268 6.45884794,54.3687892 6.72780363,54.3687892 C6.99691577,54.3687892 7.21486532,54.1505268 7.21486532,53.8815711 C7.21486532,53.612459 6.99675931,53.3943529 6.72780363,53.3943529 Z" id="Path"></path>
                    <path d="M5.09842346,55.0237331 C4.82931132,55.0237331 4.61136177,55.2418391 4.61136177,55.5107948 C4.61136177,55.7799069 4.82946778,55.998013 5.09842346,55.998013 C5.36753561,55.998013 5.58548515,55.7799069 5.58548515,55.5107948 C5.58548515,55.2418391 5.36737915,55.0237331 5.09842346,55.0237331 Z" id="Path"></path>
                    <path d="M6.72780363,56.5348291 C6.45884794,56.5348291 6.24074194,56.7529351 6.24074194,57.0220472 C6.24074194,57.2910029 6.45884794,57.5092654 6.72780363,57.5092654 C6.99691577,57.5092654 7.21486532,57.2910029 7.21486532,57.0220472 C7.21486532,56.7529351 6.99675931,56.5348291 6.72780363,56.5348291 Z" id="Path"></path>
                    <path d="M5.09842346,58.1643657 C4.82931132,58.1643657 4.61136177,58.3824717 4.61136177,58.6514274 C4.61136177,58.9205396 4.82946778,59.1386456 5.09842346,59.1386456 C5.36753561,59.1386456 5.58548515,58.9205396 5.58548515,58.6514274 C5.58548515,58.3823153 5.36737915,58.1643657 5.09842346,58.1643657 Z" id="Path"></path>
                    <path d="M6.72780363,59.6754617 C6.45884794,59.6754617 6.24074194,59.8935677 6.24074194,60.1626799 C6.24074194,60.4316355 6.45884794,60.649898 6.72780363,60.649898 C6.99691577,60.649898 7.21486532,60.4316355 7.21486532,60.1626799 C7.21486532,59.8934113 6.99675931,59.6754617 6.72780363,59.6754617 Z" id="Path"></path>
                    <path d="M5.09842346,61.3048419 C4.82931132,61.3048419 4.61136177,61.5229479 4.61136177,61.7919036 C4.61136177,62.0610157 4.82946778,62.2791217 5.09842346,62.2791217 C5.36753561,62.2791217 5.58548515,62.0610157 5.58548515,61.7919036 C5.58548515,61.5229479 5.36737915,61.3048419 5.09842346,61.3048419 Z" id="Path"></path>
                    <circle id="Oval" transform="translate(6.719909, 63.318176) rotate(-0.630228) translate(-6.719909, -63.318176) " cx="6.71990941" cy="63.3181762" r="1"></circle>
                    <path d="M5.09842346,64.445318 C4.82931132,64.445318 4.61136177,64.663424 4.61136177,64.9323797 C4.61136177,65.2014919 4.82946778,65.4195979 5.09842346,65.4195979 C5.36753561,65.4195979 5.58548515,65.2014919 5.58548515,64.9323797 C5.58548515,64.663424 5.36737915,64.445318 5.09842346,64.445318 Z" id="Path"></path>
                    <path d="M7.21486532,66.4436322 C7.21486532,66.17452 6.99675931,65.956414 6.72780363,65.956414 C6.45884794,65.956414 6.24074194,66.17452 6.24074194,66.4436322 C6.24074194,66.7125878 6.45884794,66.9308503 6.72780363,66.9308503 C6.99675931,66.9308503 7.21486532,66.7125878 7.21486532,66.4436322 Z" id="Path"></path>
                    <path d="M5.58548515,68.0730123 C5.58548515,67.8040566 5.36737915,67.5859506 5.09842346,67.5859506 C4.82931132,67.5859506 4.61136177,67.8040566 4.61136177,68.0730123 C4.61136177,68.2302552 4.68693222,68.3684098 4.8024001,68.4574359 C5.06666197,68.395321 5.32200559,68.3102065 5.56577113,68.203344 C5.57734921,68.161569 5.58548515,68.1185423 5.58548515,68.0730123 L5.58548515,68.0730123 Z" id="Path"></path>
                    <path d="M3.58717102,0.00531965868 C3.31821533,0.00531965868 3.10010933,0.223425665 3.10010933,0.49253781 C3.10010933,0.761493494 3.31821533,0.979755961 3.58717102,0.979755961 C3.85628316,0.979755961 4.07438917,0.761493494 4.07438917,0.49253781 C4.07438917,0.223425665 3.85628316,0.00531965868 3.58717102,0.00531965868 Z" id="Path"></path>
                    <path d="M1.95779086,1.63485628 C1.68883517,1.63485628 1.47072916,1.85296229 1.47072916,2.12191797 C1.47072916,2.39103012 1.68883517,2.60913612 1.95779086,2.60913612 C2.226903,2.60913612 2.44500901,2.39103012 2.44500901,2.12191797 C2.44500901,1.85280583 2.226903,1.63485628 1.95779086,1.63485628 Z" id="Path"></path>
                    <path d="M3.58717102,3.14595227 C3.31821533,3.14595227 3.10010933,3.36405827 3.10010933,3.63317042 C3.10010933,3.9021261 3.31821533,4.12038857 3.58717102,4.12038857 C3.85628316,4.12038857 4.07438917,3.9021261 4.07438917,3.63317042 C4.07438917,3.36390181 3.85628316,3.14595227 3.58717102,3.14595227 Z" id="Path"></path>
                    <path d="M1.95779086,4.77533243 C1.68883517,4.77533243 1.47072916,4.99343844 1.47072916,5.26239412 C1.47072916,5.53150627 1.68883517,5.74961227 1.95779086,5.74961227 C2.226903,5.74961227 2.44500901,5.53150627 2.44500901,5.26239412 C2.44500901,4.99343844 2.226903,4.77533243 1.95779086,4.77533243 Z" id="Path"></path>
                    <path d="M3.58717102,6.28642842 C3.31821533,6.28642842 3.10010933,6.50453442 3.10010933,6.77364657 C3.10010933,7.04260225 3.31821533,7.26086472 3.58717102,7.26086472 C3.85628316,7.26086472 4.07438917,7.04260225 4.07438917,6.77364657 C4.07438917,6.50453442 3.85628316,6.28642842 3.58717102,6.28642842 Z" id="Path"></path>
                    <path d="M1.95779086,7.91580858 C1.68883517,7.91580858 1.47072916,8.13391458 1.47072916,8.40287027 C1.47072916,8.67198241 1.68883517,8.89008842 1.95779086,8.89008842 C2.226903,8.89008842 2.44500901,8.67198241 2.44500901,8.40287027 C2.44500901,8.13391458 2.226903,7.91580858 1.95779086,7.91580858 Z" id="Path"></path>
                    <circle id="Oval" cx="3.58717102" cy="9.91412272" r="1"></circle>
                    <path d="M1.95779086,11.0564412 C1.68883517,11.0564412 1.47072916,11.2745472 1.47072916,11.5435029 C1.47072916,11.812615 1.68883517,12.030721 1.95779086,12.030721 C2.226903,12.030721 2.44500901,11.812615 2.44500901,11.5435029 C2.44500901,11.2743907 2.226903,11.0564412 1.95779086,11.0564412 Z" id="Path"></path>
                    <path d="M3.58717102,12.5675372 C3.31821533,12.5675372 3.10010933,12.7856432 3.10010933,13.0547553 C3.10010933,13.323711 3.31821533,13.5419735 3.58717102,13.5419735 C3.85628316,13.5419735 4.07438917,13.323711 4.07438917,13.0547553 C4.07438917,12.7854867 3.85628316,12.5675372 3.58717102,12.5675372 Z" id="Path"></path>
                    <path d="M1.95779086,14.1969173 C1.68883517,14.1969173 1.47072916,14.4150233 1.47072916,14.683979 C1.47072916,14.9530912 1.68883517,15.1711972 1.95779086,15.1711972 C2.226903,15.1711972 2.44500901,14.9530912 2.44500901,14.683979 C2.44500901,14.4150233 2.226903,14.1969173 1.95779086,14.1969173 Z" id="Path"></path>
                    <path d="M3.58717102,15.7080133 C3.31821533,15.7080133 3.10010933,15.9261193 3.10010933,16.1952315 C3.10010933,16.4641872 3.31821533,16.6824496 3.58717102,16.6824496 C3.85628316,16.6824496 4.07438917,16.4641872 4.07438917,16.1952315 C4.07438917,15.9261193 3.85628316,15.7080133 3.58717102,15.7080133 Z" id="Path"></path>
                    <path d="M1.95779086,17.3373935 C1.68883517,17.3373935 1.47072916,17.5554995 1.47072916,17.8244552 C1.47072916,18.0935673 1.68883517,18.3116733 1.95779086,18.3116733 C2.226903,18.3116733 2.44500901,18.0935673 2.44500901,17.8244552 C2.44500901,17.5554995 2.226903,17.3373935 1.95779086,17.3373935 Z" id="Path"></path>
                    <path d="M3.58717102,18.8484895 C3.31821533,18.8484895 3.10010933,19.0665955 3.10010933,19.3357076 C3.10010933,19.6046633 3.31821533,19.8229258 3.58717102,19.8229258 C3.85628316,19.8229258 4.07438917,19.6046633 4.07438917,19.3357076 C4.07438917,19.0665955 3.85628316,18.8484895 3.58717102,18.8484895 Z" id="Path"></path>
                    <path d="M1.95779086,20.4780261 C1.68883517,20.4780261 1.47072916,20.6961321 1.47072916,20.9650878 C1.47072916,21.2341999 1.68883517,21.4523059 1.95779086,21.4523059 C2.226903,21.4523059 2.44500901,21.2341999 2.44500901,20.9650878 C2.44500901,20.6959756 2.226903,20.4780261 1.95779086,20.4780261 Z" id="Path"></path>
                    <path d="M3.58717102,21.9891221 C3.31821533,21.9891221 3.10010933,22.2072281 3.10010933,22.4763402 C3.10010933,22.7452959 3.31821533,22.9635584 3.58717102,22.9635584 C3.85628316,22.9635584 4.07438917,22.7452959 4.07438917,22.4763402 C4.07438917,22.2070716 3.85628316,21.9891221 3.58717102,21.9891221 Z" id="Path"></path>
                    <path d="M1.95779086,23.6185022 C1.68883517,23.6185022 1.47072916,23.8366082 1.47072916,24.1055639 C1.47072916,24.3746761 1.68883517,24.5927821 1.95779086,24.5927821 C2.226903,24.5927821 2.44500901,24.3746761 2.44500901,24.1055639 C2.44500901,23.8366082 2.226903,23.6185022 1.95779086,23.6185022 Z" id="Path"></path>
                    <circle id="Oval" cx="3.58717102" cy="25.6168164" r="1"></circle>
                    <path d="M1.95779086,26.7589784 C1.68883517,26.7589784 1.47072916,26.9770844 1.47072916,27.2460401 C1.47072916,27.5151522 1.68883517,27.7332582 1.95779086,27.7332582 C2.226903,27.7332582 2.44500901,27.5151522 2.44500901,27.2460401 C2.44500901,26.9770844 2.226903,26.7589784 1.95779086,26.7589784 Z" id="Path"></path>
                    <path d="M3.58717102,28.2700744 C3.31821533,28.2700744 3.10010933,28.4881804 3.10010933,28.7572925 C3.10010933,29.0262482 3.31821533,29.2445107 3.58717102,29.2445107 C3.85628316,29.2445107 4.07438917,29.0262482 4.07438917,28.7572925 C4.07438917,28.4881804 3.85628316,28.2700744 3.58717102,28.2700744 Z" id="Path"></path>
                    <path d="M1.95779086,29.899611 C1.68883517,29.899611 1.47072916,30.117717 1.47072916,30.3866727 C1.47072916,30.6557848 1.68883517,30.8738908 1.95779086,30.8738908 C2.226903,30.8738908 2.44500901,30.6557848 2.44500901,30.3866727 C2.44500901,30.1175605 2.226903,29.899611 1.95779086,29.899611 Z" id="Path"></path>
                    <path d="M3.58717102,31.410707 C3.31821533,31.410707 3.10010933,31.628813 3.10010933,31.8979251 C3.10010933,32.1668808 3.31821533,32.3851433 3.58717102,32.3851433 C3.85628316,32.3851433 4.07438917,32.1668808 4.07438917,31.8979251 C4.07438917,31.6286565 3.85628316,31.410707 3.58717102,31.410707 Z" id="Path"></path>
                    <path d="M1.95779086,33.0400871 C1.68883517,33.0400871 1.47072916,33.2581932 1.47072916,33.5271488 C1.47072916,33.796261 1.68883517,34.014367 1.95779086,34.014367 C2.226903,34.014367 2.44500901,33.796261 2.44500901,33.5271488 C2.44500901,33.2581932 2.226903,33.0400871 1.95779086,33.0400871 Z" id="Path"></path>
                    <path d="M3.58717102,34.5511831 C3.31821533,34.5511831 3.10010933,34.7692891 3.10010933,35.0384013 C3.10010933,35.307357 3.31821533,35.5256194 3.58717102,35.5256194 C3.85628316,35.5256194 4.07438917,35.307357 4.07438917,35.0384013 C4.07438917,34.7692891 3.85628316,34.5511831 3.58717102,34.5511831 Z" id="Path"></path>
                    <path d="M1.95779086,36.1805633 C1.68883517,36.1805633 1.47072916,36.3986693 1.47072916,36.667625 C1.47072916,36.9367371 1.68883517,37.1548431 1.95779086,37.1548431 C2.226903,37.1548431 2.44500901,36.9367371 2.44500901,36.667625 C2.44500901,36.3986693 2.226903,36.1805633 1.95779086,36.1805633 Z" id="Path"></path>
                    <path d="M3.58717102,37.6916593 C3.31821533,37.6916593 3.10010933,37.9097653 3.10010933,38.1788774 C3.10010933,38.4478331 3.31821533,38.6660956 3.58717102,38.6660956 C3.85628316,38.6660956 4.07438917,38.4478331 4.07438917,38.1788774 C4.07438917,37.9097653 3.85628316,37.6916593 3.58717102,37.6916593 Z" id="Path"></path>
                    <path d="M1.95779086,39.3211959 C1.68883517,39.3211959 1.47072916,39.5393019 1.47072916,39.8082576 C1.47072916,40.0773697 1.68883517,40.2954757 1.95779086,40.2954757 C2.226903,40.2954757 2.44500901,40.0773697 2.44500901,39.8082576 C2.44500901,39.5391455 2.226903,39.3211959 1.95779086,39.3211959 Z" id="Path"></path>
                    <circle id="Oval" cx="3.58717102" cy="41.3193536" r="1"></circle>
                    <path d="M1.95779086,42.4616721 C1.68883517,42.4616721 1.47072916,42.6797781 1.47072916,42.9487337 C1.47072916,43.2178459 1.68883517,43.4359519 1.95779086,43.4359519 C2.226903,43.4359519 2.44500901,43.2178459 2.44500901,42.9487337 C2.44500901,42.6797781 2.226903,42.4616721 1.95779086,42.4616721 Z" id="Path"></path>
                    <path d="M3.58717102,43.972768 C3.31821533,43.972768 3.10010933,44.190874 3.10010933,44.4599862 C3.10010933,44.7289419 3.31821533,44.9472043 3.58717102,44.9472043 C3.85628316,44.9472043 4.07438917,44.7289419 4.07438917,44.4599862 C4.07438917,44.190874 3.85628316,43.972768 3.58717102,43.972768 Z" id="Path"></path>
                    <path d="M1.95779086,45.6021482 C1.68883517,45.6021482 1.47072916,45.8202542 1.47072916,46.0892099 C1.47072916,46.358322 1.68883517,46.576428 1.95779086,46.576428 C2.226903,46.576428 2.44500901,46.358322 2.44500901,46.0892099 C2.44500901,45.8202542 2.226903,45.6021482 1.95779086,45.6021482 Z" id="Path"></path>
                    <circle id="Oval" cx="3.58717102" cy="47.6004623" r="1"></circle>
                    <path d="M1.95779086,48.7427808 C1.68883517,48.7427808 1.47072916,48.9608868 1.47072916,49.2298425 C1.47072916,49.4989546 1.68883517,49.7170607 1.95779086,49.7170607 C2.226903,49.7170607 2.44500901,49.4989546 2.44500901,49.2298425 C2.44500901,48.9607304 2.226903,48.7427808 1.95779086,48.7427808 Z" id="Path"></path>
                    <path d="M3.58717102,50.2538768 C3.31821533,50.2538768 3.10010933,50.4719828 3.10010933,50.741095 C3.10010933,51.0100506 3.31821533,51.2283131 3.58717102,51.2283131 C3.85628316,51.2283131 4.07438917,51.0100506 4.07438917,50.741095 C4.07438917,50.4718263 3.85628316,50.2538768 3.58717102,50.2538768 Z" id="Path"></path>
                    <path d="M1.95779086,51.883257 C1.68883517,51.883257 1.47072916,52.101363 1.47072916,52.3703187 C1.47072916,52.6394308 1.68883517,52.8575368 1.95779086,52.8575368 C2.226903,52.8575368 2.44500901,52.6394308 2.44500901,52.3703187 C2.44500901,52.101363 2.226903,51.883257 1.95779086,51.883257 Z" id="Path"></path>
                    <path d="M3.58717102,53.3943529 C3.31821533,53.3943529 3.10010933,53.612459 3.10010933,53.8815711 C3.10010933,54.1505268 3.31821533,54.3687892 3.58717102,54.3687892 C3.85628316,54.3687892 4.07438917,54.1505268 4.07438917,53.8815711 C4.07438917,53.612459 3.85628316,53.3943529 3.58717102,53.3943529 Z" id="Path"></path>
                    <path d="M1.95779086,55.0237331 C1.68883517,55.0237331 1.47072916,55.2418391 1.47072916,55.5107948 C1.47072916,55.7799069 1.68883517,55.998013 1.95779086,55.998013 C2.226903,55.998013 2.44500901,55.7799069 2.44500901,55.5107948 C2.44500901,55.2418391 2.226903,55.0237331 1.95779086,55.0237331 Z" id="Path"></path>
                    <path d="M3.58717102,56.5348291 C3.31821533,56.5348291 3.10010933,56.7529351 3.10010933,57.0220472 C3.10010933,57.2910029 3.31821533,57.5092654 3.58717102,57.5092654 C3.85628316,57.5092654 4.07438917,57.2910029 4.07438917,57.0220472 C4.07438917,56.7529351 3.85628316,56.5348291 3.58717102,56.5348291 Z" id="Path"></path>
                    <path d="M1.95779086,58.1643657 C1.68883517,58.1643657 1.47072916,58.3824717 1.47072916,58.6514274 C1.47072916,58.9205396 1.68883517,59.1386456 1.95779086,59.1386456 C2.226903,59.1386456 2.44500901,58.9205396 2.44500901,58.6514274 C2.44500901,58.3823153 2.226903,58.1643657 1.95779086,58.1643657 Z" id="Path"></path>
                    <path d="M3.58717102,59.6754617 C3.31821533,59.6754617 3.10010933,59.8935677 3.10010933,60.1626799 C3.10010933,60.4316355 3.31821533,60.649898 3.58717102,60.649898 C3.85628316,60.649898 4.07438917,60.4316355 4.07438917,60.1626799 C4.07438917,59.8934113 3.85628316,59.6754617 3.58717102,59.6754617 Z" id="Path"></path>
                    <path d="M1.95779086,61.3048419 C1.68883517,61.3048419 1.47072916,61.5229479 1.47072916,61.7919036 C1.47072916,62.0610157 1.68883517,62.2791217 1.95779086,62.2791217 C2.226903,62.2791217 2.44500901,62.0610157 2.44500901,61.7919036 C2.44500901,61.5229479 2.226903,61.3048419 1.95779086,61.3048419 Z" id="Path"></path>
                    <circle id="Oval" cx="3.58717102" cy="63.303156" r="1"></circle>
                    <path d="M1.95779086,64.445318 C1.68883517,64.445318 1.47072916,64.663424 1.47072916,64.9323797 C1.47072916,65.2014919 1.68883517,65.4195979 1.95779086,65.4195979 C2.226903,65.4195979 2.44500901,65.2014919 2.44500901,64.9323797 C2.44500901,64.663424 2.226903,64.445318 1.95779086,64.445318 Z" id="Path"></path>
                    <path d="M4.07438917,66.4436322 C4.07438917,66.17452 3.85628316,65.956414 3.58717102,65.956414 C3.31821533,65.956414 3.10010933,66.17452 3.10010933,66.4436322 C3.10010933,66.7125878 3.31821533,66.9308503 3.58717102,66.9308503 C3.85628316,66.9308503 4.07438917,66.7125878 4.07438917,66.4436322 Z" id="Path"></path>
                    <path d="M1.95779086,67.5859506 C1.68883517,67.5859506 1.47072916,67.8040566 1.47072916,68.0730123 C1.47072916,68.3421245 1.68883517,68.5602305 1.95779086,68.5602305 C2.226903,68.5602305 2.44500901,68.3421245 2.44500901,68.0730123 C2.44500901,67.8040566 2.226903,67.5859506 1.95779086,67.5859506 Z" id="Path"></path>
                    <path d="M0.446694869,0.00531965868 C0.268799224,0.00531965868 0.114842043,0.101855818 0.0297275044,0.244078457 C0.244078457,0.459211713 0.43574263,0.696562366 0.602842497,0.951749522 C0.794819591,0.886349013 0.93391302,0.706575841 0.93391302,0.49253781 C0.93391302,0.223425665 0.715807014,0.00531965868 0.446694869,0.00531965868 L0.446694869,0.00531965868 Z" id="Path"></path>
                    <path d="M0.446694869,66.9308503 C0.715807014,66.9308503 0.933756559,66.7125878 0.933756559,66.4436322 C0.933756559,66.3355179 0.897301251,66.2364784 0.837689782,66.1555883 C0.698126972,66.4273603 0.531965868,66.6830168 0.34170984,66.9186464 C0.375661779,66.9261565 0.410552482,66.9308503 0.446694869,66.9308503 Z" id="Path"></path>
                </g>
                <path d="M38.9722889,61.3046854 L12.0792238,61.3046854 C11.7323508,61.3046854 11.4510347,61.0233693 11.4510347,60.6764963 C11.4510347,60.3296233 11.7323508,60.0484637 12.0792238,60.0484637 L38.9722889,60.0484637 C39.3191619,60.0484637 39.6003216,60.3297797 39.6003216,60.6764963 C39.6003216,61.0233693 39.3191619,61.3046854 38.9722889,61.3046854 Z" id="Path" fill="#505050"></path>
                <path d="M38.9722889,67.9018445 L12.0792238,67.9018445 C11.7323508,67.9018445 11.4510347,67.6206849 11.4510347,67.2738118 C11.4510347,66.9269388 11.7323508,66.6457792 12.0792238,66.6457792 L38.9722889,66.6457792 C39.3191619,66.6457792 39.6003216,66.9269388 39.6003216,67.2738118 C39.6003216,67.6206849 39.3191619,67.9018445 38.9722889,67.9018445 Z" id="Path" fill="#505050"></path>
                <path d="M38.9722889,35.9410222 L38.5429611,35.9410222 C37.6533264,30.4250055 33.2840091,26.0610079 27.7656456,25.178101 L27.7656456,22.4758708 C27.7656456,21.2636145 26.8408073,20.2774437 25.7041214,20.2774437 C24.567279,20.2774437 23.6425972,21.2636145 23.6425972,22.4758708 L23.6425972,25.178101 C18.12439,26.0608514 13.7550727,30.4250055 12.8652816,35.9410222 L12.0792238,35.9410222 C10.8669675,35.9410222 9.88079662,36.927193 9.88079662,38.1394494 C9.88079662,39.3517057 10.8669675,40.3378766 12.0792238,40.3378766 L38.9722889,40.3378766 C40.1845452,40.3378766 41.1707161,39.3517057 41.1707161,38.1394494 C41.1707161,36.927193 40.1845452,35.9410222 38.9722889,35.9410222 L38.9722889,35.9410222 Z M24.8988189,22.4758708 C24.8988189,21.9562654 25.2600863,21.5336654 25.7041214,21.5336654 C26.1481564,21.5336654 26.5094238,21.9562654 26.5094238,22.4758708 L26.5094238,25.0393205 C26.242815,25.0228921 25.9747981,25.011627 25.7041214,25.011627 C25.4334446,25.011627 25.1654277,25.0228921 24.8988189,25.0393205 L24.8988189,22.4758708 Z M25.7041214,26.2678487 C31.47423,26.2678487 36.2811674,30.4498828 37.2656172,35.9410222 L14.1426255,35.9410222 C15.1270753,30.4498828 19.9340128,26.2678487 25.7041214,26.2678487 Z M38.9722889,39.0814983 L12.0792238,39.0814983 C11.5596183,39.0814983 11.1370184,38.6588984 11.1370184,38.1392929 C11.1370184,37.6196874 11.5596183,37.1970875 12.0792238,37.1970875 L38.9722889,37.1970875 C39.4917379,37.1970875 39.9144943,37.6196874 39.9144943,38.1392929 C39.9144943,38.6588984 39.4918944,39.0814983 38.9722889,39.0814983 Z" id="Shape" fill="#505050"></path>
                <path d="M27.5164039,51.7028579 C27.2128704,51.7028579 26.966758,51.4567455 26.966758,51.153212 L26.966758,44.7990362 C26.966758,44.5585563 27.1232185,44.3459265 27.3527462,44.2742675 C27.5825867,44.2029215 27.8318284,44.2888184 27.9685749,44.4865845 L31.4136797,49.4753291 L31.3683062,44.7924649 C31.3653334,44.4887749 31.609099,44.240472 31.9126324,44.2374993 L31.9179521,44.2374993 C32.2189822,44.2374993 32.4644688,44.4801696 32.4674415,44.7816691 L32.5268965,50.933385 C32.5268965,51.2578841 32.350722,51.5190168 32.0783242,51.6041313 C31.8135929,51.6865861 31.531651,51.5803493 31.3604832,51.3326723 L28.0658934,46.5620337 L28.0658934,51.153212 C28.0660498,51.4567455 27.8200938,51.7028579 27.5164039,51.7028579 L27.5164039,51.7028579 Z" id="Path" fill="#505050"></path>
                <path d="M15.2196999,51.7028579 C14.9213297,51.7028579 14.6575372,51.5135407 14.5624092,51.2303471 C14.5602187,51.2237757 14.5581847,51.2173609 14.5563072,51.2106331 L13.2220117,46.6882973 L12.407478,51.201089 C12.3536556,51.4996157 12.0674893,51.6986335 11.7689625,51.6441852 C11.4702793,51.5902064 11.2718874,51.3043529 11.3257098,51.0056697 L12.4447156,44.8062334 C12.5052659,44.4911218 12.7660856,44.2603425 13.0801019,44.2393768 C13.393336,44.2165336 13.6835703,44.4119528 13.7840179,44.7104795 C13.7862084,44.7168944 13.7882424,44.7233093 13.7901199,44.7298806 L15.2129721,49.5523077 L16.5860699,44.7356697 C16.587791,44.7294113 16.589825,44.7231528 16.591859,44.716738 C16.689021,44.4172725 16.9772213,44.2242001 17.2904553,44.2382816 C17.6046281,44.2561181 17.8679512,44.4837682 17.9308483,44.7923084 L19.1172887,51.0000372 C19.1742403,51.2980945 18.9788211,51.5861384 18.6806073,51.64309 C18.3817677,51.7011369 18.0945061,51.5046224 18.0375544,51.2065651 L17.1734228,46.6846987 L15.8849702,51.2043746 C15.8832491,51.2106331 15.8812152,51.2168915 15.8791812,51.2233064 C15.786713,51.5085339 15.523077,51.7011369 15.2232985,51.7027015 C15.2222033,51.7028579 15.2209516,51.7028579 15.2196999,51.7028579 L15.2196999,51.7028579 Z" id="Path" fill="#505050"></path>
                <path d="M24.3759278,50.6037226 L22.2676219,50.6037226 L22.2676219,48.5489262 L24.1800392,48.5489262 C24.4835726,48.5489262 24.7296851,48.3028137 24.7296851,47.9992803 C24.7296851,47.6957468 24.4835726,47.4496344 24.1800392,47.4496344 L22.2676219,47.4496344 L22.2676219,45.394838 L24.3759278,45.394838 C24.6794612,45.394838 24.9255737,45.1487255 24.9255737,44.8451921 C24.9255737,44.5416586 24.6796177,44.2955462 24.3759278,44.2955462 L21.7179759,44.2955462 C21.4144425,44.2955462 21.16833,44.5416586 21.16833,44.8451921 L21.16833,51.153212 C21.16833,51.4567455 21.4144425,51.7028579 21.7179759,51.7028579 L24.3759278,51.7028579 C24.6794612,51.7028579 24.9255737,51.4567455 24.9255737,51.153212 C24.9255737,50.8496786 24.6794612,50.6037226 24.3759278,50.6037226 L24.3759278,50.6037226 Z" id="Path" fill="#505050"></path>
                <path d="M37.294093,51.7028579 C37.2925284,51.7028579 37.2909638,51.7028579 37.2893992,51.7028579 C36.7524266,51.7022321 36.2583242,51.5603224 35.821017,51.2810403 C34.978164,50.7425031 34.5685503,50.0514168 34.5685503,49.1677277 L34.5685503,44.7871452 C34.5685503,44.4836117 34.8146627,44.2374993 35.1181962,44.2374993 C35.4217296,44.2374993 35.6678421,44.4836117 35.6678421,44.7871452 L35.6678421,49.1677277 C35.6678421,49.6658981 35.8906419,50.020907 36.4129072,50.3546374 C36.6710671,50.5195468 36.9666211,50.6032532 37.2911203,50.6037226 L37.2942495,50.6037226 C37.5862049,50.6037226 37.855317,50.5425465 38.0948581,50.4219154 C38.8993783,50.0168391 38.9923158,49.509594 38.9923158,49.1631903 L38.9923158,44.7871452 C38.9923158,44.4836117 39.2384283,44.2374993 39.5419617,44.2374993 C39.8454952,44.2374993 40.0916077,44.4836117 40.0916077,44.7871452 L40.0916077,49.1631903 C40.0916077,49.8401951 39.8309444,50.7783326 38.5892735,51.4035489 C38.1948364,51.6020974 37.7592502,51.7028579 37.294093,51.7028579 L37.294093,51.7028579 Z" id="Path" fill="#505050"></path>
                <path d="M48.2175427,9.10334415 L41.3487682,9.10334415 L41.3487682,4.34600468 C41.3487682,2.96054652 40.7115043,1.69118208 39.6003215,0.863349312 C38.4928938,0.0384892952 37.099769,-0.209970057 35.7761128,0.181337777 L0.581094481,9.1225888 C0.559815846,9.12790845 0.540101817,9.13635732 0.519918406,9.14371097 C0.508809707,9.14777894 0.497075166,9.15059523 0.486122927,9.15528905 C0.451232225,9.17046572 0.417906128,9.18845869 0.386770478,9.20926794 C0.380981438,9.21302299 0.376131161,9.21787327 0.370655042,9.22178478 C0.345621354,9.23993421 0.32168289,9.2590224 0.299621952,9.28045749 C0.29054724,9.28921928 0.282567752,9.2990763 0.274118883,9.30815101 C0.257377604,9.32661335 0.241262167,9.34538862 0.226867797,9.36541557 C0.218418927,9.37730657 0.210908821,9.38935403 0.203242254,9.40155796 C0.19088187,9.42142845 0.179773171,9.44208124 0.169603236,9.46335987 C0.163188353,9.47665902 0.157086392,9.49011463 0.151610272,9.50388316 C0.142535561,9.52735224 0.135494836,9.55144716 0.129236414,9.57601147 C0.125950742,9.58868477 0.121882768,9.60104516 0.119379399,9.61418784 C0.112182214,9.65220776 0.107644858,9.69116643 0.107644858,9.73106387 L0.107644858,9.98844148 L0.107644858,79.3716544 C0.107644858,79.7185275 0.388960926,79.9996871 0.735677504,79.9996871 L48.2175427,79.9996871 C51.0167784,79.9996871 53.2940617,77.7224038 53.2940617,74.9231681 L53.2940617,14.1798631 C53.2940617,11.3806274 51.0167784,9.10334415 48.2175427,9.10334415 Z M36.0974827,1.39578456 C36.1059316,1.39359411 36.1143805,1.39140367 36.1226729,1.3889003 C37.06613,1.10680193 38.0601239,1.28266358 38.8499367,1.87079879 C39.6395931,2.45909046 40.0925464,3.36124198 40.0925464,4.34600468 L40.0925464,9.10334415 L5.75915636,9.10334415 L36.0974827,1.39578456 Z M52.03784,74.923481 C52.03784,77.0300659 50.3241276,78.7437782 48.2175427,78.7437782 L1.36386661,78.7437782 L1.36386661,10.3594094 L48.2175427,10.3594094 C50.3241276,10.3594094 52.03784,12.0732783 52.03784,14.1797067 L52.03784,74.923481 Z" id="Shape" fill="#505050"></path>
            </g>
        </g>
    </g>
</svg>