<?xml version="1.0" encoding="UTF-8"?>
<svg width="149px" height="127px" viewBox="0 0 149 127" version="1.1" xmlns="http://www.w3.org/2000/svg" xmlns:xlink="http://www.w3.org/1999/xlink">
    <title>quote</title>
    <g id="Website-Pages" stroke="none" stroke-width="1" fill="none" fill-rule="evenodd" opacity="0.1">
        <g id="Landing-Page" transform="translate(-1005.000000, -4657.000000)" fill="#000000" fill-rule="nonzero">
            <g id="Testimonials" transform="translate(284.000000, 4399.000000)">
                <g id="Content" transform="translate(721.000000, 258.000000)">
                    <g id="quote" transform="translate(74.500000, 63.500000) scale(1, -1) translate(-74.500000, -63.500000) ">
                        <path d="M35.0610129,126.995732 C15.7789398,126.974611 0.153009551,111.379654 0.131846281,92.1358006 C0.131846281,92.0783146 0.131846281,92.0186995 0.131846281,91.9612135 C0.131846281,91.8462415 0.116912904,91.6737835 0.104112868,91.4459687 C-0.612689182,78.7862757 1.46091675,44.6055305 36.1127492,0.807591666 C36.7570164,-0.00449220802 37.8934001,-0.235994769 38.8050278,0.25912429 C39.7166555,0.75424335 40.13897,1.83229895 39.8055598,2.81321406 C39.7074261,3.10277314 30.2375324,31.4135598 36.7079509,57.3184512 C55.6624194,58.2061561 70.4397891,74.0339868 69.9899995,92.9663806 C69.5402098,111.898774 54.0278038,127.00984 35.0524795,127 L35.0610129,126.995732 Z M4.39852515,92.2571599 C4.46444426,109.142341 18.2215598,122.783353 35.1403473,122.739642 C52.0591349,122.69572 65.7451296,108.983636 65.7232684,92.0983411 C65.7013547,75.2130464 51.9798574,61.5363479 35.0610129,61.5362198 C34.1007245,61.5359817 33.25895,60.8954445 33.0044736,59.9713233 C28.0977929,42.1506657 30.5041998,23.4570726 32.9426068,12.1131702 C5.45666151,50.5393624 3.73078991,79.8699931 4.37292508,91.2075083 C4.40189949,91.5565978 4.41044736,91.9070769 4.39852515,92.2571599 L4.39852515,92.2571599 Z" id="Shape"></path>
                        <path d="M114.061013,126.995732 C94.7789398,126.974611 79.1530096,111.379654 79.1318463,92.1358006 C79.1318463,92.0783146 79.1318463,92.0186995 79.1318463,91.9612135 C79.1318463,91.8462415 79.1169129,91.6737835 79.1041129,91.4459687 C78.3873108,78.7862757 80.4609167,44.6055305 115.112749,0.807591666 C115.757016,-0.00449220802 116.8934,-0.235994769 117.805028,0.25912429 C118.716655,0.75424335 119.13897,1.83229895 118.80556,2.81321406 C118.707426,3.10277314 109.237532,31.4135598 115.707951,57.3184512 C134.662419,58.2061561 149.439789,74.0339868 148.989999,92.9663806 C148.54021,111.898774 133.027804,127.00984 114.05248,127 L114.061013,126.995732 Z M83.3985252,92.2571599 C83.4644443,109.142341 97.2215598,122.783353 114.140347,122.739642 C131.059135,122.69572 144.74513,108.983636 144.723268,92.0983411 C144.701355,75.2130464 130.979857,61.5363479 114.061013,61.5362198 C113.100725,61.5359817 112.25895,60.8954445 112.004474,59.9713233 C107.097793,42.1506657 109.5042,23.4570726 111.942607,12.1131702 C84.4566615,50.5393624 82.7286566,79.8699931 83.3707917,91.2075083 C83.4004777,91.5565564 83.4097379,91.9070355 83.3985252,92.2571599 L83.3985252,92.2571599 Z" id="Shape"></path>
                    </g>
                </g>
            </g>
        </g>
    </g>
</svg>