<svg xmlns="http://www.w3.org/2000/svg" viewBox="0 0 1487.38 970.62"><defs><style>.cls-1{fill:#cfd1d3;}.cls-2{fill:#589648;}.cls-3{fill:#c92834;}.cls-4{fill:#27282b;}.cls-5{fill:#fff;}.cls-6{fill:#414347;}.cls-7{fill:#af1f24;}.cls-8{fill:#dd2f44;}.cls-9{fill:#ffb27d;}.cls-10{fill:#ed975d;}</style></defs><title>Asset 2</title><g id="Layer_2" data-name="Layer 2"><g id="Слой_2" data-name="Слой 2"><path class="cls-1" d="M1400.71,880.28H1259.92a6.33,6.33,0,0,1-6.31-6.31h0a6.33,6.33,0,0,1,6.31-6.31h140.79A6.33,6.33,0,0,1,1407,874h0A6.33,6.33,0,0,1,1400.71,880.28Z"/><path class="cls-1" d="M1333.61,852.12H1257a3.44,3.44,0,0,1-3.43-3.43h0a3.44,3.44,0,0,1,3.43-3.43h76.57a3.44,3.44,0,0,1,3.43,3.43h0A3.44,3.44,0,0,1,1333.61,852.12Z"/><path class="cls-2" d="M1380.9,810.64h-92.36c-5-4.2,3.42-13.73,12.17-14.37,3.8-.29,8.61.5,14.1,1.66,1.27-16.88,8.53-92.77,35.88-89.72,30.76,3.42,0,33.42-8.69,51.19-6.44,13.16-13.24,32-16.34,40.93,2.49.54,5.08,1.07,7.72,1.56,4.08-12.52,19.25-54.62,38.54-52.17,22.64,2.87,13.54,19.76-2.51,29.78-11.78,7.36-26.24,17.84-33.11,22.9a97.58,97.58,0,0,0,18.06,1.44C1370.18,803.47,1377.9,808.13,1380.9,810.64Z"/><path class="cls-3" d="M151.71,453.74A151.68,151.68,0,0,0,0,605.45c0,83.76,151.71,270,151.71,270s68.9-84.6,113.72-165.37c21.8-39.06,38-77.29,38-104.61A151.74,151.74,0,0,0,151.71,453.74Zm0,221a71.44,71.44,0,1,1,15.45-1.8A65.6,65.6,0,0,1,151.71,674.71Z"/><path class="cls-3" d="M1420.05,575.65A67.32,67.32,0,0,0,1352.72,643c0,37.18,67.33,119.85,67.33,119.85s67.33-82.67,67.33-119.85A67.33,67.33,0,0,0,1420.05,575.65Zm0,98.11a31.47,31.47,0,1,1,31.47-31.47A31.47,31.47,0,0,1,1420.05,673.76Z"/><path class="cls-2" d="M10.27,970.62s26.43-78.87,102.14-94,131.76,44.09,199.22,21,173.78-145.4,300.32-56,118.26,114.84,198.07,94,98.07,35.13,98.07,35.13Z"/><path class="cls-2" d="M88,896.42S32.78,838.51,4.57,854,88,896.42,88,896.42Z"/><path class="cls-2" d="M73.91,911.06s-50.9-16.59-63.64-8.3S73.91,911.06,73.91,911.06Z"/><path class="cls-2" d="M235.85,905.75s35-78.48,47.12-64.2S235.85,905.75,235.85,905.75Z"/><path class="cls-2" d="M227.29,900.44s14.27-57.46-7.14-53.89S227.29,900.44,227.29,900.44Z"/><polygon points="1079.26 673.21 1073.18 668.25 1154.65 561.77 1184.06 560.55 1079.26 673.21"/><polygon points="972.8 673.21 967.77 668.25 1035.18 561.77 1059.51 560.55 972.8 673.21"/><ellipse cx="511.04" cy="395.7" rx="35.73" ry="36.59"/><path class="cls-4" d="M928.55,889H565.26a7.23,7.23,0,0,1-7.18-7.24V847.38a7.22,7.22,0,0,1,7.18-7.23H886.18a7.22,7.22,0,0,1,7.17,7.23Z"/><circle cx="1040.32" cy="862.05" r="108.57"/><circle class="cls-5" cx="1040.32" cy="862.06" r="55.34"/><path class="cls-6" d="M482.26,708.8A160.74,160.74,0,0,0,274.75,838a21,21,0,0,0,20.74,24h.71a13.34,13.34,0,0,0,13.25-12.14c6.13-63.16,59.51-112.7,124.25-112.7A124.85,124.85,0,0,1,558.54,862.05h35.91C594.45,790.33,547.25,729.43,482.26,708.8Z"/><path class="cls-4" d="M648.86,840.15l-54.41,21.9c-37.66-73.25-76.14-109.2-109-126.93-59.19-31.91-100.39-4.88-86.52-30L500.43,490.85a93.28,93.28,0,0,1,84.35-38.42,30.33,30.33,0,0,1,25.86,39.79c-13.29,39.76-18.4,79.72-18.4,117.66C592.24,736.16,648.86,840.15,648.86,840.15Z"/><path d="M593.39,477.21l-41-15.65c-5.58,0-16.21,5-16.21-.54L542.28,361a10.17,10.17,0,0,1,10.14-10.14h26.41c5.58,0,27.93,10.7,26.35,30.72l7,100.87C612.21,488,599,477.21,593.39,477.21Z"/><rect x="1004.07" y="526.92" width="301.63" height="38.58" rx="14.36" ry="14.36"/><circle cx="433.71" cy="862.05" r="108.57"/><path class="cls-5" d="M489.05,862.05a55.06,55.06,0,0,1-6.38,25.81c-.27.5-.54,1-.83,1.48A55.34,55.34,0,1,1,412.44,811l.63-.26a55.37,55.37,0,0,1,76,51.35Z"/><path class="cls-4" d="M831.36,643.37s42.33,94.29-52.23,196.78H997.38L967.77,615.77Z"/><path class="cls-4" d="M1259.18,874.58A14.39,14.39,0,0,1,1244.82,889H896.53a14.41,14.41,0,0,1-14.37-14.37l4.62-227.79,117.29-7.19C1160.3,639.6,1259.18,718.35,1259.18,874.58Z"/><path class="cls-3" d="M546.77,393.62a56.13,56.13,0,0,1-56.19,56.18V337.45A56.18,56.18,0,0,1,546.77,393.62Z"/><path d="M635.44,401.21c-.21,0-2.55-.46-2.77-.5l-61.8-17.15c-2.46-.48-4.15-3.52-3.79-6.79s2.63-5.54,5.09-5.06l62,12.1c2.46.48,4.41,4.21,5,7.42C640.08,396.62,637.64,401.21,635.44,401.21Z"/><path class="cls-7" d="M486.09,739.46q.84,5.19,1.62,10l-.48-.23a124.19,124.19,0,0,0-53.53-12.06c-64.74,0-118.12,49.54-124.25,112.7a13.34,13.34,0,0,1-13.25,12.14h-.71a21,21,0,0,1-20.74-24A161.16,161.16,0,0,1,398.24,705.26l.65-.16L500.43,490.85A93.09,93.09,0,0,1,536.21,461c-17.31,29.13-65.06,122.26-54,247.78q1.15,12.93,3.15,26.32C485.64,736.56,485.85,738,486.09,739.46Z"/><path class="cls-3" d="M1064.61,598.86V632.7a10.71,10.71,0,0,1-10.68,10.67H831.36a10.71,10.71,0,0,1-10.67-10.67V598.86a10.71,10.71,0,0,1,10.67-10.68h222.57A10.7,10.7,0,0,1,1064.61,598.86Z"/><path d="M1231.59,889H896.53s-20.45-124.06,55-166c18.16-10.09,41-13.56,65.84-11.13C1095.67,719.54,1194.33,785.92,1231.59,889Z"/><path class="cls-7" d="M545.82,404a56.22,56.22,0,0,1-55.24,45.85V418.45C507.09,419.1,530.87,417.31,545.82,404Z"/><path class="cls-7" d="M994.15,643.37H831.36a10.71,10.71,0,0,1-10.67-10.67V598.86a10.71,10.71,0,0,1,10.67-10.68H942.89C952.58,601.86,970.8,625.06,994.15,643.37Z"/><path class="cls-6" d="M1231.59,889H1092.43c-84-42.63-78.86-145.46-75.1-177.08C1095.67,719.54,1194.33,785.92,1231.59,889Z"/><path class="cls-3" d="M486.09,739.46q.84,5.19,1.62,10l-.48-.23c-20.05-18.54-62.41-35-89-44l.65-.16L500.43,490.85A93.09,93.09,0,0,1,536.21,461c-17.31,29.13-65.06,122.26-54,247.78q1.15,12.93,3.15,26.32C485.64,736.56,485.85,738,486.09,739.46Z"/><rect class="cls-7" x="1026.48" y="383.89" width="173.46" height="143.03" transform="translate(2226.41 910.81) rotate(180)"/><rect class="cls-3" x="1113.21" y="383.89" width="173.46" height="143.03"/><polygon class="cls-8" points="1026.58 490.64 1054.06 490.64 1051.64 482.91 1054.06 477.38 1026.58 477.38 1026.58 490.64"/><polygon class="cls-8" points="1286.66 478.72 1286.66 526.92 1113.21 526.92 1113.21 383.89 1143.93 383.89 1286.66 478.72"/><polygon class="cls-7" points="1286.66 415.97 1259.18 415.97 1261.6 408.24 1259.18 402.71 1286.66 402.71 1286.66 415.97"/><polygon class="cls-3" points="1286.66 503.91 1259.18 503.91 1261.6 496.17 1259.18 490.64 1286.66 490.64 1286.66 503.91"/><path class="cls-9" d="M850.71,254.27c30,12.18,84.81-13.85,84.81-13.85s-18.2-16.11-21.66-46.62c-.18-1.54-.31-3.11-.41-4.71L898,183.58l-26.56,18.08a205.81,205.81,0,0,0,.3,24.46c.16,2.72.37,5.64.65,8.75C858.56,241.06,850.71,254.27,850.71,254.27Z"/><path class="cls-10" d="M871.39,201.66a205.81,205.81,0,0,0,.3,24.46c24.17-4.39,37.47-23.91,42.17-32.32-.18-1.54-.31-3.11-.41-4.71L898,183.58Z"/><path class="cls-9" d="M866.49,214.62s51.64-1.68,50.1-33.83,4.09-54-29-54.3-38.86,12.29-40.95,23.14S853,214.23,866.49,214.62Z"/><path d="M913.86,193.8s2-10.69-3.8-17.74c0,0,3.75-10.49-.28-12.84s-6.14,6.61-7.9,4.92-9.59-9.61-12-20.07-38.22-3-42.45-1.71,23.77-51,54-38.59,32.5,27.89,29,40.46S927.26,191.21,913.86,193.8Z"/><path class="cls-7" d="M963.26,500.63s-3.58,63.09-17.94,81.06-289.68,11-289.68,11-1.19-40.46,9.58-50.86,61-40.28,221.56-57.21Z"/><path class="cls-3" d="M966.93,368.58c-4.49,54.19,1.43,136.61-3.67,150.89-4.39,12.32-54.46,5-74.44.89-7.4-1.53-16.37-3.7-25.62-6.27-25.81-7.17-53.93-17.42-57-25a5.26,5.26,0,0,1-.28-.88,6.22,6.22,0,0,1,0-3.18c.74-2.87,3.07-5.91,4.41-11.19a33.46,33.46,0,0,0,.93-6.49c.47-9.82.44-21.22.78-33.5,0-1.13.07-2.27.11-3.4a46.32,46.32,0,0,1,.22-4.72l0-.56c0-.29,0-.58,0-.86.43-15.15,1.32-31,2.33-46.84.33-4.92.67-9.82,1.06-14.65.12-1.72.26-3.42.39-5.1.27-3.16.53-6.3.82-9.39,2.25-24.27,5.29-45.87,9.3-59.51,6.56-22.25,21-36.76,34.19-47.39l9.53-7.34c10.63,2.08,23.2.7,34.57-4.13,12.29-5.25,16.54-9,18.69-7.59C951.8,242,972.24,302.33,966.93,368.58Z"/><path class="cls-6" d="M754.7,800.24s-2.44,39.27-10,39.84c-1,.07-38.54.07-38.54.07l-47.9-.28s.31-11.54,14.32-14S710,813.61,718.47,795.1C727.39,775.64,754.7,800.24,754.7,800.24Z"/><path class="cls-7" d="M764.71,802.8s-9.26,7.12-28.13,8a75.87,75.87,0,0,1-13.21-.52,62.93,62.93,0,0,1-16.9-4.32L655.64,592.68s55.06-48.11,83.79-18.19c3.75,3.9,7,10.66,9.67,19.48C767.32,652.78,764.71,802.8,764.71,802.8Z"/><path class="cls-7" d="M886.78,327.39S851.14,457.9,810.43,473.81a33.46,33.46,0,0,0,.93-6.49c.47-9.82.44-21.22.78-33.5,0-1.13.07-2.27.11-3.4a46.32,46.32,0,0,1,.22-4.72l0-.56c0-.29,0-.58,0-.86.43-15.15,1.32-31,2.33-46.84.33-4.92.67-9.82,1.06-14.65C833.82,341.13,858.14,325.57,886.78,327.39Z"/><path class="cls-9" d="M673,377.66s-15.52,1.2-19.51,0-22.74-12.36-29.53-10S600,387.64,604.37,395.62c0,0,8,.2,15.36-7.38s15.37-2.4,14.57-1.4-12.37,5.59-10.38,7.58,17.16,1.6,20.75-.8,30.32.6,30.32.6Z"/><path class="cls-8" d="M886.78,258.56s-96.53,82.29-121.94,90.22-115.18,25.39-115.18,25.39-2.47,21.25,5.94,29.23c0,0,115.35-6.69,129.72-9.73S906.71,335.17,915.44,331,922.81,251.78,886.78,258.56Z"/><path class="cls-8" d="M764.71,802.8s-9.26,7.12-28.13,8a75.87,75.87,0,0,1-13.21-.52C752.36,773.64,749.1,594,749.1,594,767.32,652.78,764.71,802.8,764.71,802.8Z"/><path class="cls-3" d="M938.05,150.36v.49a3.4,3.4,0,0,1-1.5,3,1.94,1.94,0,0,1-.95.26H813.22c-1.35,0-2.45-1.47-2.45-3.26v-.49c0-1.8,1.1-3.27,2.45-3.27l27.33-3.51c2.55-20.3,16-36.87,33.86-42.58h0a44.62,44.62,0,0,1,13.7-2.14c25.11,0,45.69,20.74,47.83,47.19,0,.31,0,.61.07.92.31.23.49.37.52.38A3.43,3.43,0,0,1,938.05,150.36Z"/><path class="cls-8" d="M896.7,146.05c9.12-48.27-21.25-45.17-22.27-45.05a44.62,44.62,0,0,1,13.7-2.14c25.11,0,45.69,20.74,47.83,47.19Z"/><path class="cls-1" d="M1053.87,970.62s100.46-25.31,128.8-55.92,52.84,4.08,34.47,23.46S1053.87,970.62,1053.87,970.62Z"/><path class="cls-7" d="M265.43,710.06c-44.82,80.77-113.72,165.37-113.72,165.37S0,689.21,0,605.45A151.56,151.56,0,0,1,56.08,487.66c5.75,27.44,15.1,58.83,30.08,89.15a70.8,70.8,0,0,0,65.55,97.9,65.6,65.6,0,0,0,15.45-1.8C193.65,691,226,704.31,265.43,710.06Z"/><path class="cls-8" d="M1420,572.36c-.06-.21-1.24-5.35-3.79-14.69-.35-1.32-1.44-2-2.42-1.51a2.83,2.83,0,0,0-1.12,3.26c2.5,9.19,3.7,14.38,3.71,14.43a2.05,2.05,0,0,0,1.81,1.8,1.54,1.54,0,0,0,.55-.11A2.8,2.8,0,0,0,1420,572.36Z"/><path class="cls-8" d="M1412.11,543.3c-1.36-4.62-2.81-9.4-4.31-14.21-.41-1.29-1.51-1.9-2.47-1.36a2.91,2.91,0,0,0-1,3.32c1.5,4.78,2.93,9.53,4.28,14.11a2,2,0,0,0,1.76,1.62,1.5,1.5,0,0,0,.69-.19A2.88,2.88,0,0,0,1412.11,543.3Z"/><path class="cls-8" d="M1403.29,515c-1.52-4.59-3.1-9.28-4.71-13.95-.44-1.27-1.56-1.82-2.51-1.23a3,3,0,0,0-.92,3.37c1.6,4.63,3.17,9.3,4.68,13.86a1.93,1.93,0,0,0,1.72,1.51,1.57,1.57,0,0,0,.77-.21A2.94,2.94,0,0,0,1403.29,515Z"/><path class="cls-8" d="M1393.7,487.24c-1.64-4.54-3.34-9.15-5.06-13.7-.47-1.25-1.6-1.76-2.54-1.13a3,3,0,0,0-.83,3.41c1.7,4.53,3.39,9.12,5,13.64a1.92,1.92,0,0,0,1.7,1.43,1.44,1.44,0,0,0,.82-.26A3,3,0,0,0,1393.7,487.24Z"/><path class="cls-8" d="M1383.42,460c-1.75-4.48-3.57-9-5.38-13.48-.5-1.22-1.65-1.67-2.57-1a3,3,0,0,0-.76,3.44c1.81,4.44,3.62,8.94,5.36,13.4a1.91,1.91,0,0,0,1.68,1.35,1.58,1.58,0,0,0,.88-.28A3,3,0,0,0,1383.42,460Z"/><path class="cls-8" d="M1372.49,433.12c-1.87-4.4-3.78-8.86-5.7-13.23-.53-1.21-1.7-1.61-2.59-.9a3.06,3.06,0,0,0-.67,3.47c1.91,4.36,3.82,8.79,5.67,13.17a1.88,1.88,0,0,0,1.65,1.28,1.54,1.54,0,0,0,.93-.32A3.07,3.07,0,0,0,1372.49,433.12Z"/><path class="cls-8" d="M206.85,407.4a1.6,1.6,0,0,0-2.63.61c-2.18,4.13-4.38,8.35-6.51,12.53a3.13,3.13,0,0,0,.49,3.53,1.62,1.62,0,0,0,1.07.44,1.81,1.81,0,0,0,1.56-1.1c2.12-4.16,4.3-8.36,6.47-12.47A3.12,3.12,0,0,0,206.85,407.4Z"/><path class="cls-8" d="M1360.92,406.79c-2-4.36-4-8.72-6-13a1.64,1.64,0,0,0-2.61-.8,3.09,3.09,0,0,0-.58,3.51c2,4.23,4,8.57,6,12.9a1.85,1.85,0,0,0,1.61,1.22,1.52,1.52,0,0,0,1-.38A3.06,3.06,0,0,0,1360.92,406.79Z"/><path class="cls-8" d="M220.27,382.82a1.61,1.61,0,0,0-2.65.51c-2.27,4.07-4.55,8.2-6.77,12.27a3.16,3.16,0,0,0,.42,3.56,1.58,1.58,0,0,0,1.11.47,1.78,1.78,0,0,0,1.53-1c2.2-4.06,4.47-8.17,6.73-12.22A3.16,3.16,0,0,0,220.27,382.82Z"/><path class="cls-8" d="M1348.74,381c-2.08-4.25-4.21-8.52-6.32-12.71a1.63,1.63,0,0,0-2.63-.67,3.14,3.14,0,0,0-.5,3.53c2.1,4.16,4.22,8.41,6.28,12.65a1.84,1.84,0,0,0,1.59,1.14,1.63,1.63,0,0,0,1-.41A3.14,3.14,0,0,0,1348.74,381Z"/><path class="cls-8" d="M234.21,358.79a1.58,1.58,0,0,0-2.65.4c-2.36,3.95-4.72,8-7,12a3.16,3.16,0,0,0,.33,3.56,1.62,1.62,0,0,0,1.16.53,1.77,1.77,0,0,0,1.5-1c2.31-4,4.66-8,7-11.95A3.15,3.15,0,0,0,234.21,358.79Z"/><path class="cls-8" d="M1335.94,355.68c-2.17-4.14-4.4-8.32-6.62-12.41a1.6,1.6,0,0,0-2.64-.56,3.14,3.14,0,0,0-.42,3.54c2.21,4.07,4.43,8.23,6.59,12.36a1.8,1.8,0,0,0,1.55,1.07,1.53,1.53,0,0,0,1.08-.45A3.12,3.12,0,0,0,1335.94,355.68Z"/><path class="cls-8" d="M248.68,335.32a1.59,1.59,0,0,0-2.67.29c-2.43,3.85-4.88,7.79-7.29,11.72a3.13,3.13,0,0,0,.26,3.56,1.6,1.6,0,0,0,1.2.59,1.77,1.77,0,0,0,1.46-.93c2.39-3.9,4.83-7.83,7.25-11.66A3.13,3.13,0,0,0,248.68,335.32Z"/><path class="cls-8" d="M1322.55,331c-2.28-4.05-4.61-8.13-6.93-12.12a1.59,1.59,0,0,0-2.65-.44,3.14,3.14,0,0,0-.33,3.56c2.3,4,4.62,8,6.89,12.06a1.79,1.79,0,0,0,1.5,1,1.63,1.63,0,0,0,1.15-.52A3.16,3.16,0,0,0,1322.55,331Z"/><path class="cls-8" d="M263.68,312.45a1.58,1.58,0,0,0-2.67.18c-2.54,3.77-5.08,7.6-7.57,11.41a3.18,3.18,0,0,0,.18,3.58,1.61,1.61,0,0,0,1.24.63,1.74,1.74,0,0,0,1.43-.86c2.48-3.8,5-7.61,7.52-11.36A3.18,3.18,0,0,0,263.68,312.45Z"/><path class="cls-8" d="M1308.54,306.89c-2.37-3.95-4.8-7.92-7.22-11.8a1.58,1.58,0,0,0-2.66-.33,3.18,3.18,0,0,0-.24,3.58c2.4,3.86,4.82,7.81,7.18,11.74a1.79,1.79,0,0,0,1.48.95,1.65,1.65,0,0,0,1.19-.57A3.18,3.18,0,0,0,1308.54,306.89Z"/><path class="cls-8" d="M279.18,290.22a1.57,1.57,0,0,0-2.67.08c-2.63,3.66-5.26,7.4-7.82,11.08a3.2,3.2,0,0,0,.1,3.59,1.67,1.67,0,0,0,1.29.69,1.71,1.71,0,0,0,1.38-.82c2.55-3.66,5.17-7.38,7.78-11A3.18,3.18,0,0,0,279.18,290.22Z"/><path class="cls-8" d="M1294,283.44c-2.48-3.84-5-7.7-7.52-11.47a1.58,1.58,0,0,0-2.67-.19,3.18,3.18,0,0,0-.15,3.58c2.51,3.75,5,7.58,7.48,11.4a1.74,1.74,0,0,0,1.43.89,1.66,1.66,0,0,0,1.24-.62A3.2,3.2,0,0,0,1294,283.44Z"/><path class="cls-8" d="M295.21,268.66a1.57,1.57,0,0,0-2.67,0c-2.68,3.51-5.41,7.14-8.08,10.75a3.2,3.2,0,0,0,0,3.59,1.58,1.58,0,0,0,2.68,0c2.65-3.6,5.36-7.2,8-10.7A3.16,3.16,0,0,0,295.21,268.66Z"/><path class="cls-8" d="M1278.77,260.68c-2.59-3.73-5.21-7.47-7.81-11.1a1.57,1.57,0,0,0-2.68-.07,3.2,3.2,0,0,0-.06,3.58c2.59,3.61,5.2,7.33,7.77,11a1.71,1.71,0,0,0,1.39.82,1.65,1.65,0,0,0,1.28-.68A3.16,3.16,0,0,0,1278.77,260.68Z"/><path class="cls-8" d="M311.76,247.81a1.58,1.58,0,0,0-2.68-.16c-2.78,3.41-5.58,6.9-8.33,10.39a3.18,3.18,0,0,0-.07,3.59,1.72,1.72,0,0,0,1.36.8,1.67,1.67,0,0,0,1.31-.7c2.73-3.46,5.52-7,8.29-10.34A3.18,3.18,0,0,0,311.76,247.81Z"/><path class="cls-8" d="M1263,238.65c-2.67-3.6-5.4-7.21-8.1-10.73a1.59,1.59,0,0,0-2.68.05,3.21,3.21,0,0,0,0,3.6c2.7,3.5,5.4,7.08,8.06,10.67a1.57,1.57,0,0,0,2.67,0A3.2,3.2,0,0,0,1263,238.65Z"/><path class="cls-8" d="M328.79,227.69a1.58,1.58,0,0,0-2.67-.28c-2.86,3.28-5.74,6.65-8.58,10a3.18,3.18,0,0,0-.16,3.59,1.7,1.7,0,0,0,1.41.85,1.64,1.64,0,0,0,1.26-.64c2.82-3.35,5.69-6.7,8.53-10A3.15,3.15,0,0,0,328.79,227.69Z"/><path class="cls-8" d="M346.31,208.34a1.58,1.58,0,0,0-2.65-.4c-3,3.16-5.92,6.41-8.83,9.64a3.16,3.16,0,0,0-.25,3.57,1.73,1.73,0,0,0,1.45.92,1.62,1.62,0,0,0,1.21-.58c2.89-3.21,5.85-6.44,8.78-9.58A3.16,3.16,0,0,0,346.31,208.34Z"/><path class="cls-8" d="M1246.65,217.39c-2.76-3.47-5.58-6.94-8.38-10.33a1.58,1.58,0,0,0-2.67.18,3.2,3.2,0,0,0,.13,3.6c2.79,3.36,5.59,6.81,8.34,10.26a1.64,1.64,0,0,0,1.29.68,1.69,1.69,0,0,0,1.38-.8A3.2,3.2,0,0,0,1246.65,217.39Z"/><path class="cls-8" d="M364.31,189.79a1.6,1.6,0,0,0-2.65-.51c-3,3-6.06,6.11-9.06,9.23a3.16,3.16,0,0,0-.34,3.56,1.78,1.78,0,0,0,1.5,1,1.56,1.56,0,0,0,1.15-.54c3-3.08,6-6.17,9-9.18A3.12,3.12,0,0,0,364.31,189.79Z"/><path class="cls-8" d="M1229.74,196.94c-2.85-3.32-5.76-6.65-8.66-9.91a1.6,1.6,0,0,0-2.67.32,3.2,3.2,0,0,0,.24,3.58c2.88,3.24,5.78,6.55,8.61,9.85a1.65,1.65,0,0,0,1.24.61,1.73,1.73,0,0,0,1.43-.87A3.18,3.18,0,0,0,1229.74,196.94Z"/><path class="cls-8" d="M382.77,172.08a1.61,1.61,0,0,0-2.63-.63c-3.11,2.88-6.23,5.84-9.3,8.81a3.12,3.12,0,0,0-.43,3.54,1.8,1.8,0,0,0,1.54,1.06,1.65,1.65,0,0,0,1.1-.48c3.05-2.95,6.16-5.9,9.24-8.77A3.12,3.12,0,0,0,382.77,172.08Z"/><path class="cls-8" d="M1212.28,177.35c-3-3.2-6-6.38-8.94-9.47a1.59,1.59,0,0,0-2.65.46,3.13,3.13,0,0,0,.34,3.55c3,3.07,5.93,6.24,8.88,9.41a1.59,1.59,0,0,0,1.18.56,1.75,1.75,0,0,0,1.47-.94A3.16,3.16,0,0,0,1212.28,177.35Z"/><path class="cls-8" d="M401.66,155.22a1.64,1.64,0,0,0-2.62-.76c-3.17,2.75-6.37,5.57-9.51,8.39a3.1,3.1,0,0,0-.51,3.52,1.82,1.82,0,0,0,1.57,1.13,1.49,1.49,0,0,0,1-.44c3.13-2.8,6.31-5.6,9.46-8.32A3.11,3.11,0,0,0,401.66,155.22Z"/><path class="cls-8" d="M1194.28,158.64c-3-3-6.14-6.06-9.2-9a1.61,1.61,0,0,0-2.64.59,3.12,3.12,0,0,0,.44,3.54c3,2.92,6.12,5.92,9.14,8.95a1.6,1.6,0,0,0,1.12.49,1.76,1.76,0,0,0,1.52-1A3.18,3.18,0,0,0,1194.28,158.64Z"/><path class="cls-8" d="M421,139.24a1.65,1.65,0,0,0-2.59-.88c-3.23,2.6-6.51,5.27-9.72,7.94a3.09,3.09,0,0,0-.61,3.5,1.86,1.86,0,0,0,1.61,1.2,1.49,1.49,0,0,0,1-.39c3.2-2.66,6.45-5.3,9.67-7.88A3.08,3.08,0,0,0,421,139.24Z"/><path class="cls-8" d="M1175.76,140.89c-3.12-2.87-6.3-5.74-9.45-8.52a1.62,1.62,0,0,0-2.62.73,3.09,3.09,0,0,0,.54,3.52c3.13,2.76,6.29,5.6,9.39,8.45a1.53,1.53,0,0,0,1.07.45,1.8,1.8,0,0,0,1.55-1.1A3.14,3.14,0,0,0,1175.76,140.89Z"/><path class="cls-8" d="M440.68,124.17c-.5-1.23-1.65-1.68-2.57-1-3.31,2.45-6.65,5-9.91,7.49a3,3,0,0,0-.7,3.46,1.87,1.87,0,0,0,1.64,1.28,1.53,1.53,0,0,0,.94-.34c3.25-2.51,6.56-5,9.86-7.44A3.05,3.05,0,0,0,440.68,124.17Z"/><path class="cls-8" d="M1156.74,124.11c-3.17-2.69-6.44-5.39-9.69-8a1.64,1.64,0,0,0-2.59.86,3.07,3.07,0,0,0,.64,3.48c3.23,2.62,6.47,5.3,9.62,8a1.55,1.55,0,0,0,1,.39,1.84,1.84,0,0,0,1.6-1.18A3.07,3.07,0,0,0,1156.74,124.11Z"/><path class="cls-8" d="M460.77,110c-.48-1.25-1.61-1.75-2.55-1.12-3.36,2.29-6.76,4.66-10.1,7a3,3,0,0,0-.79,3.43A1.91,1.91,0,0,0,449,120.7a1.44,1.44,0,0,0,.88-.3c3.32-2.35,6.7-4.7,10.05-7A3,3,0,0,0,460.77,110Z"/><path class="cls-8" d="M1137.25,108.33c-3.28-2.55-6.61-5.06-9.91-7.5-.92-.68-2.07-.23-2.57,1a3.07,3.07,0,0,0,.74,3.46c3.28,2.41,6.59,4.92,9.85,7.45a1.58,1.58,0,0,0,.94.33,1.85,1.85,0,0,0,1.64-1.27A3,3,0,0,0,1137.25,108.33Z"/><path class="cls-8" d="M481.2,96.78c-.45-1.27-1.56-1.82-2.52-1.23-3.41,2.13-6.87,4.34-10.27,6.56a3,3,0,0,0-.87,3.39,1.92,1.92,0,0,0,1.7,1.43,1.58,1.58,0,0,0,.83-.26c3.38-2.21,6.82-4.4,10.21-6.51A3,3,0,0,0,481.2,96.78Z"/><path class="cls-8" d="M1117.32,93.59c-3.36-2.36-6.76-4.71-10.13-7-.93-.63-2.07-.13-2.53,1.12a3,3,0,0,0,.84,3.41c3.34,2.25,6.73,4.58,10.06,6.93a1.49,1.49,0,0,0,.88.29,1.88,1.88,0,0,0,1.67-1.36A3,3,0,0,0,1117.32,93.59Z"/><path class="cls-8" d="M502,84.49c-.41-1.28-1.51-1.88-2.48-1.34-3.46,2-7,4-10.43,6.09a2.91,2.91,0,0,0-1,3.35,2,2,0,0,0,1.73,1.5,1.53,1.53,0,0,0,.76-.21c3.44-2.06,6.93-4.1,10.38-6.06A2.91,2.91,0,0,0,502,84.49Z"/><path class="cls-8" d="M1097,79.91c-3.41-2.18-6.88-4.35-10.32-6.43-1-.58-2.08,0-2.51,1.26a3,3,0,0,0,.95,3.36c3.42,2.08,6.87,4.22,10.25,6.39a1.48,1.48,0,0,0,.82.25,1.94,1.94,0,0,0,1.7-1.44A3,3,0,0,0,1097,79.91Z"/><path class="cls-8" d="M523,73.15c-.37-1.3-1.46-2-2.44-1.46-3.52,1.83-7.08,3.72-10.58,5.62a2.89,2.89,0,0,0-1,3.3,2,2,0,0,0,1.75,1.59,1.43,1.43,0,0,0,.71-.19c3.48-1.89,7-3.77,10.52-5.58A2.85,2.85,0,0,0,523,73.15Z"/><path class="cls-8" d="M1076.24,67.32c-3.47-2-7-4-10.5-5.89-1-.53-2.07.09-2.47,1.39a2.91,2.91,0,0,0,1,3.31c3.47,1.9,7,3.87,10.43,5.85a1.45,1.45,0,0,0,.74.2,2,2,0,0,0,1.74-1.53A2.92,2.92,0,0,0,1076.24,67.32Z"/><path class="cls-8" d="M544.33,62.76c-.35-1.33-1.43-2-2.41-1.56-3.57,1.66-7.17,3.39-10.72,5.12a2.87,2.87,0,0,0-1.12,3.26,2,2,0,0,0,1.77,1.67,1.46,1.46,0,0,0,.66-.16c3.52-1.73,7.11-3.45,10.65-5.1A2.83,2.83,0,0,0,544.33,62.76Z"/><path class="cls-8" d="M565.89,53.3c-.31-1.33-1.37-2.08-2.37-1.67-3.62,1.52-7.27,3.09-10.83,4.66a2.81,2.81,0,0,0-1.2,3.21,2,2,0,0,0,1.79,1.75,1.32,1.32,0,0,0,.6-.14c3.54-1.56,7.17-3.12,10.77-4.62A2.81,2.81,0,0,0,565.89,53.3Z"/><path class="cls-8" d="M1055.16,55.82c-3.51-1.81-7.1-3.61-10.66-5.34-1-.48-2.07.2-2.42,1.52a2.85,2.85,0,0,0,1.12,3.25c3.54,1.72,7.11,3.51,10.6,5.31a1.5,1.5,0,0,0,.67.16,2,2,0,0,0,1.77-1.63A2.84,2.84,0,0,0,1055.16,55.82Z"/><path class="cls-8" d="M587.67,44.78c-.28-1.35-1.33-2.14-2.33-1.77-3.65,1.36-7.32,2.78-10.93,4.2a2.74,2.74,0,0,0-1.29,3.15,2.05,2.05,0,0,0,1.82,1.82,1.46,1.46,0,0,0,.53-.1c3.59-1.42,7.25-2.82,10.88-4.17A2.73,2.73,0,0,0,587.67,44.78Z"/><path class="cls-8" d="M1033.76,45.42c-3.57-1.63-7.21-3.24-10.81-4.78-1-.43-2.06.3-2.37,1.64a2.79,2.79,0,0,0,1.22,3.19c3.58,1.53,7.2,3.14,10.74,4.75a1.5,1.5,0,0,0,.61.14,2,2,0,0,0,1.79-1.72A2.82,2.82,0,0,0,1033.76,45.42Z"/><path class="cls-8" d="M609.64,37.2c-.25-1.36-1.27-2.21-2.29-1.87-3.68,1.2-7.38,2.46-11,3.72a2.71,2.71,0,0,0-1.35,3.1,2.08,2.08,0,0,0,1.83,1.9,1.26,1.26,0,0,0,.47-.08c3.63-1.27,7.32-2.51,11-3.71A2.68,2.68,0,0,0,609.64,37.2Z"/><path class="cls-8" d="M1012.08,36.13c-3.61-1.45-7.28-2.87-10.93-4.23-1-.38-2,.41-2.32,1.76a2.73,2.73,0,0,0,1.31,3.13c3.62,1.35,7.27,2.76,10.86,4.2a1.5,1.5,0,0,0,.54.12,2.06,2.06,0,0,0,1.81-1.82A2.74,2.74,0,0,0,1012.08,36.13Z"/><path class="cls-8" d="M631.76,30.51c-.21-1.37-1.22-2.25-2.24-2-1.73.49-3.46,1-5.2,1.51-2,.58-3.94,1.17-5.9,1.77a2.66,2.66,0,0,0-1.43,3,2.1,2.1,0,0,0,1.84,2,1.65,1.65,0,0,0,.43-.06c2-.6,3.9-1.19,5.87-1.76l5.18-1.51A2.61,2.61,0,0,0,631.76,30.51Z"/><path class="cls-8" d="M990.17,28c-3.64-1.27-7.36-2.51-11-3.69-1-.32-2,.52-2.29,1.88a2.69,2.69,0,0,0,1.4,3.06c3.67,1.17,7.36,2.4,11,3.66a1.61,1.61,0,0,0,.48.08A2.08,2.08,0,0,0,991.52,31,2.67,2.67,0,0,0,990.17,28Z"/><path class="cls-8" d="M654,24.5c-.2-1.37-1.19-2.28-2.22-2-3.68.94-7.43,1.94-11.15,3a2.61,2.61,0,0,0-1.48,3,2.14,2.14,0,0,0,1.85,2,1.65,1.65,0,0,0,.38,0c3.71-1,7.44-2,11.11-3A2.6,2.6,0,0,0,654,24.5Z"/><path class="cls-8" d="M968,20.85c-3.68-1.08-7.43-2.14-11.14-3.13-1-.29-2,.6-2.22,2a2.62,2.62,0,0,0,1.48,3c3.68,1,7.41,2,11.07,3.12a1.44,1.44,0,0,0,.4.06,2.13,2.13,0,0,0,1.85-2A2.66,2.66,0,0,0,968,20.85Z"/><path class="cls-8" d="M676.36,19.16c-.18-1.38-1.15-2.32-2.18-2.08-3.72.84-7.48,1.72-11.2,2.61a2.61,2.61,0,0,0-1.53,3,2.14,2.14,0,0,0,1.86,2.08,1.37,1.37,0,0,0,.34,0c3.71-.89,7.46-1.78,11.16-2.61A2.57,2.57,0,0,0,676.36,19.16Z"/><path class="cls-8" d="M945.74,14.83c-3.72-.9-7.48-1.78-11.21-2.61-1-.22-2,.71-2.17,2.1a2.56,2.56,0,0,0,1.55,2.92c3.71.81,7.46,1.68,11.15,2.59a1.27,1.27,0,0,0,.34,0,2.14,2.14,0,0,0,1.85-2.08A2.6,2.6,0,0,0,945.74,14.83Z"/><path class="cls-8" d="M698.78,14.49c-.15-1.38-1.11-2.35-2.14-2.15-3.73.73-7.51,1.5-11.24,2.28a2.55,2.55,0,0,0-1.58,2.9c.15,1.25.95,2.14,1.86,2.14l.31,0c3.71-.78,7.48-1.54,11.19-2.26A2.53,2.53,0,0,0,698.78,14.49Z"/><path class="cls-8" d="M721.28,10.55c-.12-1.39-1.06-2.39-2.1-2.23-3.72.61-7.52,1.25-11.28,1.92a2.52,2.52,0,0,0-1.62,2.86c.12,1.28.93,2.2,1.86,2.2l.25,0c3.76-.67,7.54-1.31,11.24-1.91A2.47,2.47,0,0,0,721.28,10.55Z"/><path class="cls-8" d="M923.29,9.88c-3.72-.73-7.51-1.43-11.27-2.08-1-.19-2,.8-2.12,2.19s.6,2.66,1.64,2.84c3.74.64,7.5,1.34,11.2,2.07a1.24,1.24,0,0,0,.27,0,2.18,2.18,0,0,0,1.88-2.17A2.53,2.53,0,0,0,923.29,9.88Z"/><path class="cls-8" d="M741.79,5.07c-3.75.47-7.55,1-11.31,1.53a2.46,2.46,0,0,0-1.68,2.79,2.2,2.2,0,0,0,1.88,2.27l.2,0c3.75-.53,7.54-1.05,11.27-1.53,1-.13,1.8-1.37,1.7-2.76S742.83,4.93,741.79,5.07Z"/><path class="cls-8" d="M900.74,6c-3.76-.57-7.57-1.1-11.32-1.57-1-.14-2,.88-2.06,2.28s.66,2.63,1.7,2.76c3.73.49,7.51,1,11.25,1.57l.21,0c1,0,1.77-1,1.88-2.25A2.47,2.47,0,0,0,900.74,6Z"/><path class="cls-8" d="M764.46,2.58c-3.76.34-7.57.72-11.34,1.14-1,.12-1.82,1.34-1.74,2.74s.91,2.32,1.89,2.32h.16c3.76-.41,7.55-.8,11.28-1.15,1-.09,1.83-1.3,1.76-2.7S765.52,2.48,764.46,2.58Z"/><path class="cls-8" d="M878.09,3.06c-3.74-.41-7.55-.78-11.34-1.09-1.06-.09-2,1-2,2.36s.73,2.61,1.76,2.71c3.77.31,7.57.68,11.29,1.07h.15c1,0,1.81-1,1.89-2.33S879.13,3.17,878.09,3.06Z"/><path class="cls-8" d="M787.17.9c-3.75.21-7.58.46-11.36.73A2.37,2.37,0,0,0,774,4.3c.05,1.36.88,2.41,1.88,2.41H776c3.77-.27,7.58-.52,11.3-.72,1-.06,1.86-1.25,1.81-2.65S788.19.85,787.17.9Z"/><path class="cls-8" d="M855.39,1.13C851.63.88,847.81.68,844,.52c-1,0-1.91,1.05-1.95,2.45s.79,2.57,1.83,2.62c3.77.17,7.57.37,11.31.6h.09c1,0,1.84-1.05,1.89-2.41S856.44,1.19,855.39,1.13Z"/><path class="cls-8" d="M809.93.08h0c-3.76.06-7.58.16-11.37.31-1,0-1.87,1.19-1.84,2.6s.87,2.47,1.88,2.47h0c3.78-.14,7.59-.24,11.32-.3,1,0,1.88-1.17,1.87-2.57S811,.08,809.93.08Z"/><path class="cls-8" d="M832.65.14C828.89.06,825.06,0,821.28,0h0c-1,0-1.9,1.14-1.9,2.53s.85,2.55,1.9,2.55c3.76,0,7.56.06,11.31.14h0c1,0,1.88-1.11,1.89-2.5S833.7.16,832.65.14Z"/></g></g></svg>