<?xml version="1.0" encoding="UTF-8"?>
<svg width="384px" height="122px" viewBox="0 0 384 122" version="1.1" xmlns="http://www.w3.org/2000/svg" xmlns:xlink="http://www.w3.org/1999/xlink">
    <title>Effects</title>
    <g id="Website-Pages" stroke="none" stroke-width="1" fill="none" fill-rule="evenodd" opacity="0.5">
        <g id="Landing-Page" transform="translate(-315.000000, -2862.000000)" fill-rule="nonzero">
            <g id="Free-Demo" transform="translate(315.000000, 2715.000000)">
                <g id="Group" transform="translate(0.000000, 147.000000)" opacity="0.328">
                    <g transform="translate(0.500000, 0.675000)" fill="#212B79" id="Oval">
                        <circle cx="4" cy="4" r="4"></circle>
                        <circle cx="4" cy="20" r="4"></circle>
                        <circle cx="4" cy="36" r="4"></circle>
                        <circle cx="4" cy="53" r="4"></circle>
                        <circle cx="4" cy="68" r="4"></circle>
                        <circle cx="4" cy="85" r="4"></circle>
                        <circle cx="4" cy="101" r="4"></circle>
                        <circle cx="4" cy="117" r="4"></circle>
                        <circle cx="20" cy="4" r="4"></circle>
                        <circle cx="20" cy="20" r="4"></circle>
                        <circle cx="20" cy="36" r="4"></circle>
                        <circle cx="20" cy="53" r="4"></circle>
                        <circle cx="20" cy="68" r="4"></circle>
                        <circle cx="20" cy="85" r="4"></circle>
                        <circle cx="20" cy="101" r="4"></circle>
                        <circle cx="20" cy="117" r="4"></circle>
                        <circle cx="37" cy="4" r="4"></circle>
                        <circle cx="37" cy="20" r="4"></circle>
                        <circle cx="37" cy="36" r="4"></circle>
                        <circle cx="37" cy="53" r="4"></circle>
                        <circle cx="37" cy="68" r="4"></circle>
                        <circle cx="37" cy="85" r="4"></circle>
                        <circle cx="37" cy="101" r="4"></circle>
                        <circle cx="37" cy="117" r="4"></circle>
                        <circle cx="53" cy="4" r="4"></circle>
                        <circle cx="53" cy="20" r="4"></circle>
                        <circle cx="53" cy="36" r="4"></circle>
                        <circle cx="53" cy="53" r="4"></circle>
                        <circle cx="53" cy="68" r="4"></circle>
                        <circle cx="53" cy="85" r="4"></circle>
                        <circle cx="53" cy="101" r="4"></circle>
                        <circle cx="53" cy="117" r="4"></circle>
                        <circle cx="69" cy="4" r="4"></circle>
                        <circle cx="69" cy="20" r="4"></circle>
                        <circle cx="69" cy="36" r="4"></circle>
                        <circle cx="69" cy="53" r="4"></circle>
                        <circle cx="69" cy="68" r="4"></circle>
                        <circle cx="69" cy="85" r="4"></circle>
                        <circle cx="69" cy="101" r="4"></circle>
                        <circle cx="69" cy="117" r="4"></circle>
                        <circle cx="85" cy="4" r="4"></circle>
                        <circle cx="85" cy="20" r="4"></circle>
                        <circle cx="85" cy="36" r="4"></circle>
                        <circle cx="85" cy="53" r="4"></circle>
                        <circle cx="85" cy="68" r="4"></circle>
                        <circle cx="85" cy="85" r="4"></circle>
                        <circle cx="85" cy="101" r="4"></circle>
                        <circle cx="85" cy="117" r="4"></circle>
                        <circle cx="102" cy="4" r="4"></circle>
                        <circle cx="102" cy="20" r="4"></circle>
                        <circle cx="102" cy="36" r="4"></circle>
                        <circle cx="102" cy="53" r="4"></circle>
                        <circle cx="102" cy="68" r="4"></circle>
                        <circle cx="102" cy="85" r="4"></circle>
                        <circle cx="102" cy="101" r="4"></circle>
                        <circle cx="102" cy="117" r="4"></circle>
                        <circle cx="118" cy="4" r="4"></circle>
                        <circle cx="118" cy="20" r="4"></circle>
                        <circle cx="118" cy="36" r="4"></circle>
                        <circle cx="118" cy="53" r="4"></circle>
                        <circle cx="118" cy="68" r="4"></circle>
                        <circle cx="118" cy="85" r="4"></circle>
                        <circle cx="118" cy="101" r="4"></circle>
                        <circle cx="118" cy="117" r="4"></circle>
                    </g>
                    <g transform="translate(130.500000, 0.675000)" fill="#202978" id="Oval">
                        <circle cx="4" cy="4" r="4"></circle>
                        <circle cx="4" cy="20" r="4"></circle>
                        <circle cx="4" cy="36" r="4"></circle>
                        <circle cx="4" cy="53" r="4"></circle>
                        <circle cx="4" cy="68" r="4"></circle>
                        <circle cx="4" cy="85" r="4"></circle>
                        <circle cx="4" cy="101" r="4"></circle>
                        <circle cx="4" cy="117" r="4"></circle>
                        <circle cx="20" cy="4" r="4"></circle>
                        <circle cx="20" cy="20" r="4"></circle>
                        <circle cx="20" cy="36" r="4"></circle>
                        <circle cx="20" cy="53" r="4"></circle>
                        <circle cx="20" cy="68" r="4"></circle>
                        <circle cx="20" cy="85" r="4"></circle>
                        <circle cx="20" cy="101" r="4"></circle>
                        <circle cx="20" cy="117" r="4"></circle>
                        <circle cx="37" cy="4" r="4"></circle>
                        <circle cx="37" cy="20" r="4"></circle>
                        <circle cx="37" cy="36" r="4"></circle>
                        <circle cx="37" cy="53" r="4"></circle>
                        <circle cx="37" cy="68" r="4"></circle>
                        <circle cx="37" cy="85" r="4"></circle>
                        <circle cx="37" cy="101" r="4"></circle>
                        <circle cx="37" cy="117" r="4"></circle>
                        <circle cx="53" cy="4" r="4"></circle>
                        <circle cx="53" cy="20" r="4"></circle>
                        <circle cx="53" cy="36" r="4"></circle>
                        <circle cx="53" cy="53" r="4"></circle>
                        <circle cx="53" cy="68" r="4"></circle>
                        <circle cx="53" cy="85" r="4"></circle>
                        <circle cx="53" cy="101" r="4"></circle>
                        <circle cx="53" cy="117" r="4"></circle>
                        <circle cx="69" cy="4" r="4"></circle>
                        <circle cx="69" cy="20" r="4"></circle>
                        <circle cx="69" cy="36" r="4"></circle>
                        <circle cx="69" cy="53" r="4"></circle>
                        <circle cx="69" cy="68" r="4"></circle>
                        <circle cx="69" cy="85" r="4"></circle>
                        <circle cx="69" cy="101" r="4"></circle>
                        <circle cx="69" cy="117" r="4"></circle>
                        <circle cx="85" cy="4" r="4"></circle>
                        <circle cx="85" cy="20" r="4"></circle>
                        <circle cx="85" cy="36" r="4"></circle>
                        <circle cx="85" cy="53" r="4"></circle>
                        <circle cx="85" cy="68" r="4"></circle>
                        <circle cx="85" cy="85" r="4"></circle>
                        <circle cx="85" cy="101" r="4"></circle>
                        <circle cx="85" cy="117" r="4"></circle>
                        <circle cx="102" cy="4" r="4"></circle>
                        <circle cx="102" cy="20" r="4"></circle>
                        <circle cx="102" cy="36" r="4"></circle>
                        <circle cx="102" cy="53" r="4"></circle>
                        <circle cx="102" cy="68" r="4"></circle>
                        <circle cx="102" cy="85" r="4"></circle>
                        <circle cx="102" cy="101" r="4"></circle>
                        <circle cx="102" cy="117" r="4"></circle>
                        <circle cx="118" cy="4" r="4"></circle>
                        <circle cx="118" cy="20" r="4"></circle>
                        <circle cx="118" cy="36" r="4"></circle>
                        <circle cx="118" cy="53" r="4"></circle>
                        <circle cx="118" cy="68" r="4"></circle>
                        <circle cx="118" cy="85" r="4"></circle>
                        <circle cx="118" cy="101" r="4"></circle>
                        <circle cx="118" cy="117" r="4"></circle>
                    </g>
                    <g transform="translate(261.500000, 0.675000)" fill="#212B79" id="Oval">
                        <circle cx="4" cy="4" r="4"></circle>
                        <circle cx="4" cy="20" r="4"></circle>
                        <circle cx="4" cy="36" r="4"></circle>
                        <circle cx="4" cy="53" r="4"></circle>
                        <circle cx="4" cy="68" r="4"></circle>
                        <circle cx="4" cy="85" r="4"></circle>
                        <circle cx="4" cy="101" r="4"></circle>
                        <circle cx="4" cy="117" r="4"></circle>
                        <circle cx="20" cy="4" r="4"></circle>
                        <circle cx="20" cy="20" r="4"></circle>
                        <circle cx="20" cy="36" r="4"></circle>
                        <circle cx="20" cy="53" r="4"></circle>
                        <circle cx="20" cy="68" r="4"></circle>
                        <circle cx="20" cy="85" r="4"></circle>
                        <circle cx="20" cy="101" r="4"></circle>
                        <circle cx="20" cy="117" r="4"></circle>
                        <circle cx="37" cy="4" r="4"></circle>
                        <circle cx="37" cy="20" r="4"></circle>
                        <circle cx="37" cy="36" r="4"></circle>
                        <circle cx="37" cy="53" r="4"></circle>
                        <circle cx="37" cy="68" r="4"></circle>
                        <circle cx="37" cy="85" r="4"></circle>
                        <circle cx="37" cy="101" r="4"></circle>
                        <circle cx="37" cy="117" r="4"></circle>
                        <circle cx="53" cy="4" r="4"></circle>
                        <circle cx="53" cy="20" r="4"></circle>
                        <circle cx="53" cy="36" r="4"></circle>
                        <circle cx="53" cy="53" r="4"></circle>
                        <circle cx="53" cy="68" r="4"></circle>
                        <circle cx="53" cy="85" r="4"></circle>
                        <circle cx="53" cy="101" r="4"></circle>
                        <circle cx="53" cy="117" r="4"></circle>
                        <circle cx="69" cy="4" r="4"></circle>
                        <circle cx="69" cy="20" r="4"></circle>
                        <circle cx="69" cy="36" r="4"></circle>
                        <circle cx="69" cy="53" r="4"></circle>
                        <circle cx="69" cy="68" r="4"></circle>
                        <circle cx="69" cy="85" r="4"></circle>
                        <circle cx="69" cy="101" r="4"></circle>
                        <circle cx="69" cy="117" r="4"></circle>
                        <circle cx="85" cy="4" r="4"></circle>
                        <circle cx="85" cy="20" r="4"></circle>
                        <circle cx="85" cy="36" r="4"></circle>
                        <circle cx="85" cy="53" r="4"></circle>
                        <circle cx="85" cy="68" r="4"></circle>
                        <circle cx="85" cy="85" r="4"></circle>
                        <circle cx="85" cy="101" r="4"></circle>
                        <circle cx="85" cy="117" r="4"></circle>
                        <circle cx="102" cy="4" r="4"></circle>
                        <circle cx="102" cy="20" r="4"></circle>
                        <circle cx="102" cy="36" r="4"></circle>
                        <circle cx="102" cy="53" r="4"></circle>
                        <circle cx="102" cy="68" r="4"></circle>
                        <circle cx="102" cy="85" r="4"></circle>
                        <circle cx="102" cy="101" r="4"></circle>
                        <circle cx="102" cy="117" r="4"></circle>
                        <circle cx="118" cy="4" r="4"></circle>
                        <circle cx="118" cy="20" r="4"></circle>
                        <circle cx="118" cy="36" r="4"></circle>
                        <circle cx="118" cy="53" r="4"></circle>
                        <circle cx="118" cy="68" r="4"></circle>
                        <circle cx="118" cy="85" r="4"></circle>
                        <circle cx="118" cy="101" r="4"></circle>
                        <circle cx="118" cy="117" r="4"></circle>
                    </g>
                </g>
            </g>
        </g>
    </g>
</svg>