<?xml version="1.0" encoding="UTF-8"?>
<svg width="56px" height="80px" viewBox="0 0 56 80" version="1.1" xmlns="http://www.w3.org/2000/svg" xmlns:xlink="http://www.w3.org/1999/xlink">
    <title>dynamic-menu</title>
    <g id="Website-Pages" stroke="none" stroke-width="1" fill="none" fill-rule="evenodd">
        <g id="Group" fill="#505050" fill-rule="nonzero">
            <g id="shopping">
                <path d="M17.1840625,55.6432812 L37.9664063,55.6432812 C38.61375,55.6432812 39.1382813,55.1185937 39.1382813,54.4714062 C39.1382813,53.8242187 38.61375,53.2995312 37.9664063,53.2995312 L17.1840625,53.2995312 C16.536875,53.2995312 16.0121875,53.8242187 16.0121875,54.4714062 C16.0121875,55.1185937 16.536875,55.6432812 17.1840625,55.6432812 Z M20.8560937,28.7584375 L34.7689063,28.7584375 C35.83,28.7584375 36.7498437,28.07625 37.0579688,27.0610937 L39.9779687,17.4401563 C40.2003125,16.7078125 40.06625,15.9351563 39.6103125,15.3204688 C39.1545312,14.7057813 38.4542187,14.3532813 37.6889062,14.3532813 L36.6495312,14.3532813 L34.5254687,9.04359375 C34.0373437,7.82109375 32.87125,7.03125 31.5546875,7.03125 L24.0703125,7.03125 C22.7539062,7.03125 21.5878125,7.82109375 21.0995312,9.04296875 L18.9754687,14.353125 L17.9360937,14.353125 C17.1707812,14.353125 16.4704687,14.705625 16.0145312,15.3204688 C15.5585937,15.9353125 15.4246875,16.7078125 15.646875,17.4401563 L18.5670312,27.0610937 C18.8751562,28.07625 19.795,28.7584375 20.8560937,28.7584375 Z M17.8971875,16.7164062 C17.9325,16.6685937 24.27125,16.7123438 24.3165625,16.696875 C24.96375,16.696875 25.4884375,16.1721875 25.4884375,15.525 C25.4884375,14.8778125 24.96375,14.353125 24.3165625,14.353125 L21.4996875,14.353125 L23.275625,9.913125 C23.40625,9.58625 23.718125,9.375 24.0703125,9.375 L31.5546875,9.375 C31.906875,9.375 32.21875,9.58625 32.349375,9.9134375 L34.1253125,14.353125 L29.7851562,14.353125 C29.1378125,14.353125 28.6132812,14.8778125 28.6132812,15.525 C28.6132812,16.1721875 29.1378125,16.696875 29.7851562,16.696875 C29.8245312,16.696875 37.6978125,16.6759375 37.7278125,16.7164062 C37.7626562,16.7634375 34.8151562,26.3310938 34.8151562,26.3804687 C34.8151562,26.4845312 20.8159375,26.4009375 20.8096875,26.3804687 C20.7948437,26.33125 17.8623437,16.7632812 17.8971875,16.7164062 L17.8971875,16.7164062 Z M17.1840625,67.3339062 C16.536875,67.3339062 16.0121875,67.8585937 16.0121875,68.5057812 C16.0121875,69.1529687 16.536875,69.6776562 17.1840625,69.6776562 L37.9664063,69.6776562 C38.61375,69.6776562 39.1382813,69.1529687 39.1382813,68.5057812 C39.1382813,67.8585937 38.61375,67.3339062 37.9664063,67.3339062 L17.1840625,67.3339062 Z M48.5132813,63.8182812 C48.5132813,63.1710937 47.98875,62.6464062 47.3414063,62.6464062 L17.1840625,62.6464062 C16.536875,62.6464062 16.0121875,63.1710937 16.0121875,63.8182812 C16.0121875,64.4654687 16.536875,64.9901562 17.1840625,64.9901562 L47.3414063,64.9901562 C47.98875,64.9901562 48.5132813,64.4654687 48.5132813,63.8182812 Z M54.3726563,51.2978125 C55.02,51.2978125 55.5446875,50.773125 55.5446875,50.1259375 L55.5446875,5.859375 C55.5446875,2.6284375 52.9160938,8.8817842e-15 49.6851563,8.8817842e-15 L5.93984375,8.8817842e-15 C2.70890625,8.8817842e-15 0.08046875,2.6284375 0.08046875,5.859375 L0.08046875,74.140625 C0.08046875,77.3715625 2.70890625,80 5.93984375,80 L49.6853125,80 C52.91625,80 55.5446875,77.3715625 55.5446875,74.140625 L55.5446875,55.5946875 C55.5446875,54.9475 55.0201562,54.4228125 54.3728125,54.4228125 C53.7254688,54.4228125 53.2009375,54.9475 53.2009375,55.5946875 L53.2009375,74.140625 C53.2009375,76.0792187 51.62375,77.65625 49.6853125,77.65625 L5.93984375,77.65625 C4.00125,77.65625 2.42421875,76.0792187 2.42421875,74.140625 L2.42421875,5.859375 C2.42421875,3.92078125 4.00125,2.34375 5.93984375,2.34375 L49.6853125,2.34375 C51.62375,2.34375 53.2009375,3.92078125 53.2009375,5.859375 L53.2009375,50.1259375 C53.2007813,50.773125 53.7254688,51.2978125 54.3726563,51.2978125 Z M12.55125,56.5420312 C11.9742188,56.5492187 11.3690625,56.5548437 10.814375,56.5576563 C11.2084375,56.0226563 11.706875,55.3325 12.3282813,54.4445312 C12.8732813,53.6659375 13.2589063,52.9610937 13.359375,52.22875 C13.3757813,52.10875 13.4073438,51.8932813 13.4073438,51.77875 C13.4073438,50.0326563 11.986875,48.6121875 10.2407813,48.6121875 C8.73109375,48.6121875 7.424375,49.6864062 7.13359375,51.16625 C7.00890625,51.80125 7.4225,52.4173438 8.05765625,52.5420313 C8.6928125,52.6667188 9.30875,52.253125 9.4334375,51.6179688 C9.50875,51.2342187 9.84828125,50.9559375 10.2407813,50.9559375 C10.6748438,50.9559375 11.0315625,51.29375 11.0615625,51.7203125 C11.09125,52.1414062 10.8764063,52.4315625 10.408125,53.100625 C9.176875,54.8598438 8.44234375,55.8215625 8.0478125,56.338125 C7.35890625,57.2401563 7.0296875,58.4157813 8.22296875,58.8134375 C8.376875,58.8646875 11.4703125,58.8996875 12.580625,58.885625 C13.2278125,58.8775 13.7457813,58.34625 13.7376563,57.6990625 C13.7295313,57.051875 13.1928125,56.5295312 12.55125,56.5420313 L12.55125,56.5420312 Z M47.3414063,48.6120312 L17.1840625,48.6120312 C16.536875,48.6120312 16.0121875,49.1367187 16.0121875,49.7839062 C16.0121875,50.4310937 16.536875,50.9557812 17.1840625,50.9557812 L47.3414063,50.9557812 C47.98875,50.9557812 48.5132813,50.4310937 48.5132813,49.7839062 C48.5132813,49.1367187 47.98875,48.6120312 47.3414063,48.6120312 Z M10.4246875,62.6464062 C8.915,62.6464062 7.60828125,63.720625 7.3175,65.2004687 C7.1928125,65.8354687 7.60640625,66.4515625 8.2415625,66.57625 C8.87625,66.7007812 9.4925,66.2873437 9.61734375,65.6521875 C9.69265625,65.2684375 10.0321875,64.9901562 10.4246875,64.9901562 C10.8784375,64.9901562 11.2475,65.3592187 11.2475,65.8129687 C11.2475,66.2667187 10.8784375,66.6357812 10.4246875,66.6357812 C9.7775,66.6357812 9.2528125,67.1604687 9.2528125,67.8076562 C9.2528125,68.4548437 9.7775,68.9795312 10.4246875,68.9795312 C10.8784375,68.9795312 11.2475,69.3485937 11.2475,69.8023437 C11.2475,70.2560937 10.8784375,70.6251563 10.4246875,70.6251563 C10.0164063,70.6251563 9.66609375,70.3214062 9.60984375,69.9179688 C9.60453125,69.8801562 9.601875,69.84125 9.601875,69.8023437 C9.601875,69.1551562 9.0771875,68.6304687 8.43,68.6304687 C7.7828125,68.6304687 7.258125,69.1551562 7.258125,69.8023437 C7.258125,71.5235938 8.68640625,72.9689062 10.4246875,72.9689062 C12.1707813,72.9689062 13.59125,71.5484375 13.59125,69.8023437 C13.59125,69.0467187 13.324375,68.3526562 12.8809375,67.8076562 C13.324375,67.2626562 13.59125,66.5685937 13.59125,65.8129687 C13.59125,64.066875 12.1707813,62.6464062 10.4246875,62.6464062 Z M10.4246875,44.7778125 C11.071875,44.7778125 11.5965625,44.253125 11.5965625,43.6059375 L11.5965625,35.810625 C11.5965625,35.1634375 11.071875,34.63875 10.4246875,34.63875 L8.7584375,34.63875 C8.11125,34.63875 7.5865625,35.1634375 7.5865625,35.810625 C7.5865625,36.4578125 8.11125,36.9825 8.7584375,36.9825 L9.2528125,36.9825 L9.2528125,43.6059375 C9.2528125,44.253125 9.7775,44.7778125 10.4246875,44.7778125 Z M17.1840625,41.67 L37.9664063,41.67 C38.61375,41.67 39.1382813,41.1453125 39.1382813,40.498125 C39.1382813,39.8509375 38.61375,39.32625 37.9664063,39.32625 L17.1840625,39.32625 C16.536875,39.32625 16.0121875,39.8509375 16.0121875,40.498125 C16.0121875,41.1453125 16.536875,41.67 17.1840625,41.67 Z M47.3414063,34.63875 L17.1840625,34.63875 C16.536875,34.63875 16.0121875,35.1634375 16.0121875,35.810625 C16.0121875,36.4578125 16.536875,36.9825 17.1840625,36.9825 L47.3414063,36.9825 C47.98875,36.9825 48.5132813,36.4578125 48.5132813,35.810625 C48.5132813,35.1634375 47.98875,34.63875 47.3414063,34.63875 Z" id="Shape"></path>
            </g>
        </g>
    </g>
</svg>