<?xml version="1.0" encoding="UTF-8"?>
<svg width="81px" height="80px" viewBox="0 0 81 80" version="1.1" xmlns="http://www.w3.org/2000/svg" xmlns:xlink="http://www.w3.org/1999/xlink">
    <title>smother-ordering</title>
    <g id="Website-Pages" stroke="none" stroke-width="1" fill="none" fill-rule="evenodd">
        <g id="Landing-Page" transform="translate(-440.000000, -2175.000000)" fill-rule="nonzero">
            <g id="Online-Menu-Boost" transform="translate(295.000000, 1205.000000)">
                <g id="Smoother-Ordering" transform="translate(0.000000, 970.000000)">
                    <g id="Group" transform="translate(145.000000, 0.000000)">
                        <g id="smother-ordering" transform="translate(0.000000, 0.000000)">
                            <g id="Group" transform="translate(1.194030, 1.194030)">
                                <path d="M74.7837338,63.2336426 L3.33003865,63.2336426 C1.53571636,63.2336426 0.0812204549,61.7849647 0.0812204549,59.9978197 L0.0812204549,3.38871555 C0.0812204549,1.60157056 1.53571636,0.152892633 3.33003865,0.152892633 L74.7837338,0.152892633 C76.5780561,0.152892633 78.032552,1.60157056 78.032552,3.38871555 L78.032552,59.9979815 C78.032552,61.7849647 76.5780561,63.2336426 74.7837338,63.2336426 Z" id="Path" fill="#FFFFFF"></path>
                                <path d="M74.7837338,0.152892633 L71.5349156,0.152892633 C73.3292379,0.152892633 74.7837338,1.60157056 74.7837338,3.38871555 L74.7837338,59.9979815 C74.7837338,61.7851265 73.3292379,63.2338044 71.5349156,63.2338044 L74.7837338,63.2338044 C76.5780561,63.2338044 78.032552,61.7851265 78.032552,59.9979815 L78.032552,3.38871555 C78.032552,1.60157056 76.5780561,0.152892633 74.7837338,0.152892633 Z" id="Path" fill="#B6E6FA"></path>
                                <path d="M78.032552,12.2972596 L0.0812204549,12.2972596 L0.0812204549,3.38871555 C0.0812204549,1.60157056 1.53571636,0.152892633 3.33003865,0.152892633 L74.7837338,0.152892633 C76.5780561,0.152892633 78.032552,1.60157056 78.032552,3.38871555 L78.032552,12.2972596 Z" id="Path" fill="#B6E6FA"></path>
                                <path d="M77.7771949,2.12917148 C77.244876,0.875128309 76.0098378,0.152892633 74.6679134,0.152892633 C73.8852731,0.152892633 73.1026328,0.152892633 72.3199925,0.152892633 C72.0583002,0.152892633 71.7966079,0.152892633 71.5349156,0.152892633 C73.0612104,0.152892633 74.4187291,1.25566108 74.7198945,2.74737545 C74.8308417,3.29714177 74.7837338,3.89382751 74.7837338,4.45152159 L74.7837338,7.40679867 L74.7837338,10.5706245 L74.7837338,12.2713731 L74.7837338,12.2972596 L78.032552,12.2972596 C78.032552,11.2020954 78.032552,10.1067693 78.032552,9.01160505 C78.032552,7.38285358 78.032552,5.75394032 78.032552,4.12518885 C78.032552,3.44145947 78.0530196,2.77876293 77.7771949,2.12917148 L77.7771949,2.12917148 Z" id="Path" fill="#54C9F3"></path>
                                <path d="M65.0372792,44.9690401 L48.7931883,44.9690401 C46.1129132,44.9690401 43.919961,42.7848596 43.919961,40.1153057 C43.919961,37.4457518 46.1129132,35.2615713 48.7931883,35.2615713 L65.0372792,35.2615713 C67.7175542,35.2615713 69.9105065,37.4457518 69.9105065,40.1153057 C69.9105065,42.7848596 67.7175542,44.9690401 65.0372792,44.9690401 Z" id="Path" fill="#FEE95D"></path>
                                <path d="M65.0372792,35.2615713 L61.788461,35.2615713 C64.468736,35.2615713 66.6616883,37.4457518 66.6616883,40.1153057 C66.6616883,42.7848596 64.468736,44.9690401 61.788461,44.9690401 L65.0372792,44.9690401 C67.7175542,44.9690401 69.9105065,42.7848596 69.9105065,40.1153057 C69.9105065,37.4457518 67.7175542,35.2615713 65.0372792,35.2615713 Z" id="Path" fill="#FCAD42"></path>
                                <polygon id="Path" fill="#8AD8F6" points="33.0437299 56.4986008 11.0666119 56.4986008 9.00962262 33.9235586 35.0037419 33.9235586"></polygon>
                                <polygon id="Path" fill="#00ADEB" points="31.7549237 33.9235586 29.7949117 56.4986008 33.0437299 56.4986008 35.0037419 33.9235586"></polygon>
                                <polygon id="Path" fill="#FEE95D" points="19.5741296 33.9235586 19.5741296 20.7003682 29.3205842 22.3283107 29.3205842 33.9235586"></polygon>
                                <g transform="translate(41.422432, 40.124204)" id="Path">
                                    <path d="M32.9342447,17.0235026 C30.9157539,17.0235026 29.2793242,18.6533866 29.2793242,20.6638034 L29.2793242,18.2469672 C29.2793242,16.2365505 27.6428945,14.6066665 25.6244037,14.6066665 C23.605913,14.6066665 21.9694833,16.2365505 21.9694833,18.2469672 L21.9694833,15.8099072 C21.9694833,13.7994904 20.3330536,12.1696064 18.3145628,12.1696064 C16.2960721,12.1696064 14.6596423,13.7994904 14.6596423,15.8099072 L14.6596423,3.68560231 C14.6596423,1.67518553 13.0232126,0.0453015209 11.0047219,0.0453015209 C8.98623113,0.0453015209 7.3498014,1.67518553 7.3498014,3.68560231 L7.3498014,19.4248068 L3.71518605,19.4956713 C1.6966953,19.4956713 0.0602655775,21.1255553 0.0602655775,23.1359721 L0.0399604638,33.2024554 L2.53748945,37.855407 L36.6297754,37.855407 L36.5891652,20.6636416 C36.5891652,18.6532248 34.9528979,17.0235026 32.9342447,17.0235026 Z" fill="#FCE7D1"></path>
                                    <g transform="translate(4.061023, 0.000000)" fill="#FFCEB7">
                                        <path d="M25.0636577,17.0752758 L25.0636577,17.0733343 C24.7337402,16.1108387 23.9941468,15.3122376 23.0578374,14.906789 C22.0792933,14.4828962 20.9350596,14.5129894 19.9795821,14.9860667 C20.9818425,15.4822801 21.7183496,16.4337739 21.9386195,17.5273202 C22.0290991,17.976776 22.0100935,18.4357775 22.0100935,18.8915432 L22.0100935,23.108144 L22.0100935,24.3243281 L25.2589117,24.3477878 C25.2589117,23.5820303 25.2589117,22.816111 25.2589117,22.0503535 C25.2589117,20.9293027 25.2589117,19.8082518 25.2589117,18.687201 C25.2589117,18.1380818 25.2446169,17.60498 25.0636577,17.0752758 Z"></path>
                                        <path d="M17.9490708,15.810069 C17.9490708,15.4067237 17.8819827,15.0193957 17.7603144,14.6568217 L17.7603144,14.6555274 C17.4781546,13.8198761 16.8878443,13.1000673 16.1216105,12.6580539 L16.1216105,12.6601572 C15.0717549,12.0540875 13.7567958,12.0107275 12.6697412,12.5490067 C13.9107897,13.1634894 14.6927803,14.4426102 14.7002526,15.8179968 C14.7026892,16.277969 14.7002526,16.7379412 14.7002526,17.1979135 L14.7002526,22.8005791 L14.7002526,24.3008684 L17.9084605,24.3460081 L17.9490708,15.810069 Z"></path>
                                        <path d="M7.39041163,3.6857641 L7.39041163,24.3243281 L10.6392298,24.3243281 L10.6392298,3.6857641 C10.6392298,1.67534732 9.0028001,0.0454633121 6.98430935,0.0454633121 C6.40065917,0.0454633121 5.84933472,0.182338622 5.35990026,0.424701758 C6.56310008,1.02057855 7.39041163,2.25666291 7.39041163,3.6857641 Z"></path>
                                        <path d="M28.9138322,17.0235026 C28.330182,17.0235026 27.7788575,17.1603779 27.2894231,17.402741 C28.4926229,17.998456 29.3199344,19.2347022 29.3199344,20.6638034 L29.3199344,37.8474792 L32.5687526,37.8555688 L32.5687526,20.6638034 C32.5687526,18.6532248 30.9324854,17.0235026 28.9138322,17.0235026 Z"></path>
                                        <polygon points="3.32938889 19.4249686 0.0805706912 19.4882289 0.0805706912 31.5847057 3.32938889 31.5847057"></polygon>
                                    </g>
                                </g>
                            </g>
                            <g id="Group">
                                <path d="M18.2972985,8.51932699 L15.8752979,8.51932699 L15.8752979,6.08555807 L18.2972985,6.08555807 L18.2972985,8.51932699 Z M13.4329444,8.51932699 L10.9905908,8.51932699 L10.9905908,6.08555807 L13.4329444,6.08555807 L13.4329444,8.51932699 Z M8.54823733,8.51932699 L6.1058838,8.51932699 L6.1058838,6.08555807 L8.54823733,6.08555807 L8.54823733,8.51932699 Z" id="Shape" fill="#FFFFFF"></path>
                                <g fill="#000000">
                                    <path d="M80.556309,62.0966406 C80.556309,59.4126802 78.3650295,57.2291027 75.671602,57.2291027 C74.665678,57.2291027 73.7297681,57.5336484 72.9519599,58.0551239 C72.2811268,56.1640855 70.4690633,54.8053934 68.3445414,54.8053934 C67.3410598,54.8053934 66.4074294,55.1084788 65.6305982,55.6275205 C64.9646498,53.7278828 63.1481901,52.3614026 61.0174809,52.3614026 C60.1284642,52.3614026 59.2939934,52.5994252 58.5751273,53.0146262 L58.5751273,47.4494079 L66.3302511,47.4494079 C69.6971168,47.4494079 72.4361349,44.7200172 72.4361349,41.3649856 C72.4361349,38.0099541 69.6971168,35.2805633 66.3302511,35.2805633 L50.0478943,35.2805633 C46.6810285,35.2805633 43.9420104,38.0099541 43.9420104,41.3649856 C43.9420104,44.2958924 46.0325022,46.7491315 48.8057132,47.3225275 L48.8057132,58.3747589 L48.8057132,59.6607624 L46.3711753,59.7084643 C44.114115,59.7143053 42.2123357,61.2537453 41.6608523,63.3325085 L4.47764812,63.3325085 C3.35530527,63.3325085 2.44235352,62.4227656 2.44235352,61.3043677 L2.44235352,36.3353588 L0,36.3353588 L0,61.3043677 C0,63.7647458 2.00875436,65.7662774 4.47764812,65.7662774 L41.4965633,65.7662774 L41.4780014,75.040884 L44.1295832,79.9171834 L46.2769004,78.7577359 L43.9216575,74.4262762 L43.9413592,64.5760021 C43.9413592,63.2340219 45.0369989,62.1422332 46.3837127,62.1422332 L48.8057132,62.0951803 L48.8057132,73.0486007 L51.2480668,73.0486007 L51.2480668,62.047803 L51.2480668,58.3750834 L51.2480668,45.07048 C51.2480668,43.7284998 52.3437066,42.636711 53.6904203,42.636711 C55.037134,42.636711 56.1327738,43.7284998 56.1327738,45.07048 L56.1327738,57.229265 L56.1327738,65.7576781 L58.5751273,65.7576781 L58.5751273,57.229265 C58.5751273,55.8872848 59.6707671,54.7954961 61.0174809,54.7954961 C62.3641946,54.7954961 63.4598344,55.8872848 63.4598344,57.229265 L63.4598344,59.6732557 L63.4598344,65.7576781 L65.9021879,65.7576781 L65.9021879,59.6732557 C65.9021879,58.3312756 66.9978277,57.2394868 68.3445414,57.2394868 C69.6912552,57.2394868 70.7868949,58.3312756 70.7868949,59.6732557 L70.7868949,62.0969651 L70.7868949,65.7578403 L73.2292485,65.7578403 L73.2292485,62.0969651 C73.2292485,60.7549849 74.3248883,59.6631962 75.671602,59.6631962 C77.0183157,59.6631962 78.1139555,60.7549849 78.1139555,62.0998856 L78.1546614,79.3405424 L80.5970149,79.3348636 L80.556309,62.0966406 Z M53.6904203,40.2027799 C51.0873599,40.2027799 48.9538827,42.2424405 48.8135288,44.8019541 C47.3990804,44.2958924 46.384364,42.9466109 46.384364,41.3651479 C46.384364,39.3520965 48.0279051,37.7144945 50.0478943,37.7144945 L66.3302511,37.7144945 C68.3502402,37.7144945 69.9937813,39.3520965 69.9937813,41.3651479 C69.9937813,43.3781993 68.3502402,45.0158013 66.3302511,45.0158013 L58.5738247,45.0158013 C58.5441909,42.3569899 56.3654487,40.2027799 53.6904203,40.2027799 L53.6904203,40.2027799 Z" id="Shape"></path>
                                    <path d="M2.44235352,14.6848749 L78.1349598,14.6848749 L78.1349598,56.0488871 L80.5773133,56.0488871 L80.5773133,4.53411151 C80.5773133,2.07373337 78.5687217,0.0722018114 76.0996652,0.0722018114 L4.47764812,0.0722018114 C2.00859154,0.0722018114 0,2.07373337 0,4.53411151 L0,33.8204642 L2.44235352,33.8204642 L2.44235352,14.6848749 Z M2.44235352,4.53411151 C2.44235352,3.41571356 3.35530527,2.50597074 4.47764812,2.50597074 L76.0996652,2.50597074 C77.222008,2.50597074 78.1349598,3.41571356 78.1349598,4.53411151 L78.1349598,12.2512683 L2.44235352,12.2512683 L2.44235352,4.53411151 Z" id="Shape"></path>
                                    <polygon id="Path" points="45.1631872 19.5423532 59.8173083 19.5423532 59.8173083 21.9761221 45.1631872 21.9761221"></polygon>
                                    <polygon id="Path" points="45.1631872 24.2576994 69.5867224 24.2576994 69.5867224 26.6914683 45.1631872 26.6914683"></polygon>
                                    <polygon id="Path" points="57.3749548 29.2285913 59.8715286 29.2285913 59.8715286 31.6623602 57.3749548 31.6623602"></polygon>
                                    <polygon id="Path" points="45.1631872 29.2285913 54.9326013 29.2285913 54.9326013 31.6623602 45.1631872 31.6623602"></polygon>
                                    <path d="M7.13134664,42.0805137 L9.27426762,38.7780515 L11.1171048,59.0119196 L35.3815614,59.0119196 L37.1369622,38.7835681 L39.2548084,42.0285933 L41.3021519,40.7017025 L37.4788917,34.8434584 L37.5573727,33.9389076 L31.7505958,33.9389076 L31.7505958,24.9641414 L35.2133646,25.5391598 L35.6150503,23.1384902 L6.30680809,18.2709523 L5.90512235,20.671622 L19.5388282,22.9360006 L19.5388282,25.5456499 L6.1058838,25.5456499 L6.1058838,27.9794188 L19.5388282,27.9794188 L19.5388282,33.9389076 L8.83350422,33.9389076 L8.91621859,34.8478392 L5.08042097,40.7591394 L7.13134664,42.0805137 Z M33.8643713,36.3726766 L31.1787594,40.1503727 L15.638064,40.2009951 L12.6614863,36.3728388 L33.8643713,36.3728388 L33.8643713,36.3726766 Z M13.3479505,56.5783129 L11.7646541,39.1927657 L14.4437531,42.638658 L32.4447127,42.5800853 L34.6219894,39.5175928 L33.1414347,56.5783129 L13.3479505,56.5783129 L13.3479505,56.5783129 Z M29.3082423,33.9389076 L26.8658887,33.9389076 L26.8658887,24.1528851 L29.3082423,24.5585132 L29.3082423,33.9389076 Z M21.9811817,23.3416287 L24.4235352,23.7472569 L24.4235352,33.9389076 L21.9811817,33.9389076 L21.9811817,23.3416287 Z" id="Shape"></path>
                                </g>
                            </g>
                        </g>
                    </g>
                </g>
            </g>
        </g>
    </g>
</svg>