<svg id="Capa_1" enable-background="new 0 0 511.73 511.73" height="512" viewBox="0 0 511.73 511.73" width="512" xmlns="http://www.w3.org/2000/svg"><g><path d="m189.415 228.201v41.375 25.9h136.135c14.4-11.69 22.763-29.249 22.763-47.798v-62.837l-24.874-21.563-134.023-11.971v76.894z" fill="#ffddce"/><path d="m323.438 163.28-134.023-11.971c0 1.837 0 82.525 0 80.892 0 6.045 6.195 10.109 11.739 7.702l25.058-10.877c6.032-2.361 10.915-6.527 14.136-11.748 2.07-3.355 5.647-5.484 9.589-5.475.202 0 .412.001.63.002 1.607 0 3.183-.133 4.719-.387 3.78-.627 7.56.763 10.057 3.67 5.277 6.144 13.099 10.043 21.815 10.043h5.547c1.844 0 3.648-.174 5.397-.508 3.594-.685 7.342.465 9.784 3.19 5.268 5.878 9.916 9.582 18.411 9.582 2.983 0 5.401 2.418 5.401 5.401v8.883c0 18.548-8.362 32.107-22.763 43.797h16.613c14.4-11.69 22.763-29.249 22.763-47.797v-17.644-45.193z" fill="#ffcbbe"/><g fill="#ffddce"><path d="m226.726 134.18v58.199c0 10.104-8.191 18.296-18.296 18.296h-5.547c-10.104 0-18.296-8.191-18.296-18.296v-58.199c0-10.104 8.191-18.296 18.296-18.296h5.547c10.104.001 18.296 8.192 18.296 18.296z"/><path d="m311.002 134.18v58.199c0 10.104-8.191 18.296-18.296 18.296h-5.547c-10.104 0-18.296-8.191-18.296-18.296v-58.199c0-10.104 8.191-18.296 18.296-18.296h5.547c10.105.001 18.296 8.192 18.296 18.296z"/><path d="m353.141 154.27v50.374c0 10.104-8.191 18.296-18.296 18.296h-5.547c-10.104 0-18.296-8.191-18.296-18.296v-50.374c0-10.104 8.191-18.296 18.296-18.296h5.547c10.105 0 18.296 8.192 18.296 18.296z"/><path d="m268.864 120.855v58.199c0 10.104-8.191 18.296-18.296 18.296h-5.547c-10.104 0-18.296-8.191-18.296-18.296v-58.199c0-10.104 8.191-18.296 18.296-18.296h5.547c10.105 0 18.296 8.192 18.296 18.296z"/></g><path d="m211.178 134.18v58.199c0 8.907-6.366 16.324-14.795 17.957 1.133.22 2.303.338 3.5.338h8.547c10.105 0 18.296-8.191 18.296-18.296v-58.198c0-10.105-8.191-18.296-18.296-18.296h-8.547c-1.198 0-2.367.119-3.5.338 8.429 1.635 14.795 9.051 14.795 17.958z" fill="#ffcbbe"/><path d="m295.454 134.18v58.199c0 8.907-6.366 16.324-14.795 17.957 1.133.22 2.303.338 3.5.338h8.547c10.104 0 18.296-8.191 18.296-18.296v-58.198c0-10.105-8.191-18.296-18.296-18.296h-8.547c-1.198 0-2.367.119-3.5.338 8.43 1.635 14.795 9.051 14.795 17.958z" fill="#ffcbbe"/><path d="m337.593 154.27v50.374c0 8.907-6.366 16.324-14.795 17.957 1.133.22 2.303.338 3.5.338h8.547c10.104 0 18.296-8.191 18.296-18.296v-50.373c0-10.104-8.191-18.296-18.296-18.296h-8.547c-1.198 0-2.367.119-3.5.338 8.429 1.634 14.795 9.051 14.795 17.958z" fill="#ffcbbe"/><path d="m253.316 120.855v58.199c0 8.907-6.366 16.324-14.795 17.957 1.133.22 2.303.338 3.5.338h8.547c10.104 0 18.296-8.191 18.296-18.296v-58.199c0-10.104-8.191-18.296-18.296-18.296h-8.547c-1.198 0-2.367.119-3.5.338 8.429 1.636 14.795 9.052 14.795 17.959z" fill="#ffcbbe"/><path d="m189.415 228.201v41.375c-19.502-4.365-33.366-21.675-33.366-41.66v-16.882c0-17.44 14.138-31.577 31.577-31.577h28.012c10.247 0 18.555 8.307 18.555 18.555 0 7.637-4.68 14.495-11.792 17.278z" fill="#ffddce"/><path d="m340.812 504.23h-159.631c-4.142 0-7.5-3.358-7.5-7.5v-193.754c0-4.142 3.358-7.5 7.5-7.5h159.632c4.142 0 7.5 3.358 7.5 7.5v193.754c0 4.142-3.358 7.5-7.501 7.5z" fill="#b3e59f"/><path d="m340.812 295.476h-24.476c4.142 0 7.5 3.358 7.5 7.5v193.754c0 4.142-3.358 7.5-7.5 7.5h24.476c4.142 0 7.5-3.358 7.5-7.5v-193.754c.001-4.142-3.357-7.5-7.5-7.5z" fill="#95d6a4"/><g><path d="m204.054 360.12v13.382c0 4.143 3.357 7.5 7.5 7.5s7.5-3.357 7.5-7.5v-13.382c0-4.143-3.357-7.5-7.5-7.5s-7.5 3.358-7.5 7.5z"/><path d="m254.589 60.867c4.143 0 7.5-3.357 7.5-7.5v-45.867c0-4.143-3.357-7.5-7.5-7.5s-7.5 3.357-7.5 7.5v45.867c0 4.143 3.358 7.5 7.5 7.5z"/><path d="m394.932 61.468-32.434 32.434c-2.929 2.93-2.929 7.678 0 10.607 1.465 1.464 3.385 2.196 5.304 2.196s3.839-.732 5.304-2.196l32.434-32.434c2.929-2.93 2.929-7.678 0-10.607-2.93-2.928-7.678-2.928-10.608 0z"/><path d="m461.311 204.17h-45.867c-4.143 0-7.5 3.357-7.5 7.5s3.357 7.5 7.5 7.5h45.867c4.143 0 7.5-3.357 7.5-7.5s-3.357-7.5-7.5-7.5z"/><path d="m96.287 206.721h-45.868c-4.143 0-7.5 3.357-7.5 7.5s3.357 7.5 7.5 7.5h45.867c4.143 0 7.5-3.357 7.5-7.5s-3.357-7.5-7.499-7.5z"/><path d="m147.428 95.704-32.434-32.433c-2.93-2.928-7.678-2.928-10.607 0-2.929 2.93-2.929 7.678 0 10.607l32.434 32.433c1.465 1.464 3.385 2.196 5.304 2.196s3.839-.732 5.304-2.196c2.928-2.929 2.928-7.677-.001-10.607z"/><path d="m360.641 154.27c0-14.224-11.572-25.795-25.796-25.795h-5.547c-3.935 0-7.666.889-11.006 2.472-1.597-12.702-12.458-22.562-25.586-22.562h-5.547c-4.536 0-8.8 1.181-12.508 3.246-3.72-9.68-13.11-16.571-24.084-16.571h-5.547c-10.974 0-20.363 6.891-24.084 16.571-3.707-2.065-7.971-3.246-12.507-3.246h-5.548c-14.224 0-25.795 11.572-25.795 25.796v39.232c-16.442 4.613-28.538 19.726-28.538 37.621v16.883c0 21.608 13.449 40.27 33.366 47.289v12.77h-.734c-8.271 0-15 6.729-15 15v193.754c0 8.271 6.729 15 15 15h99.656c4.143 0 7.5-3.357 7.5-7.5s-3.357-7.5-7.5-7.5h-99.656v-193.753h159.632l-.001 193.754h-29.987c-4.143 0-7.5 3.357-7.5 7.5s3.357 7.5 7.5 7.5h29.987c8.271 0 15.001-6.729 15.001-15v-193.754c0-7.618-5.712-13.912-13.075-14.862 8.426-11.634 13.075-25.692 13.075-40.436v-28.037c3.034-4.23 4.828-9.407 4.828-14.998v-18.852c0-4.143-3.357-7.5-7.5-7.5s-7.5 3.357-7.5 7.5v18.852c0 5.953-4.843 10.796-10.796 10.796h-5.547c-5.953 0-10.796-4.843-10.796-10.796v-50.374c0-5.952 4.843-10.795 10.796-10.795h5.547c5.953 0 10.796 4.843 10.796 10.795v1.535c0 4.143 3.357 7.5 7.5 7.5s7.5-3.357 7.5-7.5v-1.535zm-73.481-30.885h5.547c5.953 0 10.796 4.843 10.796 10.796v58.199c0 5.952-4.843 10.795-10.796 10.795h-5.547c-5.953 0-10.796-4.843-10.796-10.795v-58.199c0-5.953 4.843-10.796 10.796-10.796zm-52.935-2.53c0-5.953 4.843-10.796 10.796-10.796h5.547c5.953 0 10.796 4.843 10.796 10.796v58.199c0 5.952-4.843 10.795-10.796 10.795h-5.547c-1.812 0-3.529-.432-5.106-1.282-1.293-3.311-3.241-6.295-5.689-8.791v-58.921zm-31.343 2.53h5.548c5.952 0 10.795 4.843 10.795 10.796v38.029c-1.173-.162-2.369-.253-3.586-.253h-23.552v-37.776c0-5.953 4.843-10.796 10.795-10.796zm126.416 107.054h5.547c2.054 0 4.051-.249 5.968-.704v17.944c0 15.497-6.536 30.041-18.021 40.298h-125.876v-18.26c0-.01 0-.021 0-.031-.038-.1.055-6.109-5.861-7.428-16.194-3.624-27.505-17.746-27.505-34.34v-16.883c0-13.276 10.801-24.077 24.077-24.077h28.013c6.096 0 11.055 4.959 11.055 11.055 0 4.583-2.758 8.624-7.025 10.294l-32.986 12.911c-3.857 1.51-5.761 5.86-4.251 9.718s5.862 5.758 9.718 4.251l32.987-12.911c7.98-3.124 13.705-9.769 15.736-17.773 1.369.223 2.756.348 4.148.348h5.547c4.536 0 8.8-1.181 12.508-3.246 3.72 9.68 13.11 16.571 24.084 16.571h5.547c4.678 0 9.065-1.258 12.852-3.444 3.933 9.224 13.093 15.707 23.738 15.707z"/></g></g></svg>